<svg xmlns="http://www.w3.org/2000/svg" viewBox="0 0 361.2 103.9"><path d="M286.2 0c0 .2 0 .5-.1.7 0 .1-.2.2-.2.2-.1 0-.2-.1-.2-.2-.1-.2-.1-.5-.1-.7h.6zM297.6 99.9h-8.3c-.7 0-1.3.1-1.8.5-.6.4-1.2.5-1.9.5h-23.9c-.5 0-.9.1-1.2.5-.3.4-.7.5-1.2.5-.4 0-.8.1-1 .5-.2.3-.5.4-.9.4h-1c-.6 0-1 .2-1.2.8-.1.2-.3.3-.5.3h-.6c-.3 0-.5-.1-.6-.4-.2-.5-.6-.8-1.1-.8-.4 0-.7-.1-1-.5-.2-.3-.4-.4-.7-.5-.5-.1-.9-.2-1.2-.6-.3-.3-.7-.4-1.1-.4h-12.1c-.4 0-.9-.1-1.3-.1h-.7c-.4 0-.9.1-1.3.1h-8.4c-.4 0-.9.1-1.3.1h-.6c-.5-.1-1 0-1.4.4l-.1.1c-.2.2-.3.2-.6.1-.1 0-.1-.1-.2-.1-.3-.2-.6-.2-.9 0-.1.1-.2.2-.3.2-.3.2-.5.3-.8.2-.4-.1-.7 0-1.1 0-.7.1-1.5.1-2.2 0-.2 0-.5-.1-.7-.3-.5-.3-1-.4-1.5-.5-.7-.1-1.3-.1-2-.1H197c-.6 0-1.1 0-1.7-.2-.3-.1-.6-.1-.9 0-.2.1-.4 0-.6-.1-.4-.4-.9-.5-1.5-.3-.3.1-.6.1-.9-.1-.3-.1-.6-.2-.9-.1-.3.1-.7.1-1 0-.3-.1-.7-.1-1-.1h-11.4c-.4 0-.7.1-1 .4-.5.4-1.1.6-1.8.6h-15.2c-.5 0-1 0-1.5.1-.2.1-.4 0-.6 0-.6 0-1.1 0-1.7.2-.2.1-.4.1-.6 0-.5-.1-.9-.1-1.3.1-.2.1-.4.1-.6 0-.4-.2-.7-.2-1.1-.2-.4 0-.8-.1-1.1-.2-.4-.1-.8-.2-1.3-.2h-2.2c-.5 0-.9 0-1.4.1-.3.1-.7.1-1 0-.4-.1-.7 0-1 .3l-.3.3c-.1.1-.3.1-.4 0-.1-.1-.3-.2-.4-.3-.3-.2-.4-.2-.7 0-.1.1-.2.1-.2.2-.3.2-.6.2-.9 0-.1 0-.1-.1-.2-.1-.2-.2-.4-.2-.7 0-.1 0-.1.1-.2.1-.3.2-.5.1-.7-.1-.4-.4-.9-.5-1.5-.5h-8.4c-.4 0-.8-.1-1.1-.4-.3-.3-.6-.4-1-.4-.5 0-1 0-1.5-.1h-7.7c-.3 0-.6.1-.9.4-.1.1-.2.1-.2.2-.3.3-.6.4-1 .2-.3-.1-.6-.1-.9 0-.4.1-.7.2-1.1.2h-6.6c-.6 0-1.2-.1-1.6-.6-.3-.3-.7-.4-1-.4H91.2c-.4 0-.8.1-1 .4-.4.4-1 .6-1.5.6h-8.9c-.5 0-1-.1-1.5-.3-.5-.2-1-.4-1.5-.5-.4-.1-.6-.4-.4-.8.1-.2.2-.3.3-.5.2-.3.2-.5-.1-.8-.4-.3-.8-.6-1.2-.8-.6-.3-1.4.2-1.5.8-.1.5-.2 1-.1 1.5.1.3 0 .6-.2.8-.2.3-.7.4-1 .3-.2-.1-.3-.2-.3-.4s0-.4-.1-.6c-.2-.8-1.1-1.2-1.8-.9-.3.1-.5.4-.6.7v.6c-.1.4-.3.6-.6.6H57.3c-.4 0-.7-.1-.9-.4l-.3-.3c-.2-.2-.4-.3-.7-.3h-1.3c-.4 0-.7-.1-1-.3-.4-.3-.8-.5-1.3-.7-.3-.1-.3-.4-.1-.7l.3-.3c.4-.4.4-.9.3-1.3 0-.1-.1-.3-.2-.4-1 .2-1.1.2-1.2 0-.1-.1-.2-.3 0-.4l.9-.9c.2-.1.4-.1.6 0 .2.1.3.2.4.4.2.2.5.3.7.3h.7c.6 0 1.1.1 1.5.4.7.5 1.5.6 2.4.7h2c.5 0 .8.1 1.1.5.3.4.7.4 1.1 0l.2-.2c.2-.3.5-.4.9-.5.9-.1 1.8-.1 2.7 0 2.1.3 4.2.2 6.3.2.4 0 .8 0 1.1-.1.5-.1 1-.1 1.5 0 .4.1.8.1 1.1.1h5.7c.5 0 1 0 1.4-.2.4-.1.8-.1 1.2-.1.3 0 .6.1 1 .1.5.1.7.5.5.9-.1.1-.2.2-.2.3-.2.2-.4.5-.5.8-.1.3-.2.5-.4.7-.1.1-.2.1-.3.2-.2.2-.3.4-.2.6.2.2.5.4.7.3h.1c.4-.3.9-.4 1.4-.4.3 0 .5-.2.6-.5.1-.3.3-.6.7-.8.4-.2.9-.4 1.4-.3.9.2 1.4-.3 2-.8.1-.1.2-.2.2-.3.2-.4.6-.6 1.1-.6h1.8c.4 0 .7 0 1 .3.4.3.7.3 1.1 0 .4-.3.7-.3 1.2-.3H105.3c.7 0 1 .1 1 .9 0 .7.3 1.2.9 1.7.4.4.9.4 1.4.3.5-.1.8-.5.9-1 0-.3 0-.6-.2-.8-.1-.2-.3-.3-.4-.5-.1-.2 0-.5.3-.6h.3c.4 0 .9.1 1.3.1h23.8c.4 0 .7.1 1 .4.5.5 1 .6 1.6.6H143.8c.7 0 1.4-.1 2-.5.2-.1.4-.2.6-.2.8 0 1.5-.2 2.3-.2h29.7c.4 0 .8-.1 1.1-.3.3-.2.6-.3 1-.2.3.1.6.1.9-.1.3-.2.6-.2.9-.2h3.1c.4 0 .7.1.9.4.3.3.7.4 1.2.5 2 .2 4 .1 6 .1h27.2c.6 0 1.1 0 1.7.1.7.1 1.4.1 2 0 .5-.1 1-.1 1.5-.1H243c.8 0 1.6-.1 2.3-.2.4-.1.7-.2 1.1-.4.4-.2.9-.2 1.3 0 .9.4 1.9.6 2.9.6H257.5c.3 0 .5.1.7.3l.2.2c.3.3.4.3.8 0 .1-.1.2-.2.3-.2.2-.1.4-.1.6 0 .1.1.2.1.2.2.3.2.6.3.9.2.5-.2 1-.1 1.5.1.3.1.5.1.8.1h3.2c.6-.1 1.1-.2 1.7-.1.4 0 .8-.1 1.1-.4.2-.3.6-.4.9-.4.4 0 .7-.1 1.1-.1h.9c.4 0 .8.1 1.1.1h3.4c.8 0 1.6-.1 2.3-.2.4-.1.7-.1 1 0h.2c.9.1 1.9.2 2.8.2h4.5c.8 0 1.6-.1 2.3-.7.3-.2.6-.3.9-.3.9-.2 1.8-.1 2.7-.1H307c.5 0 .9-.1 1.2-.5.3-.4.7-.5 1.1-.5h.6c.3 0 .6-.1.9-.4.4-.4.8-.6 1.4-.6.4 0 .7-.2.9-.5.2-.3.5-.4.9-.6.3-.1.6-.3.8-.5.4-.3.8-.4 1.3-.5.7-.1 1.2.2 1.4.8 0 .1.1.2.1.2.2.5.1.7-.5.7h-1.3c-.5 0-.7.2-.8.7v.3c0 .4-.1.7-.5.9l-.3.3c-.2.3-.5.6-.8.8-.5.4-.5.9 0 1.3.1 0 .1.1.2.1.1.1.2.2.1.3-.1.1-.2.2-.3.2h-.8c-.6-.1-1.2.1-1.6.6-.3.3-.6.4-1 .4h-1.8c-.5 0-.8-.1-1.1-.6-.1-.3-.4-.4-.7-.4-.4 0-.6.4-.4.8l.3.3.3.3c.1.1 0 .4-.1.5-.1 0-.2.1-.3.1h-.7c-2.4-.1-5.2-.1-7.9-.1zm-26.5-1.8c0 .4.1.8.5 1 .2.1.4.1.6 0 .6-.4.7-1.5.1-2-.2-.2-.4-.2-.7 0-.4.2-.5.6-.5 1zm-217.5.2c.2 0 .3 0 .5-.1.3-.1.5-.3.5-.6 0-.5-.4-1-.9-1-.3 0-.5.1-.8.3-.3.1-.4.5-.3.8.1.3.3.5.5.5.1.1.3.1.5.1zm5 .5c0-.1 0-.3-.1-.5-.2-.4-.7-.5-1.1-.2-.4.4-.5 1.1-.2 1.5.3.3.6.4 1 .2s.5-.5.4-1zM95.6 11.8h-7.9c-.5 0-1-.1-1.5-.2-.7-.2-1.4-.3-2-.6-.4-.2-.7-.1-1.1-.1H71.3c-.9 0-1.7.2-2.5.6-.6.3-1.2.4-1.8.4H62.3c-.3 0-.6-.1-.9-.4l-1.2-1.2c-.3-.3-.6-.4-.9-.4-.3 0-.5.1-.7.3l-.2.2c-.4.4-.8.6-1.4.5h-1.9c-.5 0-.9.1-1.2.5-.3.4-.7.5-1.2.5-.3 0-.7.1-1 .1-.3 0-.5-.2-.3-.5.1-.2.2-.5.4-.7.2-.3.1-.5 0-.8-.3-.3-.5-.7-.9-.9-.7-.5-1.7-.1-1.9.8-.2.6-.1 1.2.2 1.8.1.3.4.4.7.5.3 0 .5 0 .8.1.1 0 .2.1.3.2.1.1 0 .3-.1.4-.2.2-.4.2-.6.2-.4 0-.8.1-1.1.5-.2.2-.5.4-.8.3-.5 0-.9.2-1.2.5-.3.4-.7.5-1.2.6-.4 0-.7.2-.9.5-.2.3-.5.5-1 .5s-.8.1-1.1.5c-.1.2-.4.4-.7.4-.2 0-.5.1-.6.2-.6.5-1.4.8-1.8 1.5-.6.5-1.1 1.2-1.8 1.6-.2.1-.3.2-.5.3-.1.1-.2.2-.4.3-.7.3-1.2.8-1.7 1.2-.1 0-.1.1-.2.2-.7.9-1.6 1.5-2.4 2.3-.7.8-1.5 1.5-2.3 2.3l-2.4 2.4c-.4.4-.6.8-1 1.1-.2.1-.3.4-.3.6-.1.5-.3.9-.7 1.3-.3.3-.6.7-.9 1.1-.2.3-.3.6-.3.9v.8c0 .4-.1.8-.4 1.1-.6.6-.7 1.3-.7 2v3.5c0 .4-.1.8-.4 1-.5.5-.6 1-.6 1.6v1.3c0 .5-.1.9-.4 1.2-.4.4-.6.9-.5 1.5V50c0 .4-.1.8-.4 1.1-.4.4-.6.9-.6 1.5V59c0 .4.1.8.4 1.1.5.4.6.8.5 1.4v1.6c0 .5.1.9.4 1.2.5.6.6 1.2.6 1.9v1.1c0 .7.1 1.3.6 1.8.2.2.3.6.3.9v.4c.1.5.2 1 .7 1.3.3.2.4.5.4.8v.2c0 .9-.1 1.1.7 1.9.4.7 1 1.3 1.2 2.1.1.3.3.5.5.7l.6.6c.2.2.3.3.5.4l.5.5.6.6.4.4.6.6.4.4c.2.3.4.5.7.7l.3.3c.3.5.7 1.1.9 1.6.2.3.3.6.6.9.6.6 1.2 1.3 1.8 1.9.3.3.7.6 1 1 .2.2.5.3.7.3.5 0 .9.2 1.1.6.1.2.4.3.6.3h.4c.3 0 .5.1.7.3l.3.3c.2.2.4.3.6.3.2 0 .5.1.7.1.5.1.9.2 1.3.6.3.3.7.3 1 .4.5.1.9.2 1.2.6.2.3.6.4.9.4.3 0 .6.2.9.4.2.2.4.3.7.5.1.1.2.2.4.3.1.1 0 .3-.1.4-.1 0-.3.1-.4.1-.5 0-.9 0-1.4-.1-.4-.1-.8 0-1.1.2-.4.2-.4.8 0 1 .6.3 1.1.7 1.6 1.1.2.2.4.4.5.6.1.4.3.7.6 1 .2.2.3.4.2.7 0 .2-.2.4-.4.4-.4 0-.7-.1-.9-.4-.4-.5-.9-.7-1.5-.7-.5 0-.9-.1-1.3-.5-.4-.3-.9-.5-1.4-.5h-.4c-.3 0-.6-.1-.8-.3-.4-.5-1-.6-1.6-.6-.4 0-.8 0-1.1-.3-.4-.3-.7-.7-1.1-1-.3-.4-.7-.7-1.2-.8-.1 0-.2 0-.2-.1-.5-.4-1.1-.8-1.6-1.2-.6-.6-1.2-1.1-1.8-1.8-.6-.7-1.2-1.4-1.9-2-.2-.2-.3-.4-.4-.6-.4-.6-.8-1.2-1.2-1.7-.1-.2-.3-.4-.5-.5l-2.7-2.7c-.3-.3-.6-.7-.7-1.1-.1-.4-.3-.7-.6-1-.7-.8-1.3-1.5-2-2.3-.2-.3-.4-.6-.4-1 0-.3-.1-.6-.4-.7-.3-.2-.4-.5-.5-.8-.1-.4-.3-.9-.7-1.2-.2-.2-.3-.5-.3-.8-.1-.5-.2-.9-.6-1.3-.2-.2-.3-.5-.3-.8 0-.5-.2-.9-.5-1.2-.3-.2-.4-.5-.4-.9 0-.5-.2-.9-.5-1.1-.4-.3-.5-.8-.5-1.2v-1.9c0-.3 0-.6-.1-.9-.1-.4-.2-.7-.4-.9-.3-.2-.4-.6-.4-.9-.1-.5-.1-1-.1-1.4V51c0-.7.1-1.3.6-1.8.4-.5.5-1.1.5-1.7v-1.2c0-.3 0-.5.3-.7.6-.6.7-1.3.7-2v-1.7c0-.5.1-.9.5-1.2.4-.3.5-.7.5-1.2v-.7c0-.3.1-.6.4-.9l.3-.3c.2-.2.3-.4.3-.7v-.2c0-.4.1-.7.5-.9.4-.2.5-.5.5-.9 0-.5.1-.8.5-1.1.3-.2.4-.4.4-.7 0-.6.2-1 .7-1.3.1-.1.2-.3.3-.5.1-.2.1-.4.1-.5 0-.5.2-.8.6-1.1.1-.1.2-.3.3-.5.1-.2.1-.5.1-.7 0-.3.1-.5.4-.7.4-.3.6-.6.6-1.1 0-.4.2-.7.5-.9.2-.1.4-.4.5-.6.1-.2.3-.4.4-.6.2-.2.4-.5.5-.8.1-.4.4-.7.6-1 .5-.6 1.1-1.1 1.6-1.7.1-.1.2-.2.4-.3.1-.1.2-.1.3-.3.4-.6 1-.9 1.4-1.4.1-.1.3-.2.5-.3.5-.3 1.1-.6 1.6-1 .2-.1.3-.2.4-.4.5-.5 1-.9 1.4-1.4.2-.3.6-.5.9-.8.1-.1.3-.2.5-.2.6-.1 1-.4 1.4-.7.6-.5 1.3-.9 2-1.2.4-.2.8-.4 1.1-.7.2-.3.5-.5.9-.4.4 0 .7-.1.9-.4.3-.4.8-.6 1.3-.6.4 0 .7-.2 1-.4.4-.4.8-.6 1.4-.5.6 0 1.1-.1 1.5-.6.2-.2.5-.3.8-.4.6-.1 1.1-.2 1.7-.1.5.1 1 0 1.3-.4.3-.4.7-.5 1.2-.5h.8c.5-.1 1-.1 1.4-.5.4-.4.9-.5 1.4-.5h1.4c.5 0 1 0 1.5-.1s1-.1 1.4 0c.3.1.5.2.7.5.3.6.8 1.1.9 1.8 0 .2.2.3.3.5.2.3.5.5.7.8l.2.2c.5.4 1.1.2 1.2-.4 0-.2 0-.4.1-.6V8v-.6c0-.1.1-.2.2-.3.4-.2.9-.6 1.4-.3.5.2.9.1 1.3-.2.3-.3.7-.5 1.2-.4.2.1.5 0 .7-.1.5-.1 1.1-.2 1.6-.2h5c.6 0 1.2.1 1.7.4 1 .5 2.1.7 3.2.7h6c.4 0 .8-.1 1.1-.1.5-.1 1.1-.1 1.6 0 .1 0 .3.1.4.1.5 0 .9.2 1.3.6.3.4.6.3 1 0 .1-.1.2-.1.2-.2.2-.2.5-.3.8-.3h.6c.6 0 1.1.1 1.4.5.3.3.6.4 1 .4H106.7c.4 0 .8.1 1.2.1h.7c.2 0 .3-.1.5-.1.1 0 .3.1.3.2.1.1 0 .3-.1.3-.7.6-.7.6 0 1.3.3.3.3.8 0 1.1-.5.4-1 .7-1.6.7H106c-.5 0-1 .1-1.4.5-.3.4-.8.5-1.3.5h-3.7c-1-.8-2.5-.8-4-.8zm-25.2-3c-.2.1-.4.1-.6.2-.2.1-.4.2-.4.4 0 .3 0 .5.3.7.5.4 1.3.1 1.6-.5.1-.2 0-.5-.2-.6-.3-.1-.5-.2-.7-.2zm-2.2-.3c0-.2-.2-.4-.4-.4s-.3.2-.3.3c0 .2.2.4.4.4.2.1.3-.1.3-.3zM252.4 6.3h9.6c.5 0 1 0 1.5-.1.4-.1.7-.2 1-.5.2-.3.5-.3.9-.4.3 0 .6-.1 1-.1h1.1c.2 0 .3.1.5.1.4 0 .8.1 1.1.4.4.4.9.5 1.5.5h1.2c.3 0 .6.1.9.3.6.5 1.3.7 2 .7h2.4c.4 0 .9.1 1.3.1h1c.4 0 .8-.1 1.1-.1h3.5c.6 0 1.1-.1 1.5-.6.2-.3.6-.4.9-.4h19.5c.3 0 .7.1.9.3.4.5 1 .6 1.5.6.4 0 .7.1.9.4.2.4.6.5 1 .5s.8.1 1 .5c.1.2.4.4.7.4.4.1.8.3 1.1.6.3.3.7.5 1.1.4.5 0 .8.1 1.1.5.3.4.7.5 1.1.5h.5c.4 0 .8.1 1.1.5.4.5.9.7 1.5.7.3 0 .6.1.8.4.3.4.6.6 1.1.6.4 0 .7.1.9.4.1.2.3.3.5.4.2.1.4.3.6.4.4.4.8.6 1.3.7.2 0 .3.2.5.3 1 1 2 2 3.1 2.9.7.6 1.4 1.3 2 2 .5.6 1 1.2 1.5 1.6.2.2.3.4.5.5.1.2.3.4.4.6.3.3.4.7.5 1.1.1.3.2.5.5.7.6.3.8 1 1.3 1.4.1.1.2.3.2.5 0 .5.2.9.7 1.2.2.1.3.3.4.5.1.1.2.3.3.5.4.4.6.8.7 1.3.1.3.3.7.5.9.2.3.3.6.4 1 0 .3.1.6.1.9 0 .3.2.6.4.8.3.3.4.6.4 1v.4c.1.3.2.6.5.7.5.2.6.6.6 1 0 .3-.1.5-.1.8 0 .3-.1.6-.1.9 0 .5.2 1 .7 1.3h.1c.4.2.6.6.5 1.1-.1.5-.1 1-.1 1.5 0 .7.2 1.3.6 1.8.3.3.4.7.4 1.1v5.8c0 1 .1 1.9.2 2.8 0 .3.1.5.3.7.6.8.6 1.6.1 2.4-.4.7-.6 1.4-.5 2.3.1.4-.1.8-.5 1.1-.4.4-.9.8-1.3 1.2-.1.1-.2.3-.2.4-.1.1-.1.3-.1.4-.1.6-.4.9-1 .9-.1 0-.2 0-.3.1-.3.2-.6.4-.6.8-.1.4-.1.7-.2 1.1 0 .4 0 .8.3 1.1.3.3.7.4 1 0 .4-.6 1-1.2 1.1-1.9 0-.2.1-.3.2-.5.1-.1.2-.2.3-.2.1 0 .2.1.3.2 0 .1.1.2.1.2v.6c-.1.5-.1 1-.1 1.4 0 .4-.1.7-.4.9-.3.3-.7.6-1 .9-.6.5-.6.9 0 1.4.5.4.5.7.1 1.1-.4.5-1.3.7-1.9.4-.1-.1-.3-.2-.4-.3-.3-.5-.7-.6-1.2-.6h-1c-.1 0-.3 0-.4-.1-.2 0-.2-.3-.1-.4.1-.2.3-.3.4-.5.3-.3.5-.7.8-1 .2-.3.2-.6.1-1-.1-.1-.1-.3-.2-.4-.2-.4-.3-.8-.4-1.2-.1-.5.2-.9.7-1h.4c.4 0 .7-.3.8-.7.1-.3.1-.6.1-1v-2.3c0-.5.1-.9.5-1.2.3-.2.4-.5.4-.8v-1.1c0-.4.1-.8.4-1.1.5-.5.6-1.1.6-1.8V53c0-.3-.1-.6-.4-.9l-.3-.3c-.1-.1-.2-.3-.2-.4v-1.5c0-.2.2-.5.3-.6.3-.4.7-.7 1.1-.9.5-.3.6-.7.6-1.2 0-.1-.1-.3-.2-.4-.4-.3-.8-.6-1.3-.6-.4 0-.6.2-.7.5-.1.3-.1.6-.2.9 0 .1-.2.2-.3.3-.1.1-.3-.1-.4-.2-.1-.2-.1-.4-.1-.6 0-.2.1-.4.1-.6.1-.6 0-1.1-.4-1.6s-.6-1-.6-1.6v-1.9c0-.6-.2-1-.6-1.3-.4-.3-.5-.7-.4-1.1.1-.5.1-1 .1-1.5s-.2-1-.6-1.3c-.4-.3-.6-.7-.6-1.2 0-.3-.1-.6-.4-.9-.4-.3-.5-.7-.6-1.2 0-.3-.2-.6-.4-.7-.3-.2-.5-.5-.5-.9-.1-.5-.3-.9-.7-1.3-.4-.3-.7-.8-1.1-1.1-.2-.1-.3-.5-.3-.7-.1-.4-.3-.7-.5-1-.7-.9-1.6-1.7-2.4-2.6-.3-.3-.6-.5-1-.6-.5-.1-.8-.4-.9-.9-.1-.4-.3-.7-.7-1-.2-.1-.3-.3-.5-.4-.2-.3-.5-.5-.9-.5s-.8-.2-1-.5c-.2-.3-.5-.5-.8-.6-.2-.1-.5-.3-.7-.4-.2-.1-.5-.3-.7-.4-.4-.1-.7-.3-.9-.7-.2-.2-.4-.4-.7-.4-.4-.1-.7-.3-1.1-.6-.2-.1-.4-.3-.6-.4-.2-.1-.4-.3-.5-.5-.2-.2-.4-.4-.6-.5-.4-.2-.9-.4-1.2-.7-.1-.1-.3-.2-.4-.2-.3-.1-.5-.2-.7-.4-.3-.4-.7-.6-1.2-.7-.5-.1-.9-.3-1.2-.6-.3-.3-.8-.4-1.2-.5h-.3c-.5 0-.9-.1-1.2-.5l-.3-.3c-.5-.2-1-.1-1.2.4-.2.5-.5 1-.6 1.6-.2.6-.6 1.1-1.1 1.5-.2.2-.4.2-.7 0-.1-.1-.2-.1-.2-.2-.8-.8-.9-1.1-.8-2.1 0-.4.2-.7.6-.8.2-.1.4-.1.5-.2.1 0 .2-.1.4-.2.3-.2.3-.5 0-.8-.2-.2-.5-.3-.8-.3h-2c-.4 0-.7-.1-.9-.4-.2-.4-.6-.5-1-.5h-8.1c-.9 0-1.9.1-2.8 0-.5-.1-1 .1-1.4.2-.3 0-.5.2-.7.4-.1.2-.2.3-.4.4-.2.1-.3.3-.5.4-.3.2-.6.1-.7-.2-.1-.1-.1-.3-.2-.4-.1-.1-.1-.3-.2-.4-.2-.2-.4-.4-.7-.4-.3 0-.5.2-.6.5-.1.3-.1.6-.2.9-.1.4-.8 1-1.2.9-.2 0-.3-.1-.4-.2-.5-.3-.8-.6-.8-1.2V11c-.1-.5-.5-.8-.9-.7-.8.2-1.5.1-2.2-.1-.2 0-.4-.1-.6-.1-.6 0-1.3 0-1.9-.1-.4-.1-.8.1-1.2.1-.4 0-.8-.1-1.2-.1-.8.1-1.5.1-2.3.1-.4 0-.8.1-1.1.1h-4.2c-.5 0-1-.1-1.4-.1-.4 0-.8 0-1.1-.3-.3-.2-.6-.2-.9 0-.1 0-.1.1-.2.1-.2.2-.4.2-.7 0-.2-.2-.4-.4-.8-.4-.3 0-.5.3-.7.4-.2.2-.5.2-.8.1-.4-.3-.8-.2-1.2.1-.3.2-.7.3-1 .2-.3-.1-.6-.1-.9 0h-11.5c-.5 0-1 0-1.4-.3-.3-.2-.6-.2-.9 0-.4.2-.7.2-1.1.2-.5 0-1 0-1.4.1-.3.1-.6.1-1 0-.1 0-.2-.2-.2-.2 0-.1.1-.2.2-.2.2-.1.4-.1.6-.1 1-.2 1.6-1.1 1.2-2.1 0-.1 0-.1-.1-.1-.2-.5 0-.8.3-1.1.5-.4 1-.5 1.6-.5 3.3.3 6.6.3 9.9.3zM213 10.9H208.3c-.3 0-.6-.1-.8-.4-.2-.3-.5-.6-.7-.9-.1-.1-.2-.2-.4-.3-.4-.3-.8-.2-1.1.1-.4.6-1 1-1.3 1.6-.2.5-.7.7-1.3.7h-3.4c-.3 0-.7-.1-.9-.4-.5-.5-1.1-.6-1.8-.6h-24.5c-.6 0-1.1.1-1.5.5-.4.4-.9.5-1.5.5h-9.8c-.2 0-.4 0-.6-.1-.5-.2-1-.3-1.6-.1-.1 0-.3 0-.5-.1s-.3-.2-.5-.3c-.3-.2-.6-.3-1-.1-.3.2-.7.2-1.1.1-.4-.1-.8-.1-1.2.1-.5.2-1 .3-1.5.3h-.4c-.7.1-1.3.1-2-.1-.2-.1-.5 0-.7.1-.3.1-.7 0-.9-.2-.4-.5-.9-.5-1.5-.5h-28.3c-.5 0-.9 0-1.4-.1-.3-.1-.6 0-.9 0h-.4c-.1 0-.2-.1-.2-.2v-.3c.1-.2.3-.3.4-.4.2-.3.1-.6-.1-.8-.6-.6-.6-.7.1-1.2.1-.1.2-.1.2-.2.2-.3.5-.4.9-.4h1c.8 0 1.5-.2 2.1-.7.5-.4 1.1-.5 1.7-.4.6.1 1.2.1 1.9.1h7.5c.3 0 .5.1.7.3.1.1.2.2.4.3.2.2.5.2.8.1.1-.1.2-.1.3-.1.2-.1.5-.1.7 0 .5.4.9.2 1.3-.2.3-.3.7-.4 1.1-.4h33.6c.4 0 .9-.1 1.3-.1.3 0 .6-.2.8-.4.4-.4.9-.6 1.4-.6h1.5c.5 0 .9.1 1.3.4.4.3.9.5 1.4.6.6.1 1.2.1 1.8.1h7.5c.4 0 .8.1 1 .5l.1.1c.3.4.8.4 1-.1.3-.6.9-.9 1.4-1.1.3-.1.6-.2.9 0 .7.3 1.5.3 2.2 0 .3-.1.6 0 .9.1.4.1.8.2 1.2.4.4.1.8.1 1.2 0h.5c.3 0 .7.1 1 .1.7-.1 1.5 0 2.2-.1H203.7c.5 0 1.1 0 1.6.1.3.1.6 0 1 0H220.4c.4 0 .5.2.6.6V9c0 .4-.2.6-.5.8-.3.2-.5.3-.7.5-.1.1-.2.1-.3.1-.8.1-1.5.4-2.3.4-1.3.1-2.8.1-4.2.1zM334.1 74.9c0 .5-.1.7-.4.9-.1 0-.1.1-.2.1-.2.2-.4.4-.3.7.1.3.3.6.6.7.2 0 .4 0 .6.1.3 0 .6.1.8.3l.6.6c.2.3.2.4 0 .7-1 .9-1.9 1.9-2.9 2.8-.2.2-.4.5-.6.7-.2.3-.4.6-.6.8-.1.1-.2.2-.2.3-.3.6-.7 1.1-1.1 1.6-.2.3-.4.5-.7.8l-1.8 1.8c-.6.6-1.3 1.2-1.9 1.7l-.6.3c-.4.1-.7.4-1 .6-.8.6-1.4 1.3-2.1 2-.1.1-.1.2-.2.2-.5.3-1.1.7-1.7 1-.4.2-.7.4-1 .7l-.2.2c-.3.2-.5.2-.6-.2-.1-.3-.1-.6-.2-.9 0-.2.1-.4.3-.5.8-.3 1.1-.9 1-1.7v-1.3c0-.3.1-.6.3-.8.4-.4.8-.7 1.2-1.1l.1-.1c.4-.5.8-.9 1.2-1.3l.7-.7c.2-.2.3-.4.5-.6.5-.5 1-.9 1.5-1.4l1.2-1.2c.9-1 1.8-1.9 2.7-2.9.1-.1.1-.2.2-.3.5-.7.9-1.4 1.4-2 .4-.5.8-1 1.3-1.4.4-.4.7-.7.7-1.3 0-.7.7-1 1.3-.7.1.1.2.2.2.3 0 .4-.1.5-.1.5z"/><path d="M323.2 38.2c.5.1 1 .1 1.4.2h1c.3 0 .7-.1 1-.1.3 0 .5.2.6.5.1.5.4.8.7 1.2.4.4.2.9-.3.9-.7 0-1.1.4-1.6.8-.2.3-.6.4-.9.6-.3.1-.5.1-.8-.1-.2-.2-.5-.3-.6-.5-.4-.4-.8-.9-1.2-1.3-.2-.2-.4-.4-.6-.5-.2-.2-.3-.4-.4-.7 0-.5.2-.8.7-.9.4 0 .7 0 1-.1 0 .1 0 0 0 0zM28.2 73.8c-.3 0-.5-.1-.6-.4 0-.2-.1-.4-.1-.6 0-.5-.3-.8-.8-.9-.1 0-.2 0-.3-.1-.3-.1-.3-.2-.2-.5.1-.2.1-.3.2-.4.1-.3.1-.5-.1-.8-.1-.2-.3-.4-.5-.5-.2-.2-.3-.5-.2-.8 0-.2.3-.3.5-.2l.3.3c.2.3.5.4.8.4h1c.3 0 .6.1.8.3.3.2.5.5.8.7.5.4.5 1 .1 1.5-.4.4-.7.9-.9 1.4-.2.4-.4.6-.8.6zM326.1 35.8h-.4c-.4 0-.8-.3-.9-.7-.1-.2-.1-.4-.1-.6-.1-.5 0-.9.3-1.2.3-.3.4-.6.7-.9.1-.2.4-.1.5.1.1.3.2.5.2.8 0 .4.2.7.4.9.2.2.3.5.4.8.1.6-.2.9-.8 1-.1-.2-.2-.2-.3-.2zM8.5 42.5v-.4c0-.5.2-.8.7-.8h1.2c.3 0 .4.4.2.6-.3.4-.5.8-.6 1.3 0 .1-.1.2-.2.4-.2.3-.5.3-.8.3-.3-.1-.5-.3-.5-.6 0-.4.1-.6 0-.8.1 0 0 0 0 0zM4.9 70.8h-.7c-.6-.1-.7-.5-.4-1 .2-.3.4-.5.7-.5.3-.1.6-.1 1 0s.7.7.5 1.2c-.1.2-.2.3-.4.3-.2.1-.5.1-.7 0 0 .1 0 .1 0 0zM319.2 44.6c0 .2 0 .4-.1.6 0 .2-.4.3-.5.2-.4-.3-.8-.7-1.1-1.1-.3-.4 0-1 .6-1.1h.5c.3 0 .5.2.6.6v.8zM9.5 47c0-.7.7-1 1.3-.6.6.3.6 1.2 0 1.5 0 0-.1 0-.1.1-.6.1-1.2-.4-1.2-1zM1.5 45.9c-.4 0-.7-.1-.9-.4-.2-.3-.2-.7.1-1 .2-.2.6-.2.9 0 .2.1.4.3.5.5.2.4 0 .8-.4.9h-.2zM237.7 7.1c.3.1.6.1.9.2.3.1.4.3.1.6-.2.2-.4.3-.6.4-.1.1-.3.1-.4.1-.4-.1-.7-.2-1-.5-.2-.2-.1-.6.2-.6.3-.1.5-.2.8-.2zM9.4 68.9c-.5 0-.8-.4-.6-.9.2-.4.5-.6.9-.7.2 0 .3 0 .4.2.2.3.3.6.1.9-.2.4-.5.5-.8.5zM339.5 31.4c0-.2 0-.4.1-.7 0-.2.3-.3.5-.1.5.5.5 1.5 0 2-.1.1-.3.1-.4 0-.1-.1-.2-.2-.2-.4v-.8zM1.2 77c0 .3-.1.5-.3.6-.2.1-.4 0-.5-.3-.2-.1-.3-.3-.4-.5-.1-.2 0-.4.3-.5.5-.2.9.2.9.7zM275.5 17.9c0 .3-.2.6-.6.8-.1.1-.3 0-.3-.1-.2-.5.2-1 .7-1 .1-.1.2.1.2.3zM327.5 37c0-.1 0-.2.1-.3 0-.1.1-.3.3-.3.1 0 .2 0 .3.1.3.3.2.7-.2.9h-.3c-.1-.1-.1-.2-.2-.4zM324.5 48.9c0 .2-.2.4-.5.3-.3 0-.4-.2-.4-.5 0-.2.2-.4.4-.4.3.1.5.3.5.6zM315.4 97c-.1 0-.2-.1-.3-.1-.1-.1-.2-.2-.1-.4.1-.3.4-.4.7-.3.2 0 .3.2.3.4 0 .1-.1.2-.2.3-.2 0-.3 0-.4.1zM311.3 16.9c-.1 0-.2 0-.3-.1-.1 0-.2-.1-.2-.3 0-.1.1-.2.2-.2.3-.1.6-.1.8.2.1.1.1.3-.1.3s-.3 0-.4.1zM31.9 61.7h-.1c-.2-.2-.2-.5 0-.7h.1c.1 0 .3.2.3.3 0 .2-.1.4-.3.4zM336 11.1c.1 0 .2.1.3.2 0 .2-.1.4-.3.4-.2 0-.2-.1-.3-.2-.1-.2.1-.4.3-.4zM19.4 83.8c-.1 0-.2-.1-.2-.1l-.1-.1s0-.1.1-.1c.1-.1.3-.1.5 0 .1 0 .1.1.1.2s-.1.1-.1.2c-.2-.1-.2-.1-.3-.1zM332.9 8.5l.2.2c.1.1-.1.3-.2.3s-.2-.1-.2-.2c-.1-.1 0-.3.2-.3zM110.7 8.3c.1.1.2.1.2.1.1.1 0 .2-.2.2-.1 0-.1-.1-.1-.1s.1-.1.1-.2zM21.9 82.4c.1.1.1.1.1.2s-.1.1-.1.2c0-.1-.1-.1-.1-.2s0-.1.1-.2zM113.9 9.8c-.1-.1-.1-.1-.1-.2l.1-.1c.1 0 .1.1.1.1 0 .1-.1.1-.1.2zM113 8.5c-.1.1-.2.1-.2.1 0-.1-.1-.1-.1-.2l.1-.1.2.2z"/></svg>