<svg data-name="Layer 1" xmlns="http://www.w3.org/2000/svg" viewBox="0 0 356.69 235.85"><path d="M73.54 235.85c0-.79-.09-1.57-.11-2.36s.31-1.14 1-1.14a1.83 1.83 0 011.12.42c.35.31.2 1.29-.11 1.8s-.42.85-.62 1.28zM0 150.06l.82-.06c1.09-.11 1.49.14 1.87 1.14a1 1 0 01-.13 1.1 1.06 1.06 0 01-1.16.31c-.46-.13-.94-.2-1.41-.29q.01-1.11.01-2.2zM339.57 42.46a5.87 5.87 0 001 0 1.23 1.23 0 00.53-.34 2.86 2.86 0 013.24-.66 2.43 2.43 0 003.24-2.41c.05-1.78.18-1.9 2-1.87 1.12 0 1.26.15 1.44 1.3.12.76.53 1.06 1.28.87.35-.09.69-.25 1-.36a2.35 2.35 0 011.86.07c1.45.72 1.86 1.88 1.21 3.71a7.73 7.73 0 01-3.69 4 2.53 2.53 0 01-1.15.22 10.26 10.26 0 00-4.24 1 4.93 4.93 0 01-3.65.36 2.36 2.36 0 00-2.58.68 2.39 2.39 0 01-1.81.72h-1.28c-1 .07-1.44.45-1.63 1.5v.09c-.37 2.13-.7 4.27-1.13 6.38-.28 1.4-.72 2.76-1.08 4.15a2.36 2.36 0 00-.15.8 6.23 6.23 0 01-1.12 4 5.23 5.23 0 00-1.19 3.05c0 .26-.24.55-.41.8a3.54 3.54 0 00-.66 2.6 2.23 2.23 0 01-1 2.46 1 1 0 00-.39 1 12.18 12.18 0 01-.55 5c-.16.49-.26 1-.38 1.5a3.6 3.6 0 01-.27 1.05c-.81 1.28-.76 2.74-.89 4.16a2.7 2.7 0 00.29 1.4 1.54 1.54 0 01-.29 1.91c-.52.59-1 1.22-1.49 1.84a2.32 2.32 0 00-.43 1.72c.06.72 0 1.45 0 2.18v1.64a3 3 0 01-.79 2.35 1 1 0 00-.17 1.33 1.75 1.75 0 01.12 1.66 6.43 6.43 0 00-.33 4.38 1 1 0 010 .45c-.29 1.83-.57 3.67-.89 5.49-.09.51-.27 1-.39 1.5a2.5 2.5 0 001.11 2.85 2.38 2.38 0 002.89.08c1.44-1 2.91-2 4.29-3.1a23.32 23.32 0 004-4.59c.72-1 1.57-1.86 2.38-2.77a1.53 1.53 0 011.36-.37 4.34 4.34 0 001.26 0c.55-.14.68-.59.36-1.07-.18-.27-.4-.53-.67-.88l1.36-1.82c1.25-1.65 2.54-3.27 3.74-5 .84-1.19 1.55-2.47 2.3-3.72a.68.68 0 00-.53-1.09 7.36 7.36 0 00-1.18 0c-.5 0-1-.05-1.2-.62a1.37 1.37 0 01.32-1.52c.63-.58 1.26-1.15 1.84-1.77a1.65 1.65 0 011.46-.59 3.34 3.34 0 003.81-1.77 3.46 3.46 0 011.1-1.08 1.41 1.41 0 012.34 1c.31 1.56-.4 2.83-1.16 4.11s-1.31 2.46-1.91 3.72-1 2.46-1.59 3.68c-.78 1.74-1.92 3.32-2.38 5.22a2 2 0 01-.38.72c-.69.88-1.42 1.74-2.11 2.62a3.33 3.33 0 00-.36.81c-.23.58-.43 1.19-.7 1.75s-.72 1.41-1.12 2.09c-1.2 2-2.42 4-3.61 6a3.25 3.25 0 01-1.63 1.4 8.7 8.7 0 00-1.06.53 1.48 1.48 0 00-.81 1.53 1.91 1.91 0 01-1.08 2.1 2.43 2.43 0 00-.74.8 19.57 19.57 0 01-4.23 4.27c-1.36 1.12-2.63 2.36-3.93 3.55-1 .9-1.93 1.85-3 2.67a7.55 7.55 0 01-3.75 1.3c-.36 0-.73 0-1.1.06a3.91 3.91 0 01-3.15-.9c-.84-.7-1.71-1.38-2.49-2.14a8.65 8.65 0 01-1.64-2.69c-.94-2-.92-4.28-1.75-6.32a3 3 0 01.07-2.49 1.49 1.49 0 00.05-1 2 2 0 01.19-1.58 3.78 3.78 0 00.45-3.07 2.47 2.47 0 010-1 15 15 0 01.3-1.71c.33-1.3.95-2.54.74-4a1.49 1.49 0 01.38-.91 5.66 5.66 0 00.88-3.21 13.46 13.46 0 01.39-2.41c.63-2.53 1.31-5.06 2-7.58 0-.12 0-.24.07-.36.56-1.77 1.14-3.53 1.69-5.3.25-.81.44-1.65.66-2.47.14-.52.29-1 .46-1.56s.33-.74-.12-1.12a1.4 1.4 0 00-.41.27c-.76 1-1.51 2.05-2.24 3.1-1 1.47-2.07 2.94-3 4.45-.6.94-1 2-1.62 2.95a50.79 50.79 0 00-2.55 4.82c-.92 1.7-1.5 3.6-3 5a4.9 4.9 0 00-1.06 1.7 11.12 11.12 0 01-1.82 2.6 7 7 0 00-.69 1.35 9.17 9.17 0 01-.58 1.21c-1.58 2.31-3.18 4.6-4.78 6.9-.49 1.82-2.15 2.86-3 4.44-.58 1.1-1.21 2.18-1.82 3.26a13.13 13.13 0 01-1 1.55.94.94 0 01-.75.34.92.92 0 01-.48-.66c-.09-.62-.09-1.25-.86-1.44a1.51 1.51 0 00-1.63.75 12.67 12.67 0 00-1.18 1.47c-.42.75-.05 1.3.82 1.34.39 0 .79-.08 1.18-.1a1 1 0 011.17.62 11.27 11.27 0 01-.75 1c-1.56 1.66-3.15 3.31-4.71 5-.31.33-.53.74-.82 1.09a11.94 11.94 0 01-.88.83l-.36-1.14a1 1 0 00-1-.73c-.49 0-1 .17-1.08.67a2.71 2.71 0 00.17 1.37c.06.16.53.22.81.23a6.3 6.3 0 001.08-.15 5.58 5.58 0 01-.35 1.1 4.09 4.09 0 01-.72.82c-1 1-2.08 2-3.12 3a22.18 22.18 0 01-4.73 3.24c-1 .57-2.06 1.17-3.1 1.73a2.73 2.73 0 01-2.21.31c-.06-.32-.13-.66-.17-1s-.15-.87-.71-.9-.69.37-.68 1 .06.66 1 1.3a.73.73 0 01-.47 1 6.37 6.37 0 01-1.57.48c-1.21.16-2.42.28-3.63.35a7.82 7.82 0 01-7.72-5.06 13 13 0 01-1-3.28c0-.26-.27-.49-.49-.86a7.3 7.3 0 00-.76.8c-.63.93-1.27 1.86-1.84 2.83a15.44 15.44 0 01-3.12 3.44c-.52.47-1.05.93-1.6 1.36a2.51 2.51 0 01-1.72.45 8.15 8.15 0 00-2.24.21 14.85 14.85 0 01-4.63.27 1.31 1.31 0 01-.53-.13c-2.25-1.2-4.66-2.19-6.23-4.34a7.06 7.06 0 01-1.51-3.18c-.31-2.23-.65-4.46-1-6.7a13.22 13.22 0 010-4.37 3.74 3.74 0 00-.13-1.7c-.22-.75-.85-.83-1.26-.18s-.84 1.54-1.25 2.32-.89 1.73-1.34 2.59c-.34.64-.71 1.27-1 1.93-.66 1.4-1.27 2.82-2 4.21a5.89 5.89 0 01-1 1.49c-1.27 1.31-2.6 2.56-3.9 3.85a3.44 3.44 0 00-.68.85 2.21 2.21 0 01-1.94 1.29 6.45 6.45 0 00-1.5.39 5.19 5.19 0 01-3.92-.08 7.63 7.63 0 00-1.39-.44 3.07 3.07 0 01-2.39-2.48c-.31-1.14-.66-2.28-1.06-3.39-.1-.29-.46-.68-.7-.68s-.59.36-.75.65c-1.23 2.17-2.29 4.45-3.65 6.53a51.34 51.34 0 01-8.41 10.08c-2.1 1.9-4.18 3.83-6.29 5.71a6.45 6.45 0 01-3.81 1.78c-3.75.32-3.94.09-6.86-2.79a6.48 6.48 0 01-1.44-2.7 32.9 32.9 0 01-1.29-5.41 5.44 5.44 0 01.05-1.6c.07-.49.24-1-.43-1.34a4 4 0 00-.46.6c-.11.21-.08.51-.21.69-1.19 1.66-1.33 3.78-2.39 5.49a14.8 14.8 0 01-1.84 2.59c-1 1.07-1.53 2.48-2.41 3.63-.17.22-.27.48-.45.68a3.09 3.09 0 00-.75 2.1c0 1-.16 1.06-1.05 1.3a3.2 3.2 0 00-1.16.63c-1.5 1.24-3 2.53-4.47 3.77a20.45 20.45 0 01-2.13 1.57 3.79 3.79 0 01-1.49.57 3.33 3.33 0 00-1.92.75 2.67 2.67 0 01-1.85.66 7.55 7.55 0 01-3.72-.76c-.93-.49-2.06-.61-2.83-1.42-1.46-1.53-2.85-3.11-2.85-5.42a12.52 12.52 0 00-.11-2 6.31 6.31 0 00-.54-1.81 6.45 6.45 0 01-.72-3.35c.09-1.49.34-3 .39-4.46a7 7 0 00-.39-2.49 5.46 5.46 0 01-.18-3.31c.23-.88.22-1.83.52-2.69.46-1.33.53-2.75.9-4.06.55-1.94.66-4 1.28-5.87.4-1.25.78-2.5 1.21-3.74a4.7 4.7 0 01.58-.91 3.41 3.41 0 00.43-.69.72.72 0 00-.39-1 .68.68 0 00-.92.38q-.66 1.29-1.27 2.62c-.89 1.93-1.76 3.87-2.65 5.8-.49 1-1 2.09-1.54 3.11s-1.35 2.24-2 3.38c-.48.85-.89 1.73-1.33 2.6-.87 1.74-1.71 3.49-2.6 5.22-.32.62-.76 1.18-1.09 1.79-1 1.87-2 3.73-3 5.63-.54 1.05-1 2.17-1.46 3.24-.57 1.24-1.18 2.47-1.74 3.71-.49 1.08-.94 2.17-1.42 3.26-.32.72-.62 1.45-1 2.14-1.08 2-2.24 3.9-3.26 5.9a11.28 11.28 0 01-2.61 3.49 6.46 6.46 0 01-5.21 1.72 1.61 1.61 0 01-1.6-1.76 2.3 2.3 0 00-.65-1.64c-.79-.85-.51-1.69.6-1.93a1.64 1.64 0 00.61-.15c.2-.15.44-.4.43-.61s-.25-.46-.46-.59a2.39 2.39 0 00-.71-.14.85.85 0 01-.78-1.11 8.12 8.12 0 01.28-1c.62-2.17 1.23-4.33 1.85-6.5.1-.36.25-.7.41-1.16a10.32 10.32 0 00.82.7c.31.21.65.25.87-.12s0-.65-.32-.82-.56-.2-1-.35a12.17 12.17 0 01.8-3.88c.31-.65.51-1.35.75-2 .16-.46.3-.93.45-1.39s.39-1.15.57-1.73a4.33 4.33 0 01.26-.6 17 17 0 001.25-5 20.16 20.16 0 011.16-4.59 20.56 20.56 0 001.15-3.92 2.78 2.78 0 00.09-1.08 5 5 0 01.27-2.87 4.49 4.49 0 00.16-1.08 4.41 4.41 0 01.86-2.37 2.39 2.39 0 00.43-.8c.5-1.72 1-3.45 1.45-5.18a2 2 0 01.09-.35 6.26 6.26 0 00.47-3.45 8.93 8.93 0 01.68-2.81c.28-1.06.58-2.11.87-3.17a4.77 4.77 0 01.25-.88 23.39 23.39 0 002-6.89 13 13 0 01.44-1.58 9.33 9.33 0 00.38-1.31 9 9 0 011.07-3.56.38.38 0 00.07-.17c.06-1.92 1.14-3.58 1.39-5.45a5.79 5.79 0 011.45-2.71c.32.11.57.21.83.29.63.19 1 0 1.06-.59a1.57 1.57 0 011.2-1.43 2.05 2.05 0 00.71-.4 7.75 7.75 0 013.4-1.48 3.48 3.48 0 012.74.34 1.44 1.44 0 01.84 1.31 1.66 1.66 0 00.71 1.4c.51.42.49.78.17 1.37-.72 1.33-1.41 2.68-2.1 4-.6 1.16-1.25 2.3-1.77 3.49a35.32 35.32 0 00-2.64 6.6 12.84 12.84 0 01-1.82 4.25 6.36 6.36 0 00-1.08 3.16 10.24 10.24 0 01-1.21 4.25 19.44 19.44 0 00-2.02 6.66c-.16 1.39-.43 2.77-.65 4.15a.8.8 0 01-.08.26c-1.16 2.07-1.46 4.43-2.31 6.6s-1.5 4.69-2.26 7a13.2 13.2 0 00-.87 3.81 1.35 1.35 0 00.6 1.4 3.87 3.87 0 001.66-1.81c.25-.41.4-.89.64-1.31.65-1.13 1.33-2.25 2-3.38s1.29-2.41 2-3.6c1-1.75 2-3.5 2.94-5.25.5-.9 1-1.82 1.47-2.73.65-1.17 1.32-2.32 2-3.5.51-1 1-2 1.47-2.93.64-1.2 1.33-2.38 2-3.57a2.14 2.14 0 00.25-.48c.49-1.94 1.72-3.48 2.68-5.16.6-1.06 1.21-2.11 1.74-3.2s.94-2.24 1.47-3.34a28 28 0 011.41-2.55c.81-1.32 1.7-2.6 2.51-3.93.5-.83.87-1.74 1.39-2.55a11.35 11.35 0 011.52-1.93 7.27 7.27 0 002.15-3.54 1.44 1.44 0 011.15-1.15c1.08-.28 1.18-.58.56-1.53a1.08 1.08 0 01-.07-1.11c.6-1.56 1.13-3.14 1.75-4.69s1-3.23 2.23-4.45a13.33 13.33 0 012.4-1.78c1.16-.73 2.34-1.41 3.56-2a8.15 8.15 0 011.91-.54c.65-.14 1.34-.15 2-.35a2.59 2.59 0 012.72.84 1.11 1.11 0 01.15 1c-.78 2-1.62 4-2.44 6q-.21.51-.38 1a2.63 2.63 0 01-1.34 1.66 1.37 1.37 0 00-.83 1.48 2 2 0 01-.09.9c-.58 1.34-1.25 2.63-1.79 4-.84 2.12-2.2 4-2.81 6.22a9.44 9.44 0 01-1.41 2.54 4.92 4.92 0 00-.76 1.83 7.79 7.79 0 01-.64 1.57 8.14 8.14 0 00-.42.9c-.39 1.31-.66 2.67-1.16 3.94a27.4 27.4 0 01-1.62 3 6.32 6.32 0 00-.52 1.16c-.42 1.39-.81 2.8-1.23 4.2a3.25 3.25 0 01-.46.89 12 12 0 00-1.81 4.34c-.4 1.79-1.16 3.51-1.74 5.26a8.74 8.74 0 00-.48 1.92 9.31 9.31 0 01-.62 2.55c-1.07 2.79-2 5.61-1.83 8.69a20.29 20.29 0 01-.27 3.07c0 .45-.08.91-.11 1.36-.09 1.24-.22 2.49-.26 3.73a18.62 18.62 0 00.16 2 6.61 6.61 0 01.06 1.61 3.27 3.27 0 00.21 2 3.81 3.81 0 01.37 1.12 5.82 5.82 0 001.06 2.49 2 2 0 002.09 1 6.85 6.85 0 003.76-1.73 18.34 18.34 0 003.28-3.91c1.39-2 2.83-4 4.19-6 .64-1 1.13-2 1.7-3 .16-.29.33-.58.51-.86 1.36-2.17 2.74-4.31 4.07-6.5 1-1.58 1.89-3.19 2.76-4.83.59-1.1 1.05-2.26 1.57-3.39s1.07-2.32 1.57-3.49a41.47 41.47 0 002.05-4.56c.32-1.1.91-2.12 1.33-3.19.29-.73.51-1.49.73-2.24a11.32 11.32 0 01.28-1.15 10.28 10.28 0 00.9-3.34 1.45 1.45 0 01.18-.61 11.12 11.12 0 001.05-4.23 3.45 3.45 0 00-.09-1.26 2.06 2.06 0 01.45-2 2.25 2.25 0 00.57-1.78 4.49 4.49 0 01.58-2.54 5.77 5.77 0 00.43-3.31 4.43 4.43 0 01.85-3.08 7.62 7.62 0 001.58-3.75 2.11 2.11 0 01.21-.79 8.9 8.9 0 001-3.22 4.75 4.75 0 01.46-1.19 1.27 1.27 0 00-1-1.94 4.07 4.07 0 00-1-.14 6.69 6.69 0 01-3.69-1.18 4.67 4.67 0 01-1.32-1.35 1.47 1.47 0 01-.14-1.21 4.62 4.62 0 012-2.55 3 3 0 011.3-.32 11 11 0 007.15-2.8 2.26 2.26 0 00.63-1.45 6.69 6.69 0 011-3 1.51 1.51 0 01.45-.56 1.83 1.83 0 00.84-1.79 11.94 11.94 0 011.86-6.21 9 9 0 001.57-3.57 2.31 2.31 0 01.19-.61l1.5-3.81a2.06 2.06 0 00.17-.52 15.91 15.91 0 011.59-4.63c.35-.81.79-1.57 1.18-2.36.52-1.07 1-2.15 1.54-3.21a4 4 0 00.47-2.73 2.09 2.09 0 01.65-2.07c.41-.41.78-.86 1.15-1.3a.73.73 0 000-1.07 2.4 2.4 0 01-.63-2v-1.65a.94.94 0 01.57-1 1.17 1.17 0 011.29.18 7.39 7.39 0 011.14 1.18 2.06 2.06 0 01.29 1c.1 1.44.31 1.51 1.68 1.65a11.84 11.84 0 013.12.92 1.4 1.4 0 01.75 1.55c-.17 1.74-.1 3.55-1.46 5a1.85 1.85 0 00-.28 1.2 2.83 2.83 0 01-.6 1.68 29.3 29.3 0 00-2.11 3.4c-.85 1.71-1.52 3.52-2.3 5.26-.66 1.47-1.39 2.91-2.08 4.36a.78.78 0 01-1 .44l-.92-.17c-.64.88-.47 1.49.42 1.71.49.12 1.11.07 1.28.69a2.58 2.58 0 01-.19 2.13 16 16 0 01-1.7 2.25 4.42 4.42 0 00-1.43 2.77 1.75 1.75 0 01-.52 1 2 2 0 00-.58 1.56c0 .81-.09 1.62-.15 2.58a4.9 4.9 0 001-.19 7.59 7.59 0 00.94-.56 2.26 2.26 0 012.1-.23 2 2 0 002.21-.32 2.69 2.69 0 011.52-.44 3.8 3.8 0 001.86-.57 6.23 6.23 0 014.3-.74c.74.14 1 .54 1 1.33a2.49 2.49 0 000 .46c.51 2.42-1.22 3.58-2.76 4.83a2.1 2.1 0 01-1.13.28 11.68 11.68 0 00-3.46.78 6 6 0 01-4.1.44 1.84 1.84 0 00-2.07.59 2.21 2.21 0 01-1.63.72h-.91c-1.17.11-1.86.66-1.94 1.81a46.18 46.18 0 01-1.45 7.44 28.41 28.41 0 00-.92 4.46 5 5 0 01-.62 1.5c-.41.91-.83 1.82-1.22 2.73a7.21 7.21 0 00-.42 1.2 12.14 12.14 0 00-.39 2.13 2.5 2.5 0 01-.75 1.89 1.91 1.91 0 00-.59 1.8 10.09 10.09 0 01-.21 2.72c-.25 1.25-.66 2.46-1 3.7a5.69 5.69 0 00-.39 1.95 3.77 3.77 0 01-1.47 3.34c-.84.79-1.69 1.58-2.5 2.4a1.24 1.24 0 00-.37.85c0 .43.48.47.86.5 1.35.11 1.78.69 1.63 2-.08.69 0 1.4-.15 2.09a8.84 8.84 0 01-.54 2.09 2.64 2.64 0 00-.2 1.84 2.57 2.57 0 01-.14 1.49 4.52 4.52 0 00-.22 3.21 3.07 3.07 0 010 1.26c-.11 1-.24 1.93-.41 2.89-.15.81-.35 1.6-.57 2.39a2.43 2.43 0 001 3 2.51 2.51 0 003-.23c1-.78 2.22-1.41 3.18-2.28a23.29 23.29 0 003.27-3.55 37.67 37.67 0 013.73-4.24 39.74 39.74 0 003.12-3.8c1.06-1.41 2.07-2.86 3.07-4.31a8.6 8.6 0 001.45-3.9 5.14 5.14 0 011-2.43 3.47 3.47 0 00.58-1.59 5.25 5.25 0 01.67-2.34 2.82 2.82 0 00.29-.76c.36-1.32.68-2.65 1.07-4 .23-.78.6-1.52.85-2.3a8.93 8.93 0 00.46-1.94 2.3 2.3 0 011.38-2.18 11.79 11.79 0 001.2-.66 1.21 1.21 0 00.38-2c-.76-1-.76-1-.15-2a1.73 1.73 0 00.26-.48c.31-1.47 1.32-2.59 2-3.89a7.35 7.35 0 00.54-1.44 6.63 6.63 0 012.47-3.72 6.41 6.41 0 002.21-3.39c.41-1.52 1.54-2.41 2.76-3.55a9.19 9.19 0 01.32 1 11.65 11.65 0 00.18 1.35c.18.59.66.69 1.14.28a1.07 1.07 0 00.38-1.23 2.15 2.15 0 00-1.05-1.43.88.88 0 01-.5-1.14 3.47 3.47 0 01.18-1.2c1.14-1.43 2.26-2.88 3.51-4.21 1.7-1.82 3.5-3.56 5.28-5.31a2.5 2.5 0 00.85-1.45c.12-.81.54-1.07 1.3-.75a2.31 2.31 0 002.17-.18 2.1 2.1 0 011.14-.24 32.23 32.23 0 017.31 1c.63.21 1.28.4 1.89.67a1.52 1.52 0 001.75-.35 1.21 1.21 0 00.38-1.46 1.58 1.58 0 01.78-2.18c.25-.17.5-.35.73-.54a2.16 2.16 0 011.89-.45c1.1.26 2.2.51 3.27.85a8.87 8.87 0 014.05 2.72c1.35 1.57 1.41 2.54.16 4.27a7.37 7.37 0 00-1.04 2.41 18.5 18.5 0 01-1.49 3.71 16.82 16.82 0 00-1.68 4.32 14 14 0 01-.8 2c-.53 1.29-1.06 2.58-1.57 3.88s-1.06 2.78-1.62 4.16-1.07 2.45-1.57 3.69c-.36.9-.67 1.83-1 2.74-.45 1.26-.88 2.52-1.36 3.77-.62 1.62-1.28 3.22-1.92 4.83a7 7 0 00-.29.77c-.36 1.35-.8 2.69-1 4.07a32.47 32.47 0 01-2.06 6.42 16.58 16.58 0 00-.46 2.32c-.2.85-.48 1.69-.68 2.54a8.49 8.49 0 00-.45 2.39 14.89 14.89 0 01-.39 4.81c-.53 2 .21 3.65.93 5.36a3.08 3.08 0 00.18.32c1 1.74 2.3 1.83 3.63.32a14.76 14.76 0 002.1-3.72c.61-1.32 1.27-2.62 1.89-3.94s1.25-2.7 1.88-4.05l2-4.47a1.27 1.27 0 00.14-.34c.25-1.94 1.29-3.58 2-5.34a7.45 7.45 0 00.29-1.42q.29-1.42.59-2.84c0-.18.13-.34.17-.52.5-2.23 1-4.46 1.51-6.68a7.09 7.09 0 01.57-1.62 5.18 5.18 0 00.55-3.54 2.66 2.66 0 01.94-2.93 9.38 9.38 0 001.47-1.61 4.21 4.21 0 001-3.05 2.82 2.82 0 01.43-1.36c.29-.57.71-1.06 1-1.63 1-2 2-4.09 3-6.14.17-.35.21-.77.38-1.12a22.22 22.22 0 011.27-2.5 2.26 2.26 0 00.49-1.6 2.12 2.12 0 01.55-1.69c1.35-1.69 2.73-3.35 4-5.07 1.94-2.57 3.81-5.19 5.77-7.75.72-.94 1.67-1.69 2.4-2.62 1.13-1.43 2.17-2.94 3.26-4.41q3.51-4.73 7-9.46c.38-.51.84-1 1.21-1.49s.52-.95.81-1.4a3 3 0 01.71-.89 18.7 18.7 0 011.89-1.08c1.34-.71 2.68-1.42 4-2.09a5.44 5.44 0 011.33-.31c1-.19 1.92-.34 2.87-.55a2.23 2.23 0 001.71-1.32 19.75 19.75 0 001.28-2.81 2.8 2.8 0 012.35-1.68 10.21 10.21 0 012.89 0 2.15 2.15 0 011 .57c.94.77 1.82 1.62 2.79 2.34a6.62 6.62 0 011.69 2.14 1.47 1.47 0 01-.12 1.57c-.63 1-1.28 2-1.91 3a.79.79 0 01-.93.4c-.3-.07-.59-.18-.89-.22-.5-.07-1 0-1.29.45a1.41 1.41 0 00.09 1.56c.11.15.25.27.37.41a.75.75 0 010 1.07 32.13 32.13 0 00-3.05 5.28c-.12.24-.27.48-.41.71-1 1.74-2 3.46-3 5.21-1.27 2.25-2.39 4.58-3.87 6.71a19.49 19.49 0 00-1.49 3.22c-.26.58-.51 1.17-.76 1.75a2.54 2.54 0 00-.26.58c-.23 1.54-1.23 2.69-2 4s-1.61 2.58-2.41 3.88a1.49 1.49 0 00-.23.5c-.39 2.25-1.65 4.18-2.43 6.29a39.25 39.25 0 01-2.37 4.92c-.87 1.6-1.9 3.11-2.78 4.71a11.42 11.42 0 00-1.46 4.4 8 8 0 01-2.86 4.95 2.5 2.5 0 01-2.07.53c-1.15-.12-2.3-.3-3.44-.46-1.38-.19-2-1.24-2.66-2.29a1.16 1.16 0 01-.09-.71 18.52 18.52 0 011.75-6.48 27.42 27.42 0 001.34-3.19c.5-1.27 1-2.57 1.47-3.83.29-.7.68-1.36 1-2q.88-1.75 1.75-3.5c.54-1.09 1.06-2.19 1.6-3.27.37-.73.78-1.45 1.13-2.18q1.46-3 2.88-6c.43-.9.84-1.82 1.28-2.72.79-1.64 1.6-3.28 2.39-4.93a2.19 2.19 0 00.23-1.58c-.73-.31-1.12.15-1.52.56a20.92 20.92 0 00-2.98 4.27c-.76 1.31-1.56 2.61-2.42 3.85-1.45 2.1-2.92 4.19-4.48 6.22a43.36 43.36 0 00-3.05 5.07 25.11 25.11 0 00-1.3 2.6 8.09 8.09 0 00-.24 1.33c-.15.64-.31 1.29-.51 1.91a14.39 14.39 0 01-2.44 4.13 13 13 0 00-1.46 3.23c-.67 1.76-1.29 3.54-1.9 5.32a4.94 4.94 0 00-.37 1.69 8.09 8.09 0 01-1.55 4.31 11.4 11.4 0 00-1.38 4.22c-.23 1.72-.54 3.43-.89 5.13a4.46 4.46 0 000 2.43 3.26 3.26 0 01.14 1.25c-.13 1.82-.28 3.64-.46 5.46a8 8 0 01-.4 2.05 6.74 6.74 0 00.05 4.66 6.53 6.53 0 01.31 3.93 1.73 1.73 0 002.34 1.9 11.15 11.15 0 004.94-3.15c1.71-1.86 3.49-3.66 5.22-5.5q1.25-1.33 2.45-2.71a2.25 2.25 0 012.2-.82 1.42 1.42 0 00.72 0c.31-.13.72-.32.82-.58a1.48 1.48 0 00-.22-1c-.11-.23-.39-.37-.69-.65a3.23 3.23 0 01.34-.95q2.61-3.41 5.27-6.78c.83-1.05 1.75-2 2.54-3.11s1.21-2 1.82-2.95a8.3 8.3 0 011.06-1.58 20.14 20.14 0 002.42-3.42c.79-1.19 1.72-2.29 2.54-3.46.52-.74.92-1.57 1.44-2.32 2.3-3.29 4.64-6.56 6.95-9.84 1.51-2.14 3-4.27 4.47-6.45a29.58 29.58 0 001.53-3 32.05 32.05 0 012.91-5.15c1-1.38 1.87-2.92 2.9-4.31a8.86 8.86 0 012.06-2 2.75 2.75 0 001.41-2.3 2.85 2.85 0 01.15-.9 1.89 1.89 0 000-1.51 1.76 1.76 0 01.19-1.74 19.16 19.16 0 001.32-2.18c.51-1.1.91-2.25 1.32-3.39.29-.8.54-1.61.8-2.42.13-.4.24-.81.36-1.22.22-.82.41-1.65.67-2.45s0-1.56-.94-1.8a16.72 16.72 0 00-2.44-.39 6.27 6.27 0 01-3.42-1.43c-1.33-1.07-1.67-2.13-.81-3.31a15.88 15.88 0 011.63-1.92 2.61 2.61 0 011.79-.54 15.34 15.34 0 002-.37c.62-.13 1.23-.34 1.86-.44a3.73 3.73 0 001.89-.85 9.38 9.38 0 011.4-1 2.32 2.32 0 001.24-1.71 29.88 29.88 0 012.38-6.88 9.51 9.51 0 00.68-2.36 10.79 10.79 0 011.7-4.1 13.43 13.43 0 001.73-3.9 5.07 5.07 0 01.23-.79c.41-1 .8-2.1 1.27-3.11a8.88 8.88 0 00.82-3.07 2.94 2.94 0 01.13-.63c.35-1.13 1.13-1.33 1.95-.48.25.26.47.62.91.44s.41-.62.4-1c-.07-1.58-.21-3.16-.18-4.74a6.11 6.11 0 01.58-1.89c.42-1.14.89-2.26 1.29-3.4a1.52 1.52 0 00-.09-.88c-.33-1-.29-1.49.56-2.06a3.45 3.45 0 001.41-1.91 2.55 2.55 0 012-1.54 19.32 19.32 0 013.71-.31 5.35 5.35 0 012.9 1.43 1.66 1.66 0 01.39 1.31c0 .52-.62.46-1 .51s-1.12 0-1.16.61.61.61 1.08.69c.85.14 1 .35 1 1.21a2.86 2.86 0 01-.72 1.92 5.91 5.91 0 00-1.69 3.46 3.06 3.06 0 01-1.12 1.94 2 2 0 01-1 .35c-.38.07-.91 0-1 .46a1.36 1.36 0 00.45.9c.37.39.53.8.18 1.22-.93 1.12-1.1 2.56-1.71 3.82-.72 1.51-1.41 3-2.15 4.53a8.05 8.05 0 00-.77 4.36 4.73 4.73 0 01-.62 3 7.28 7.28 0 01-1.92 2.35 4.55 4.55 0 00-1.1 2 5 5 0 01-1.19 2.45 1 1 0 00-.21.84 3.18 3.18 0 01-.28 2.47c-.07.13-.02.31-.04.63zm-128.63 93.65h.11a1.22 1.22 0 000 .45c.14.32.26.79.5.87a1.4 1.4 0 001.07-.23 3 3 0 00.73-.92c.52-.82 1-1.67 1.52-2.49 1.62-2.61 3.28-5.19 4.87-7.82.63-1 1.09-2.17 1.64-3.26.47-.92.91-1.86 1.43-2.75 1.07-1.87 2.2-3.71 3.27-5.58.44-.76.75-1.61 1.22-2.35 1.21-1.9 2.5-3.74 3.73-5.63 1-1.58 2-3.17 3-4.79.58-1 1-2.08 1.56-3.09s1.27-2.07 1.85-3.14c.45-.82.73-1.75 1.24-2.53a18.56 18.56 0 002.27-4.55 1.45 1.45 0 00-.23-1.54c-.65-.72-1.3-1.45-2-2.11s-1.27-.58-2 0-1.44 1.12-2.14 1.71a6.76 6.76 0 00-.82.85c-1.23 1.46-2.35 3-3.71 4.37a15.12 15.12 0 00-2.62 3c-.91 1.55-1.94 3-2.86 4.56-1 1.72-2 3.46-2.95 5.24a9.82 9.82 0 00-1.51 4 3.27 3.27 0 01-.33.94c-.25.65-.53 1.28-.76 1.94-.53 1.58-.93 3.23-1.59 4.75a27.4 27.4 0 00-1.79 5.44 5.48 5.48 0 01-.61 1.79 4.43 4.43 0 00-.69 2.23 3.42 3.42 0 01-.38 1.48 12 12 0 00-1.9 5.08 8.62 8.62 0 01-.48 1.57c-.24.86-.43 1.69-.64 2.51zm-61.27-18.91c-.31-.29-.52-.47-.69-.67a1.2 1.2 0 00-1.47-.42 1.14 1.14 0 00-.58.72c-.11.59.33.93.78 1.22l1.75 1.15a1.92 1.92 0 003.09-1.52v-.46a1.06 1.06 0 00-.67-1.09 1.22 1.22 0 00-1.42.31c-.25.24-.49.45-.79.76zm82.1-36.55a.91.91 0 001 .56c1.25 0 2.5 0 3.75-.06a1.49 1.49 0 00.87-.21 1.53 1.53 0 00.56-.93 1.25 1.25 0 00-.57-.83 1.94 1.94 0 00-1-.24c-.76 0-1.52 0-2.28-.05a2.29 2.29 0 00-2.33 1.76zm-36.49-15a3.21 3.21 0 002.64-1.43 1.51 1.51 0 00.16-.92 8.09 8.09 0 00-.39-1.57c-.09-.26-.28-.6-.5-.66a.87.87 0 00-.75.31c-.39.57-.68 1.21-1 1.81a4.53 4.53 0 01-.59.89c-.26.27-.62.54-.39.91s.52.43.82.65zm73.39 23.87a1.49 1.49 0 00-1.3-1.55c-.61 0-1 .33-1 1.15a3.2 3.2 0 01-.76 2 .87.87 0 00-.12 1.1 1.21 1.21 0 002.07-.63 2 2 0 01.69-1.43 2.32 2.32 0 00.42-.64zM307 47.88v.45c0 .54.09 1 .68 1.25a1.33 1.33 0 001.49-.36c.23-.24.48-.46.72-.69.48-.47.49-.77 0-1.22-.28-.28-.57-.55-.85-.81a1.3 1.3 0 00-1.43-.26 1 1 0 00-.64 1.1c0 .18.01.35.01.53zm-197.27 133.7a5.85 5.85 0 00-.43-1 9.2 9.2 0 00-.78-.88.72.72 0 00-1.11-.12c-.92.72-1.24 1.28-1 1.75a.64.64 0 00.11.14c.37.35.73.73 1.13 1a1.25 1.25 0 001.37.2 1.35 1.35 0 00.71-1.09zm184-122.83a9.8 9.8 0 001.19-.07c.65-.13.82-.63.39-1.14a8.4 8.4 0 00-.91-.89 1 1 0 00-1.33.05 1.42 1.42 0 00-.66 1.57c.22.54.68.54 1.15.5zm-13.79 20.22c.64 0 1-.38 1-1a1.53 1.53 0 00-1.33-1.3c-.55 0-.84.39-.83 1.08a1.06 1.06 0 001.16 1.22zm-75.48 53.73c-.07-.09-.21-.45-.45-.55a1 1 0 00-.79.23 3.46 3.46 0 00-.76.77c-.44.59-.18 1.13.55 1.21s1.47-.5 1.45-1.66zm-97.94 54.67c.12-.07.52-.18.62-.42a1.15 1.15 0 00-.22-.87 3.72 3.72 0 00-.82-.85.63.63 0 00-1 .2 1.46 1.46 0 001.41 1.93zM303.96 56.05a.86.86 0 00-.88-.94.89.89 0 00-1 .83c0 .64.49 1.38.94 1.39s.9-.57.94-1.28zm40.48-34.77a1.29 1.29 0 00-1.38 1.56c.08.56.52.78 1 .46a3.2 3.2 0 00.82-.83 1 1 0 00.15-.81c-.11-.2-.47-.3-.58-.38zM217.67 109.8c.72 0 1.22-.37 1.2-.83a.89.89 0 00-1-.75 1 1 0 00-1 .94c0 .52.34.65.8.64zm-107.92 75a.86.86 0 00-.65-1c-.38 0-.7.38-.71.9s.27.93.65 1 .63-.36.69-.9zm227.76-65.16c.38 0 .73-.15.75-.66s-.37-.71-.89-.7-.8.12-.87.61.38.75.99.75zm-191.24-5.22a.78.78 0 00-.9-.59.59.59 0 00-.66.61.7.7 0 00.83.65c.4-.04.7-.21.73-.67zM345.98 7.13l-.2.2a11.43 11.43 0 00.85 1.32c.11.14.46.08.7.11 0-.24.11-.59 0-.7a12.52 12.52 0 00-1.35-.93zM203.92 84.31c-.27.34-.57.55-.59.79s.32.47.55.53.81-.29.7-.6-.35-.39-.66-.72zm-78.12 32.43c-.43-.54-.84-.67-1.1-.34a.67.67 0 000 .62c.21.34.63.23 1.1-.29zm76.48-58.66c-.32-.26-.51-.53-.7-.52a.75.75 0 00-.55.43.44.44 0 00.5.57c.21-.04.4-.25.75-.49zm45.54 21c.23-.37.5-.63.44-.76a1.13 1.13 0 00-.61-.5c-.07 0-.42.32-.39.44s.29.47.56.85zm-30.4 17.73c-.26.3-.52.48-.5.62s.26.38.41.57c.17-.14.46-.26.47-.41s-.19-.39-.38-.75zm124 17.15c.19-.33.42-.55.38-.68s-.33-.31-.51-.46c-.12.18-.35.35-.34.53s.23.35.47.64zm-134.17 11.36c-.17.15-.36.25-.35.33s.15.27.24.4c.11-.07.32-.14.32-.23s-.12-.3-.21-.5zm116.72 8.53v-.32h-.52v.24zM79.57 130.09c.29-.62.58-1.22.85-1.82.45-1 .87-2 1.35-3a3.21 3.21 0 011.81-1.57 31 31 0 019.07-1.83 2.75 2.75 0 002.39-1.42c1.13-2.06 2.86-3.63 4.38-5.37a1.82 1.82 0 011.47-.58 16.81 16.81 0 002-.28l3.7-.52c.84-.12 1.68-.29 2.53-.35a6.34 6.34 0 011.79.12 12.24 12.24 0 013.43 1.45c.72.41.93.86.52 1.57a13 13 0 00-.89 2.76c-.41 1.3-1.05 2.52-1.54 3.79a18.08 18.08 0 00-1.65 6.21 39.34 39.34 0 01-1 9.25 8.78 8.78 0 00-.23 1.44 4.93 4.93 0 01-.77 2.41 2.27 2.27 0 00-.41 1.19 5.28 5.28 0 01-1.33 3 12.27 12.27 0 00-1 1.82 23.46 23.46 0 00-1.46 3.44c-.57 2.07-1.48 4-1.88 6.14a26.31 26.31 0 01-2.82 8 22.87 22.87 0 01-2.37 3.45 1.47 1.47 0 00-.31.55 14.08 14.08 0 01-1.86 3.85 1.1 1.1 0 00-.2.41c-.11 1.21-1 1.9-1.78 2.66s-.67.71-.27 1.57a1.23 1.23 0 01.13.85c-.33.81-.76 1.59-1.14 2.38-.17.35-.37.7-.53 1.06-.55 1.32-1.09 2.64-1.62 4a4.62 4.62 0 00-.4 1.11 12.1 12.1 0 01-2.13 4.89c-.4.65-.72 1.34-1.15 2-.69 1-1.46 1.94-2.15 2.94-.53.78-1 1.61-1.44 2.42a12.08 12.08 0 01-6.49 5.08 8.47 8.47 0 01-4.06.89 4.26 4.26 0 01-2.88-1.39c-.8-.92-1.55-1.88-2.27-2.86a2.13 2.13 0 00-1.44-1 1 1 0 01-.93-1.14 8.88 8.88 0 00-.75-3.91 3.93 3.93 0 01-.25-1.34c0-1.67-.13-3.35 0-5 .19-2.55.53-5.09.82-7.63.12-1.09.26-2.18.37-3.27a2.06 2.06 0 00-.07-.81.76.76 0 00-1-.5.69.69 0 00-.65.83c0 .24.11.47.16.71a3 3 0 01-.35 2.2c-1.64 2.6-3.29 5.19-4.92 7.79-.82 1.32-1.55 2.69-2.41 4-1.36 2.05-2.81 4-4.2 6.08-.45.65-.84 1.34-1.23 2a12.57 12.57 0 01-4.61 4.83 5.8 5.8 0 00-1.37 1.2 19.52 19.52 0 01-3.51 2.9 21.11 21.11 0 01-5.29 2.4 23.75 23.75 0 00-2.7 1.51 7.85 7.85 0 01-1.67.7 22.81 22.81 0 01-4.54 1 21 21 0 01-8.66-.87 2.73 2.73 0 01-1.29-.81 11.63 11.63 0 00-2.86-2.53 3.86 3.86 0 01-1.11-1.4c-.41-.81-1-1.54-1.46-2.31a2 2 0 01-.3-.45c-.41-1.49-1.33-2.81-1.49-4.39a3.55 3.55 0 00-.24-1.16 12.34 12.34 0 01-.75-3.55 26 26 0 00-.93-3.81 4.13 4.13 0 010-3 2.56 2.56 0 000-2 2.12 2.12 0 01.28-2.23c.74-1 .48-1.53-.71-1.75a3 3 0 01-2-1.79c-.45-.86.11-1.57 1.09-1.59.36 0 .73.05 1.1 0 .74 0 1-.28 1.21-1s.42-1.21.56-1.83a10.77 10.77 0 00.43-2.6c-.06-2.14.84-4 1.39-6a10.14 10.14 0 011.09-2.1 2.16 2.16 0 00.22-1.84 2.09 2.09 0 01.22-1.75c.61-1.16 1.17-2.34 1.7-3.54.42-.94.33-1.15-.53-1.71a1.92 1.92 0 01-.43-2.61 9.66 9.66 0 012.21-3.21 2.69 2.69 0 001-1.69c.16-.81.44-1.59.6-2.39.19-1 0-1.2-.9-1.6-.3-.13-.68-.39-.75-.67-.12-.48.38-.59.73-.78a5.29 5.29 0 001.42-.95c1-1.13 2-2.34 2.91-3.52a1 1 0 00.22-.4c.34-1.47.73-2.94 1-4.43a3.3 3.3 0 011.07-2.23 7.2 7.2 0 001.54-2.34 10 10 0 001-4.38 4.33 4.33 0 011.67-2.85 5.37 5.37 0 002-4 7.84 7.84 0 011.3-3.38 20.31 20.31 0 011.18-1.85 2.3 2.3 0 00.24-.39c.47-1.21 1-2.42 1.39-3.65a3.14 3.14 0 011-1.58 4.51 4.51 0 001.63-2.47 19 19 0 012.45-4.77c.61-1 1.2-2 1.72-3.11.84-1.69 1.61-3.4 2.43-5.1a2.47 2.47 0 01.4-.61 4.08 4.08 0 001-2 8.23 8.23 0 01.29-1 1.65 1.65 0 011.27-1.19 3 3 0 001.6-1 12.9 12.9 0 002.32-3.15c.37-.76.92-1.44 1.29-2.2a17.79 17.79 0 00.85-2.32c.31-1 .71-1.34 1.72-1.23a3.65 3.65 0 002-.33 3.49 3.49 0 012.23-.25c1.19.23 1.47.1 2.06-1 .38-.69.64-1.44 1-2.15.42-.88.84-1.76 1.31-2.61s1.1-1.62 1.5-2.5a18.67 18.67 0 001.63-4.33c.4-2.33 3.55-4 5.52-2.86.72.4 1.47.74 2.21 1.11a1.79 1.79 0 011.1 1.75 9.82 9.82 0 01-.64 3.67c-.58 1.4-1 2.89-1.5 4.31s-1.2 2.85-1.78 4.29-1.32 2.62-1.72 4.08a7.83 7.83 0 01-1.7 3.49 1.77 1.77 0 00-.3 1.18 6.1 6.1 0 01-.71 3.51 10.52 10.52 0 00-.73 2.35 52.83 52.83 0 00-1.56 5.07 40 40 0 01-1.89 5.11c-.51 1.5-.91 3-1.34 4.56a1.78 1.78 0 00-.07.72c.33 2.26-.59 4.3-1.11 6.41-.15.62-.36 1.23-.53 1.84a42.05 42.05 0 01-1.86 5 11.44 11.44 0 00-1.35 5c.17 3.28-.85 6.32-1.56 9.43-.34 1.48-.55 3-.86 4.48-.14.65-.39 1.28-.56 1.93a16.45 16.45 0 00-.45 2c-.15 1.17-.25 2.36-.32 3.54s0 2.19-.13 3.29a15.81 15.81 0 01-.42 2.22c-.38 1.63-.82 3.24-1.17 4.87a2.59 2.59 0 01-.82 1.76.84.84 0 00-.22 1.21 1.38 1.38 0 01-.09 1.62 10.64 10.64 0 01-.87 1.38 3.51 3.51 0 01-2.82 1.25 15.09 15.09 0 00-3 .39 1.81 1.81 0 01-2.46-1.56c-.21-1-.46-2-.6-3a8.06 8.06 0 010-2.09c.17-1.36.43-2.71.66-4.06a3 3 0 01.16-.71 9.21 9.21 0 00.74-3.74 2.13 2.13 0 01.17-.89c.7-1.44.65-3 .91-4.55.19-1.14.51-2.25.73-3.38a13.22 13.22 0 00.37-2.42 15 15 0 01.72-4.11 38.89 38.89 0 001.7-7.47 5.09 5.09 0 01.57-1.8 10 10 0 001.09-3.63 27.25 27.25 0 011-4.15c.1-.38.33-.73.4-1.11a39 39 0 012.2-7.25c.33-.84.27-1.09-.39-1.71a5.41 5.41 0 00-.66.76c-.74 1.26-1.44 2.54-2.16 3.81a24.49 24.49 0 00-1.41 2.5 12.39 12.39 0 00-.76 2.7 6.55 6.55 0 01-.84 2.57c-.86 1.32-1.58 2.73-2.34 4.12a6 6 0 00-.36 1c-.09.28-.17.56-.29.94-.37-.1-.65-.19-.93-.25-.68-.15-1.06.17-1 .87a1.23 1.23 0 00.08.45c.75 1.66 0 3-.81 4.4a12.71 12.71 0 00-1.22 3.32 8.67 8.67 0 01-1 2.42 13.27 13.27 0 00-1.68 3.63 30.28 30.28 0 01-1.43 3.65 5.31 5.31 0 00-.4.92 16.86 16.86 0 01-1.16 3.55c-.64 1.48-1.2 3-1.7 4.52a10.26 10.26 0 00-.45 2.5 5.3 5.3 0 01-1 3.16 18.63 18.63 0 00-1.68 5.36 9.14 9.14 0 01-.8 5.25 2 2 0 00-.14.62 3.06 3.06 0 01-1.3 2.3 5.85 5.85 0 00-.73.86l1.32 1.07a9 9 0 01-.34.95 6 6 0 00-.62 2.83v2.19a8.33 8.33 0 01-.45 3.51 1.52 1.52 0 00-.12.53q-.07 4.29-.12 8.59a2.3 2.3 0 00.16.8c1 2.65 1.87 5.35 3.84 7.5a3.22 3.22 0 01.39.51 4.72 4.72 0 003.76 2.13 9 9 0 005.82-1.4 27.75 27.75 0 008.61-8.43c1.64-2.35 3.39-4.61 5.09-6.92a39.71 39.71 0 004-6.2c.39-.82.92-1.57 1.36-2.37 1.22-2.24 2.45-4.48 3.63-6.74q1.36-2.63 2.59-5.33c.56-1.24 1-2.56 1.52-3.81 1-2.17 2-4.31 3-6.46a6.43 6.43 0 00.3-.67 1.16 1.16 0 011.22-.88 1 1 0 00.81-.4c.09-.2-.13-.61-.32-.83a1.25 1.25 0 01-.27-1.71c.75-1.79 1.44-3.61 2.19-5.4.53-1.26 1.11-2.5 1.69-3.74.38-.83.76-1.66 1.2-2.46 1.11-2 2.27-4 3.36-6.05.56-1 1-2.13 1.49-3.22a1.31 1.31 0 011-.87c1.32-.31 1.4-.55.65-1.7a2.75 2.75 0 01-.22-.31zm9.46 6.92c-.59-.29-.79 0-1 .37s-.41.88-.64 1.31a63.24 63.24 0 00-2.72 6.46 79.9 79.9 0 01-1.56 3.6c-.25.58-.47 1.18-.68 1.77-.52 1.46-1 2.95-1.58 4.37-.43 1-1.09 1.89-1.6 2.85a5.66 5.66 0 00-.31 1.13 4.63 4.63 0 01-.34 1.12c-.83 1.41-1.71 2.8-2.57 4.2a2.45 2.45 0 00-.31.66c-.24.94-.49 1.89-.66 2.85-.35 2.07-.63 4.15-1 6.22a6.55 6.55 0 00.08 3.07 4 4 0 010 2.79 11.57 11.57 0 00-.55 4c-.05.71.3 1.07 1 1.15h1.1c1 0 1.56 1 1 1.71a3.49 3.49 0 01-2.33 1.74c-1.34.15-1.74.58-1.92 1.9-.13.9-.1 1.83-.24 2.73a4.77 4.77 0 001.15 4.15c.72.82 1.16 1 2 .28a11.64 11.64 0 001.76-2c.53-.74.9-1.58 1.36-2.37.92-1.57 1.87-3.13 2.79-4.71a18.41 18.41 0 001.25-2.22c.86-2.08 1.64-4.19 2.46-6.28a7.74 7.74 0 01.53-1 12.45 12.45 0 001.83-4.05 1.42 1.42 0 00-.45-1.48 2.72 2.72 0 01-.88-2.2 18.87 18.87 0 00-.47-2.86c-.18-.86-.52-1.7-.62-2.57-.15-1.36 0-2.75-.25-4.1a12 12 0 011-6 17 17 0 001.1-6.8 5.94 5.94 0 01.76-3.52 6.28 6.28 0 00.79-3.13 11.34 11.34 0 01.73-4.48 2.42 2.42 0 000-.66zm2 25.53c0 .64.27 1.08.7 1.18s.76-.17 1-.87c.37-1.22.82-2.43 1.07-3.68a17.84 17.84 0 011.59-3.87 7.73 7.73 0 00.76-2 10.47 10.47 0 011.36-3.66 21.81 21.81 0 002.11-5.31 33.25 33.25 0 001-7 13.21 13.21 0 01.38-2.24c.14-.62.39-1.23.5-1.85a31.55 31.55 0 012.35-7.57 3 3 0 00.24-.88c0-.44.19-1-.38-1.18s-.81.38-1 .81c0 .08-.06.17-.1.25l-2.43 5.11c-.57 1.21-1.14 2.41-1.69 3.63a38.18 38.18 0 01-1.66 3.74 17.29 17.29 0 00-1.86 5.6c-.16.84-.41 1.42-1.36 1.54a1 1 0 00-.7.56 1 1 0 00.45.77c.67.36.71.84.61 1.53a27.74 27.74 0 01-1.08 3.28 42.85 42.85 0 00-1.22 5.39c-.29 2.23-.41 4.48-.61 6.7zm-53.36-43.02c-.84 0-1.26.23-1.38.86-.15.8.12 1.22.91 1.54.42.17.79.45 1.2.62a4.18 4.18 0 001.44.46c.76 0 1-.66.57-1.28a5.47 5.47 0 01-.71-.94 2.06 2.06 0 00-2.03-1.26zm43.38 23.66a1.17 1.17 0 001.43-.66 1.3 1.3 0 00-.4-1.56c-.23-.2-.42-.44-.65-.64-.48-.42-.87-.41-1.2.14a4 4 0 01-1.72 1.68.81.81 0 00-.3.73.9.9 0 00.7.4c.7-.02 1.41-.09 2.13-.13zM67.67 69.74a.82.82 0 00-.87.56 1.29 1.29 0 001.24 1.88 2.19 2.19 0 001.72-.87.83.83 0 00-.58-1.45c-.4-.07-.86-.08-1.51-.12zm-5.5 20.43c0 .83.37 1.22 1.22 1.21s1.16-.3 1.15-.95c0-.87-.45-1.42-1.18-1.44a1.08 1.08 0 00-1.16 1.18zm22.85 48.71c.12-.09.52-.23.64-.5s-.09-.62-.26-.87a3.08 3.08 0 00-.8-.74.61.61 0 00-1 .28 1.34 1.34 0 001.45 1.82zm-31.87-38.74a.84.84 0 00-.73-1 1.47 1.47 0 00-1.6.67 1.64 1.64 0 002.33.33zm47.52 26.38v-.4c-.05-.43-.21-.82-.7-.8s-.64.47-.65.92a2 2 0 000 .36c.07.44.31.75.78.73s.65-.42.57-.81zm-27.16 77.75c.57 0 1-.3 1-.71s-.41-.71-1-.71-1 .29-1 .7.43.72 1 .72zM54.09 100.75a.93.93 0 001.25-.48.86.86 0 00-.14-.79.82.82 0 00-.77.09.91.91 0 00-.34 1.18zm-8.23 6.54c.25-.34.51-.55.5-.73s-.3-.35-.47-.53c-.17.17-.46.32-.49.51s.27.4.46.75zm3-7.48c-.34-.25-.53-.49-.73-.5s-.48.28-.46.4a.75.75 0 00.42.54c.15.03.38-.21.75-.44zm44 24.87c-.29-.26-.47-.54-.61-.51a.82.82 0 00-.53.43c0 .09.23.45.37.46s.38-.19.73-.38zM200.79 170.89c.1-.74.16-1.47.31-2.17a1 1 0 011.41-.6 2.8 2.8 0 01.69.43.82.82 0 001.16 0 2.87 2.87 0 012.43-.46c.7.07.87.43.88 1.54 0 1.3-.13 1.67-.85 1.74a2.67 2.67 0 01-2.48-.52c-.44-.46-.85-.23-1.28.12-.76.64-1.39.62-2.27-.08z"/><path d="M163.1 168.19c.3.32.6.5.71.76a2.23 2.23 0 001.36 1.36 1.22 1.22 0 01.37 2.08l-.83.84a1.26 1.26 0 01-1.86.06q-.49-.47-1-1a1.26 1.26 0 010-1.73 2.25 2.25 0 00.81-1.65c.01-.18.23-.39.44-.72zM87.39 202.75a2.34 2.34 0 01-2.12.07.49.49 0 01-.29-.33c-.07-1-.66-2-.23-3 .13-.31.18-.64.29-1a1.3 1.3 0 011.28-1 .89.89 0 011 1 1.75 1.75 0 01-.11.54 3.75 3.75 0 000 2.85 4.16 4.16 0 01.18.87zM133.81 56.37c-1.37 0-1.59-.24-1.6-1.59a6.23 6.23 0 01.05-1.36 2.56 2.56 0 01.52-1.12 1 1 0 011.61.17c.25.38.48.77.73 1.14a2.69 2.69 0 01.36 1.92.85.85 0 01-.77.78 8.32 8.32 0 01-.9.06zM166.14 167.52a5.13 5.13 0 011.63-1.66.92.92 0 01.53-.09c.78 0 2.21 1.55 2.12 2.32a1.3 1.3 0 01-.43.83 3.07 3.07 0 01-2.75-.3c-.36-.31-.71-.68-1.1-1.1zM260.18 27.12a1.78 1.78 0 01.74 2.18c-.29.86-.6 1.08-1.55 1.1h-.7c-.87 0-1.19-.3-1.23-1s.2-1 1-1.21a4.3 4.3 0 001.09-.57 6.66 6.66 0 00.65-.5zM9.84 147.73h.63a.91.91 0 01.93.71c.1.51.13 1.07-.39 1.39a7.11 7.11 0 01-1.47.69.92.92 0 01-1.25-.6 3.27 3.27 0 01-.11-1.5c0-.26.45-.52.75-.66a2.63 2.63 0 01.89-.07zM155.85 199.07c.54-.55.91-1 1.35-1.34a.84.84 0 01.67-.09 2.71 2.71 0 011.31 1.95 1.07 1.07 0 01-1.68 1 13.63 13.63 0 01-1.65-1.52zM259.04 74.39h-.72a.91.91 0 01-.89-1c0-.69.26-1 .92-1.11a7.56 7.56 0 011.18 0c.84 0 1.14.32 1.14 1.07s-.27 1.06-1.09 1.12h-.54zM8.1 162.44a1 1 0 01-1.11-1.14 1.22 1.22 0 011.39-1.3 1 1 0 011.05.9 1.42 1.42 0 01-1.33 1.54zM158.58 54.15a3.21 3.21 0 011.47 1.69 1.72 1.72 0 01-2.51.52c-.35-.25-.5-.58-.21-.93s.79-.82 1.25-1.28zM335.1 103.58a4.1 4.1 0 01.88.38 7.72 7.72 0 011.06 1 .6.6 0 01-.37 1.07 1.45 1.45 0 01-1-.17 7.19 7.19 0 01-1.27-1.17.68.68 0 01-.07-.65 2.46 2.46 0 01.77-.46zM165.51 195.52c-.94-.41-1.11-.78-.81-1.58s1-1.32 1.72-1.08c.45.15.66.54.41.92-.39.61-.86 1.16-1.32 1.74zM206.67 164.65a1 1 0 01-1.08-1.07c0-.76.36-1.19 1.06-1.19a1 1 0 011 1.12c.02.73-.33 1.12-.98 1.14zM149.01 160.17a1.07 1.07 0 01-1.23 1c-.63-.06-.93-.49-.86-1.24a1.05 1.05 0 012.09.21zM155.91 77.78c0-.68.36-1.06 1-1a1.16 1.16 0 011.12 1.2.91.91 0 01-1 1 1 1 0 01-1.12-1.2zM193.11 173.66a1 1 0 01-1.08-1.05 1 1 0 011.07-1.16c.67 0 1 .38 1 1.1s-.32 1.1-.99 1.11zM7.19 129a2.06 2.06 0 011.72.92.73.73 0 01-.05.71 2.35 2.35 0 01-1.21.47c-.5 0-.62-.54-.63-1a6.73 6.73 0 01.17-1.1zM163.07 190.52a15 15 0 01-1.21-1.23c-.29-.37-.1-.77.35-.92a1.16 1.16 0 01.86 2.15zM150.53 184.82a.58.58 0 01.55.62c0 .44-.6 1-1.15 1a.62.62 0 01-.71-.65c-.03-.55.5-.98 1.31-.97zM111.08 193.73c-.62.24-1 .15-1.3-.31s-.2-.93.31-1.38a1.34 1.34 0 01.99 1.69zM12.67 138.77c-.39-.05-.83-.11-.82-.63s.44-.61.84-.62.82.12.82.63-.38.59-.84.62zM175.09 87.32c-.81.39-1.26.05-1.43-1 .77-.32 1.22-.01 1.43 1zM176.85 103.07c-.48.65-.54.66-1.05.06.29-.47.61-.48 1.05-.06zM165.27 45.65c.16-.12.33-.35.48-.35s.38.21.58.33l-.08.26h-.89zM136.73 193.4c-.28.22-.46.46-.57.43a.77.77 0 01-.44-.43c0-.08.23-.38.36-.38s.35.2.65.38zM257.5 20.86c-.37.19-.56.37-.74.36s-.4-.3-.37-.38a.71.71 0 01.44-.43c.15-.01.33.22.67.45zM187.32 12.88c-.2.16-.31.32-.44.35s-.31-.17-.3-.23.14-.35.25-.38.27.13.49.26zM137.24 90.98c-.07-.09-.15-.16-.14-.22a.22.22 0 01.16-.14.21.21 0 01.14.16c0 .05-.09.11-.16.2z"/></svg>