<svg viewBox="0 0 351.9 244.73" xmlns="http://www.w3.org/2000/svg"><path d="m35.07 163.77a3 3 0 0 1 -.85 2.21 1.67 1.67 0 0 0 -.45 1c0 1.5-.85 2.72-1.34 4.05-.34.93-1 1.77-1.25 2.71a17.31 17.31 0 0 0 -.4 2.86c0 .4-.09.8-.14 1.2h-.23a4.51 4.51 0 0 1 -.44-.42c-.3-.37-.71-.67-1.1-.32a3.81 3.81 0 0 0 -.87 1.35c0 .1.42.5.71.62a.72.72 0 0 1 .48 1.08c-.32.89-.67 1.77-.9 2.68a7 7 0 0 0 0 1.42 13.25 13.25 0 0 1 -.15 1.8c-.09.5-.33 1-.43 1.47a3.56 3.56 0 0 1 -1.35 2.41.85.85 0 0 0 -.18 1.35c.65.74.35 1.31 0 2.11a8.46 8.46 0 0 0 -.57 3.37 14.15 14.15 0 0 1 -.17 4 26.74 26.74 0 0 0 -.31 7.42 11.49 11.49 0 0 0 .61 2.26 7.78 7.78 0 0 1 .12 1.07l-.83.28c-.38.14-.74.36-.53.82a.7.7 0 0 0 1 .32 4.8 4.8 0 0 0 .79-.61c.11.14.25.24.28.38a21.42 21.42 0 0 0 3.43 5.87 4.06 4.06 0 0 0 2.35 1.65 22.62 22.62 0 0 0 2.73.74 5.75 5.75 0 0 0 2.39-.18c1.15-.36 2.23-.94 3.34-1.41.31-.13.63-.21 1-.34l.3 1.78a2.88 2.88 0 0 0 1.88-1.5 4.48 4.48 0 0 0 .93-2.77c0-.22.24-.53.44-.74a33.9 33.9 0 0 1 3.73-4 23.21 23.21 0 0 0 2.85-3.22c.82-1 1.52-2 2.3-3 .4-.5.87-1 1.29-1.43a23.78 23.78 0 0 0 1.62-1.88 1.59 1.59 0 0 1 1.26-.72c.94-.09 1.87-.23 2.79-.38a1 1 0 0 0 .88-1 1.16 1.16 0 0 0 -.72-1.32 7.05 7.05 0 0 0 -1.49-.08c-.25 0-.6 0-.71-.19a.84.84 0 0 1 0-.73c1-1.72 1.85-3.49 3-5.11a6.15 6.15 0 0 0 1.17-2.66 8.64 8.64 0 0 1 1.11-2.5c.66-1.27 1.39-2.5 2-3.78s1.04-2.53 1.56-3.76q1.79-3.8 3.64-7.58c.33-.68.77-1.3 1.12-2a2.15 2.15 0 0 0 .36-1.06 4.93 4.93 0 0 1 1.05-3.06 20 20 0 0 0 1.83-5.39c.18-.67.4-1.33.6-2a2.13 2.13 0 0 0 .17-.7 13.69 13.69 0 0 1 1-5.27 29.72 29.72 0 0 0 1.42-5.05 30.42 30.42 0 0 1 1.3-4.5c.09-.28.24-.55.32-.83.46-1.8.88-3.61 1.38-5.4.4-1.45.92-2.88 1.33-4.33a56.21 56.21 0 0 0 1.92-6.33c.23-1.42.74-2.79.87-4.26a2.23 2.23 0 0 1 2.13-2.24 6.27 6.27 0 0 0 1.7-.51 4.82 4.82 0 0 1 4.21.3c.74.39 1.57.63 2.25 1.09a29.51 29.51 0 0 1 3 2.32 1.82 1.82 0 0 1 .41 1.09 5.08 5.08 0 0 1 -1.47 4.07 8.35 8.35 0 0 0 -1.89 4.81 13.26 13.26 0 0 1 -.66 2.3c-.39 1.24-.78 2.47-1.2 3.7-.49 1.4-1 2.78-1.52 4.17a8.71 8.71 0 0 0 -.46 1.29 14.76 14.76 0 0 1 -2.22 5.17 14.6 14.6 0 0 0 -.8 2.08 4.51 4.51 0 0 1 -.85 1.5 3.91 3.91 0 0 0 -1.23 2.62 3.28 3.28 0 0 1 -.53 1.41 14.47 14.47 0 0 0 -2.59 6.59 18 18 0 0 1 -.93 3c-.31 1.11-.51 2.26-.83 3.37a12.59 12.59 0 0 1 -.69 1.36 6.36 6.36 0 0 0 -.61 1.72c-.21 2-.3 3.92-.5 5.88-.06.55-.38 1.07-.47 1.62a6.2 6.2 0 0 0 -.14 2 3.55 3.55 0 0 1 -.39 2.71 4.3 4.3 0 0 0 .94 4.74 1.15 1.15 0 0 0 1.08 0 10.35 10.35 0 0 0 1.84-1.9c1.62-2.28 3.22-4.59 4.74-6.94.86-1.33 1.55-2.78 2.3-4.18.86-1.59 1.71-3.19 2.54-4.79 1.39-2.68 2.81-5.35 4.1-8.08a20.45 20.45 0 0 0 1.07-3.47c.48-1.77.88-3.55 1.37-5.32.4-1.46.87-2.89 1.32-4.34.53-1.7 1.07-3.39 1.59-5.1.41-1.34.73-2.71 1.19-4 .38-1.12.88-2.2 1.37-3.28.74-1.62 1.52-3.22 2.26-4.84a8.32 8.32 0 0 0 .36-1.24 1.14 1.14 0 0 1 1.49-1c1.16.16 1.34 0 1.23-1.17a1 1 0 0 1 .38-.85 7.17 7.17 0 0 1 2.26-.78 10.25 10.25 0 0 1 5.29.91c1.36.62 1.57 1.2.94 2.53-.4.85-.67 1.77-1.09 2.61-.8 1.62-1.68 3.19-2.49 4.8a12.1 12.1 0 0 0 -1.64 3.49 9.65 9.65 0 0 1 -.86 2.08c-.54 1.26-1.09 2.51-1.6 3.78a6.7 6.7 0 0 0 -.26 1.1c-.1.47-.16 1-.31 1.42-.33 1-.57 1.1-1.6.9a2.92 2.92 0 0 0 -1 .2 6.6 6.6 0 0 0 .32 1.07c.1.2.37.32.52.5.74.87.82 1.09.35 2.07a30.23 30.23 0 0 0 -1.27 3.67c-.77 2.38-1.57 4.76-2.29 7.16a30.66 30.66 0 0 0 -.77 3.56c-.32 1.83-.54 3.68-.87 5.52a6 6 0 0 1 -.63 1.65 2 2 0 0 0 1.8 3.09 2.74 2.74 0 0 1 .43.1c0 .31.09.64.12 1a1.08 1.08 0 0 0 1.48 1.09 6.33 6.33 0 0 0 3.75-2.92c1.84-2.6 3.59-5.26 5.38-7.9a27 27 0 0 0 2.18-3.3c.73-1.52 1.22-3.16 1.8-4.75.2-.55.38-1.12.57-1.68a7.48 7.48 0 0 0 .3-.84c.67-3.19 1.44-6.37 2-9.58.4-2.38 1.1-4.66 1.73-7a23.15 23.15 0 0 0 .36-2.72 9.38 9.38 0 0 1 1.34-4.18 27.36 27.36 0 0 0 1.59-3c0-.07.06-.18.12-.21 1-.55 1.16-1.68 1.63-2.59a2.94 2.94 0 0 0 .3-1.39c0-.82-.33-1-1.15-.86-.61.1-1-.21-.8-.72.31-.82.72-1.59 1.12-2.46.38 0 .36.37.49.68s.33.78.59.84.69-.22.91-.47c.69-.76.67-.94.06-1.82-.25-.37-.48-.74 0-1.21l.72.44c.55.33 1 .14 1-.47a12.52 12.52 0 0 0 .19-1.68 1.17 1.17 0 0 0 -.36-.74 17.29 17.29 0 0 1 -1.44-1.27 1.3 1.3 0 0 1 -.21-1.14.7.7 0 0 1 1.13-.07c.72.71 1.35.71 2-.19.31.28.49.56.74.63a2.8 2.8 0 0 0 .94-.05c0-.31 0-.73-.14-.92-.89-.93-.89-.9-.23-2 .13-.21.19-.65.07-.78a.92.92 0 0 0 -.83-.25 4.25 4.25 0 0 0 -1.09 1 4.49 4.49 0 0 0 -.47.92 5 5 0 0 0 -1.64-.05c-.46.15-.82.62-1.41 1.1-.08-.4-.26-.72-.18-1 .78-2.47.91-5.1 2-7.52a55.45 55.45 0 0 0 1.74-5.29 4.86 4.86 0 0 0 .19-.87 20 20 0 0 1 .94-4.73 36.69 36.69 0 0 0 1.18-5.28c.08-.36.18-.71.27-1.05a3 3 0 0 0 .57-.11c.37-.16 1-.28 1-.54a1.62 1.62 0 0 0 -.18-1.39c-.91-.76-.72-1.57-.45-2.49.6-2 1.15-4.1 1.74-6.14a12.06 12.06 0 0 1 .42-1.14c.12-.3.29-.58.38-.89.72-2.23 1.42-4.47 2.13-6.7a2.07 2.07 0 0 0 .2-.7c-.09-1.24.68-2.14 1.14-3.18.67-1.5 1.16-3.07 1.71-4.62.41-1.14.79-2.29 1.2-3.44.26-.72.83-.82 1.51-.77.92.06 1.37-.36 1.36-1.18s-.57-1.14-1.3-.73c-.15.09-.32.15-.67.31a5.51 5.51 0 0 1 .21-.88c.33-.74.69-1.47 1-2.2a6.34 6.34 0 0 0 .38-1c.57-2.13 1.09-4.28 1.71-6.4a10.56 10.56 0 0 1 1.11-2.4c.77-1.28.71-2-.35-3a11.4 11.4 0 0 1 -.88-1.07 2 2 0 0 1 2.54 0c.36.32.62.74 1 1.1a1.3 1.3 0 0 0 1.77.11.93.93 0 0 0 .19-1.37 1.49 1.49 0 0 0 -.77-.51c-.87-.26-1.35-.74-1.2-1.61a5.73 5.73 0 0 1 .86-2.12 1.89 1.89 0 0 0 .45-1.38 4.23 4.23 0 0 1 .1-1.44 3 3 0 0 1 .53-.82 4.78 4.78 0 0 0 .93.7 1.29 1.29 0 0 0 1 .06.87.87 0 0 0 .25-.82 1.43 1.43 0 0 0 -.77-.57 4.15 4.15 0 0 0 -1-.12c.08-.42.13-.74.22-1.06.19-.67.4-1.34.62-2 .51-1.53 1.13-3 1.53-4.6.35-1.34.46-2.75.71-4.12a3 3 0 0 1 .4-1 15.59 15.59 0 0 1 1.45-2.13 13 13 0 0 1 1.81-1.56c.65-.51 1.38-.93 2-1.48a1.8 1.8 0 0 1 1.52-.57 12.17 12.17 0 0 1 3.47.67 12.1 12.1 0 0 0 2.62.4 12.4 12.4 0 0 1 1.61.44c.41.13.81.29 1.21.46a7.41 7.41 0 0 1 1.25.56c1 .67 1.09 1.07.68 2.25a42.16 42.16 0 0 0 -1.3 4.26 17.91 17.91 0 0 1 -2.13 5.2c-1 1.71-2 3.44-3 5.15-.35.58-.72 1.14-1.1 1.7a5.53 5.53 0 0 0 -1 2.69 1 1 0 0 1 -.21.6 3.78 3.78 0 0 0 -.77 2.73 6 6 0 0 1 -.71 3 2.35 2.35 0 0 0 -.36 1.15c.06 2.34-1.16 4.43-1.28 6.74a3.71 3.71 0 0 1 -.67 1.45c-.33.58-.73 1.12-1.08 1.69a.84.84 0 0 1 -1.41.28c-.34-.26-.73-.7-1.1-.27a1.45 1.45 0 0 0 -.26 1.24 2.9 2.9 0 0 1 -.88 3.48 1.4 1.4 0 0 0 -.28 1.1 4.65 4.65 0 0 1 -.5 3.13 10 10 0 0 0 -.62 2c-.25.94-.45 1.89-.7 2.83a4.6 4.6 0 0 1 -.4.78l-.49-.6a7.81 7.81 0 0 0 -.61-.75c-.56-.54-1.07-.61-1.41-.22a1.27 1.27 0 0 0 .28 1.73 4.15 4.15 0 0 0 1 .44.88.88 0 0 1 .64 1.07 3.91 3.91 0 0 1 -.13.71c-.43 1.28-.89 2.54-1.33 3.82l-1.66 4.81c-.51 1.48-1 3-1.54 4.43-.38 1.1-.77 2.19-1.12 3.29-.83 2.62-1.63 5.25-2.44 7.88-.12.39-.3.75-.41 1.14a4.62 4.62 0 0 0 -.37 1.72 3.26 3.26 0 0 1 -.68 2.22 7.85 7.85 0 0 0 -1.41 4.72 3.41 3.41 0 0 1 -.46 1.76 4.89 4.89 0 0 0 -.54 3.43 1.94 1.94 0 0 1 -.24 1.43 11 11 0 0 0 -1.73 4.65c-.19.89-.49 1.75-.68 2.64a4.92 4.92 0 0 0 -.14 1.71 1.32 1.32 0 0 1 -.37 1.39 3.09 3.09 0 0 0 -1 2.23 6.82 6.82 0 0 1 -.46 1.86 1.59 1.59 0 0 0 .11 1.68 2 2 0 0 1 .1 2.14c-.56 1.22-1.1 2.46-1.6 3.71q-1.25 3.11-2.44 6.24a19.72 19.72 0 0 0 -.6 2c-.37 1.4-.71 2.82-1.07 4.22s-.7 2.6-1 3.91-.63 2.78-1 4.15c-.2.66-.7 1.22-.94 1.88a7.8 7.8 0 0 0 -.53 2.33c0 1.63 0 3.24-.85 4.72a1.56 1.56 0 0 0 -.15.87 6.47 6.47 0 0 1 -.77 3.28 11.67 11.67 0 0 0 -1 3.49 15.94 15.94 0 0 1 -1.05 3 6.14 6.14 0 0 0 -.46 1.44c-.15 1.75-.27 3.5-.32 5.25 0 .4.19 1 .47 1.14a1.61 1.61 0 0 0 1.31-.21 13.85 13.85 0 0 0 3.46-4c1.85-2.75 3.76-5.47 5.59-8.24a11.34 11.34 0 0 0 .76-1.91 5.1 5.1 0 0 1 .82-1.7c2-1.92 3.28-4.28 4.85-6.47a7.48 7.48 0 0 0 .42-.87c.55-1 1.12-2.08 1.68-3.13s.94-1.81 1.42-2.71a9.53 9.53 0 0 1 1-1.75c1.3-1.52 1.85-3.4 2.67-5.15s1.65-3.45 2.46-5.18c.56-1.19 1.11-2.39 1.67-3.59a5.91 5.91 0 0 1 .5-1.1 5 5 0 0 0 1-2.51 2.2 2.2 0 0 1 .73-1.21 11.58 11.58 0 0 0 2.89-4.79 36.11 36.11 0 0 1 3.44-7.65 4.84 4.84 0 0 0 .43-1c.21-.58.36-1.18.62-1.74a2.15 2.15 0 0 0 -.12-2.1 2 2 0 0 1 .3-2.63 3.68 3.68 0 0 0 1.06-3 4.15 4.15 0 0 1 .77-3.15.81.81 0 0 0 .19-.44c.05-1.44.58-2.83.2-4.32a3.11 3.11 0 0 1 .18-1.87c.37-.86 1-1.6 1.44-2.42a19.4 19.4 0 0 0 1.09-2.63c.64-1.75 1.19-3.52 1.77-5.29.12-.36.15-.74.26-1.1.24-.82.5-1.63.74-2.45a5.28 5.28 0 0 0 .28-1.17 1.37 1.37 0 0 0 -1.31-1.55q-2.5-.46-5-1a5.84 5.84 0 0 1 -3.14-1.9 2.66 2.66 0 0 1 -.25-3.09 14 14 0 0 1 2.13-2.31 2.54 2.54 0 0 1 1.59-.41 7.23 7.23 0 0 0 3.24-.58 5.24 5.24 0 0 1 1.57-.37 5.86 5.86 0 0 0 3.25-1.52 7.62 7.62 0 0 1 1.08-.69 3.36 3.36 0 0 0 2-2.68c.06-.77.29-1.54.36-2.31a2.61 2.61 0 0 0 -.22-1.15c-.36-.9-.21-1.16.72-1.44a1.68 1.68 0 0 0 .85-.74 27.76 27.76 0 0 0 2.29-6.78 10.26 10.26 0 0 1 1.25-2.78 21 21 0 0 0 2.54-5.6c.29-1 .86-2 1.24-3s.71-2 1-3a1.94 1.94 0 0 1 1-1.35c.68-.31.76-.74.24-1.25a1 1 0 0 1 -.1-1.5c.32-.52.54-1.11.82-1.67 1.13-2.27 2.27-4.53 3.39-6.81a12.83 12.83 0 0 0 1.06-2.53 7 7 0 0 0 .11-2.54 2.66 2.66 0 0 1 .69-2.37c.65-.71 1.17-1.54 1.82-2.25a5.39 5.39 0 0 1 1.38-1 8.12 8.12 0 0 1 4.68-1.13 11.67 11.67 0 0 1 2.39.61 15.8 15.8 0 0 1 1.51.59 1.66 1.66 0 0 1 1.15 2.17c-.21 1.24-.29 2.51-.53 3.75a3.73 3.73 0 0 1 -.75 1.88 7.63 7.63 0 0 0 -2 3.66 13.56 13.56 0 0 1 -1.77 3.78c-1 1.71-1.82 3.49-2.71 5.24-.32.62-.67 1.24-.93 1.89-1.22 3.08-2.46 6.15-3.58 9.27a5.35 5.35 0 0 0 -.06 2.54 2.81 2.81 0 0 1 -.61 2.63 1.78 1.78 0 0 0 -.43.68 4.07 4.07 0 0 1 -1.77 2.1 4 4 0 0 0 -1.61 2.88 2.8 2.8 0 0 1 -1.14 2.33 1.4 1.4 0 0 0 -.47 1.88 2 2 0 0 1 -.23 2.19 13.49 13.49 0 0 0 -.75 1.48 4 4 0 0 0 1.4.09 7.6 7.6 0 0 0 2-1.07 2.21 2.21 0 0 1 1.86-.57 12.52 12.52 0 0 1 1.82.36 2.13 2.13 0 0 0 2.13-.36 4.82 4.82 0 0 0 .62-.52 4 4 0 0 1 3.4-1.36 9.45 9.45 0 0 0 3.79-.69 21.76 21.76 0 0 1 3.88-.72c1-.15 2-.23 3-.33.59-.06 1.18-.11 1.77-.18l3.36-.43c.27 0 .53-.13.79-.17 1.47-.21 1.47-.21 2.37-1.2a1.74 1.74 0 0 1 .46.23 1.85 1.85 0 0 0 1.58.4c.69-.06 1.39 0 2.09 0a2.83 2.83 0 0 0 1 0 10.17 10.17 0 0 1 3.82-.48c.37 0 .75-.11 1.12-.17 1-.14 2-.34 3-.39a11.27 11.27 0 0 0 3.65-.62 5.38 5.38 0 0 1 1.59-.21l5.82-.34a2.36 2.36 0 0 0 .71-.15 8.55 8.55 0 0 1 3.67-.48 7.87 7.87 0 0 0 3.52-.7c2.36-1 4.79-1.26 7.13.26.81.53 1.71.91 2.56 1.38.59.32 1.12.73 1.11 1.48a1.57 1.57 0 0 1 -1.17 1.39c-1.78.63-3.55 1.29-5.37 1.77-.85.23-1.84-.06-2.71.15-1.57.37-3.08 1-4.63 1.41a6.38 6.38 0 0 1 -2 .32 10.7 10.7 0 0 0 -3.91.48 3.19 3.19 0 0 1 -1.5 0 4.13 4.13 0 0 0 -2.3.2 27.82 27.82 0 0 1 -2.77.91 7.52 7.52 0 0 1 -1.43.05 13.2 13.2 0 0 0 -1.73.15 23.56 23.56 0 0 1 -2.36.57q-4.44.38-8.88.61a21.53 21.53 0 0 0 -4.89.49c-1.26.36-2.62.32-3.91.61a24.49 24.49 0 0 0 -3.44 1.1c-.41.16-.73.29-1.12 0a1.87 1.87 0 0 0 -2.33.19 5.76 5.76 0 0 0 -.62.53 3.22 3.22 0 0 1 -2.78 1 7.5 7.5 0 0 0 -3.7.67 20.05 20.05 0 0 1 -3.71 1.13 3.5 3.5 0 0 1 -1.8-.27c-1.47-.54-2.14-.48-3.19.68a3.25 3.25 0 0 1 -2.92 1.05l-.65-.06c-1.72-.07-2.34.44-2.62 2.14-.37 2.24-.74 4.48-1.09 6.72a1 1 0 0 1 -1 1c-.77.1-1.09.61-1.11 1.41l1 .33a4.31 4.31 0 0 1 0 1c-.25 1.1-.55 2.2-.84 3.3a1 1 0 0 0 -.08.39c.3 1.37-.36 2.54-.85 3.71a6.71 6.71 0 0 1 -1.22 1.78 2.05 2.05 0 0 0 -.58 1.59 3.33 3.33 0 0 1 -.42 1.75 5.94 5.94 0 0 0 -1 3.85 1.84 1.84 0 0 1 -1.11 2.25c-.55.21-.64.73-.66 1.29 0 1.13-.09 2.26-.13 3.38v1.38a3.3 3.3 0 0 1 -.05.89c-.48 1.48-1 2.93-1.48 4.42-.27.9-.37 1.84-.54 2.76a6.53 6.53 0 0 1 -.3 1.49 1.48 1.48 0 0 0 .21 1.72c.81 1 .76 1.31-.07 2.31s-1.43 1.83-2.13 2.75a1.68 1.68 0 0 0 -.25 1.83 3.33 3.33 0 0 1 .1 2 23.24 23.24 0 0 0 -.18 3.14 2.15 2.15 0 0 1 -.66 1.67 1.9 1.9 0 0 0 -.47 2.39 5 5 0 0 1 -.33 3.63 4.1 4.1 0 0 0 0 3.11 5.83 5.83 0 0 1 0 2.61c-.12 1-.38 2-.57 2.93s-.36 1.85-.52 2.78q-.45 2.55-.89 5.1a1.62 1.62 0 0 0 0 .56c.1.51.24 1.14.82 1.15a1.69 1.69 0 0 0 1.17-.65 16 16 0 0 0 2.77-5 15.94 15.94 0 0 1 1-2c.83-1.78 1.65-3.57 2.45-5.38.4-.91.67-1.88 1.11-2.77.62-1.25 1.37-2.44 2-3.68.43-.84.75-1.73 1.17-2.58 1.31-2.62 2.67-5.22 4-7.86.72-1.48 1.32-3 2-4.51.87-1.91 1.76-3.81 2.65-5.72 1.08-2.32 2.35-4.56 3.21-7 1-2.78 1.65-5.69 2.46-8.54.42-1.45.87-2.89 1.31-4.34.09-.28.24-.55.31-.83.46-1.74.88-3.49 1.36-5.23.41-1.48.89-2.94 1.33-4.41.62-2.11 1.72-4.08 1.86-6.34a6.11 6.11 0 0 1 .28-.93 14.32 14.32 0 0 0 .48-2.35c.11-1.94.86-2.88 2.74-3.19a5.14 5.14 0 0 0 .8-.15c3.26-1.09 5.81.33 8.2 2.32.39.32.87.54 1.25.88a2.06 2.06 0 0 1 .7 1 4.83 4.83 0 0 1 -1.39 4.45 5.16 5.16 0 0 0 -1.61 3.36 18 18 0 0 1 -1.46 5.28 8.58 8.58 0 0 0 -.5 1.54 25.52 25.52 0 0 1 -2.31 6.11 8.7 8.7 0 0 0 -.33 1 12.53 12.53 0 0 1 -.52 1.68c-.48 1-1.07 2-1.56 3a3.49 3.49 0 0 0 -.35 1.23 2.49 2.49 0 0 1 -1 1.95 2.51 2.51 0 0 0 -1.07 2.16 3.08 3.08 0 0 1 -.68 1.86 19.58 19.58 0 0 0 -1.13 2l-.38.71-.44-.9a1.14 1.14 0 0 0 -1.18-.69c-.76 0-1.1.61-.66 1.22a15.75 15.75 0 0 0 1.64 1.66 26.49 26.49 0 0 1 -.63 3.42c-.5 1.62-1.32 3.12-1.38 4.88a2.84 2.84 0 0 1 -1.44 2.49 1 1 0 0 0 -.42 1.47 1 1 0 0 1 .08.75 2 2 0 0 0 -.14 1.79 3 3 0 0 1 0 1 20.91 20.91 0 0 1 -.14 2.17c-.2 1.3-.43 2.59-1.66 3.43a1.26 1.26 0 0 0 -.35 1c0 .18.5.34.8.46a2.63 2.63 0 0 0 .73 0c-.11.44-.19.8-.3 1.17-.47 1.61-.64 3.18.43 4.64.62.84 1.22.95 1.92.15a30.49 30.49 0 0 0 2.19-2.9c1.65-2.39 3.3-4.79 4.89-7.23.54-.83.9-1.78 1.4-2.65a11.48 11.48 0 0 1 .95-1.26s.1-.06.12-.11c.38-.79.76-1.57 1.11-2.37.24-.54.37-1.13.64-1.64 1-1.93 2.13-3.82 3.11-5.77a17.32 17.32 0 0 0 1.13-3.12 28.9 28.9 0 0 1 1.78-5.79 4.23 4.23 0 0 0 .2-1.19c.09-.54.2-1.07.3-1.61.71 0 1.37.89 1.75 0s-.63-.92-1.27-1.34c.18-.41.39-.82.56-1.24a7.41 7.41 0 0 0 .58-1.63 25.57 25.57 0 0 1 1.64-5.74c0-.13.16-.24.16-.37.07-1.7 1-3.13 1.57-4.65.68-1.73 1.52-3.39 2.28-5.09a6.68 6.68 0 0 0 .49-1.28 5 5 0 0 1 3-3.34h.08c2.48-1.41 4.92-.65 7.36.13a3.66 3.66 0 0 1 1.07.71 1.16 1.16 0 0 1 .3 1.58c-1.1 2.31-2.15 4.64-3.24 6.95-.22.46-.57.86-.8 1.31a47.72 47.72 0 0 0 -3.14 7.7c-.31 1-.74 2-1.08 3-.68 2.1-1.34 4.21-2 6.32s-1.33 4.33-2 6.49c-.27.85-.59 1.68-.89 2.52a43.94 43.94 0 0 0 -1.86 9.42 5.36 5.36 0 0 1 -.61 1.82 2.44 2.44 0 0 0 .32 3c.52.58 1 1.18 1.52 1.79a1.77 1.77 0 0 0 2.47.6 7.86 7.86 0 0 0 3.35-3c1.81-2.59 3.55-5.22 5.32-7.84a41.24 41.24 0 0 0 2.33-3.59c.61-1.16 1-2.44 1.48-3.65q1.15-2.8 2.32-5.59c.53-1.27 1.06-2.53 1.62-3.79a7.21 7.21 0 0 1 .68-1.27c.92-1.3 1.91-2.55 2.79-3.87a4.76 4.76 0 0 0 .49-1.51c.26-1.07.53-2.14.73-3.22s.28-2.14.46-3.2.41-2.06.6-3.09c.51-2.71 1-5.41 1.5-8.12.17-.92.38-1.84.55-2.77s.26-1.6.41-2.39.4-1.85.53-2.78a4.08 4.08 0 0 0 0-1.64 2 2 0 0 1 .66-2.37c.78-.62.74-1.22 0-1.85a1.83 1.83 0 0 1 -.19-2.36 1.24 1.24 0 0 1 1.7-.63 1 1 0 0 0 1.35-.4 1.45 1.45 0 0 1 1.5-.59 1.59 1.59 0 0 0 .72 0c1-.39 1.62.15 2.21.77a1.35 1.35 0 0 1 .17 2 7.19 7.19 0 0 0 -1.25 4.76 4.49 4.49 0 0 1 -.05 1c-.49 2.54-1 5.08-1.5 7.63-.11.56-.1 1.13-.21 1.69-.17.89-.41 1.77-.59 2.67s-.4 2.06-.58 3.09-.29 1.8-.43 2.69c0 .13-.09.25-.13.38-.14.57-.26 1.15.35 1.52.42.26 1.23-.11 1.51-.79.44-1.07.78-2.18 1.12-3.3a48.67 48.67 0 0 1 2.64-7c.56-1.16.89-2.43 1.36-3.63a23.36 23.36 0 0 1 2.66-5.77 8.84 8.84 0 0 0 1.3-3.12 21.28 21.28 0 0 1 1.77-4.24 3.7 3.7 0 0 1 2.51-1.88c.93-.27 1.87-.54 2.79-.85.73-.24 1.45-.39 2 .27a2.27 2.27 0 0 1 .48 2.48c-.61 1.5-1.27 3-1.85 4.49-.65 1.71-1.26 3.44-1.84 5.18s-1.2 3.75-1.77 5.63a13.5 13.5 0 0 0 -.33 1.58c-.24 1.35-.5 2.7-.68 4.05a6.54 6.54 0 0 0 0 2 14.86 14.86 0 0 0 2.8 6.21.88.88 0 0 0 1.36.2c1.61-1.33 3.48-2.44 4.11-4.65a1.19 1.19 0 0 1 1.34-.93 1.26 1.26 0 0 0 .56 0 1.31 1.31 0 0 0 .66-.48.76.76 0 0 0 -.19-.71c-.75-.58-.59-1.17-.14-1.83a1.66 1.66 0 0 0 .32-.74 10.29 10.29 0 0 1 1-3 8.41 8.41 0 0 1 2.77-3.3c.53-.42 1.11-.77 1.64-1.19a4.78 4.78 0 0 0 1.56-2.12 4.74 4.74 0 0 1 1-1.4c.65-.71 1.35-1.38 2-2a10.79 10.79 0 0 1 1.58-1.34 4.6 4.6 0 0 0 1.59-1.65c.8-1.34 1.54-2.75 3-3.5a.76.76 0 0 0 .36-.31c.48-1.16 1.59-1.54 2.53-2.14a8.46 8.46 0 0 0 1.51-1.2 28 28 0 0 1 7-5.08 27.17 27.17 0 0 1 2.7-1.45 2.46 2.46 0 0 1 1.78-.07 29.85 29.85 0 0 0 6.83 2c1.11.25 1.93.62 2.14 1.85a2.54 2.54 0 0 0 .45.85 4.59 4.59 0 0 1 .75 3.33 13.3 13.3 0 0 1 -2.31 5.62 52.42 52.42 0 0 0 -5.12 7.8 17.53 17.53 0 0 1 -3.39 5.11 7.1 7.1 0 0 0 -.83 1.1 26.48 26.48 0 0 1 -4.06 4.82 8.09 8.09 0 0 0 -1 1.25.84.84 0 0 0 1.25.32 70.34 70.34 0 0 1 11.66-3.84 30.06 30.06 0 0 1 6.49-.77c1.14 0 2.29-.23 3.43-.35a1.9 1.9 0 0 1 .48 0l3.43.54a2.72 2.72 0 0 0 .57 0 1.18 1.18 0 0 0 1.18-.7 1.23 1.23 0 0 0 -.39-1.39c-.22-.22-.4-.46-.61-.69a2.9 2.9 0 0 1 2.36-.22.64.64 0 0 1 .26.46 2 2 0 0 0 .63 1.67c.06.07.06.2.11.4-.25.06-.47.12-.7.15-.75.12-1 .38-.9 1.15a2.11 2.11 0 0 1 .05.72c-.1.33-.25.75-.51.9a1.13 1.13 0 0 0 -.61 1.12c0 1.49-.57 2.17-2 2.29a28.31 28.31 0 0 1 -6 .15 18.26 18.26 0 0 0 -3.47.15c-1.45.09-2.91.21-4.36.32a4.53 4.53 0 0 0 -.8.13c-2.45.65-4.92 1.24-7.34 2-1.48.45-2.88 1.17-4.32 1.73-1.1.43-2.24.77-3.35 1.19-.52.19-1 .46-1.53.69-.1 0-.18.12-.28.15-1.13.42-2.28.78-3.39 1.26s-2 1-2.94 1.5-1.87 1-2.76 1.51a4 4 0 0 0 -1.17 1.06 1.29 1.29 0 0 1 -1.2.66 2.42 2.42 0 0 0 -.64 0c-.79.18-1 .6-.68 1.34a3.07 3.07 0 0 1 .11.44c-.1 0-.17.07-.2 0-1-.84-1.05-.82-2.1 0s-1.87 1.38-2.84 2a3.9 3.9 0 0 0 -1.68 2.27 17.13 17.13 0 0 0 -1 4.66 1.23 1.23 0 0 1 -.15.62c-1 1.49-1 3.3-1.61 4.9a2.85 2.85 0 0 0 .22 2.35 4.16 4.16 0 0 1 0 3.53 13.84 13.84 0 0 0 -1.26 5.12 9 9 0 0 0 .1 1.37 1.31 1.31 0 0 0 1.91 1.1 7.51 7.51 0 0 0 2.92-2c.89-.9 1.83-1.75 2.73-2.64.38-.38.72-.8 1.07-1.21 1.71-2 3.36-4.16 5.15-6.13a63.45 63.45 0 0 0 4.2-5.13 59.2 59.2 0 0 1 5.13-5.93 26.92 26.92 0 0 0 4-5.26c.67-1.17 1.49-2.25 2.26-3.35.63-.9 1.31-1.77 2-2.67a4.44 4.44 0 0 0 .33-.69l-1.37-.88a.81.81 0 0 1 1.33-.19 1.05 1.05 0 0 0 1.63 0 7.18 7.18 0 0 1 4.45-1.44c1.44-.12 2.12.93 1.49 2.21-.36.72-.83 1.39-1.18 2.11-.7 1.43-1.34 2.88-2 4.31a8.85 8.85 0 0 1 -1.1 1.94 69.92 69.92 0 0 1 -4.9 5.39 40.18 40.18 0 0 0 -3.41 3.72 64 64 0 0 0 -3.91 5.75 17.14 17.14 0 0 1 -1.91 2.3c-1.13 1.19-2.28 2.37-3.47 3.5-2.24 2.11-4.49 4.21-6.79 6.25-.94.84-2 1.5-3 2.27a6 6 0 0 0 -1.08 1 7.18 7.18 0 0 1 -4.65 2.53c-1 .17-2 .31-3 .46a10.55 10.55 0 0 1 -6-.89 5.54 5.54 0 0 1 -2.14-1.78 10.21 10.21 0 0 1 -2-5.37 41.74 41.74 0 0 1 -.36-4.82 14.59 14.59 0 0 1 .35-1.89c.31-1.59.62-3.17.91-4.76.14-.77.25-1.54.37-2.31 0-.16.15-.32.13-.46a2.78 2.78 0 0 1 1-2.51c.23-.21.19-.7.29-1.06.17-.59.33-1.17.53-1.75.09-.28.28-.53.38-.8a30 30 0 0 0 2-7.08 10.84 10.84 0 0 1 .73-2.47c.45-1.24.27-1.69-.94-2.18a23.57 23.57 0 0 1 -2.45-1.06c-1.2-.65-1.75-1.89-2.41-3-.44-.73-.67-1.59-1-2.36a5.36 5.36 0 0 0 -.86-1.35.75.75 0 0 0 -1.29.16 11.45 11.45 0 0 0 -1 2.29c-.51 1.75-.9 3.54-1.4 5.3-.43 1.53-1 3-1.41 4.56a49.93 49.93 0 0 1 -3 7.95c-.48 1.14-.8 2.34-1.22 3.51-.59 1.62-1.27 3.21-1.78 4.85a35.83 35.83 0 0 0 -.81 3.78c-.22 1.11-.35 2.24-.6 3.34a46.84 46.84 0 0 1 -2.36 8.07 47.78 47.78 0 0 0 -1.58 5.27 11.15 11.15 0 0 1 -.49 1.54c-.7 1.52-1.91 1.87-3.38 1-.82-.47-1.63-1-2.43-1.45a2.3 2.3 0 0 1 -1.25-2.36 6.89 6.89 0 0 1 .14-1.44 32 32 0 0 0 1.1-6.29c.08-.53.22-1.06.32-1.58a3.74 3.74 0 0 0 .18-1.19 8.52 8.52 0 0 1 .26-3 4.71 4.71 0 0 1 .77-2.26.89.89 0 0 0 .2-.68 4.23 4.23 0 0 0 -.49-.92c-.27.18-.66.29-.79.54-1.06 2-2 4-3.14 5.93a39.24 39.24 0 0 1 -3.22 4.25 19.67 19.67 0 0 1 -2.74 3 24.49 24.49 0 0 1 -3.35 1.93 10.44 10.44 0 0 0 -1.5.93 3.89 3.89 0 0 1 -4.17.67 14.42 14.42 0 0 1 -4.26-2.44 2.84 2.84 0 0 0 -1.48-.48c-.51-.06-.87-.21-.86-.74a5.55 5.55 0 0 0 -1-3c-.38-.65-.64-1.38-1-2a1.16 1.16 0 0 0 -.78-.54c-.18 0-.46.4-.56.67-.66 1.68-1.26 3.38-1.92 5.05a12.5 12.5 0 0 1 -.73 1.25c-.51.94-1 1.89-1.49 2.85s-.73 2-2 2.27c-.29.07-.55.49-.71.8a17 17 0 0 1 -3.4 5 7.22 7.22 0 0 1 -3.3 1.8 9.19 9.19 0 0 0 -1.59.58 4.26 4.26 0 0 1 -3.56-.08c-2.51-1-3.57-3.13-4.7-5.22a9.22 9.22 0 0 1 -.65-3c-.19-1.28-.26-2.58-.47-3.85-.05-.33-.42-.62-.64-.92-.3.27-.8.5-.86.82a35.25 35.25 0 0 1 -1.82 5.25 23.41 23.41 0 0 1 -2.86 6c-.23.33-.39.71-.59 1.06a1.67 1.67 0 0 0 -.06 1.62 4.4 4.4 0 0 1 .16 1.22h-1.14-.39a17.58 17.58 0 0 0 -1.35 2.44c-.72 1.92-1.31 3.88-1.94 5.83a16.51 16.51 0 0 1 -3 5.32c-.8 1-1.42 2.15-2.13 3.22-.13.19-.3.44-.49.5-1.65.46-2.81 1.69-4.12 2.66a3.51 3.51 0 0 1 -3.11.68c-.65-.16-1.34-.18-2-.36a1.84 1.84 0 0 1 -1-.59 5.77 5.77 0 0 0 -3.13-2.4c-.27-.08-.48-.5-.63-.81-.24-.5-.41-1-.62-1.55-.05-.12-.16-.22-.2-.35-.45-1.4-1-2.79-1.32-4.21-.44-1.69-.77-3.42-1.15-5.13a3.22 3.22 0 0 1 .39-2.57 1.27 1.27 0 0 0 0-1.1 1.43 1.43 0 0 1 0-1.52c.24-.45.46-.92.67-1.39a2.09 2.09 0 0 0 -.08-2.23 1.46 1.46 0 0 1 0-1c.12-.61.31-1.2.47-1.79q.37-1.35.76-2.7c.07-.23.23-.47.2-.69s-.19-.65-.37-.7-.57.12-.85.22c-.06 0-.11.12-.13.2-.57 1.79-2 3.06-2.87 4.65a10.15 10.15 0 0 0 -.87 1.64c-.59 1.81-1.89 3.2-2.81 4.81q-.82 1.44-1.57 2.92a22.44 22.44 0 0 1 -3.87 6 46 46 0 0 0 -3.88 5.16c-.4.54-.86 1-1.28 1.56-1 1.22-1.93 2.46-2.92 3.67a5.79 5.79 0 0 1 -3.3 2.06c-1.47.32-3 .51-4.47.71a1.21 1.21 0 0 0 -1.17 1.12c-.21 1.25-.39 1.34-1.67 1.23a5.58 5.58 0 0 1 -3.5-1 4.85 4.85 0 0 1 -1.7-2.31.54.54 0 0 0 -.05-.15 5.7 5.7 0 0 1 -.9-4.39c.05-.28-.3-.63-.46-.95-.33.17-.77.26-1 .53a10.1 10.1 0 0 1 -4.46 3.5 13.29 13.29 0 0 0 -2.5 1.46 3.87 3.87 0 0 1 -3.3.62 11.57 11.57 0 0 1 -4.62-2.4 2.28 2.28 0 0 0 -1.91-.7 1.74 1.74 0 0 1 -.53-.12c0-.24 0-.47-.08-.7a7.89 7.89 0 0 0 -.4-1.72 28.51 28.51 0 0 0 -1.58-2.91c-.17-.28-.55-.44-.84-.66a3.62 3.62 0 0 0 -.62.86 22.72 22.72 0 0 1 -3 6.6 9.44 9.44 0 0 0 -1.15 2.39 7.41 7.41 0 0 1 -1.75 2.49c-.74.77-1.36 1.65-2 2.5s-1.37 1.87-2.11 2.76a7.3 7.3 0 0 1 -3.67 2.1c-.67.2-1.33.45-2 .72a2.39 2.39 0 0 1 -2.6-.17 1 1 0 0 0 -.35-.2c-2.12-.51-3-2.31-4.11-3.91a8.73 8.73 0 0 1 -1.37-5 5.35 5.35 0 0 0 -.22-1 3.16 3.16 0 0 0 -1.68 1.75c-.46 1.77-1.61 3.17-2.48 4.71s-2.07 3.29-3.08 5a15.78 15.78 0 0 0 -1.07 2.18c-.84 2-2.38 3.59-3.64 5.33s-2.34 3.37-3.6 5-2.77 3.31-4.14 5c-.73.9-1.38 1.87-2.12 2.76a6.93 6.93 0 0 1 -3.09 2.15 4.06 4.06 0 0 0 -1.34.74 13 13 0 0 1 -5 2.56c-.89.27-1.87.26-2.79.45s-1.6.45-2.41.66a9.39 9.39 0 0 1 -2.12.44c-1.59 0-3.18-.08-4.77-.17a5 5 0 0 1 -1.16-.32 6.29 6.29 0 0 0 -1.07-.36 15 15 0 0 1 -5.26-2 3.64 3.64 0 0 1 -.86-.83c-.7-.78-1.36-1.6-2.09-2.35a7.48 7.48 0 0 1 -1.8-2.46c-.24-.62-.7-1.15-1-1.76a28.48 28.48 0 0 1 -2.63-9 27.6 27.6 0 0 0 -1-4.4 3.15 3.15 0 0 1 .08-2.29 2.08 2.08 0 0 0 0-1.94 1.85 1.85 0 0 1 .12-1.84 3 3 0 0 0 .38-1.68 10.68 10.68 0 0 1 .56-4.47 16.64 16.64 0 0 0 .74-3.71 12 12 0 0 1 1.91-5.69 3.14 3.14 0 0 0 .53-2.59c-.24-1 .44-1.9.94-2.76.24-.42.59-.78.85-1.19a1.12 1.12 0 0 0 -.35-1.74c-1.08-.83-1.22-1.48-.41-2.59a11.61 11.61 0 0 1 1.7-1.92 5.18 5.18 0 0 0 1.59-3.65c0-.38 0-.76 0-1.13a3.91 3.91 0 0 1 1.48-3.19 7 7 0 0 0 2.44-4.18 2.87 2.87 0 0 0 -.11-1.48 1 1 0 0 1 .29-1.22 4.4 4.4 0 0 1 .44-.36 6.28 6.28 0 0 0 3-5.33 3.94 3.94 0 0 1 1.77-3 3.84 3.84 0 0 0 1.69-3.29c0-1 .69-1.73 1.14-2.54.72-1.29 1.54-2.54 2.13-3.89a6.48 6.48 0 0 1 1.85-2.4 2.48 2.48 0 0 0 .82-1.07 14.2 14.2 0 0 1 2.41-4.19 11.06 11.06 0 0 0 .74-1.74 5.79 5.79 0 0 1 .62-1.05c.38-.51.87-.95 1.21-1.48.66-1 1.28-2.06 1.88-3.11a16.73 16.73 0 0 0 .88-1.81c.2-.47.42-.89 1-1 1.54-.18 2.47-1.25 3.34-2.35a17 17 0 0 0 2.64-4.43c.35-.89.63-1 1.51-.56a2.47 2.47 0 0 0 2.37-.37 2.92 2.92 0 0 0 .37-.31c.35-.29.71-.74 1.18-.34s0 .73-.15 1.08a1.66 1.66 0 0 0 -.07.26c.37.55.91.43 1.36.21a2.39 2.39 0 0 0 1.57-1.73 7 7 0 0 1 1.61-3.22 14.41 14.41 0 0 0 2.72-5.47c.29-1.43 2.93-2.12 4.11-1.34.92.61 1.82 1.25 2.72 1.89a1.76 1.76 0 0 1 .73 1.54 8.34 8.34 0 0 1 -.7 3.85c-.89 1.78-1.52 3.69-2.29 5.53-.24.57-.61 1.08-.88 1.64-1 2.08-1.91 4.16-2.86 6.24a3.44 3.44 0 0 0 -.15.46c-.72 2.45-1.33 4.95-2.2 7.35-.7 1.94-1.13 4-2.35 5.74a4.74 4.74 0 0 0 -.44 1.29c-.2.64-.43 1.27-.6 1.92a6.85 6.85 0 0 0 -.31 1.89 11.07 11.07 0 0 1 -.66 4.13c-.4 1.17-.74 2.37-1.17 3.53a37.89 37.89 0 0 1 -1.61 3.8 9.76 9.76 0 0 0 -1 4.72c0 2.32-.76 4.44-1.36 6.61-.21.77-.31 1.58-.47 2.37s-.29 1.53-.47 2.28a13.85 13.85 0 0 0 -.56 2c-.22 2.65-1.07 5.22-.92 7.93a9.14 9.14 0 0 1 -.53 2.42c-.2.84-.38 1.67-.59 2.51a28.74 28.74 0 0 1 -1.12 4.39 2.54 2.54 0 0 1 -2.92 1.53 31.05 31.05 0 0 0 -3.28-.42 1.67 1.67 0 0 1 -1.72-1.32 13.35 13.35 0 0 1 .16-9.05 12.41 12.41 0 0 0 .42-2.55c.07-.42.16-.84.25-1.26.23-1.07.49-2.14.71-3.22s.43-2.17.61-3.25.31-2.29.55-3.42c.3-1.42.67-2.82 1-4.23.41-1.68.8-3.36 1.26-5 .23-.85.61-1.66.89-2.49.21-.63.41-1.26.56-1.91.25-1 .42-2 .7-3 .38-1.38.83-2.74 1.25-4.11.07-.23.08-.55.23-.68 1.2-1 .72-2.47 1.14-3.69a1 1 0 0 0 -.4-.9 1.09 1.09 0 0 0 -.94.34 16.53 16.53 0 0 0 -1.1 1.63 9.67 9.67 0 0 1 -.91 1.33 9.23 9.23 0 0 0 -2.08 4.67 4.68 4.68 0 0 1 -2.07 3.31 1.16 1.16 0 0 0 -.41.57c-.29.78-.48 1.6-.81 2.36a5 5 0 0 1 -1 1.51 2.83 2.83 0 0 0 -.82 1.53 4.67 4.67 0 0 1 -.62 1.45 8.25 8.25 0 0 0 -1.47 3.47 3.11 3.11 0 0 1 -.4 1c-.5 1-1 1.9-1.54 2.83a4.47 4.47 0 0 1 -.62.7 3.73 3.73 0 0 0 -.19-.85c-.18-.38-.55-.6-.93-.35a3.28 3.28 0 0 0 -.64.84 2.78 2.78 0 0 0 .85.56c.26.07.6-.08.91-.16zm256.05-61.67a3.58 3.58 0 0 0 .9-.67 18 18 0 0 1 5.36-4.61 1 1 0 0 0 .45-.54 3.54 3.54 0 0 1 1.3-1.71 21.66 21.66 0 0 0 1.87-1.74c2.46-2.71 5.09-5.28 7-8.45.75-1.22 2-2.08 2.35-3.64a15.61 15.61 0 0 1 1.12-2.41 3 3 0 0 0 0-1.05c-.35 0-.77-.05-1 .11-1.21.76-2.39 1.57-3.55 2.41a9.29 9.29 0 0 0 -1.59 1.36c-.91 1-1.74 2.12-2.59 3.2a10.46 10.46 0 0 1 -2.64 2.91 4.93 4.93 0 0 0 -1.13 1.25c-.64.8-1.25 1.62-1.87 2.43l-2 2.68a8.08 8.08 0 0 1 -.82 1.1 24.14 24.14 0 0 0 -3.5 4.74 9.23 9.23 0 0 0 -.75 1.34c-.27.72.13 1.32 1.09 1.29zm-219.45 74.34v1.46a1.06 1.06 0 0 0 .75 1.12 1.35 1.35 0 0 0 1.48-.36c.56-.62 1.14-1.23 1.69-1.85a1.28 1.28 0 0 0 -.21-2.07 1.37 1.37 0 0 1 -.46-.9c0-1-.8-1.51-1.63-1a2.82 2.82 0 0 0 -1.64 2.51c.04.39.02.74.02 1.09zm152.92-74.89c0 .24 0 .48.08.72a1 1 0 0 0 1 .84c.55 0 1.09-.14 1.21-.72a8.88 8.88 0 0 1 1.86-3.52 1.45 1.45 0 0 0 .33-.88c0-.36-.18-.87-.44-1a1.19 1.19 0 0 0 -1 .3c-.8.75-1.51 1.61-2.3 2.38a2.53 2.53 0 0 0 -.74 1.88zm-151.53 83.45c0-1.27-.37-1.59-1.46-1.4-.34.06-.7 0-1 .1a4.46 4.46 0 0 0 -1.09.26 1.14 1.14 0 0 0 -.68 1.33c.1.59.55.75 1.08.75h1a.85.85 0 0 1 .94.88v.4c.06.53.42.72.89.76s1 0 1.16-.49-.2-.7-.48-1a2 2 0 0 1 -.4-1 1.81 1.81 0 0 1 .04-.59zm1.77 6.49c-.39.27-.83.42-.88.65a1.18 1.18 0 0 0 .35.94c.7.64 1.44 1.17 1.48 2.27 0 .58.7.79 1.27.52.84-.4 1.39-1.77.74-2.39a19.12 19.12 0 0 0 -2.96-1.96zm71.91-90.9a2.57 2.57 0 0 0 -2 1.88 1.42 1.42 0 0 0 .73 1.49 1.25 1.25 0 0 0 1.56-.66 6.15 6.15 0 0 0 .6-1c.14-.35.32-.84.18-1.1s-.72-.37-1.07-.58zm-36.38 46.57c.23.17.31.24.4.29a3.44 3.44 0 0 0 .8.39c.08 0 .36-.34.33-.46a2.25 2.25 0 0 0 -.5-.84 6.61 6.61 0 0 0 -.73-.49 1.13 1.13 0 0 0 -1.48-.16 2.42 2.42 0 0 0 -.65 1.29 1.77 1.77 0 0 0 .25 1.08.94.94 0 0 0 .66.44c.18 0 .42-.28.54-.49a7 7 0 0 0 .38-1.02zm87-14.87a20.19 20.19 0 0 0 -2.19-.62.84.84 0 0 0 -1.07.88 2.29 2.29 0 0 0 1.86 1.56c.76.01 1.31-.67 1.38-1.79zm-33.69-90.66a4.08 4.08 0 0 0 -1.33.51 1.47 1.47 0 0 0 -.47 1.16c.08.35.55.67.92.86a.84.84 0 0 0 1.11-.4 3.39 3.39 0 0 0 .42-.59c.13-.33.35-.75.24-1s-.56-.36-.89-.54zm41.82 63.5.1.18c.41-.23 1-.36 1.18-.71.3-.5-.27-.84-.6-1.18a2.81 2.81 0 0 0 -.37-.31.94.94 0 0 0 -1.32.06 2 2 0 0 0 -.56 1.23c0 .58.59.68 1.09.72.16.02.33.01.49.01zm-20.39-32.24a1 1 0 0 0 -1.3-1.08 1.71 1.71 0 0 0 -1 2.3.92.92 0 0 0 .63.38 1.84 1.84 0 0 0 1.67-1.6zm-18.79 72.44-.18-.1c0-.94-.27-1.46-.92-1.42a1.33 1.33 0 0 0 -1 .5 1.87 1.87 0 0 0 0 1.35c.22.52.62 1.22 1.28 1 .38-.18.51-.88.82-1.33zm5.69-121.85a1.47 1.47 0 0 0 -1.37-1.66 1 1 0 0 0 -1 1 1.86 1.86 0 0 0 1.56 1.69c.54.06.81-.32.81-1.03zm62.17 73a1.15 1.15 0 0 0 -.11-.5c-.18-.27-.41-.6-.69-.67s-.47.33-.66.55a5.35 5.35 0 0 0 -.69 1c-.12.24-.26.61-.16.8a1.09 1.09 0 0 0 .74.48c.97.12 1.57-.5 1.58-1.63zm-9.82 15.58c-.87.68-.94 1.24-.31 1.95.18.2.36.4.56.58s.7.56 1.14.24a.91.91 0 0 0 .22-1.24 3.38 3.38 0 0 0 -1.59-1.5zm-68.48 61.34h.18c.22.59.46 1.18.65 1.79s.64.84 1.21.42a2.12 2.12 0 0 0 .58-.55c.15-.25.34-.62.26-.84a1 1 0 0 0 -.74-.47 1.83 1.83 0 0 1 -1.45-.52c-.23-.23-.56-.23-.67.19zm5.69-38.85a2.22 2.22 0 0 0 -.62.64c-.18.4.7 1.59 1.21 1.74a.73.73 0 0 0 .95-.51 1.18 1.18 0 0 0 .07-.23c.18-.84-.43-1.58-1.59-1.62zm9.59-108.55a1.52 1.52 0 0 0 -1.37 1.45c0 .48.19.86.74.87a1.51 1.51 0 0 0 1.48-1.32.87.87 0 0 0 -.85-1zm41.4 110.12c1.16 0 1.7-.63 1.56-1.52s-.7-1-1.28-.52a2.66 2.66 0 0 0 -.67.69 1.31 1.31 0 0 0 -.23.93c.07.3.52.37.63.44zm-24-75.05c0 .54.44 1 .89.73a5 5 0 0 0 1.43-1.13c.29-.33 0-.84-.48-1a1.45 1.45 0 0 0 -1.86 1.41zm8.17-34.2a.86.86 0 0 0 .85 1 1.6 1.6 0 0 0 1.37-1.27c0-.53-.32-.83-.94-.84a1.15 1.15 0 0 0 -1.3 1.12zm-60 88a.89.89 0 0 0 .83 1 1.32 1.32 0 0 0 1.22-1.17.92.92 0 0 0 -1-.87 1.05 1.05 0 0 0 -1.05 1.04zm94.83-13.63c.9 0 1.42-.36 1.4-.91s-.45-.82-1.09-.81-1.22.4-1.19.93.47.77.88.79zm-11.79 46.84c.41-.06.78-.22.77-.78s-.7-1.3-1.16-1.26-.73.49-.73 1a1.05 1.05 0 0 0 1.12 1.03zm-55.42-96.4a.77.77 0 0 0 -.79-.81c-.54 0-.94.42-.94 1.07s.16 1 .78 1 .94-.51.95-1.26zm-11.09 15.5c.19 0 .42 0 .55-.11a6.21 6.21 0 0 0 .69-.68c-.24-.22-.44-.55-.73-.64a1.83 1.83 0 0 0 -1.1 0c-.25.09-.57.43-.56.65s.35.47.59.64a1.4 1.4 0 0 0 .56.14zm69.94 50.75c0-.62-.35-1.09-.82-1.09s-.84.47-.82 1.09.17 1 .78 1 .85-.38.85-1zm51.22 13.21a13.25 13.25 0 0 0 1.36-1.28c.14-.18 0-.57 0-.86-.29 0-.65-.1-.86 0a3.78 3.78 0 0 0 -1 .95 1 1 0 0 0 -.1.73c.09.18.35.32.59.46zm-244.66 32c.73 0 1.21-.34 1.22-.87s-.22-.82-.76-.82-1.34.48-1.32.94.44.71.85.75zm272.62-58.14c.44 0 1.43-1.18 1.29-1.59a.73.73 0 0 0 -.52-.37 1.79 1.79 0 0 0 -1.37 1.11.64.64 0 0 0 .6.85zm-73.61-4.31c-.47.05-.91.11-.93.7a.88.88 0 0 0 1 .82c.57 0 1.09-.4 1-.81-.09-.66-.62-.68-1.08-.74zm12.87 27.19c.06.48.17 1 .76 1s.72-.5.73-1-.16-.89-.7-.91-.74.39-.8.88zm-83.14-63.88c.28.26.55.72.84.73.59 0 .74-.53.76-1s-.19-.81-.7-.8-.7.43-.9 1.07zm-125 92.93c.18.61.34 1 .89 1s.71-.45.69-.92-.2-1-.73-.85c-.34.05-.55.49-.83.76zm137.24-19.65c.61-.18 1.06-.29 1-.86s-.46-.7-.92-.69-1 .18-.88.71c.07.3.55.56.81.82zm18.85-63.6a9.49 9.49 0 0 0 1.55.53.77.77 0 0 0 .6-.46.86.86 0 0 0 -.37-.68c-.46-.32-1.17-.07-1.77.59zm38.63 37.05c-.13-.66-.4-.93-.87-.95s-.86.21-.86.74a.71.71 0 0 0 .83.78c.34-.06.62-.39.92-.59zm-6.69 2.79c.19.61.31 1.05.86 1s.73-.43.74-.89-.29-.87-.78-.79c-.28.06-.53.43-.8.66zm-154.43 77.48c-.05-.45-.2-.89-.75-.85s-.67.49-.66.95.2.82.7.81.7-.39.71-.91zm104.12-156.57v-.33c-.3-.2-.58-.53-.9-.57a.72.72 0 0 0 -.81.8.65.65 0 0 0 .81.68 3 3 0 0 0 .9-.58zm-87.82 158.32c-.47-.41-.7-.79-1-.85a.6.6 0 0 0 -.74.72 1.22 1.22 0 0 0 .67.84c.21.06.56-.36 1.07-.71zm20.73-41.54c.24-.26.63-.5.67-.79.08-.5-.39-.71-.8-.62s-.72.33-.78.58c-.1.49.33.62.91.83zm66.22-29.67v-.33a3.12 3.12 0 0 0 -.94-.46.55.55 0 0 0 -.63.71 1.05 1.05 0 0 0 .76.6c.26.02.54-.33.81-.52zm-8 26.78c-.43-.37-.66-.72-.94-.77-.48-.09-.73.28-.73.75s.25.78.68.71.55-.36.99-.69zm-8.14-87.84c-.36.4-.74.63-.77.9-.05.47.37.68.81.68s.79-.23.7-.67c-.06-.28-.4-.51-.74-.91zm63.43 78.26c0 .83.29 1.37.76 1.26a1 1 0 0 0 .58-.67c.03-.48-.56-.73-1.34-.59zm-71.05-65a4.3 4.3 0 0 0 -1.05-.72c-.12 0-.51.38-.53.61a.65.65 0 0 0 .71.77c.23.01.44-.29.87-.63zm-36.31 68.46c-.42-.33-.67-.67-.94-.68s-.51.42-.57.69a.55.55 0 0 0 .64.7c.26-.04.47-.37.87-.71zm184-35.69c-.4-.3-.66-.65-.88-.62a1 1 0 0 0 -.62.64.55.55 0 0 0 .64.69c.25-.05.46-.38.84-.71zm-193.94 58c-.32.44-.62.67-.67 1a.51.51 0 0 0 .65.6 1 1 0 0 0 .65-.63c.04-.28-.33-.56-.65-.99zm-47.95-25.94v-.32c-.27-.15-.55-.41-.82-.4s-.47.31-.7.48c.23.22.43.58.68.62s.56-.24.84-.38zm178.73-35v-.28c-.23-.16-.5-.49-.69-.45s-.46.38-.69.6c.2.21.39.57.6.58s.52-.28.78-.44zm-85.11 5v-.28c-.24-.16-.51-.47-.7-.43s-.46.39-.68.6c.21.2.41.57.62.57s.5-.33.76-.5zm172.23-31.2c-.38-.34-.63-.71-.8-.67a1 1 0 0 0 -.63.62c0 .16.33.56.55.6s.47-.28.88-.55zm-50 25c-.41-.28-.67-.57-.83-.53s-.48.37-.72.58c.2.21.41.59.6.58s.56-.34 1-.65zm-220.7 114.16c-.34.42-.66.65-.69.91s.34.42.53.64c.22-.23.52-.43.62-.7s-.22-.38-.46-.85zm86.06-101.79h-.29c-.16.23-.47.48-.44.69a.92.92 0 0 0 .58.59c.14 0 .56-.3.56-.46s-.27-.56-.42-.82zm-31.12 50.6c.25-.46.53-.74.48-.94s-.4-.39-.62-.58c-.19.22-.51.43-.52.66s.32.44.66.86zm172.6-30.75v-.29c-.23-.16-.49-.47-.7-.44a.88.88 0 0 0 -.56.59c0 .14.33.51.53.53s.48-.26.72-.4zm38.32-55c-.28.45-.58.72-.54.92a.87.87 0 0 0 .66.49c.17 0 .52-.36.51-.55s-.31-.45-.63-.91zm-234.39 102.01v-.28c-.24-.16-.5-.47-.7-.44a.88.88 0 0 0 -.55.61c0 .15.33.53.53.53s.53-.27.72-.42zm138.5-36.86h-.29c-.16.23-.47.48-.45.69a.87.87 0 0 0 .58.57c.15 0 .52-.32.54-.51s-.19-.49-.33-.76zm-194.29 44.73c-.37-.29-.6-.61-.77-.58s-.42.35-.62.54c.19.19.36.49.58.52s.42-.24.81-.48zm201.2-81.26c.29-.34.63-.58.59-.74a.88.88 0 0 0 -.58-.56c-.16 0-.51.31-.54.52s.27.42.53.78zm-58.19-65.73.44-.05a4.07 4.07 0 0 0 .09-1c0-.12-.33-.3-.48-.28s-.41.27-.39.38a4.3 4.3 0 0 0 .34.95zm45 53.93c-.37-.26-.62-.56-.79-.52s-.4.36-.6.57c.2.17.39.47.59.49s.4-.28.77-.54zm-185.72 93.27c.43-.43.47-.86.06-1.22a.69.69 0 0 0 -.63.19c-.22.48-.08.88.57 1.03zm84.7-51.3c-.42-.25-.67-.51-.87-.48a.81.81 0 0 0 -.48.58c0 .13.34.45.52.44s.43-.26.83-.54zm111.95-29c.09.39.08.73.25.89s.5.17.88.28c-.02-.82-.28-1.15-1.14-1.21zm-116.68 48.11c.42-.35.54-.72.17-1.1a.67.67 0 0 0 -.64.1c-.25.43-.14.81.47 1zm68.72-132.13c-.4-.24-.64-.51-.83-.47s-.36.35-.54.54c.19.17.38.47.59.49s.4-.28.78-.56zm-120 97.36c-.32-.3-.59-.63-.66-.59a1.4 1.4 0 0 0 -.57.61c0 .1.28.51.35.49a4 4 0 0 0 .84-.52zm111.95 48.39c-.32-.24-.52-.5-.73-.5s-.45.36-.43.51a.82.82 0 0 0 .5.54c.07.03.3-.28.61-.55zm-108.93-30.73c-.43-.24-.68-.51-.87-.46a.81.81 0 0 0 -.46.59c0 .13.34.45.52.44s.41-.28.81-.57zm163.2-14c.48-.26.62-.6.32-1a.67.67 0 0 0 -.64 0c-.29.45-.23.82.31 1.04zm-192.31 94c-.32-.25-.51-.51-.69-.5s-.36.29-.53.45c.16.17.31.47.49.49s.38-.15.72-.37zm154.34-124.26c.2-.36.43-.59.39-.75a.76.76 0 0 0 -.55-.4c-.11 0-.39.32-.37.47s.27.36.53.68zm-128 22c.22-.35.45-.55.44-.74s-.31-.46-.43-.43a.74.74 0 0 0 -.5.46c-.04.19.22.39.46.73zm-39.37 89.35c-.29-.25-.47-.51-.61-.49s-.37.27-.55.41c.14.16.27.45.42.46s.4-.19.74-.38zm7 2.91c-.32-.21-.53-.46-.67-.42a.79.79 0 0 0 -.47.49c0 .1.29.42.44.41s.37-.24.68-.48zm197.93-67.94c-.31-.23-.49-.47-.69-.48s-.46.31-.43.43a.79.79 0 0 0 .47.5c.12.03.34-.22.65-.45zm-198.65 39.29c-.21.3-.44.49-.42.66s.27.32.43.47c.17-.18.41-.33.47-.54s-.25-.32-.48-.59zm158.65-78.3c-.29-.23-.46-.47-.62-.46a.62.62 0 0 0 -.45.41.61.61 0 0 0 .4.45c.13.03.32-.2.67-.4zm109.33-14.65c-.19.32-.39.5-.38.68s.26.26.4.39c.14-.16.36-.3.4-.48s-.2-.3-.42-.59zm-190.15 73.87h.31c.08-.18.24-.39.2-.55s-.3-.24-.46-.35l-.2.13zm-75.18 52.79c-.28-.21-.44-.41-.58-.4s-.28.23-.42.35c.13.14.24.37.39.39s.29-.16.61-.34zm228.44-134.44c.2-.23.36-.35.39-.49s-.17-.33-.24-.32a.55.55 0 0 0 -.4.26c-.03.12.12.29.25.55zm-196.06 34.85c.15-.2.33-.34.3-.42a.59.59 0 0 0 -.33-.33c-.06 0-.28.19-.28.29s.16.26.31.46zm-9 18.11c-.15.2-.3.32-.31.45s.21.31.26.29a.62.62 0 0 0 .34-.31c.04-.07-.13-.22-.28-.39zm3.14 12-.41.06a5.17 5.17 0 0 0 .13.61 1 1 0 0 0 .34-.06 4.36 4.36 0 0 0 -.05-.57zm144.21 6.45c-.18-.12-.28-.25-.4-.26s-.17.16-.25.24c.1.1.19.23.31.27s.19-.13.36-.25zm91-60c-.18-.11-.29-.23-.41-.24s-.16.16-.24.25c.1.09.2.22.31.26s.19-.16.34-.29zm-59.61 56.85v.22l.38.07v-.34zm-47.57-42.79c-.13-.12-.18-.2-.26-.22s-.17.06-.17.1 0 .21.1.24.17-.07.33-.13zm-34.95-7c-.07-.11-.12-.23-.15-.22a.83.83 0 0 0 -.24.11c0 .06.06.17.1.18a.88.88 0 0 0 .29-.05zm75.87 23c-.06-.09-.09-.19-.14-.2s-.13.05-.19.08.05.16.1.18.13.01.24-.03zm34.05-13.23c-.07-.06-.13-.14-.18-.14s-.11.08-.16.12l.18.19zm-207.9 51.14c-.09-.06-.15-.13-.2-.13a.2.2 0 0 0 -.13.15.2.2 0 0 0 .15.13c.05.01.11-.08.18-.15zm44.89-15-.12-.13a1 1 0 0 0 -.14.14s.07.1.09.1a.77.77 0 0 0 .17-.08zm197.89-53-.07-.08v.07z"/><path d="m10.37 227.23c-.76-1.34-1.86-2.36-2.31-4a4.81 4.81 0 0 1 .67.29c.77.54 1.13.37 1.26-.59a9.4 9.4 0 0 1 .25-1c.93.79.96 3.68.13 5.3z"/><path d="m158 187.46a2 2 0 0 1 .12-.69 1 1 0 0 1 .57-.48.77.77 0 0 1 .66.3 3.61 3.61 0 0 1 .26 1.46.91.91 0 0 1 -.69.59 1.47 1.47 0 0 1 -.84-.54c-.08-.1-.08-.41-.08-.64z"/><path d="m30.17 137.66a3.93 3.93 0 0 1 .16-.53 13.75 13.75 0 0 0 .72-1.47c.24-.71.82-1 1.35-1.38.6.78-.91 3.08-2.23 3.38z"/><path d="m340.38 101.49c-.44-.5-.6-1.67-.2-2a1.34 1.34 0 0 1 1.06-.21c.18 0 .41.59.34.84a2.09 2.09 0 0 1 -1.2 1.37z"/><path d="m323.91 95.4c.76-.62 2.81-.46 3.18.24a2.4 2.4 0 0 1 -3.18-.24z"/><path d="m1.86 224.05c.54 0 .87.32.89.91s-.27 1-.78 1a.89.89 0 0 1 -.91-.93.82.82 0 0 1 .8-.98z"/><path d="m342.2 98.61c.3-1 1.48-1.69 2.21-1.32a1.61 1.61 0 0 1 -2.21 1.32z"/><path d="m322.45 106.37a1.59 1.59 0 0 1 -2.24 0 1.61 1.61 0 0 1 2.24 0z"/><path d="m.44 244.73c-.65-.65-.49-1.08-.09-1.43s.81-.43 1.26.26z"/><path d="m151.8 184.22a3.29 3.29 0 0 1 .65 1c.1.44-.32.57-.7.55a.64.64 0 0 1 -.68-.8 2.33 2.33 0 0 1 .43-.72z"/><path d="m3.35 216.11-2-.5a1.2 1.2 0 0 1 1.55-.43c.24.06.41.39.61.6z"/><path d="m153.08 33.5c0-.43 0-.8.15-1s.5-.2.82-.31c.14.81-.13 1.14-.97 1.31z"/><path d="m88 106.39a1.36 1.36 0 0 1 1.66 0c-.46.54-.88.61-1.66 0z"/><path d="m351.33 98.49a4.09 4.09 0 0 1 -.25-.85c0-.11.25-.34.36-.33s.47.2.47.31a3.3 3.3 0 0 1 -.21.86z"/><path d="m331 94.45c-.52.43-1 .5-1.43.05.34-.66.67-.69 1.43-.05z"/><path d="m154.88 184.62c.56-.64.86-.67 1.48-.18-.36.56-.88.41-1.48.18z"/><path d="m41.41 232.37c.51.46.51.86 0 1.28-.59-.44-.61-.65 0-1.28z"/><path d="m5.49 231.11c-.56 0-.84-.25-.71-.72a.56.56 0 0 1 .49-.25c.51.17.37.54.22.97z"/><path d="m325.29 92.42.46 1c-.91-.12-.95-.21-.46-1z"/><path d="m21.24 150.2v-1.25c.58.47.59.65 0 1.25z"/><path d="m30.27 134.38c-.46-.33-.35-.66-.05-1h.27l.08 1z"/><path d="m163.26 188.57h-.94c.35-.66.44-.67.94 0z"/><path d="m227.32 63.7h-.83v-.28l.82-.07z"/><path d="m225.22 81.2-.1-.8h.4l.1.8z"/><path d="m198.53.37-.59.15-.1-.3.57-.22z"/><path d="m154.11 186.42.17-.56.28.07-.09.58z"/><path d="m347.65 99.47c-.16.11-.26.24-.34.23s-.17-.15-.25-.23c.08-.08.16-.22.25-.23s.18.12.34.23z"/><path d="m153.66 41.23v.54h-.27l-.05-.56z"/><path d="m10.59 188-.06.52h-.23v-.52z"/><path d="m213.28 5.95-.28-.46.23-.16.32.46z"/><path d="m7.29 228.19.36.23a1.14 1.14 0 0 1 -.11.18l-.41-.17z"/><path d="m334.23 100.09.35.31-.16.18-.35-.31z"/><path d="m342.24 58.63v-.4h.17v.39z"/><path d="m211.37 5.31.36-.07v.15l-.35.14z"/><path d="m221.87 78.82.62.5-.23.19-.38-.7z"/><path d="m174.24 7.55v-.36h.16l.06.37z"/><path d="m205.26.61v-.36h.15l.11.34z"/><path d="m205.31 8.23c.08.07.16.11.17.16s-.07.11-.11.17-.15-.07-.16-.12.05-.12.1-.21z"/><path d="m6.37 201.74c-.07-.18-.13-.25-.12-.31s.08-.11.14-.14.11.05.11.08a1.84 1.84 0 0 1 -.13.37z"/><path d="m33.23 131v-.37h.14v.37z"/><path d="m221.88 78.81-.59-.33.14-.18.44.52z"/><path d="m306.49 63.43-.13.06a.82.82 0 0 1 0-.14s.06 0 .06 0z"/><path d="m14.33 166.43s0 0 .06 0 0 0 0 0l-.1.05z"/><path d="m238.36 78.35s0 0 0 .06 0 0 0 0l-.05-.1z"/><path d="m346.51 89.39h-.13s0-.06 0-.07l.12-.06z"/><path d="m95.44 114.46v-.05h.1s0 .05 0 .07-.08-.03-.1-.02z"/><path d="m286.28 83.32.12.07s0 .07 0 .07h-.13z"/><path d="m88.52 118.6a.67.67 0 0 1 -.07-.11s0-.05 0-.05l.11.06z"/><path d="m131.33 122.26v.09h-.07z"/><path d="m321.4 89.6s0 0 0 0-.01-.01 0 0z"/></svg>