<svg xmlns="http://www.w3.org/2000/svg" viewBox="0 0 504.6 274.4"><path d="M495.8 112.2c-.5.2-1 .3-1.3.6-1.9 2.3-3.9 4.5-5.7 6.9-1.4 1.9-2.7 4-3.9 6-1.6 2.5-3.1 5-4.7 7.5-.4.7-.9 1.3-1.3 1.9-.4.7-.7 1.4-1.1 2.1-.1.3-.2.6-.3.8l-4.2 6.9c-.2.3-.6.5-.7.6-.2 1-.3 1.8-.5 2.5-.8 2.1-1.5 4.1-3 5.9-.7.8-.9 2.1-1.4 3.1.2.2.4.5.8.9h-1.4c-.8.5-1.3 1.2-1.2 2.2.2 1.3-.3 2.4-1.2 3.2-1.7 1.4-2.1 3.4-3.1 5.2-.4.8-.8 1.7-1.4 2.4-1.6 2-2.7 4.2-3.5 6.5-.5 1.4-1.2 2.8-1.8 4.2-.3.6-.6 1.2-.8 1.8-.9 2.5-1.6 5.1-2.5 7.6-1 2.7-2 5.5-3.1 8.2-.3.8-.9 1.6-1.4 2.4-.2.3-.3.6-.4 1-.2-.1-.5-.3-.7-.3-.3 0-.7.1-.9.3-.2.2-.3.7-.2.9 1.1 1.3.9 2.6.4 4.1-.3.8-.2 1.7-.3 2.6-.2 1-.5 2-.7 2.9-.4 1.3-.8 2.6-1.1 3.8-.6 2.4-1.3 4.8-1.8 7.2-.7 2.9-1.3 5.8-1.8 8.7-.5 2.8-1.9 5.4-1.6 8.3.2 1.6-.9 2.8-2.2 3.4-1.2.6-2.4 0-3.4-.7-.8-.6-1.5-1.4-2.2-2.1-.7-.7-.8-1.6-.5-2.6 1.3-4 1.6-8.2 2-12.4.2-1.8.7-3.5 1.3-5.2 1-3 2.1-6 3.2-9 .3-.9.8-1.7 1.2-2.6 1.1-2.7 2.1-5.5 2.6-8.5.2-1 .8-1.9 1.1-2.8.7-1.7 1.3-3.5 1.9-5.2l1.8-4.5c.7.1 1.2.1 2.1.2-.1-.7-.1-1.2-.2-1.8-.5 0-.8.1-1.1.1 2.2-5.8 4.5-11.6 6.7-17.4-.1-.1-.2-.2-.3-.4-.7.3-1.5.5-2.2.8-2 1-2.1 1-3.8-.3-.9-.7-1.5-.7-2.1.4-.5.9-.9 1.9-1.4 2.7-1.3 2-2.6 3.9-3.9 5.9-1.8 2.8-3.4 5.6-5.3 8.3-2.8 3.7-4.7 7.9-8.2 11.1-2.5 2.2-4.4 5-6.9 7.3-1.6 1.4-3.7 2.3-5.5 3.3l-1.2.6c-2.8 1.7-5.8 1.8-8.7.5-1.7-.8-2.5-2.4-3.1-4.2-.2-.6-.3-1.1-.5-1.7-.1 0-.3-.1-.4-.1-.5.5-1 .9-1.5 1.5-1.2 1.4-2.4 2.8-3.7 4.1-.3.3-.8.6-1.2.7-1.4.3-2.8.5-4.2.6-2.9.2-8.2-2.8-8.4-7.1-.1-2.6-.2-5.2-.4-7.8 0-.4-.3-1-.5-1.1-.3-.1-1 .1-1.1.4-.7 1.1-1.3 2.2-1.9 3.3-.5 1-.9 2.2-1.5 3.2-.8 1.3-1.7 2.5-2.6 3.6-.5.6-1.2 1.1-1.8 1.7-2.2 2.3-4.8 2.8-7.8 1.5-.5-.2-1-.7-1.2-1.2-1.2-2.9-1.6-6-1.1-9.2.2-1.4.3-2.9.4-4.4.1-.6.2-1.1.3-1.7.8-2.7 1.7-5.3 2.6-8 .4-1.3 1-2.6 1.5-3.9.3-.2.6-.3 1-.5-.2-.3-.4-.6-.5-.9.1-.1.1-.4.2-.5 1.3-.6 1-1.8 1.3-2.8.4-1.4 1.1-2.8 1.8-4.1.6-1.2 1.1-2.5 2.3-3.2.1-.1.2-.2.2-.3 1.3-2.1 2.4-4.3 3.9-6.2 1.9-2.5 4.2-4.7 6.3-7.1.1-.1.3-.2.4-.3 1.4-2.4 3.7-2.2 6-2 1.7.2 3.4.7 5.1 1.1 1.6.4 2 .2 2.3-1.5.3-1.3 1.3-2.2 2.7-2.1 2.3.2 4.3 1.2 5.7 3.1.4.5.5 1.5.3 2.1-1.4 3.5-2.9 7-4.4 10.5-1.2 2.9-2.4 5.8-3.6 8.6-.4 0-.7.1-1.2.1.4.9 1.1 1.8.2 2.1-.4 1.5-.8 2.6-1.1 3.5-.8.2-1.4.4-1.9.6v.4c.4.2.7.4 1.1.7-.6 3.9-2.3 8.5-3.4 9.4.3 1.9.1 3.6-2.1 4.6.5.2.8.3 1.2.5-.1 1.4 0 3-.4 4.5-.5 2 .1 3.7.9 5.3.5 1.1 1.9 1.4 2.7.5.7-.7 1.3-1.5 1.7-2.4 1.4-3 2.9-6 4.2-9.1 1.1-2.7 2.1-5.4 2.9-8.1.6-1.9.9-3.8 1.4-5.8.2-.9.6-1.7.8-2.5.2-.7.3-1.4.3-2-.1-1 .1-1.8.8-2.4 1.1-1.1 1.8-2.3 1.9-3.8.1-.8.7-1.5 1.1-2.2 1.2-2.4 2.5-4.8 3.3-7.3.6-1.9 1.8-3.3 2.9-4.8 1.2-1.5 2.3-3.1 3.4-4.6.3 0 .6-.1 1-.1-.4-1.6.8-2.3 1.5-3.2 2.5-3.3 5.2-6.5 7.8-9.8 1.3-1.7 2.6-3.5 4-5.2.5-.6 1.3-1 2.1-1.3 1.5-.6 2.8-1.8 4.5-1.7 2 .1 2.9-1.2 3.5-2.7.6-1.6 1.7-2.1 3.3-2 1.1.1 4.7 2.7 4.8 3.8.1.7-.1 1.5-.5 2.1-1.1 1.7-2.4 3.3-3.5 5-1.9 3.1-3.6 6.4-5.4 9.5-.9 1.6-2 3.2-2.8 4.9-1.3 3-2.8 5.8-4.5 8.6-.9 1.4-1.3 3.1-2 4.6-.9 2-2 3.9-3 5.9-.8 1.7-1.6 3.4-2.3 5.1-.5 1.4-.8 2.8-1.9 3.9-.7.7-1.5 1-2.5.8-.7-.2-1.5-.3-2.3-.5-1.2-.3-2-1.2-1.8-2.4.2-1.4.6-2.9 1.1-4.2 1.3-3.1 2.7-6.2 4.2-9.2 1.7-3.6 3.5-7.2 5.3-10.8.7-1.4 1.5-2.7 2.4-4 0-.4.1-.8 0-1.2-.1-.3-.3-.6-.6-.7-.8-.3-1.6-.6-2.4-.8-.3-.1-.6-.1-1-.1-.1.1-.1.2-.2.3.3.4.6.7.9 1.1.7 1.1.2 2.1-.5 3-.5.7-1.2 1.4-1.7 2.1-.2.4-.3.9-.5 1.3-2.3 3.1-4.6 6.1-6.2 9.5-.6 1.3-.9 2.8-1.4 4.2-.1.4-.3.8-.6 1.2-2.2 2.9-3.1 6.3-4.1 9.7-.5 1.7-1.3 3.2-1.9 4.9-.4-.1-.7-.1-1.1-.2-.2.3-.4.6-.5.9.5.8 1.7 1.3 1 2.5-.2 0-.4.1-.7.1-.1.3-.2.7-.2.7 1 2.6.5 5 .5 7.3-.5.3-.8.5-1.2.7.1 0 .2.1.4.1 0 1 0 2.1.2 3.1.1 1 .3 1.9.5 2.9.1.7.2 1.3.3 2 .2 1.9 1 2.5 2.7 1.7 1-.5 2.1-1.1 2.9-1.9 2.9-3 5.8-6.1 8.6-9.3 2.1-2.4 4.1-4.9 6-7.4 1.8-2.4 3.3-4.9 5-7.3 2.9-4.2 5.9-8.3 8.9-12.4.8-1.1.8-2.2.5-3.5-.3-1.1-.2-2.3-.1-3.5 0-.9.3-1.8.5-2.6.6-2.4 1.3-4.8 2-7.3.4-1.6.7-3.2 1.4-4.7.9-2.1 2-4.2 3.1-6.2 2.6-4.4 5.4-8.8 8-13.2 1.7-2.8 3.3-5.7 4.9-8.6.6-1.1 1.4-2 2.9-2 1 0 2-.4 3-.4 1.6-.1 2.6 1.3 2.1 2.9-.6 2-2 3.4-3.2 5.1-1.6 2.3-3 4.7-4.5 7.1-.9 1.5-1.7 3.1-2.6 4.7-1.4 2.3-2.8 4.6-4.2 7-1.1 1.8-2.2 3.5-3.1 5.4-1.9 3.8-3.7 7.6-4.4 11.9-.1.6-.4 1.2-.6 1.8-.2.8-.5 1.6-.4 2.4 0 .5.5 1.3 1 1.4.5.2 1.2-.2 1.8-.3l.1-.1c3.6-3.7 6.9-7.7 9.8-12-.2-.5-.4-1.1-.6-1.7.4-.3.7-.6 1.1-.8.3.3.6.4.9.7.3-.4.6-.7.9-1.1 1.9-2.7 3.7-5.3 5.6-8 .4-.6.9-1.1 1.4-1.7.1-.1.2-.3.3-.5.9-2.3 1.6-4.6 2.6-6.7.9-1.8 2.2-3.4 3.2-5.2l5.4-9.3c1.4-2.3 2.8-4.5 4.3-6.6.3-.5 1-.8 1.5-1.1 1.1-.5 2.2-1 3.2-1.5 2.3-1 3.3-.8 5.1.9.2.2.7.3 1 .5-.6.8-.6 1.6-.6 2.4zm-69.7 31.7c.2-.2.5-.4.7-.5-.2-.1-.5-.1-.7-.2-.2-.3-.3-.7-.5-1-.1 0-.3.1-.4.1 0 .3 0 .7.1 1 0 .1.5 0 .7 0v.4c-.2.2-.4.3-.6.5l.3.3c.1-.2.3-.4.4-.6zm-19.5 49.3c-.1-.2-.2-.4-.2-.6-.1 0-.2.1-.3.1.1.2.3.4.4.6-.1.3-.1.6-.2.9.1.1.1.2.2.2.2-.1.5-.3.6-.4 0-.3.2-.8-.5-.8zm-30.9-22.3c-.1.6-.2 1.3-.4 1.8-.5 1.3-1.1 2.6-1.6 3.9-.6 1.6-1.1 3.3-1.7 4.9-.2.4-.6.9-1.1 1.1-.7.3-1 .7-.4 1.3.1.2.2.5.2.7-.6 2.3-1.2 4.5-1.9 6.8-.4 1.3-1.1 2.5-1.5 3.8-.3 1-.5 2.1-.6 3.1 0 .4.3 1.1.7 1.2.3.1.9-.3 1.2-.6.6-.8 1.2-1.8 1.7-2.7 1.8-3 3.4-6.1 5.3-9.1 1.5-2.3 2.3-5.1 4.8-6.8-.1-.3-.3-.6-.4-.9.2-.3.4-.7.6-1 1.7-2.6 3.8-4.9 5-7.8.3-.7.7-1.4 1-2.1 1.1-2.1 2.3-4.1 3.4-6.2.7-1.4-.7-3.9-2.3-4.1-.3 0-.6 0-.8.2-.9.7-1.8 1.4-2.5 2.2-1.5 1.6-3 3.3-4.5 4.9-.4-.3-.6-.5-.9-.8-.6.7-1.2 1.3-1.7 1.9.9 1.6 0 3.8-1.6 4.3zm56.2-18.1c.6 1.1 1.1 1.4 1.5.7.3-.5.5-1.2.7-1.7-1.1-.4-1.7 0-2.2 1zm-55.2 14.1c-.5-.7-.8-1.2-1.2-1.9-.5.2-.9.4-1.4.6.2.4.5.7.7 1.1l.1-.1c0 .2 0 .5.1 1 .6-.2 1.1-.4 1.7-.7zm11.7 11.2c-.1.3-.3.5-.4.8.2.7.8.9 1.2.4.4-.5.6-1.3.4-1.8-.2-.5-.9-.7-1.5-.2 0 .3.1.5.3.8zm81.5-38.5c-.2 0-.4-.1-.6-.1-.4.6-.7 1.2-1 1.9 0 .1.6.6.6.5.4-.3.9-.7 1.1-1.1.2-.3-.1-.8-.1-1.2zm-64.8 46.8c0-.5-.1-1.1-.1-1.7-1.2.7-.8 1.6-.9 2.4.5.1.9.2 1.3.3.1-.1.2-.2.2-.3 0-.2-.2-.5-.5-.7zm16.8-33.4c-.5-.4-.9-.6-1.2-.9-.5.4-.9.8-1.4 1.2.2.3.3.5.5.7.6-.3 1.2-.6 2.1-1zm43.6-6.6c-.2 0-.3 0-.5.1-.1.4-.4.8-.3 1.1.1.3.6.5.9.6.2 0 .7-.5.6-.5-.1-.5-.4-.9-.7-1.3zm23.7-34.6c-.1 0-.2 0-.4-.1-.2.6-.3 1.2-.5 2.1.7-.2 1.1-.3 1.4-.4-.1-.6-.3-1.1-.5-1.6zm-74.4 44.6c1 1.1 1.3 1.1 1.9.4-.6-1.1-.9-1.1-1.9-.4zm-8.9 34.6c.6.1.9.1 1.6.2-.3-.6-.4-1.1-.6-1.5 0-.1-.5 0-.6 0-.1.4-.2.8-.4 1.3zm-20 .8c.3.5.5.9.8 1.1.2.1.8 0 1-.3.2-.2.1-.6.1-.9-.7.1-1.1.1-1.9.1zm-16.9-9.9c-.5-.3-.7-.6-1-.6-.2 0-.4.3-.6.5.2.2.4.5.7.6.2.1.5-.2.9-.5zm105.3-48.2c0 .2-.1.3-.1.5.3.2.6.5 1 .8.2-.4.4-.6.7-1.2-.7 0-1.1 0-1.6-.1zM384 186.1c.1-.3.3-.6.3-.9 0-.2-.3-.4-.5-.7-.8.7-.7 1.1.2 1.6zm-8.3-16.1v-.4c-.3-.1-.7-.3-.9-.2-.3.1-.4.5-.6.7.1.1.2.2.2.3.4-.1.8-.3 1.3-.4zm45.2-21.9c.5.4.8.7 1.3 1.1 0-1.3-.3-1.5-1.3-1.1zm-29.7 22c-.2-.7-.3-1.1-.4-1.8-.9.9-.6 1.3.4 1.8zm12.6 12.4c-.5.3-.8.5-1.4.8.6.2.9.4 1.4.5.1-.4 0-.7 0-1.3zm-25.2 4.2c.1.1.2.1.3.2.3-.2.6-.4 1.1-.7-.5-.3-.7-.4-1.1-.6-.2.5-.2.8-.3 1.1zm-6.1-19.2c0 .1-.1.2-.1.4.2.2.5.4 1 .8 0-.6.1-1.1 0-1.1-.2-.2-.6-.1-.9-.1zm89.2-3c-.4-.3-.5-.5-.8-.5-.1 0-.4.3-.4.5s.2.5.4.5.4-.3.8-.5zm-88.8 9.4c0-.6.1-1.1.1-1.8-.9.7-1 1.1-.1 1.8zm50-24.5c1 .4 1.2 0 1.3-.6l-.3-.3c-.3.3-.6.6-1 .9zm58.1-23v.6c.3 0 .6.1.9.1v-.7h-.9zm-62.8 25.1c.2 0 .4 0 .6.1 0-.4 0-.7.1-1.1-.2 0-.3 0-.5-.1-.1.4-.2.7-.2 1.1zm-49.1 24.6c.4-.3.7-.5 1.1-.9-1.2-.3-1.3-.2-1.1.9zm19.2 9.3c-.1.1-.1.2-.2.3.2.2.4.5.6.5.2 0 .4-.3.6-.5 0-.1-.1-.2-.1-.3h-.9zm-4.9 4.2c0-.6.1-.9 0-1-.1-.1-.4-.1-.7-.1 0 .1-.1.2-.1.3l.8.8zm-5.4 0c-.1-.1-.3-.1-.4-.2-.1.3-.3.5-.4.8.1.1.3.1.4.2.2-.3.3-.6.4-.8zm48.1-49c-.1.1-.2.3-.4.4.3.2.5.5.8.7l.3-.3c-.2-.3-.5-.5-.7-.8zm-3.6 4.6c.1.1.3.1.4.2.2-.3.3-.6.5-.9-.1-.1-.3-.1-.4-.2-.2.3-.3.6-.5.9zm-53.8 32.1l.4.4c.2-.2.4-.5.6-.7l-.3-.3c-.3.2-.5.4-.7.6zm24.1-4.8c.1.2.2.3.3.5.3-.2.6-.5 1-.7-.1-.1-.2-.3-.2-.4-.4.2-.8.4-1.1.6zm39.9-15c0-.1.1-.2.1-.3-.2-.2-.3-.4-.6-.5-.1 0-.3.2-.4.4 0 .1.1.2.1.4h.8zm-5-16c-.1.2-.1.3-.2.5.3.1.5.2.8.2 0 0 .2-.4.1-.5-.1 0-.4-.1-.7-.2zm-45.5 47.4h-.4c0 .3.1.6.1.9h.4c0-.3 0-.6-.1-.9zm-15.1-12c-.1-.2-.1-.3-.2-.5-.3.1-.6.3-.9.4.1.1.1.3.2.4.3 0 .6-.1.9-.3zm20.7 14.6c-.3-.5-.4-.7-.6-1.1-.3.3-.4.5-.7.8.5.1.7.2 1.3.3zm26.8-35.1c-.2 0-.3-.1-.5-.1 0 .3 0 .6-.1.9h.4c0-.2.1-.5.2-.8zm-45.8 18.4c.1-.1.2-.1.4-.2l-.3-.6c-.2.1-.3.2-.5.2.2.2.3.4.4.6zm62.5-18.3c-.1 0-.2 0-.4-.1-.1.2-.1.5-.2.7.2 0 .3.1.5.1.1-.2.1-.5.1-.7zm-5.6-16.7c-.1.1-.1.3-.2.4.2.1.5.2.7.3.1-.1.1-.2.2-.4-.2-.1-.5-.2-.7-.3zm-3.4 12.8c.1-.1.2-.3.3-.4-.2-.1-.4-.3-.6-.4l-.3.3c.2.2.4.4.6.5zm-19.1 33.9c-.2 0-.3.1-.5.1.1.3.2.5.3.8.1 0 .3-.1.4-.1-.1-.3-.1-.5-.2-.8zm-23.4-2.6c-.2-.2-.3-.4-.5-.4-.1 0-.3.2-.4.3.1.1.2.3.3.4.2 0 .4-.2.6-.3zm2.9 10.3v-.4c-.2 0-.4.1-.7.1v.3h.7zm1.1-13.4c.1.2.3.3.4.5.2-.1.4-.3.7-.4l-.5-.5c-.2.1-.4.3-.6.4zm40-30.1c.1-.1.2-.3.3-.4l-.6-.3c-.1.1-.1.2-.2.4.1 0 .3.2.5.3zm-55.4 20.7c0 .2-.1.3-.1.5h.8v-.4c-.2 0-.5-.1-.7-.1zm20.4-1.1c-.2-.1-.4-.3-.5-.3-.1 0-.3.2-.3.4 0 .1.2.3.4.3.1-.1.2-.3.4-.4zm79.9-24.7c.1.1.1.2.2.4.2-.1.4-.1.6-.2-.1-.2-.1-.3-.2-.5-.3.2-.5.3-.6.3zm-36.3 10v.3c.2 0 .5.1.7.1 0-.1 0-.2.1-.4-.4.1-.6.1-.8 0zm-50.7 28.2c0-.1-.1-.3-.1-.4-.2.1-.4.1-.6.2.1.2.1.3.2.5.1-.1.3-.2.5-.3zm2.3-1.4c0 .1 0 .3-.1.4.2 0 .4.1.7.1 0-.1 0-.2.1-.3-.3 0-.5-.1-.7-.2zm1.3 5.7h-.4v.6h.3c0-.2.1-.4.1-.6zm-4.1 1v-.3c-.2 0-.4 0-.6-.1v.4c.2.1.4.1.6 0zm25.6-4.7l-.3.3c.2.1.3.3.5.4l.3-.3c-.1-.1-.3-.3-.5-.4zm43 2.5c.1.1.1.2.2.4.2-.1.4-.2.5-.3-.1-.1-.1-.2-.2-.3-.1 0-.3.1-.5.2zm-8.3 26.6c.1-.1.1-.2.2-.3-.2-.1-.3-.2-.5-.4-.1.1-.2.3-.3.4l.6.3zm-61.8-30.6v-.4c-.2 0-.4 0-.7.1v.4c.2-.1.5-.1.7-.1zm-11.6-7c-.1-.1-.2-.2-.2-.3-.2.2-.4.3-.5.5.1.1.1.2.2.3.1-.2.3-.4.5-.5zm96.2-13.9c-.1-.1-.2-.1-.3-.2-.1.2-.2.3-.4.5.1.1.2.1.3.2.2-.2.3-.4.4-.5zm-34.2-3.6l.3.3c.2-.2.4-.3.5-.5l-.3-.3c-.1.2-.3.4-.5.5zm-11.2-6.2c-.2-.1-.3-.3-.5-.4-.1.2-.2.5-.1.7 0 .1.2.2.4.3 0-.3.1-.5.2-.6zm-29 21.1c0-.1.1-.2.1-.3-.2 0-.4-.1-.5-.1 0 .1 0 .3-.1.4h.5zm19.1 7.3c0-.1 0-.2-.1-.3-.2 0-.4.1-.6.1v.3c.3 0 .5-.1.7-.1zm9-26.4v-.3c-.2 0-.4-.1-.8-.2.2.3.3.5.4.6.1.1.3-.1.4-.1zm-26.6 15.9c-.1.2-.3.4-.3.5 0 .1.2.3.3.3.1-.1.3-.2.4-.3 0-.2-.2-.3-.4-.5zm-4.4 13.7v1.2c.3-.3.5-.5.5-.6 0-.2-.2-.3-.5-.6zm41.6-38.7c-.1-.1-.1-.2-.2-.3-.1.1-.3.2-.4.3 0 .1.1.1.1.2.2 0 .4-.1.5-.2zm-45.4 46.8c0 .1-.1.2-.1.3.2.1.3.2.5.3.1-.1.1-.3.2-.4-.2-.1-.4-.1-.6-.2zm75.8-29.6c.1-.1.1-.2.2-.3-.2-.1-.3-.2-.5-.4-.1.1-.1.2-.2.3.2.1.4.2.5.4zm-27.5-7.2c-.1 0-.2-.1-.2-.1-.1.2-.2.3-.2.5.1 0 .2.1.3.1 0-.2 0-.4.1-.5zm-54.3 31.7c-.1.1-.2.1-.3.2.1.2.2.3.3.5.1-.1.2-.1.3-.2-.1-.2-.2-.4-.3-.5zm4.9 8.6c-.1.1-.1.2-.2.2.1.1.3.1.4.2 0-.1.1-.1.1-.2-.1 0-.2-.1-.3-.2zm39.1 4.9v.3c.2 0 .4 0 .5-.1v-.2h-.5zm25.4-14.9h.3c0-.2-.1-.4-.1-.5h-.2v.5zm1.5.4h.3c0-.1-.1-.3-.1-.4h-.2v.4zm-11.5 30.3c0 .1 0 .3-.1.4h.6v-.3c-.2-.1-.3-.1-.5-.1zm16.1-35l.2.2c.1-.1.2-.2.4-.3l-.3-.3c-.1.2-.2.3-.3.4zm14.1-24.6c-.2-.1-.2-.2-.3-.2-.1 0-.2.1-.3.2l.3.3s.1-.2.3-.3zm-3.5-2.1c0-.1 0-.2-.1-.3-.2.1-.3.1-.5.2v.2c.3-.1.5-.1.6-.1zm21-34.3h.4v-.6h-.3c-.1.2-.1.4-.1.6zm-2.8-.6h-.3v.5s.1 0 .3.1v-.6zM380.9 188c.1 0 .2-.1.3-.1 0-.2-.1-.4-.1-.5-.1 0-.2.1-.3.1 0 .1.1.3.1.5zm40-32.7v-.3h-.5v.2c.2 0 .4.1.5.1zm18.9 72.3c.1-.1.2-.2.2-.3 0-.1-.1-.2-.2-.2 0 0-.2.1-.2.2s.1.2.2.3zm-11.7-83.8c.1 0 .2 0 .3.1v-.4h-.2c-.1 0-.1.2-.1.3zm3.5 12.1c-.1 0-.1-.1-.2-.1-.1.1-.2.2-.2.3.1.1.2.1.3.2.1-.2.1-.3.1-.4zm34.7-11.5v-.2c-.1 0-.2.1-.3.1v.1c0 .1.1 0 .3 0zm3.7.8h.3c0-.1-.1-.3-.1-.4h-.2v.4zm-9.4 21.7c0 .1-.1.1-.1.2.1.1.2.1.4.2 0-.1.1-.1.1-.2-.1-.1-.3-.1-.4-.2zm-40.1 29.9l-.1-.1c-.1.1-.2.2-.3.2l.1.1c.1 0 .2-.1.3-.2zm22.4 4.4c.1-.1.2-.1.2-.2-.1-.1-.1-.2-.2-.2-.1.1-.2.1-.2.2l.2.2zm-.2 3.6c.1-.1.2-.2.2-.3 0-.1-.1-.2-.2-.2 0 0-.2.1-.1.2 0 .1 0 .2.1.3zM364.8 182l.1.1c.1 0 .1-.1.2-.1l-.1-.1c-.1 0-.1 0-.2.1zm67.6-38.6c-.1 0-.1-.1-.2-.1 0 .1-.1.2-.1.3 0 0 .1 0 .1.1.1-.1.1-.2.2-.3zm27.6 25v-.3h-.4v.2c.1.1.2.1.4.1zm-76.9 15c0-.1-.1-.2-.1-.2-.1.1-.2.1-.3.2 0 0 0 .1.1.1s.2 0 .3-.1zm35.5-25.7c0 .1 0 .2-.1.2h.4v-.2c-.1.1-.2.1-.3 0zm56.3-16.6h-.2v.3h.2v-.3zm-53.2 58c0 .2 0 .1 0 0 0 .1-.1.1 0 0zm43.4-43.6c-.1.1-.1.2-.1.2 0 .1.1.1.1.2l.2-.2c0-.1-.1-.1-.2-.2zm-72.6 13.6zm67.9-1.2c0-.1 0-.1-.1-.2l-.1.1v.1h.2zm15.7-41.6c.1 0 .1.1.2.1l.1-.1c0-.1-.1-.1-.2-.1 0-.1-.1 0-.1.1zm1.9 7.2c0-.1 0-.1-.1-.1 0 0-.1 0-.1.1s0 .1.1.2c0-.2 0-.2.1-.2zm-.7.6v.2h.2v-.2h-.2zm-93 53.2l.1.1v-.1s0-.1-.1 0c.1-.1 0-.1 0 0zm77.3-29.5h.2v-.2h-.1s-.1.1-.1.2zm-47.6-2zm54.4-11.9c0-.1 0-.1-.1-.1 0 0-.1 0-.1.1s.1.1.1.2c0-.1 0-.2.1-.2zm-30.2 67.9l-.1-.1s-.1 0-.1.1.1.1.1.2c0-.1 0-.2.1-.2zm.2-.7c0-.1 0-.1-.1-.1h-.1s0 .1.1.1c0 .1 0 0 .1 0zM148.4 269.5c.6-2.9 1.1-5.8 1.8-8.7.2-1 .5-1.8-.3-2.6-.1-.1-.1-.4-.1-.5.2.1.3.3.5.4.1-.1.1-.2.2-.3-.2-.1-.3-.2-.5-.3-.1-.3 0-.7-.2-1-.1-.1-.7-.2-.8 0-.2.3-.2.7-.4 1.2-1.9.3-2.9-.7-4-2.3-1.6-2.4-1.2-4.9-.8-7.4.2-1.1 1.2-2.1 1.8-3.1.2-.4.6-.8.6-1.1.1-1.5.9-2.5 1.8-3.6 1.1-1.4 1-1.7-.3-3-.6-.7-1.3-1.6-1.3-2.5-.1-1.7.1-3.4.3-5.1 0-.4.5-.7.8-1.2-.6-1 .1-1.7.6-2.6.7-1 1.1-2.2 1.7-3.3.4-.7.7-1.4 1.1-2.1 1.6-2.6 3.2-5.3 4.8-7.9.2-.3.3-.6.5-.8 2.2-2.7 4.4-5.4 6.7-8 2.6-2.9 5.3-5.8 8-8.6.5-.5 1.1-.9 1.7-1.4 1.1-.7 2.1-1.5 2.5-2.9.1-.3.7-.5 1.1-.7.5-.2 1.1-.3 1.4-.7.7-.8 1.3-1.7 1.8-2.7 1.2-2.3 2.4-4.7 3.6-7.1.2-.3.5-.7.9-.8 1.4-.4 2.9-.7 4.4-1 1.7-.3 2.5.1 3.2 1.6.1.3.1.9-.2 1.2-1.7 1.9-3.5 3.7-5.2 5.6-.4.4-.9.8-1.3 1.3-.5.6-.7 1.2 0 1.8.6.5.7 1.1.4 1.8-.5 1-1.1 2.1-1.7 3.1-.2.4-.6.7-.6 1.1-.4 1.8-1.7 3.1-2.8 4.5-2.2 2.9-4.5 5.7-6.6 8.7-1.3 2-2.3 4.2-3.5 6.3-.5.9-1.2 1.8-1.8 2.6.4.6.8 1 1.1 1.5.5.8.1 1.9-.7 2.3-.2.1-.4.2-.5.4-1.2 1.8-3 1.6-4.8 1.4-.5 0-1.1-.5-1.3-1-.1-.4.3-1 .5-1.4.2-.3.5-.4 1-.8v-2.4c0-.3.1-.6.2-.8 2.3-3.6 4-7.5 6.8-10.8.4-.5 1.1-1.4.3-2-.8-.6-1.2.4-1.7.9-2.9 3.2-5.8 6.3-8.7 9.5-.3.3-.5.6-.7.9-.7 1.1-1.2 2.2-2.5 2.6-.3.1-.5.5-.8.8-.6.5-1.2 1-1.9 1.5.3 1.5-.7 2.8-1.5 4.4 1.1 1.3.1 2.7.1 4.2 0 .8-.2 1.6-.4 2.4-.2 1.3-.1 1.5 1.3 1.9.1-.2.1-.5.2-.7.8-2 1.1-2.8 3.4-2.7 1.5 0 2.9-.1 4.4-.1.3 0 .6 0 .9.1 1.3.2 2 .8 2 1.8s-.8 1.7-2 1.9c-.2-.2-.4-.4-.6-.5-.1.1-.1.3-.2.4.3 0 .5.1.8.1.1.9-.5 1.4-1 2-1.9 2.1-3.9 4.1-5.6 6.3-1.8 2.2-3.4 4.6-4.8 7-.7 1.2-1 2.7-1.3 4-.1.4.4 1.1.8 1.3.3.1 1.1-.3 1.3-.6 1-1.5 2.5-2 4.1-2.5 2-.6 3.7-1.6 5.2-3.1 2.2-2.3 4.6-4.4 6.8-6.7 1-1.1 1.8-2.5 2.7-3.7.2-.3.7-.7 1-.7.3 0 .8.4.9.8.4.9.4 1.8-.3 2.5-1.9 2.3-3.4 4.9-5.6 6.8-1.3 1.1-2 2.8-3.2 4-1.6 1.7-3.4 3.2-5.3 4.6-1.6 1.2-2.2 3-3.1 4.6-.9 1.7-1.4 3.5-2.3 5.1-.6 1.1-1.7 2.1-2.5 3.1-.4.5-.7 1-1 1.5h-1.3zm8.6-32.2c1.2-.9 1.4-1.5.4-2.1-.3.5-.7 1-1 1.5l.6.6zm-6.9-4.2h.5c.1-.4.4-.7.4-1.1 0-.2-.4-.6-.7-.6-.2 0-.6.3-.6.5 0 .4.3.8.4 1.2zm-1.3 7.6c.6-.5.9-.8 1.2-1-.1-.1-.1-.2-.2-.4-.4.1-.9.2-1.3.4.1 0 .2.5.3 1zm23.5-36.3c-.1 0-.3-.1-.4-.1-.1.5-.2.9-.3 1.4.2 0 .3.1.5.1 0-.5.1-.9.2-1.4zM159.7 230c-.7.1-1.1.2-1.4.2v.3c.3.1.7.2 1 .2.1 0 .2-.3.4-.7zm-9.2.2c-.1-.1-.2-.1-.4-.2-.1.2-.3.5-.4.7.1.1.2.1.4.2.2-.2.3-.5.4-.7zm-5.2 18.3c0-.2.1-.3.1-.5-.3-.1-.5-.1-.8-.2 0 .1-.1.2-.1.4.2.1.5.2.8.3zm17.1-.7c-.1.1-.1.2-.2.3.2.1.3.2.5.3.1-.1.1-.2.2-.3-.2-.1-.3-.2-.5-.3zm8.6-50.7l-.2-.2-.4.4.2.2c.1-.2.2-.3.4-.4zM156.8 231c.1.1.1.2.2.3.2-.1.3-.3.5-.4l-.2-.2c-.2.1-.4.2-.5.3zm9.9-9.7c-.1.2-.2.3-.2.4 0 .1.1.2.2.2s.2-.1.3-.2c-.1-.2-.2-.3-.3-.4zm-1.9-1.6v.3c.1 0 .3-.1.4-.1 0-.1 0-.2-.1-.2h-.3zM150.7 245h.2c0-.1-.1-.3-.1-.4h-.2c.1.1.1.2.1.4zm.3-22.3l.2.2c.1 0 .1-.1.2-.2-.1-.1-.2-.2-.3-.2l-.1.2zm17.6-11.6c.4.1.5.2.6.2 0-.1.1-.2.1-.5-.2.2-.3.2-.7.3zm5.7-11.9c.1-.1.2-.1.2-.2-.1-.1-.1-.2-.2-.2-.1.1-.2.1-.2.2.1 0 .2.1.2.2zm-18.4 33.6v.2c.1 0 .2.1.2.1.1 0 .1-.1.2-.2-.2-.1-.3-.1-.4-.1zm1.3-.4l-.1-.1-.1.1.2.2v-.2zm3.2-2.2c-.1-.1-.2-.1-.2-.2l-.1.1c0 .1.1.2.1.2s.1 0 .2-.1zm-7.8-10l-.2-.2c-.1.1-.1.2-.2.3.1 0 .2.1.2.1.2 0 .2-.1.2-.2zm.4 35.9h-.1v.3c.1 0 .2 0 .2-.1 0 0-.1-.1-.1-.2zm-1.6-31.9c0-.1-.1-.2-.1-.2-.1 0-.1 0-.2.1 0 0 0 .1.1.1.1.1.1 0 .2 0zm21.6-30.1h-.2v.1c.2 0 .2-.1.2-.1zm-4.1 24.7c-.2-.1-.2-.1-.3-.1v.2c.1 0 .1 0 .3-.1zm-4.5-10.2c-.1.1 0 .1 0 0 0 0-.1 0 0 0zM290.2 56.5c1 .2 2.1.4 3.1.6 0 .2.1.3.1.5-.4.3-.8.6-1.3.9.6 1.7-1 2.7-1.5 3.4-.4 2.3-.6 4-1.1 5.7-.5 2-1.2 3.9-1.9 5.8s-1.5 3.8-2.2 5.7c-.4 1.3-.7 2.6-1.1 3.9l-1.5 5.4c-.1.2-.1.4-.1.6.2.5.4 1 .7 1.5.4-.3 1-.6 1.2-1 2.4-4.4 4.8-8.8 7.1-13.2.3-.5.7-1 1.1-1.6.1-1 3.5-7.2 4.6-7.9-.2.8-.4 1.4-.6 2.1.8.1 1.5.3 2.2.4.1-1 .2-1.7.3-2.4l-.1-.1c-1.8-.3-2-.7-.8-2.3-.1.6 0 .9.8.3-.4-.1-.6-.2-.8-.3.5-1.2 1.1-2.5 1.6-3.8.2.4.4.7.7 1.1.3-.4.5-.6.6-.7.7.5 1.4 1.1 2.1 1.7.8-1.7-.7-2.2-1.3-3.2.6-.1.9-.2 1.3-.2.1-.3.3-.6.4-1 .3.1.5.2.8.3.1-.1.1-.2.2-.2l-1.5-1.2-.1.1c-.3-.5-.6-1-.9-1.6.5-.5.8-1 1.3-1.3 1.4-.8 2.9-1.5 4.4-2 .5-.2 1.5 0 1.8.4.3.4.1 1.2-.1 1.8-.7 2.1-1.4 4.1-2.1 6.2-.7 2-1.6 4-2.5 6.5.1 1.2-1.5 5.1-2.8 5.7.1.4.1.8.2 1.2 0 .2.1.5 0 .7-.7 2.9-1.3 5.8-2 8.7-.2.8-.3 1.7-.4 2.6 0 .3 0 .7.2.8.2.1.7.1 1 0 .3-.2.6-.4.8-.8 1.1-1.8 2.2-3.6 3.4-5.4 2.1-3.3 4.3-6.6 6.4-9.9l2.7-4.2c2.3-3.5 4.7-7 6.9-10.6 1.2-1.9 2.1-3.9 3-6 .6-1.2.9-2.6 1.4-3.8.2-.4.5-.8.8-1.1 2.1-1.9 4.5-2.9 7.3-2.8.7 0 1.4.4 2.2.7-.2.9-.3 1.5-.6 2.1-.2.5-.8.8-1.1 1.2-.4.5-1 1.1-.9 1.5.3 2-.9 3.5-1.6 5.1-1 2.5-2.1 4.9-3.1 7.4-1.1 2.9-2.2 5.8-3.1 8.8-.9 2.8-2.5 5.3-2.9 8.3-.2 1.6-1.3 3.1-1.6 4.8-.6 2.8-1.5 5.4-1.8 8.3-.3 2.5-1.2 4.9-1.9 7.3-.8 2.3-1.8 4.6-1.7 7.1 0 .5.4 1 .7 1.4.4-.2 1.1-.4 1.3-.7 1.6-2.8 3.1-5.6 4.6-8.5 1-1.9 1.9-3.8 2.8-5.7 1.4-2.8 2.7-5.7 4.1-8.5.6-1.2 1.2-2.3 1.9-3.4 1.4-2.1 2.5-4.3 3.2-6.8.6-2.2 1.7-4.2 2.6-6.2 1.2-2.6 2.7-5.1 3.9-7.8.6-1.3 1-2.8 1.5-4.2.1-.3.3-.7.5-1 .5.2 1 .4 1.4.5.1-.1.2-.1.3-.2-.2-.5-.4-1-.7-1.7.4-.4 1-.8 1.4-1.3.7-.8 1.3-1.6 1.9-2.4 1.3-1.5 2.6-3 3.8-4.6.7-.8 1.3-1.6 2-2.4.5-.6 1-1.2 1.6-1.7 1-2.4 3.6-3.3 5.1-5.2.2.5.4.9.7 1.4.4-.3.7-.7 1.1-1-.1-.2-.2-.3-.2-.5-.5.1-1 .1-1.5.2.5-.6.9-1.3 1.4-1.9.1.1.2.3.4.4.5.1.9.2 1.6.4-.2-.6-.3-.9-.5-1.4 1.1-.8 2.3-1.6 3.4-2.5 1.2-.9 2.4-1.1 3.9-.5.9.4 2 .3 3 .5.7.1 1.3.3 1.9.7.3-.1.5-.2.6-.2.5.8 1.1 1.4 1.4 2.2.3.8.5 1.8.3 2.5-.6 1.8-1.3 3.5-2.2 5.1-1.7 3.2-3.4 6.4-5.5 9.3-2.5 3.7-5.5 7.1-8.1 10.8-1.8 2.5-3.5 5-6 6.8-2.3 1.6-4.6 3.2-6.8 4.9-1.8 1.3-3.5 2.8-5.3 4.1-1.3 1-1.4 2.6-1.8 4-.5 1.8-.9 3.7-1.5 5.5-.4 1.4-.8 2.8 0 4.2.2.4.2 1 .1 1.4-.3 1.4-.8 2.8-1.2 4.2 0 .1-.1.2-.1.4-.1 1-.4 2.1.7 2.7 1.1.6 1.8-.2 2.6-.9 3.2-3.1 5.7-6.7 8.4-10.2 2.2-2.9 4.4-6 6.7-8.8 2-2.5 4.2-4.8 6.3-7.2l6.9-8.1c1-1.2 1.9-2.4 3-3.4 2.3-2.1 3.8-4.8 5.4-7.4 2.3-3.8 2.7-8.1 3.4-12.3.3-1.5.6-2.9.8-4.4.1-.9.2-1.8.2-2.7.1-1.6.1-3.2.2-4.8.2-1.9 4.2-3.7 5.9-2.8 1 .6 1.3 1.5.7 2.4-.7 1.1-1 2.3-.9 3.6v.9c-.7 3.6-1.4 7.3-2.1 10.9-.1.7-.2 1.4-.4 2.2-.2 1-.4 1.9-.5 2.9 0 .3.1.7.1 1.1.4-.1.9-.1 1.1-.3.4-.5.7-1 .9-1.6 1-2.9 2-5.8 3-8.8.6-1.6 1.1-3.2 1.7-4.8.3-.8.9-1.6 1.2-2.4.8-1.9 1.4-3.9 2.3-5.8.4-.9 1.1-1.8 1.9-2.4 1-.7 2.2-1.1 3.4-1.5.8-.3 1.4.1 1.5 1 .1.6 0 1.4-.2 2-1 2.9-2.2 5.6-3.1 8.5-.8 2.7-1.3 5.6-1.9 8.4-.1.7 0 1.4.2 2.1-.4 1.7.3 4.5 1.8 5.5.3.2 1.2.2 1.5 0 2.3-2.1 4.8-4 6.4-6.8.2-.3.5-.6.7-.9 1.1.7 1.5 4.7.5 5.8-.2-.9-.3-1.6-.5-2.4l-.5.5c-1.3 1.9-2.5 3.9-4 5.6-1.7 1.9-4 3.2-6.3 2.3-1.4-.6-2.1-1.6-2.7-2.8-.5-.8-.8-1.7-1.3-2.6-.5.2-.8.4-1.1.5-.3 0-.5-.1-.8-.1-1.7 10.1-6.3 19.3-9 29.3.5 1.2 0 2.5-.4 3.8-1 3.5-2.1 7.1-3.2 10.6-.5 1.7-1.6 2.3-3.2 1.6-.4-.2-.9-.3-1.3-.5-1.5-.7-1.8-1.7-1.5-3.3.5-2.6.9-5.3 1.4-8 .3-1.7.7-3.5 1.1-5.2.2-.9.4-1.8.5-2.7.2-1.9.4-3.8.7-5.7l.3-1.2c.1-.4.4-.9.3-1.3-.1-.5-.4-1-.6-1.4-.4.2-1 .3-1.3.6-2.2 2.5-4.3 5-6.5 7.6-2.2 2.6-4.5 5.3-6.7 7.9-1.6 1.9-3.4 3.7-4.8 5.7-1.9 2.9-4.3 5.3-6.6 7.8-.2.2-.3.4-.7.9.9.4 1.6.7 2.4 1.1-.2.2-.4.5-.7.9-.6-.3-1.2-.5-1.7-.9-.7-.5-1.2-.4-1.7.2-1.5 1.4-3.1 2.7-4.4 4.2-2 2.2-4.4 3.3-7.3 3.6-.7.1-1.3.1-2 .1-3.9 0-6-2.1-6.1-6 0-.7-.1-1.5-.2-2.2-.1-.4-.3-.7-.4-1.1-.1 0-.3 0-.4-.1-.6 1-1.3 1.9-1.7 3-.6 1.3-1 2.8-1.5 4.1-.8 1.8-1.6 3.7-2.5 5.5-.9 1.7-1.9 3.2-2.9 4.9-1.3 2.2-3.4 3.1-5.8 3.2-.9.1-1.9-.2-2.8-.4-.9-.2-1.4-.8-1.7-1.8-.7-2.5-.9-5-.2-7.5.1-.5.2-1.1.2-1.7 0-3.2.8-6.3 1.9-9.3 1.1-3.2 1.8-6.4 2.6-9.7 1-4 1.6-8 3.4-11.7.1-.1.1-.3.2-.4.2-.6.4-1.4-.4-1.7-.8-.3-1 .5-1.2 1l-1.2 2.1c-1.7 2.6-3.3 5.1-5 7.7-2.9 4.3-5.9 8.6-8 13.4-1.6 3.6-3.7 7-5.7 10.5-.2.4-.6.8-.9 1.1-.6.7-1.3.9-2.1.6-1-.4-2-1-3.1-1.5.2-.4.3-.7.5-.9 1-1.1 1.3-2.4 1.3-3.9V100c-.2-4 .8-7.9 1.9-11.7 1-3.4 1.6-6.9 2.4-10.4.1-.4-.1-.9-.2-1.5-1.3.6-2 1.5-2.4 2.6-.7 1.7-1.3 3.4-2.1 5-1.7 3.5-3.4 7-5.3 10.5-2 3.6-4.1 7.1-5.3 11.1-.3 1-1.1 2-1.8 2.8-.8.9-2.8 1-4 .4-1-.6-1.4-1.6-1.1-3.1.7-2.7 1.4-5.5 2.1-8.2.1-.5-.1-1-.1-1.8-.5.3-.7.4-.8.6l-3.9 7.8c-1.5 2.9-2.9 5.8-4.5 8.5-1.3 2.1-3.4 3.5-5.5 4.5-2.1.9-4.4.2-6.2-1.5l-1.1-1.1c-.5-.5-1.1-.4-1.4.2-.4.8-.9 1.6-1.2 2.4-1.1 3.3-2.9 6-5.8 7.9-.4.2-.8.3-1.3.4-.7.1-1.4-.1-2.1 0-3.7.5-6.4-1.3-8.5-4-.9-1.1-1.3-2.7-1.6-4.1-.3-1.4-.4-2.8-.4-4.3 0-.9.2-1.8.4-2.7.2-.9-.1-1.6-.8-2-.7-.5-1.2.2-1.5.7-1.1 1.7-2.2 3.5-3 5.3-.7 1.5-1.5 2.8-2.7 3.9l-2.7 2.4c-1.2 1.1-2.8 1.2-4.2.8-1.3-.3-2.4-1.2-3.6-1.9-.3-.2-.5-.7-.6-1.1-.3-1.4-.6-2.8-1-4.2-.1-.5-.6-.9-.9-1.4-.4.4-.9.7-1.1 1.1-2.3 4.6-4.6 9.2-7.6 13.4-2.5 3.5-4.5 7.3-6.8 10.8-1 1.5-2.3 2.9-3.5 4.3-2 2.4-4 4.9-6 7.3-1.4 1.8-3.1 2.7-5.4 2.9-1.3.1-2.5.3-3 1.7-.1.2-.5.5-.7.6-1.3.5-3.6-.2-4.4-1.4-1.1-1.6-1.2-3.4-1.1-5.4.2-2.9 1.2-5.5 2.3-8.1.1-.2.2-.5.2-.7-.2-2.9 1.2-5.5 2-8.2.4-1.2.8-2.5 1.1-3.7.1-.4-.1-.8-.2-1.6-.5.4-.8.6-1 .9l-5.1 7.5c-.3.4-.6.8-.9 1.1-3.2 3.1-6.2 6.3-9.5 9.3-1.8 1.7-4.1 2.6-6.5 3.3-.3.1-.6.1-.8.3-3 1.5-5.9 1.1-8.7-.3-.5-.3-1-.7-1.4-1.2-1.1-1.4-2-2.9-2.2-4.8 0-.4-.5-.7-.7-1.1-.3.3-.8.5-1 .9-.8 1.3-1.4 2.7-2.7 3.6-.2.1-.3.3-.4.5-2.1 3.5-4.1 7.1-6.3 10.6-.8 1.4-.9 2.8-.7 4.3.2 2.1.1 4.2-1.1 6.2-.2.3-.4.8-.3 1.2.2 2.2-1.1 3.8-1.7 5.7-.2.8-.6 1.6-.6 2.4 0 1.5-.4 2.8-1.2 4.1-.9 1.4-1.3 3.1-2 4.6-.6 1.2-1.2 2.5-1.9 3.6-1.7 2.6-3.5 5.1-5.8 7.3-1.3 1.3-2.9 2.2-4.5 2.7-1.1.4-2.2.2-3.3-.6-1-.8-2-1.4-3-2.2-.8-.7-1-1.5-.3-2.3 1.6-1.7 2.1-3.9 3-5.9l3.9-8.7c.2-.4.5-.6.8-1-.1-1.5.9-2.4 1.7-3.5.3-.4.6-.8.6-1.2.1-1.6.9-2.8 1.9-4 .8-1 1.2-2.3 1.8-3.5.6-1.2 1.3-2.4 1.7-3.6.3-.9.5-1.9.6-2.8.1-.8 0-1.6 0-2.7-1.5-2.1-3.2-4.6-4.9-7 0 0 .2-.1.7-.2-.4-.3-.7-.6-.9-.8-.9.5-1.4.1-2-.6-1.1-1.3-2-2.7-2.3-4.4-.1-.6-.3-1.3-.5-1.8-.5-1-1.3-1.1-2-.2-1.9 2.6-3.3 5.4-4.7 8.3-1.4 2.9-2.9 5.8-4.4 8.7-.9 1.7-1.7 3.4-2.8 4.9-.6.9-1.6 1.6-2.5 2.4-1-1.5-1.5-1.4-2.4.2.1.2.3.5.5.8-2.2 1.4-4.4 1.4-6.4-.2-.5-.4-1-.9-1.5-1.4-.9-.9-1.3-2-1.2-3.3.3-2.2.3-4.5.6-6.8.2-1.2.6-2.5.9-3.7.2-.9.3-1.8.5-2.7.5-2.1.9-4.2 1.6-6.3.7-2.3 1.6-4.5 2.1-6.9.4-2.2 1.6-4.3 2.4-6.4.3-.9.4-2 .7-2.9l1.8-5.1c.3-.8.4-1.7.7-2.6.2-.6.4-1.1.6-1.7l.6-2.1c.2-.9.3-1.9.7-2.8.9-2.2 1.7-4.4 2.8-6.5.6-1.1 1.7-1.9 2.6-2.8.2-.2.8-.3 1.1-.2 2 .6 4.1 1.2 6.1 1.9.4.1.7.5 1.1.8.5.5.5 1 .2 1.6-1.7 2.9-3.3 5.9-4.9 8.9-.2.3-.3.7-.4 1.1-1.1 2.6-2.2 5.1-3.2 7.8-1 2.6-1.8 5.3-2.7 7.9-.4 1.2-.9 2.4-1.4 3.7-1 2.6-2.1 5.1-3 7.7-.6 1.6-.9 3.3-1.4 4.9-.6 2.3-1.3 4.6-1.9 7-.1 0-.4.2-.7.3-.1.7.7 2.3 1.3 2.5.9.4 1.3-.4 1.8-1 .3-.4.8-.7 1.2-1.1.1-.1.3-.2.4-.4 1.5-2.2 3-4.5 4.5-6.7 2.5-3.8 5-7.6 7.4-11.5.8-1.2 1.2-2.7 1.9-4 1.2-2.1 1.8-4.3 2.6-6.6.9-2.9 2.5-5.5 3.5-8.4.7-2 2.4-3.3 3.4-5.1 1.3-2.3 2.5-4.7 3.8-7.1.1 0 .4-.1.8-.2-.1-.3-.1-.6-.2-.8.6-1.1 1.2-2.1 1.8-3.1.4.2.7.4 1.1.6.1-.1.2-.1.3-.2-.2-.4-.5-.8-.8-1.5 1.2-2 2.6-4.2 3.9-6.4.4 0 .7-.1 1.1-.1-.5-1.8.8-2.5 2-3.3-.1-.4-.1-.7-.2-1 .2-.2.4-.4.6-.4 2.9-1.1 5.9-1.8 9.1-1.6 1.4.1 2.4 1.9 1.7 3.1-.8 1.3-1.9 2.4-2.8 3.6-.2.2-.6.3-.8.5-.4.6-.7 1.3-1.2 1.9-1.8 2.5-3.6 4.9-5.3 7.3-.8 1.1-1.6 2.3-2.4 3.4-.2.3-.5.5-.5.8-.7 1.2-1.3 2.4-1.9 3.5-.6 0-.9.1-1.4.1.2.4.3.6.4 1-.3.1-.6.1-1 .2.2.3.3.6.4.8-1.2 2-2.4 4-3.5 6-.7 1.3-1.3 2.8-1.9 4.2-.3.7-.7 1.3-1 2.1-1 2.5-1.9 5.1-2.8 7.6-.9 2.3-.2 4.7-.2 7 0 .6.4 1.2.8 1.7 2.1 2 4.2 4 6.4 5.9.7.7 1.5.7 2-.2 1.1-1.5 2.2-3.1 3.2-4.6.5-.7.9-1.4 1.3-2.1.3-.5.5-1 .9-1.5.7-.9 1.5-1.8 2.2-2.8l5.7-8.1c.8-1.2 1.7-2.4 2.5-3.6.2-.3.3-.6.4-.9.5-2.1 1-4.3 1.5-6.4.2-.6.5-1.3.6-1.9.2-.8.6-1.6.6-2.4 0-1.3-.4-2.6 1.4-2.6.7-1.9 1.4-3.7 2.1-5.4.9-2 2.1-3.8 2.9-5.8 1.3-3.2 3.2-5.8 5.5-8.4 4.9-5.6 9.9-11.3 14.6-17.1 2.2-2.7 5-3.6 8.2-3.7 1.4-.1 2.3-.7 2.9-1.9 1.4-2.8 3.5-3.1 5.7-.8.4.5 1 .8 1.4 1.3 1.6 1.5 1.7 2.5.4 4.2-1.2 1.6-2.6 3.2-3.7 4.9-1.9 2.9-3.6 5.9-5.4 8.9l-3 5.1c-1.3 2.3-2.7 4.5-3.9 6.8-.8 1.6-1.4 3.3-2.2 4.9-1 1.9-2 3.7-3.1 5.6-1 1.7-1.9 3.3-2.3 5.3-.2 1-1.1 1.9-1.7 2.8-.2.3-.7.5-1.1.5-1.5 0-3.1-.2-4.3-1.2-.4-.3-.7-.9-.8-1.4-.1-1.7.1-3.4.9-4.9 1-2.1 1.9-4.3 3-6.4 1.4-2.7 2.9-5.3 4.2-7.9 1.6-3.1 3.2-6.3 4.7-9.4.2-.3.1-.8.2-1.6-.7.3-1.2.4-1.4.7-.9 1.1-1.8 2.3-2.7 3.5-1.8 2.4-3.8 4.8-5.5 7.2-1.6 2.2-3.1 4.4-3.6 7.2-.2.9-.9 1.8-1.4 2.7-.6 1.2-1.3 2.4-1.8 3.6-1.2 2.8-2.3 5.7-3.4 8.6-.1.1-.2.3-.2.4-.4 2.6-1 5.3-1.3 7.9-.2 1.6 0 3.3-.1 5 0 .6-.2 1.3-.4 1.8-.5 1.1-.4 2.1-.1 3.2.3 1 .4 2 .5 3.1.1 1.7.7 2.2 2.4 2 1.5-.2 2.6-1 3.7-1.9 5.1-4.3 9.4-9.5 13.9-14.4 1.5-1.7 2.8-3.7 4.1-5.5.6-.7 1.1-1.4 1.7-2.2 2.1-2.9 4.5-5.6 6-8.9.2-.5.5-1.1.5-1.6.1-2.6 1.2-4.9 2.1-7.3.7-1.8 1-3.7 1.5-5.5.6-2 1-4.1 1.8-6 2.2-5.4 3.8-11.1 5.4-16.7.9-3 1.9-5.9 2.9-8.8 1.3-3.6 2.7-7.2 4.1-10.8.8-2 2-4 2.9-6 .6-1.4 1-2.9 1.6-4.3.3-.8.6-1.6 1-2.4.1-.3.5-.4.7-.7.2-.2.5-.5.4-.7-.5-1.3.3-2.3.7-3.4.9-2.5 2-5 3-7.5 1.4-3.4 2.9-6.8 4.2-10.2 1-2.6 1.7-5.4 2.9-8 .6-1.3 1.7-2.5 2.7-3.6.7-.7 1.5-1.3 2.3-1.9.2-.2.4-.4.6-.3 1.3.1 2.7-.5 3.9.6.3.2.8.2 1.2.3.9.2 1.8.2 2.6.5 1.7.5 2.1 1.3 1.6 3-1.4 4.6-3.9 8.6-6.5 12.5-.7 1-1.1 2.3-1.7 3.4-1.3 2.3-1.5 5-2.5 7.4-.6 1.6-1 3.4-1.5 5.1-.3.1-.6.1-1 .2.1.3.1.6.2.9-1 2-3.3 3-3.7 5.5 0-.7-.3-.7-.8-.5 0 .1-.1.3-.1.4.3.1.5.1.8.2-.5 1.2-.9 2.4-1.4 3.7-.2.7-.6 1.3-.7 2-.3 1.4-.6 2.7-2.5 2.8-.1.1-.1.3-.2.4.4.2.7.4 1.3.8-.5.4-.9.7-1.3 1l-.1-.1c0 .1-.1.1-.1.2.6 1.5-.4 2.8-.9 4-.8 2.3-1.9 4.6-2.8 6.9-1 2.6-2.1 5.1-3 7.7-.6 1.5-.9 3.2-1.4 4.7v.1c-1.8 2-2 4.7-2.9 7.1-.2.4-.4.9-.4 1.3.2 1.6-.7 2.9-1.2 4.2-.9 2.1-1.4 4.4-2 6.6-.1.3-.2.6-.4.9-1.1 1.7-1.5 3.5-1.2 5.4.1.4 0 .8-.2 1.2-1.3 2.7-2.7 5.4-3.9 8.1-.6 1.5-1 3.1-1.7 5.3-1.1 1.4-1.3 3.9-2.1 6.1-.3.8-.7 1.5-1 2.3-.4 1-.8 1.9-1 3-.5 2.9-1.4 5.7-2.5 8.4-.9 2.1-1.5 4.4-2.1 6.6-.3 1-.5 2.1-.6 3.1 0 .5.3 1.1.4 1.7.5-.2 1.2-.2 1.6-.6.9-.8 1.7-1.7 2.4-2.7 2-2.6 3.9-5.3 5.8-7.9l.2-.2c1-3.3 3.9-5.2 5.5-8 1.1-2 2.3-3.9 3.5-5.9.2-.3.4-.6.5-.9 1.3-2.4 2.7-4.8 4-7.2l3.9-6.9c.3-.6.5-1.2.8-1.7.1-.3.2-.7.4-.8 2.1-1.7 2.9-4.2 4-6.5 1-1.9 2.1-3.8 3-5.7 1.1-2.1 2-4.3 3-6.5.9-1.9 1.7-3.8 2.7-5.6.5-.9 1.5-1.4 2.2-2.3 1.3-1.8 2.4-3.8 3.8-5.5 1.8-2.1 3.9-3.9 5.9-5.9.5-.4 1-.8 1.5-1.3.2.1.5.2.8.3.2-.3.4-.6.5-.9.8-.1 1.7-.5 2.4-.3.6.2 1 1.1 1.6 1.8.3-.2.7-.5 1.3-1 0 0 .2.1.6.1-.3.4-.6.7-.9 1 .9.9 1.2.9 2.8-.5.4.2.9.4 1.4.7.8.3 1.4.3 1.9-.5.2-.4.7-.6 1.2-1-.1-.2-.2-.5-.3-.8.7-1.3 1.8-1.3 2.7-.2 2.5 0 4 1.5 5.2 3.4.4.6.2 1.7-.1 2.4-1 2.6-2.2 5.1-3.3 7.6-.3.7-.6 1.3-.9 2-1.7 4.1-3.3 8.2-5 12.2-1.4 3.3-2.8 6.7-3.5 10.3-.1.5-.5 1-.8 1.5-.1-.3-.2-.5-.2-.8-.2.1-.3.2-.7.4.5.2.7.3.9.4-.4.7-.8.2-1.2 0-.5-.2-1.2-.5-1.5-.3-.5.3-.7 1-1.1 1.6l.3.3c.4-.1.7-.3 1.1-.3.5-.1 1.1-.2 1.5 0 .2.1.4.9.2 1.2-1.2 2.7-.8 5.6-1.3 8.4-.3 1.8.5 3.4 1.6 4.9.6.8 1.5.8 2.3.1.6-.6 1.2-1.3 1.6-2 2-3.9 4-7.8 5.8-11.7 1.3-2.9 2.4-5.9 3.6-8.9.1-.3.2-.6.2-.9.2-2.7 1.3-5.2 2.2-7.7.6-1.7.9-3.4 1.4-5.1.1-.5.3-.9.5-1.3.5-.8 1-1.6 1-2.7 0-.6.7-1.3.8-1.9.5-1.8.8-3.6 1.3-5.4.3-1 .9-2 1.2-3 .3-.9.5-1.9.7-2.9.1-.5.2-1 .5-1.3.6-.9 1-1.9.7-3.1-.1-.3 0-.6.1-.8 1.1-2.7 2.2-5.4 3.4-8 .4-.9 1.2-1.6 1.9-2.2.5-.4 1.3-.6 1.8-.5 1.9.4 3.8.9 5.6 1.6 1.9.7 2 1.6 1.1 3.4-1.8 3.2-3.5 6.5-5.1 9.8-.3.5-.4 1.1-.5 1.6-.2.9-.4 1.8-1.5 2 0 .3.1.6.1.9-.4.1-.8.1-1.4.3 1 1.6.2 2.8-.4 4-.1-.1-.2-.2-.2-.3l-.3.3c.1.1.3.1.4.2-.6 1.6-1.1 3.1-1.6 4.7-.8 2.4-1.5 4.9-2.3 7.3-.5 1.4-1.1 2.8-1.7 4.2-.3.7-.6 1.5-.8 2.2-.9 3.2-1.8 6.4-2.6 9.6-.2.9-.4 1.8-.4 2.6 0 .5.4 1.1.6 1.6.6-.2 1.3-.3 1.6-.7 1.4-1.5 2.7-3.1 3.8-4.8 2.8-4.1 5.5-8.2 8.2-12.3.2-.2.3-.5.5-.7h1.1c-.1-.6-.1-1-.2-1.5.1.2.3.4.5.8.3-.3.4-.5.6-.7-.1-.1-.1-.2-.2-.3-.3.1-.6.1-.9.2.3-.6.7-1.2 1-1.9 2.1-4 3.3-8.3 3.9-12.8.6-4.2 1.6-8.3 2.9-12.3.6-1.8 2-2.8 3.4-3.7.3-.2 1 .2 1.5.2h1.1l.6.9c.4-.8.1-1.1-.5-1 .3-.8.3-1.1.3-1.3zM265 79.1c.1.1.2.3.3.4.1-.1.1-.2.2-.2-.1-.1-.2-.2-.5-.2-.1-.2-.2-.2-.4-.3 0 .1-.1.2-.1.3.2.1.4 0 .5 0zm-33.8 20.7h.7c0-.1 0-.3-.1-.4-.3-.2-.5-.2-.6.4-.1 0-.3 0 0 0-.2.1-.1 0 0 0zm-18.8-51.9c-.1-.2-.1-.4-.2-.7-.1.1-.3.2-.4.3.2.1.4.2.6.4.1.2.1.5.3.9.3-.4.4-.6.7-.9h-1zm146-8.4c-.3-1.1-1-.4-1.8-.5.4.9.7 1.2 1.5.8.2.3.4.5.7 1 .2-.4.5-.7.4-.8-.2-.2-.5-.3-.8-.5zM84.5 159.6c-.1.9.4 1.2 1.1 1.3h.9c0-.1.1-.3.1-.4l-1.8-1.2c-.2-.2-.4-.4-.6-.7-.4.7-.4 1 .3 1zM129 99.2c.4.3.8.7 1.3 1.1.3-.3.5-.6.9-1-.9-.4-1.5-.7-2.2-1.1-.1.1-.1.2-.2.3.1.3.2.5.2.7-.2.1-.5.2-.7.3.1.1.3.2.4.3l.3-.6zm102.5-5c.3-.5.7-1 1-1.4 1.6.5 1.8.5 2.1-.5-.3-.3-.7-.5-1.2-.9 1.3-1.4 1.9-3.3 3.7-4 .1-.6.1-1.1.3-1.5.9-1.6 1.9-3.2 2.8-4.8.9-1.5 1.8-3 2.5-4.5.2-.5.1-1.4-.1-2-.3-.7-1-1.2-1.5-1.7-.6-.6-1.3-.7-2-.1-1 .8-1.9 1.6-2.8 2.4-1.3 1.2-2.7 2.3-3.9 3.7-1.2 1.5-2.2 3.1-3.3 4.7-1 1.5-2 3.1-2.7 4.7-1 2.4-1.8 4.9-2.6 7.4-.3.9-.7 1.7-1 2.6-.5 1.7-1 3.5-1.6 5.2 0 .1-.2.3-.2.4-.7 2-1.4 3.9-1.9 6-.1.4.4 1.1.7 1.6.5-.2 1.2-.4 1.5-.8 1.5-2 3-4.1 4.3-6.2 1.5-2.4 2.9-5 4.5-7.4.4-.7 1.1-1.2 1.7-1.8.2.1.3 0 .2 0-.2-.4-.4-.7-.5-1.1zM363 41.5c-.6 2.2-2.2 3.8-3.7 5.4h-1.2c.7 1.3-.2 2-.8 2.8-1.4 1.9-2.8 3.7-4.1 5.6-.6.9-1.2 1.9-1.7 2.9-.3.5-.7 1.3.1 1.7.7.4 1.2-.2 1.6-.7.6-.7 1.1-1.4 1.7-2.1 1.8-1.8 3.6-3.6 5.3-5.5 3-3.2 5.6-6.8 7.8-10.6.5-.8.9-1.6 1.2-2.5.1-.4 0-.8-.1-1.2-.4.1-.9 0-1.2.2-.5.3-.9.8-1.4 1.1-1.1 1-2.2 1.9-3.5 2.9zm-85.6 50.7c-.3-.2-.7-.4-1-.6-.3.6-.6 1-.9 1.8h1.5l.6 1.5c.2 0 .3 0 .5-.1.1-.7.1-1.3.2-2 .3-.1.6-.3.9-.5-.5-1-1.2-.6-1.8-.1zM90.3 163c.2-.9.3-1.6.5-2.3-.5-.2-.9-.4-1.2-.5-.6.7-1.2 1.3-2 2.1.6 1.2 1.9-.3 2.7.7zm24.7 16.5c.2-.3.3-.5.4-.7.4 0 .7 0 1.3-.1-.5-.8-.9-1.3-1.4-2l-1.6.8c-.1.6-.2 1-.3 1.4.6.3 1 .4 1.6.6zm90.8-126.3c1.6-1.1 1.7-2.1.3-3-.3.6-.6 1.1-1 1.8.2.3.4.7.7 1.2zm126.8-8.4c.5.4.9.9 1.2.9.5 0 1-.4 1.4-.7.1-.1.1-.6 0-.8-.1-.2-.5-.3-.7-.2-.6.2-1.1.5-1.9.8zm-66.4 35.5c-.1 0-.3 0-.4-.1-.2.7-1.8.9-.9 2.1.4.5 1 .8 1.7.1-.2-.4-.4-.7-.5-.9 0-.5 0-.9.1-1.2zm-15.1-12c.3 0 .6 0 .9-.1-.5-.7-.9-1.3-1.5-2.2-.3.7-.6 1.1-.5 1.5 0 .5-.3 1.3.8 1.4.1-.1.2-.3.3-.6zm48.6-4.1c.5.4 1 .7 1.5 1.1.7-.8.5-2.3-.3-2.6-.4.4-.7.8-1.2 1.5zm63.4-25.8c-.1-.1-.1-.2-.2-.3-.5.2-1.1.4-1.5.7-.2.1-.5.4-.5.7 0 .2.2.6.5.7.3.1.7 0 .9-.2.3-.5.5-1.1.8-1.6zm4.3-5.3c0 .2 0 .3-.1.5.3.3.6.7 1.1 1.2.5-.8.8-1.2 1.1-1.7 0-.1-.3-.5-.5-.5-.5.2-1 .4-1.6.5zM297 72.4c-1.7.7-1.9 1.2-1 2.2.9-.3 1.5-1.5 1-2.2zm50-20.2c.9-.6 1.6-1.1 2.5-1.6-1.2-1-1.8.3-2.7.2.1.5.1.8.2 1.4zM119.4 165.9c-.4-.4-.6-.7-.9-1.1l-.8.8c.5 1 1.3 1.1 2.1 1.2.1 0 .3-.3.6-.6-.6-.2-.8-.2-1-.3zm24.4-43.3c-1 .5-1.2 1.4-.8 1.9.1.2.5.3.7.3.2 0 .5-.4.4-.5 0-.6-.2-1.1-.3-1.7zm93.7-12.3c0-.2-.1-.4-.1-.6-.6.1-1.3.1-1.9.2-.2 0-.2.6-.3 1.2 1-.3 1.6-.6 2.3-.8zm-117.7 65c.1.9.1 1.7.2 2.8l.6.2c.4-1.6 0-2.8-.8-3zM236.1 94s-.1-.2-.3-.4c-.6.5-1.2.9-1.9 1.4.3.4.5.6.8 1 .6-.9 1-1.4 1.4-2zm118.5-43.7c1.2-.5 1.5-1 .8-1.7-1.1.3-1.4.9-.8 1.7zM120.1 163.6c.6-.8 1-1.4 1.5-2-.1-.1-.1-.2-.2-.3-.3.1-.8.2-.9.4-.3.5-1.2.9-.4 1.9zM359.3 44.1h-2.4c.5.9 1.6 1 2.4 0zm38.8 6.5c.7 0 1.1-.1 1.8-.1-.4-.8-.7-1.3-1-1.8-.1 0-.2 0-.3.1-.2.5-.3 1-.5 1.8zm-187.8-5.4c.5-1.5 0-2.2-1.5-2.4.4.9.9 1.6 1.5 2.4zm-64.2 73.7c-.1.9-.1 1.4-.1 2 .1.1.2.2.3.2.4-.4.8-.7 1.3-1.2-.6-.4-.9-.7-1.5-1zM128 101.5c1.1.7 1.5.5 1.7-.7-.3-.1-.6-.2-1-.4-.2.4-.4.7-.7 1.1zm232.6-59.8c.5.2 1 .4 1.4.6.1 0 .4-.1.5-.2.1-.1.1-.4 0-.5-.2-.5-1.3-.5-1.9.1zM117.4 176.3c.1-.2.2-.4.4-.5-.5-.4-1-.7-1.5-1.1-.1.1-.2.1-.3.2 0 .3 0 .6.1.8.4.1.9.3 1.3.6zM305.1 61.2c.2-.1.5-.2.7-.4-.2-.5-.3-.9-.5-1.3-.4-.1-.8-.2-1.4-.3.5.8.8 1.3 1.2 2zm-91.8-27c-.1-.1-.1-.2-.2-.3-.5.4-1.1.7-1.7 1.2 1 .5 1.5.2 1.9-.9zm67.2 55.5c-.7-1-1.1-.9-1.8.3.2.2.4.3.7.5.4-.3.8-.6 1.1-.8zm-70-54.1c.4-.4.7-.6.8-.9 0-.2-.4-.6-.6-.6-.3 0-.6.3-.8.6-.1.1.3.5.6.9zM267.2 81c.3-.3.5-.5 1-.8-.4-.4-.7-.8-1.1-1.1-.9.8-.4 1.3.1 1.9zm-142.9 25.8c-.1-.1-.3-.2-.4-.3-.5.3-1 .6-1.4.8 0 .1.1.3.1.4.4 0 .9 0 1.2-.1.2-.1.3-.5.5-.8zm105.3-6c-.5-.3-1-.5-1.4-.7-.5 1 .3 1.1.8 1.6.2-.3.4-.5.6-.9zM206 43.2c.1.1.2.1.3.2l1.3-1.3c-.1-.1-.1-.2-.2-.3-.5.1-1 .2-1.5.4 0 .4.1.7.1 1zM227.1 82c-.8 0-1 .4-.7 1.5.8-.1.9-.3.7-1.5zm119.1-30.3c-.1 0-.3-.1-.4-.1-.2.3-.4.5-.5.8 0 .1.3.5.4.5.2 0 .6-.2.7-.4 0-.2-.1-.5-.2-.8zM208.8 39.5v-.6c-.5.1-1 .1-1.5.2v.4h1.5zm94.6 31.6c0-.2-.1-.3-.1-.5-.6.1-1.2.3-1.8.4 0 .1 0 .2.1.4.7.4 1.3.2 1.8-.3zm78.3-3.9c.7.6 1 .4 1.2-.7-.8-.5-1 .1-1.2.7zm5.7-9.7c-.2-1.3-.5-1.4-1.5-.8.5.3.9.5 1.5.8zm-265.2 97.3c.4-.2.7-.4 1.3-.7-.6-.4-1-.6-1.3-.8l-.2.2c0 .3 0 .6.2 1.3zm15.3-64.3v.6h1.5v-.4c-.5-.1-1-.2-1.5-.2zm217-46c.1-.1.2-.2.3-.2-.1-.3-.1-.7-.3-.7-.3-.1-.7-.1-1.1-.1 0 .1-.1.3-.1.4l1.2.6zm-131 46.1h-.4c-.6.4-.6.9-.1 1.4h.4c0-.5.1-.9.1-1.4zm-76.8 28.3c.1-.2.1-.4.2-.6-.6-.1-1.2-.3-1.7-.4 0 .2-.1.4-.1.5.5.2 1.1.3 1.6.5zm142.1-61.5c-.2 0-.4.1-.6.1.1.3.1.7.2 1 0 .1.5 0 .7-.1-.1-.3-.2-.7-.3-1zm-69.1 35.9c.1-.1.2-.2.4-.2-.2-.4-.5-.8-.8-1.4l-.4 1.2c.2.1.5.3.8.4zm-101.1 77.5c-.1 0-.3 0-.4.1-.1.3-.1.6-.2 1.1.5 0 .8-.1 1.4-.1-.4-.6-.6-.8-.8-1.1zm93.8-138.1c0 .1.1.2.1.4.2 0 .6.1.7 0 .3-.3.4-.6.6-1-.1-.1-.2-.1-.3-.2-.4.2-.7.5-1.1.8zm.3 8.8c.1-.1.1-.2.2-.4l-.7-.7c-.2-.1-.4.2-.7.2v.4c.4.2.8.3 1.2.5zm53.5 35.6c-.1.6-.2 1-.3 1.5.5-.2.9-.4 1.4-.6-.4-.2-.7-.4-1.1-.9zm34.8-3c.1-.5.3-.9.2-1-.3-.2-.6-.3-.9-.4-.1.1-.1.2-.2.3.2.3.5.6.9 1.1zm-4.9-1.7c-.6-.3-.9-.5-1.4-.7.1 1.2.3 1.3 1.4.7zm-47.9-3.2c.1 0 .3-.1.4-.1.1-.4.2-.9.4-1.3-.1-.1-.2-.1-.2-.2-.2.2-.6.3-.6.5-.2.3-.1.7 0 1.1zm106-19.1c-.2-1.2-.7-1.3-1.7-.6.6.3 1.1.4 1.7.6zM121.3 172.6c-.2-.1-.3-.2-.5-.3-.2.4-.5.8-.7 1.3.1.1.3.2.4.2.3-.4.6-.8.8-1.2zm32.2-74c.1 0 .2.1.3.1.2-.3.4-.6.4-.9 0-.1-.4-.3-.7-.5l-.2.2c0 .5.1.8.2 1.1zm66.6-3.5c.2 0 .3 0 .5-.1 0-.3.2-.6.1-.8-.1-.2-.4-.3-.7-.5-.1.1-.2.1-.3.2.2.5.3.9.4 1.2zM349 48.9c-.1.1-.1.2-.2.3.2.9.4 1 1.3.5-.4-.3-.7-.6-1.1-.8zM293.9 74c.1 0 .3.1.4.1.2-.2.4-.5.5-.7 0-.1-.2-.4-.3-.4-.2 0-.5.1-.5.2-.1.2-.1.5-.1.8zM355 42.1c0 .2-.1.4-.1.6.3.1.7.1 1 .2 0-.2.1-.4.1-.5-.3-.1-.6-.2-1-.3zm-150.3 6.6v.6h1.2v-.5c-.4-.1-.8-.1-1.2-.1zm11.2-9.1h-.6c0 .4.1.8.1 1.2h.5v-1.2zm-2.2-.9c-.1-.1-.2-.2-.3-.2-.2.3-.5.6-.7.9 1 .3 1.2 0 1-.7zm63.6 51c.2.6.3 1 .5 1.5.7-.9.6-1.1-.5-1.5zm-160.1 77.6c0 .1 0 .2-.1.4.2.1.5.3.7.2.3-.1.4-.4.7-.6-.1-.1-.1-.2-.2-.3-.4.1-.7.2-1.1.3zM356.8 48.1c.1.1.2.1.3.2.3-.1.5-.3.9-.5-.4-.3-.6-.4-1-.7-.1.5-.2.7-.2 1zM220.6 96.2l.3.3c.3-.2.6-.3.9-.5 0-.1 0-.2-.1-.3-.2-.1-.5-.2-.7-.2-.1.1-.2.4-.4.7zm78.8-24.9c.1-.2.2-.3.3-.5-.3-.2-.7-.4-1-.6-.1.2-.2.3-.3.5.3.2.7.4 1 .6zM267 68l-.4-.4c-.2.2-.5.4-.7.6.2.1.4.5.5.4.2-.1.4-.4.6-.6zm118.1.3c-.6-.1-1-.2-1.6-.3.6 1.1.7 1.1 1.6.3zm-149.2 38.4c.1 0 .2-.1.3-.1 0-.3 0-.7-.1-1 0-.1-.4-.1-.9-.2.3.7.5 1 .7 1.3zM376 31.9v-.5h-1.3v.4c.5 0 .9.1 1.3.1zm-221.4 68.7v-.4c-.3-.1-.5-.2-.8-.1-.2 0-.3.4-.4.5.1.1.1.2.2.2.3 0 .6-.1 1-.2zm209.2-66.7c-.1.1-.3.2-.4.3.2.2.4.5.7.7.1-.1.3-.2.4-.3-.2-.2-.5-.4-.7-.7zM118.5 169.7c0 .1 0 .3-.1.4.2.1.5.4.6.3.3-.1.5-.4.7-.6 0-.1-.1-.2-.1-.3-.4.1-.8.2-1.1.2zm16.1-72.5c.1.1.2.3.3.4.2-.2.5-.3.7-.5-.1-.2-.2-.3-.3-.5-.3.3-.5.4-.7.6zm246.5-22.5c.1.6.2.9.3 1.5.8-.9.8-1-.3-1.5zm-257.6 88c-.2.1-.3.1-.5.2l.3.9c.2-.1.3-.1.5-.2-.1-.2-.2-.6-.3-.9zm113.4-65.3c-.1.1-.3.2-.4.3 0 .3-.1.6 0 .8.1.1.5 0 .7 0 0-.1.1-.2.1-.4s-.2-.4-.4-.7zm-9.4 8.4h.3c.1-.3.2-.5.4-.9-.4 0-.7-.1-1.2-.1.2.4.4.7.5 1zm-111.1 45.9c.1.1.2.3.4.4l.7-.7c-.1-.1-.2-.2-.3-.4-.3.3-.5.5-.8.7zm-2.1 23.3c.2.1.4.1.6.2.1-.3.2-.6.3-.8-.2-.1-.5-.2-.5-.1-.3.1-.4.4-.4.7zM243.2 69.3c-.2.1-.3.2-.5.3.2.3.4.6.5 1 .2-.1.3-.2.5-.3-.1-.3-.3-.6-.5-1zM86.4 164.9H86c-.1.3-.3.6-.4.9.1.1.2.1.2.2.2-.1.5-.2.7-.4.1-.2-.1-.5-.1-.7zM353.7 45.7c.1-.1.2-.3.3-.4-.2-.2-.4-.3-.6-.5-.1.2-.3.4-.4.5.2.1.5.3.7.4zm12.5-8.2c-.5.3-.7.5-1 .8.4.2.6.4 1 .6v-1.4zM88.8 164c.5 0 .8 0 1.3-.1-.3-.4-.4-.6-.7-.9-.2.4-.3.6-.6 1zm152-74.2l.2-.2c-.1-.3-.1-.6-.3-.7-.1-.1-.4.1-.9.2.5.4.8.5 1 .7zm-4.2 10.9c0-.2.1-.3.1-.5-.3-.1-.6-.1-.9-.2 0 .2-.1.3-.1.5.3.1.6.1.9.2zm150.9-41.3l-.3-.3c-.2.1-.5.3-.7.4.1.2.3.3.4.5l.6-.6zm-238.7 49.8c-.1-.2-.1-.3-.2-.5-.3.1-.6.3-1 .4.1.2.1.3.2.5.4-.2.7-.3 1-.4zm234.6-39.5c.1-.2.1-.4.2-.6-.3-.1-.7-.2-1-.2 0 .2-.1.3-.1.5l.9.3zM264.9 85.8c.1-.1.3-.2.4-.3-.1-.2-.3-.4-.4-.7-.2.1-.3.2-.5.3.2.3.4.5.5.7zM126.5 103c0 .1 0 .2.1.3.2 0 .6.1.7 0 .1-.1.1-.4.1-1-.5.4-.7.6-.9.7zm110.1-.2h.5c-.1-.4-.1-.8-.2-1.3-.1 0-.3 0-.4.1 0 .4 0 .8.1 1.2zm-2-2.2c-.1 0-.2.1-.3.1 0 .3 0 .6.1.7.1.1.4 0 1 .1-.4-.5-.6-.7-.8-.9zm-24.8-54.9c-.1-.2-.2-.3-.2-.5-.3.1-.5.3-.8.4.1.1.1.3.2.4.2-.1.5-.2.8-.3zM277 90l-.3-.3c-.2.1-.5.3-.6.4-.1.1.1.4.3.9.3-.5.4-.7.6-1zm-62.1-51.8c.2-.1.3-.1.5-.2-.1-.3-.2-.5-.3-.8-.1 0-.3.1-.4.1 0 .4.1.6.2.9zm-2.7-.5c.1 0 .2.1.3.1.2-.2.4-.4.4-.7 0-.1-.2-.3-.5-.7-.1.6-.2.9-.2 1.3zm74.7 25.6c.3.2.5.4.6.4.2-.1.4-.3.4-.5 0-.1-.3-.4-.4-.3-.2 0-.3.2-.6.4zm77.3-24.5h-.5v.7h.5c.1-.2.1-.4 0-.7zm-8.6 9.6h.4c0-.2.1-.5.1-.7-.2 0-.4-.1-.7-.1.1.3.2.6.2.8zm0-2.5c0 .2 0 .3-.1.5.3 0 .6.1.9.1 0-.1 0-.3.1-.4-.3 0-.6-.1-.9-.2zm-63.2 11.9c-.3-1.1-.4-1.1-1-.5.3.2.6.3 1 .5zm-62.6 49.4c-.2-.2-.3-.4-.4-.4-.1 0-.3.2-.4.3.1.1.2.3.4.4 0 .1.2-.1.4-.3zm7.9-13.6c0 .1.1.3.1.4.2 0 .4-.1.6-.1 0-.2-.1-.3-.1-.5-.2 0-.4.1-.6.2zM384 70.9c.1-.1.1-.2.2-.3-.2-.1-.4-.3-.6-.4-.1.2-.2.3-.2.5.1 0 .4.1.6.2zm-265.2 41.9c.1.2.1.3.2.5.2-.1.5-.2.7-.3 0-.1-.1-.3-.1-.4-.3.1-.6.2-.8.2zm262.3-49.3c-.2 0-.3.1-.5.1.1.3.1.5.2.8.1 0 .3-.1.4-.1 0-.3 0-.6-.1-.8zM222.8 88c-.1-.1-.2-.1-.3-.2-.2.1-.4.2-.5.4 0 .2.2.4.4.8.3-.6.3-.8.4-1zm-112.5 92.5c.1-.1.3-.1.4-.2-.1-.2-.1-.5-.2-.7-.2.1-.5.2-.4.2 0 .3.1.5.2.7zm10.6-70.7c-.2-.2-.4-.4-.5-.4-.1 0-.4.2-.4.4 0 .1.2.4.3.4.1 0 .3-.2.6-.4zm243.5-69.4c-.1-.2-.2-.3-.3-.5-.2.1-.5.1-.7.2-.1.1 0 .4.1.9.5-.3.7-.4.9-.6zm15.9 23.5c-.1-.1-.3-.1-.4-.2-.1.2-.2.5-.2.7.1 0 .2.1.3.1.1-.1.2-.4.3-.6zm-10.6-31.3c0 .2 0 .3-.1.5.2 0 .5.1.7.1l.1-.4c-.2-.1-.4-.1-.7-.2zm8.3 43.6h-.5v.8h.4c.1-.3.1-.5.1-.8zM96.4 158.7c0-.2.1-.3.1-.5-.3-.1-.6-.1-.9-.2 0 .1-.1.3-.1.4l.9.3zm17.2 14.8v.5h.8v-.4c-.3 0-.6-.1-.8-.1zM248.9 66.6l.3-.3c-.2-.2-.3-.4-.5-.5 0 0-.2.2-.5.3.4.3.5.4.7.5zM381 67.9c-.1-.1-.2-.1-.3-.2-.1.2-.3.4-.4.6 0 0 .2.2.5.4.1-.4.2-.6.2-.8zm-228.6 34.9c0-.1 0-.3.1-.4-.2 0-.5-.1-.7-.1 0 0-.1.3-.1.5.3.1.5 0 .7 0zm79.1 4.3c0-.1.1-.3.1-.4-.2-.1-.4-.1-.6-.2 0 .1-.1.3-.1.4.2.1.4.1.6.2zM381 74.2c.1 0 .2.1.3.1l.3-.6c-.2-.1-.3-.1-.5-.2-.1.3-.1.5-.1.7zm-80.3-5.5c0 .2.1.3.1.5.2 0 .5-.1.7-.1v-.4h-.8zm78.8-1c.1 0 .3-.1.4-.1 0-.2-.1-.4-.1-.6 0 0-.3.1-.4.1 0 .1 0 .4.1.6zM93 156.8c-.1.1-.2.2-.3.4.2.2.5.3.7.5l.3-.3c-.2-.2-.4-.4-.7-.6zm286-79.6c-.1-.1-.2-.2-.3-.4l-.5.5.3.3c.1-.1.3-.2.5-.4zm-154.2 31.3c.1 0 .2 0 .4.1v-.7h-.3c-.1.2-.1.4-.1.6zm-136 50c-.2.1-.3.1-.5.2.1.2.2.4.3.7.1-.1.2-.1.4-.2-.1-.2-.1-.4-.2-.7zM373.9 31.9v.4h.6v-.4h-.6zm-168 12.2c0-.1.1-.3.1-.4-.2 0-.4-.1-.7-.1 0 .1-.1.2-.1.3.2.1.5.2.7.2zm97.4 20c-.1.1-.1.3-.2.4.2.1.5.2.7.3.1-.1.1-.2.2-.3-.3-.2-.5-.3-.7-.4zm-89.1-21c-.1-.1-.1-.2-.2-.4-.2.1-.4.3-.6.4.1.1.1.2.2.3l.6-.3zM96.4 155.4c-.1-.1-.1-.3-.2-.4-.2.1-.4.1-.6.2.1.2.1.3.2.5l.6-.3zm288.9-94.1c-.1 0-.3-.1-.4-.1 0 .2-.1.4-.1.6.1 0 .4.1.4.1 0-.2.1-.4.1-.6zm-25.8-18.7c0-.1 0-.3-.1-.4-.2.1-.4.1-.6.2v.4c.3-.1.5-.1.7-.2zM113.2 179.7c0-.1-.1-.3-.1-.4l-.6.3c0 .1.1.2.1.4.2-.2.4-.2.6-.3zM371.7 34.9c0-.1-.1-.3-.1-.4-.2.1-.4.2-.5.3l.1.3c.1 0 .3-.1.5-.2zm-246.2 73.6c-.1.1-.1.2-.2.4l.6.3c.1-.1.2-.4.2-.4l-.6-.3zm228-62.2l-.4-.4c-.1 0-.3.2-.3.2 0 .2.1.4.2.4.1.1.3-.1.5-.2zm-146.1 8.1c-.4-.1-.5-.2-.6-.2-.1 0-.3.2-.4.3 0 0 .1.3.2.3.2 0 .3-.1.8-.4zm-56.3 48.4c-.2-.2-.4-.3-.5-.3-.1 0-.3.2-.3.3 0 .1.2.3.3.3.2 0 .3-.2.5-.3zm-64.2 54.1c.2 0 .3-.1.5-.1 0-.2-.1-.5-.1-.7-.1 0-.3 0-.4.1-.1.2-.1.5 0 .7zm191.3-68.6l.3.3c.2-.2.3-.4.5-.6-.1-.1-.2-.1-.2-.2-.3.1-.5.3-.6.5zM302.6 70c0-.1 0-.3.1-.4-.3 0-.5 0-.8-.1v.3c.2.1.5.1.7.2zM87.5 155.9c.1-.1.1-.2.2-.4-.2-.1-.4-.1-.6-.2 0 .1-.1.2-.1.3.1.1.3.2.5.3zm33.2.3c-.1.1-.3.1-.4.2.1.2.3.4.4.6.1-.1.2-.1.3-.2l-.3-.6zM95 159.3v.4c.2 0 .5 0 .7.1v-.3c-.2-.2-.5-.2-.7-.2zm174.5-83.9c-.1 0-.3.1-.4.1 0 .2.1.4.1.6.2 0 .3-.1.5-.1-.1-.2-.2-.4-.2-.6zm-27.3 20.5v.3c.2 0 .4 0 .7.1V96c-.3-.1-.5-.1-.7-.1zm-95.4 27.4c-.1.1-.2.1-.3.2.1.2.2.3.4.5 0 0 .1-.1.2-.1l-.3-.6zm-24.9-15.2c0-.1 0-.3.1-.4-.3 0-.5-.1-.8-.1 0 .1 0 .2-.1.3.3.1.6.1.8.2zm112.6 5.2c0-.1-.1-.2-.1-.4-.2 0-.4.1-.6.1 0 .1.1.2.1.3.2.1.4 0 .6 0zm148.4-49.1c0 .1.1.3.1.4.2-.1.4-.2.6-.2 0-.1-.1-.2-.1-.3-.2 0-.4 0-.6.1zm-83.3 1.3l-.3.3c.1.2.3.3.4.5.1-.1.2-.1.3-.2-.2-.2-.3-.4-.4-.6zm2.7.9c0-.1-.1-.2-.1-.3-.2.1-.4.1-.7.2 0 .1.1.2.1.3.2 0 .5-.1.7-.2zm-86.4 53.8l.3-.3c-.2-.1-.4-.2-.5-.4-.1.1-.1.2-.2.3l.4.4zm162.7-52.8c.1 0 .2 0 .3.1 0-.2.1-.4.1-.6-.1 0-.2 0-.3-.1 0 .2-.1.4-.1.6zM122.3 118c.1.1.2.2.2.3.2-.2.4-.4.6-.5-.1-.1-.1-.2-.2-.2-.2.1-.4.2-.6.4zm100.5-28.8c-.1-.1-.1-.3-.2-.4-.2.1-.4.1-.5.2 0 0 .1.3.1.4.2 0 .4-.1.6-.2zm58.7-6.6c0-.1.1-.2.1-.3-.2-.1-.4-.1-.6-.2 0 .1-.1.2-.1.3.2.1.4.2.6.2zm-159.7 32c0-.1-.1-.2-.1-.3-.2.1-.4.2-.6.2 0 .1.1.2.1.3.2-.1.4-.2.6-.2zm282.1-64c.1-.1.2-.1.3-.2-.1-.2-.1-.3-.2-.4 0 0-.2.1-.3.1.1.2.2.3.2.5zm-277.4 55.8c-.1.1-.2.1-.3.2.1.2.2.3.4.4 0 0 .2-.1.3-.2-.2-.1-.3-.3-.4-.4zm-5.2 12.1c.1 0 .2.1.3.1.1-.2.2-.4.2-.6-.1 0-.1 0-.3-.1-.1.2-.2.4-.2.6zM367 37.8v-.4h-.6v.3c.2 0 .4 0 .6.1zM205.1 53.9h-.2v.5h.2v-.5zm-60.8 65.8c.1.1.3.2.4.4.1-.1.2-.3.3-.4l-.2-.2c-.2.1-.3.1-.5.2zm-21.7-8.6v-.3c-.2 0-.4 0-.6.1v.3c.2 0 .4 0 .6-.1zm258.7-27.2c-.1 0-.2-.1-.3-.1-.1.2-.2.4-.2.5.1 0 .2.1.3.1 0-.1.1-.3.2-.5zm-30-33.1v.4c.2 0 .4-.1.6-.1v-.3h-.6zm-146.5-3.1c.1 0 .2.1.3.1 0-.2.1-.3.1-.5-.1 0-.3-.1-.3-.1 0 .2 0 .4-.1.5zm75.3 39.9c-.1 0-.2-.1-.3-.1-.1.2-.1.5-.2.7.1 0 .2.1.3.1.1-.2.2-.5.2-.7zM224.9 85c.1-.1.1-.2.2-.3-.2-.1-.4-.2-.6-.2 0 .1-.1.2-.1.3.1 0 .3.1.5.2zm-70.8 14c.1.1.3.2.4.3.1-.2.2-.3.3-.5l-.3-.3c-.1.3-.2.4-.4.5zm-31.6 6.4c.1.1.2.1.4.2.1-.2.2-.3.2-.5 0 0-.3-.2-.3-.1-.2.1-.2.3-.3.4zm116.4-8.1v.3c.2 0 .4-.1.6-.1 0-.1 0-.2-.1-.3-.2.1-.4.1-.5.1zm-115.2 61.5v-.3c-.2 0-.3.1-.5.1v.2h.5zm-8.2-9.2v.4h.6v-.3c-.2-.1-.4-.1-.6-.1zm171.7-80.2c.1 0 .2.1.2.1.1-.1.2-.3.3-.4-.1-.1-.2-.1-.4-.2 0 .2 0 .3-.1.5zm-77.6-15.3c0 .1-.1.3-.1.4.2 0 .4.1.6.1 0-.1.1-.2.1-.3-.2-.1-.4-.1-.6-.2zM94.3 160.6c0 .1.1.2.1.4.2-.1.4-.1.6-.2 0-.1 0-.2-.1-.3-.3 0-.4 0-.6.1zM204.4 46.3c-.1 0-.2.1-.4.1.1.2.1.4.2.6.1 0 .2 0 .3-.1 0-.2 0-.4-.1-.6zm176.7 39c-.2-.1-.3-.3-.4-.3-.1 0-.3.2-.3.2 0 .1.1.3.2.3s.3-.1.5-.2zM216 38.4v.3c.2 0 .3 0 .5-.1v-.2h-.5zm-97.9 134.9v-.3c-.2 0-.4 0-.6-.1v.3c.2.1.4.1.6.1zM289.2 61v-.3h-.5v.3c.1-.1.3-.1.5 0zm-9.3 20.4c.1.1.2.1.3.2.1-.2.2-.3.3-.5-.1 0-.2-.1-.2-.1-.2.1-.3.3-.4.4zm92.9-46.2l-.2.2c.1.1.3.2.4.3l.2-.2c-.1-.1-.2-.2-.4-.3zm-5.8-2.6c0-.1 0-.2.1-.3-.2 0-.4-.1-.6-.1 0 .1 0 .2-.1.3.2 0 .4 0 .6.1zM118.4 152c.1 0 .2.1.4.1 0-.2.1-.4.1-.5-.1 0-.2-.1-.3-.1 0 .1-.1.3-.2.5zm7-48.4c0 .1 0 .2-.1.3.2.1.3.1.5.2 0-.1.1-.2.1-.3-.2-.2-.4-.2-.5-.2zm6.7-8.1l-.2.2c.1.1.2.3.2.4l.3-.3c0-.1-.2-.2-.3-.3zm19.4 10.1h-.3c0 .1.1.3.1.4.1 0 .1 0 .2-.1v-.3zm88.1-10.2l.2-.2-.3-.3c-.1 0-.1.1-.2.1.1.1.2.3.3.4zm-116.8 69.2c.1.1.2.1.3.2.1-.2.2-.3.3-.5-.1-.1-.2-.1-.3-.2-.1.2-.2.4-.3.5zm98.3-76.4c.1 0 .3.1.4.1 0-.2.1-.4.1-.6-.1 0-.2-.1-.3-.1 0 .2-.1.4-.2.6zm-17-43c0-.1.1-.2.1-.3-.2 0-.3 0-.5-.1v.2c.1.1.2.2.4.2zm-59.6 79.6c-.1.1-.1.2-.2.3.2.1.3.1.5.2 0-.1.1-.2.1-.2-.1-.1-.2-.2-.4-.3zm-21-18.9h.3v-.5h-.3v.5zm144.3-31.1c.3.3.3.4.4.5l.3-.3c-.1-.1-.3-.1-.7-.2zm-2 11.1h.3v-.6h-.2c-.1.3-.1.5-.1.6zm4-21.6l.2.2c.1-.1.2-.2.2-.3l-.1-.1c-.1.1-.2.2-.3.2zM97.3 156c.1 0 .2 0 .2.1 0-.1.1-.2.1-.4 0 0-.1 0-.2-.1 0 .2 0 .3-.1.4zM368.8 29.8v.2h.4v-.2h-.4zM119 154.4c-.1-.2-.2-.3-.2-.3s-.2 0-.2.1 0 .3.1.3c0-.1.1-.1.3-.1zm6.7-52h.2v-.4h-.2c.1.1.1.2 0 .4zm164.6-42.9v-.2c-.1 0-.3 0-.4.1v.1h.4zm-174.8 88.9l-.2-.2c-.1.1-.1.2-.2.2l.2.2c.1 0 .1-.1.2-.2zM358.7 38.9c0-.1.1-.2.1-.3-.2-.1-.3-.1-.5-.2 0 .1-.1.1-.1.2.2.1.4.2.5.3zm11-3.3v.2c.1 0 .3-.1.4-.1v-.2c-.1.1-.3.1-.4.1zM117.6 148.8l-.1.1c.1.1.2.1.3.2l.1-.1c-.1-.1-.2-.2-.3-.2zm16.5-58c-.1-.1-.2-.1-.2-.1-.1 0-.1.1-.2.2.1.1.2.1.3.2 0-.1.1-.2.1-.3zm130.4-7.5c0 .1 0 .2.1.2s.3-.1.4-.1v-.2c-.2.1-.4.1-.5.1zm-181 79.5c0-.1-.1-.1-.1-.2-.1.1-.2.1-.2.2 0 0 .1.1.1.2.1-.1.1-.2.2-.2zm157.7-70.7c0-.1 0-.1 0 0-.1-.1-.1-.1-.2-.1v.1h.2zm45.1-28.5v.5c.1 0 .2-.1.3-.1 0-.1-.1-.2-.3-.4zm-20.9 23.9l-.2.2.3.3.1-.1c0-.1-.1-.3-.2-.4zm93.3-49.9c-.1-.1-.2-.1-.2-.1-.1 0-.1.1-.1.2l.1.1.2-.2zm-99.8 48.1h-.1v.2h.1v-.2zM145 114.3l-.1.1s.1.1.1 0c0 0 .1 0 .1-.1-.1.1-.1 0-.1 0zm143.3-49.5l-.1.1s0 .1.1.1c0 0 .1 0 .1-.1 0 0 0-.1-.1-.1zm-19.3.6c-.1 0-.1-.1-.2-.1l-.1.1.1.1c.2.1.2 0 .2-.1zm-34.9 28.8V94c-.1 0-.2.1-.3.1v.1h.3zm120.5-47.6c0 .1-.1.2-.1.3l.1.1c.1 0 .1-.1.2-.2 0-.1-.1-.1-.2-.2zm-116.7 21l-.1-.1h-.1c.1.1.1.1.2.1-.1 0 0 0 0 0zm9.7 1.5l.1.1s.1 0 .1-.1c0 0 0-.1-.1-.1 0 0-.1 0-.1.1zm-31.1-28.8l.2.2.2-.2-.1-.1c-.1 0-.2.1-.3.1zM84.3 155.4zM286 70.8c0-.1.1-.1 0-.2 0 0-.1 0-.1-.1 0 .1-.1.1-.1.2.1 0 .2 0 .2.1zM96.2 156c-.1 0-.1-.1-.1-.1s-.1 0-.1.1l.1.1s.1 0 .1-.1zm-8.3 1.2c0 .1 0 .1-.1.2.1 0 .2.1.3.1 0-.1 0-.1.1-.2-.1 0-.2-.1-.3-.1zm142.6-50.3c0-.1-.1-.1-.1-.1v.1h.1zm10.1-16.2c0-.1 0-.1 0 0 0-.1 0-.1 0 0zm39.6 1.9h-.2v.2h.1c.1-.1.1-.1.1-.2zM376 34.1s-.1 0 0 0c-.1 0-.1.1 0 0-.1.1 0 .1 0 0 0 .1 0 0 0 0zM232.3 97.3l-.1.1h.1v-.1zm47.8-12.8c-.1 0-.1-.1-.2-.1 0 0 0 .1-.1.1.1 0 .1.1.2.1 0 0 0-.1.1-.1zm-70.6-42.3c0-.1-.1 0-.1 0h.1c-.1 0 0 0 0 0zM327.1 202.5c-.9 1.5-2 2.9-2.8 4.5-1.5 3-2.9 6.1-4.3 9.2-1 2.2-2 4.3-3 6.5-1.2 2.6-3 4.6-5.2 6.3-.2.2-.4.3-.6.5-2.5 2.9-7.1 1.2-8.9-1-.3-.4-.5-.9-.5-1.4.1-3.1.1-6.2.4-9.3.1-1.5.9-3 1.1-4.5.4-3.4 1.6-6.5 2.6-9.7.6-1.8 1-3.7 1.4-5.6 0-.2-.1-.3-.2-.8-.9.6-1.8 1.1-2.5 1.7-2 1.6-4 1.7-5.6.1-.7-.7-1.2-1.7-1.7-2.6-.3-.7-.5-1.5-1.4-1.4-1 .1-1.2.8-1.4 1.6-1.2 4.6-2.4 9.2-3.8 13.7-.8 2.6-1.8 5.1-2.8 7.6-.9 2.2-1.5 4.5-1.9 6.9-.5 2.8-1.1 5.5-1.8 8.2-.7 2.7-1.5 5.3-2.4 7.9-.7 2.2-1.8 2.6-4 1.6s-2.3-1.3-1.9-3.6c.6-3.1 1.3-6.2 1.4-9.5 0-.2.1-.5.2-.7.6-.1 1.4.1 1.3-1-.4 0-.7 0-1.2-.1.4-1.1.8-2.2 1.1-3 .1-1.8.2-3.4.4-5.1.3-2.3.8-4.6 1.2-6.9.2-1.3.4-2.5.7-3.8.5-2.7 1.1-5.3 1.5-8 .7-3.9 1.3-7.9 2-11.8.2-1.3.6-2.5.8-3.8.2-2.4.3-4.8.4-7.2 0-2.3 1.2-3.6 3.1-4.4.6-.3 1.2-.5 1.9-.7 1.2-.3 2.3.8 1.8 1.8-1.4 2.6-1.2 5.6-1.8 8.4-.6 3-1.1 6-1.7 8.9-.2 1.3-.5 2.6-.6 3.9 0 .5.3 1.4.6 1.5.8.3.9-.5 1.1-1.1 1.9-5.3 3.6-10.7 5.6-16 1-2.9 2.3-5.7 3.5-8.4.4-.8 1.1-1.5 1.8-2 .8-.6 1.7-1.1 2.6-1.4.5-.2 1.5-.3 1.8 0 .4.3.4 1.2.3 1.8-.2.8-.6 1.6-.9 2.4-1 2.9-2 5.8-2.9 8.7-.9 3.1-1.7 6.2-1.6 9.4.1 1.9 1.1 3.4 2.3 4.8.4.5 1.1.5 1.5 0 1.9-2.1 3.7-4.1 5.5-6.2.3-.4.4-1.1.6-1.6.3-1 .7-1.9 1.9-2.1-.2-.3-.4-.5-.4-.5.3-1.6.5-3 .7-4.3 0-.1 0-.3.1-.4 1.1-1.3 1.1-2.9 1.2-4.5.1-1.1.8-2.2 1.3-3.3.7-1.7 1.3-3.3 2-5 .5-1.5 1.7-2.4 2.8-3.4.4.2.7.3.8.3 1.8-.6 3.6-.3 5.2.2 2.9.8 2.9 1.2 1.6 3.8-1.5 2.9-3 5.9-4.5 8.8-.3.6-.4 1.2-.8 2.1-.2-.7-.3-1-.5-1.7-.5.6-1.2 1-1.2 1.4.1.5.7 1 1 1.5h.4c-.9 2.2-1.9 4.4-2.9 6.8-.3-.5-.5-.8-.7-1.1-1.5-.3-1.6 1.2-2.3 1.8-.2.2 0 .7 0 1.2.7-.7 1.2-1.2 1.8-1.7.2.1.3.1.5.2 0 .5.2 1 .1 1.4-.5 1.8-.9 3.5-1.5 5.2-1 2.8-2 5.5-3 8.2-.7 1.9-1.3 3.9-1.9 5.9-.2.6-.3 1.3-.5 1.9-1 2.9-1.8 5.8-2 8.8 0 .4 0 .8.1 1.1.3.9 1 1 1.6.2 2.3-3.2 4.6-6.4 6.7-9.8 2.4-3.7 4.6-7.4 6.8-11.2 1.1-1.9 1.9-4 2.8-6.1.6-1.2 1.2-2.4 1.8-3.7-.1-.2-.2-.5-.4-.9.3-.2.5-.3.8-.5-.1-.3-.3-.6-.4-.9.2-.2.3-.5.4-.6-1.2-1.8-.4-3.6-.4-5.4.3-.2.6-.3.9-.5-.3-2.4 0-4.7.8-6.9.6-1.8 1-3.7-.1-5.6-.2-.3 0-1.1.3-1.4.5-.6 1.2-1.1 2-1.5 1.5-.9 3-1.8 4.6-2.5.9-.4 1.4.1 1.4 1.1 0 1.5-.1 2.9 0 4.4.3 2.7-1.1 5-1.5 7.6-.5 2.6-.9 5.2-1.4 7.8-.4 2.3-.9 4.7-1.4 7-.2 1.1-.3 2.3-.5 3.4-.2 2-.5 4.1-.7 6.1 0 .3 0 .7.1 1 .1 1.4.2 2.8.2 4.3 0 .8-.2 1.7-.1 2.5 0 .4.5.8.8 1.3.4-.3 1-.6 1.2-1 .5-1.1.8-2.3 1.3-3.5.6-1.7 1.4-3.4 1.9-5.2.6-2.7 1.8-5.2 2.6-7.8 1-3.2 2.4-6.1 4.3-8.8.6-.9.9-2.2.9-3.2 0-1.4.6-2.5 1.4-3.6.5-.7.8-1.6 1.1-2.4.7-1.9.9-3.9 2.1-5.6.1-.1.2-.3.2-.4 1.1-3 2.2-6.1 3.4-9.1.9-2.2 1.9-4.2 2.8-6.4.7-1.5 1.2-3.1 1.9-4.6.4-1.1.9-2.1 1.4-3.1 1.3-2.5 2.8-5 4-7.6.7-1.5.8-3.2 1.3-4.9.2-.7.4-1.3.7-1.9.6-1.2 1.6-2.3 1.8-3.6.4-3.2 1.5-6.2 2.8-9.1.7-1.5 1.1-3.1 1.8-4.6 1.1-2.2 3.3-3.2 5.5-4 .3-.1 1 .2 1.2.4.2.4.1 1-.1 1.4-.7 1.2-1.7 2.2-2.4 3.4-1.5 2.4-2.7 4.9-2.2 7.8.1.4-.2 1-.5 1.4-1 1.5-1.7 3-1.6 4.9 0 .8-.4 1.6-.8 2.4-1.2 2.4-2.5 4.8-3.7 7.1-2 3.7-3.5 7.7-5.7 11.2-.8 1.2-1.1 2.8-1.5 4.2-.5 2-.8 4.1-1.4 6.1-.3 1.2-1.1 2.3-1.6 3.5-.2.5-.5 1-.5 1.4-.1 3.2-2.1 5.8-3.2 8.6-.4 1-.9 2.1-1.3 3.1-1.5 3.5-3.1 6.9-4.5 10.4-.7 1.6-1.1 3.4-1.6 5.1-.8 2.8-1.6 5.6-2.3 8.5-.9 4.1-3.1 7.7-4.7 11.6-.3.7-.3 1.4-.7 2.1-1.4 2.8-2.8 5.7-5.2 7.8-1.1 1-2.9 1.2-4.2.5-.1 0-.2-.1-.2-.2-.7-.4-1.9-.7-2-1.3-.5-2.3-1.9-4.4-1.5-6.9.3-1.9.7-3.8.8-5.8.1-1.8-.1-3.5-.2-5.3 0-.2-.2-.5-.4-.7.4.7.2.7.1.6zm-42.6 9.5c1-.1 1.8-.1 2.6-.2.5-.9-.7-.8-1-1.3-.1-.3-.1-.6-.2-.9-.4-.2-.7-.3-1.1-.5-.3.3-.5.6-.6.7.2.9.3 1.7.3 2.2zm31.9-27.9c1.1.3 1.3-.4 1.5-1.1.1-.5.4-1.1-.3-1.4-.4.6-.7 1.2-1 1.7-.1 0-.1-.1-.2-.1v.9zm-33.5 42.7c.7-.1 1.2-.2 1.7-.3 0-.1 0-.2.1-.3-.6-.3-1.3-.5-2.3-1 .2.6.4 1.1.5 1.6zm51.3-58.6c.5-.3.8-.5 1.2-.7 0-.1 0-.2-.1-.3h-1.8c.3.5.4.7.7 1zm-17.7 21.7c-.1.8-.1 1.3-.1 1.8.1 0 .2 0 .3.1.3-.4.6-.7 1-1.2-.4-.3-.7-.4-1.2-.7zm-.2-5.1c.8.4 1.4.6 2.2 1-.4-1.3-.9-1.6-2.2-1zm8.7-19c-.1.8-.1 1.3-.2 1.8.1 0 .2.1.2.1.3-.3.6-.7.9-1.1-.2-.3-.5-.5-.9-.8zm-43.9 55.6c.1-1.4-.1-1.7-1.3-1 .4.3.7.6 1.3 1zm6.5-6.4c-.1.2-.1.3-.2.5l.9.3s.1-.3.2-.5c-.2-.1-.6-.2-.9-.3zm28.9-37.3c.1.2.2.4.2.5.3-.2.6-.3 1-.5-.1-.2-.1-.3-.2-.5-.4.2-.7.4-1 .5zm19.1-11.3c.1-.1.2-.1.3-.2-.1-.2-.2-.5-.4-.7-.1-.1-.4.2-.8.4.4.2.7.3.9.5zm-14.4 4.3c-.1.1-.3.2-.4.3l.6.9c.1-.1.2-.1.4-.2-.2-.3-.4-.7-.6-1zm-32.6 41.4c0 .2 0 .3.1.5.3-.1.6-.1.9-.2 0-.2 0-.3-.1-.5-.3.1-.6.1-.9.2zm-5.3 12.6l.3-.3c-.2-.2-.3-.4-.5-.5-.1.1-.2.2-.3.4.2.1.3.2.5.4zm43.1-58.2c.2-.3.4-.5.3-.6 0-.1-.3-.3-.4-.3-.1 0-.3.3-.3.4 0 .1.2.2.4.5zm-44.9 48.6c.1 0 .2 0 .3-.1v-.7c-.2 0-.4.1-.5.1 0 .2.1.5.2.7zm39.2-32.3c.1-.1.3-.1.4-.2-.1-.3-.3-.5-.4-.8-.1.1-.2.1-.4.2.2.3.3.6.4.8zm3.6-10.6c-.2 0-.3.1-.5.1.1.2.1.4.2.7.1 0 .3-.1.4-.1 0-.2-.1-.5-.1-.7zm3.7-5.7v-.4h-.7c0 .2 0 .3.1.5.2 0 .4-.1.6-.1zm-46.4 56.7v-.4h-.6v.5c.2-.1.4-.1.6-.1zm36.9-40.8c.1.1.2.1.3.2.1-.2.2-.3.3-.5-.1-.1-.3-.1-.4-.2-.1.2-.1.3-.2.5zM282 221.3c-.1 0-.3-.1-.4-.1 0 .3-.1.5-.1.8.1 0 .2 0 .3.1 0-.2.1-.5.2-.8zm2.2 2.4c-.1.1-.2.1-.3.2.1.2.2.3.3.5l.3-.3c0-.2-.2-.3-.3-.4zm-3.5.7c0-.1-.1-.2-.1-.4-.2.1-.4.1-.6.2 0 .1.1.2.1.3.2 0 .4 0 .6-.1zm36.2-50.3c-.1 0-.2-.1-.3-.1 0 .2-.1.4-.1.6 0 0 .1 0 .3.1-.1-.2 0-.4.1-.6zm6.8-7.1c0-.1 0-.2-.1-.3-.2.1-.4.1-.6.2 0 0 0 .1.1.3.2-.2.4-.2.6-.2zm-2 1.4c-.1-.1-.1-.2-.2-.3-.2.1-.3.2-.5.3.1.1.1.2.2.3.1-.1.3-.2.5-.3zm-34.6 44l-.2.2c.1.1.2.3.3.4l.3-.3c-.1-.1-.3-.2-.4-.3zm40.4-44.4c.1-.2.2-.3.2-.5 0-.1-.2-.2-.2-.2-.1 0-.3.2-.3.3-.1.2.1.3.3.4zm-45.1 47.4c.1-.1.2-.2.3-.4-.1-.1-.2-.2-.4-.3-.1.1-.1.2-.2.2.1.2.2.3.3.5zm28.9-26.8l-.3.3c.1.1.2.1.3.2l.2-.2c-.1-.1-.2-.2-.2-.3zm-29.6 31h-.2v.2c.1 0 .1 0 .2-.1v-.1zm-1-.8v.2h.2v-.2h-.2zm49.4-36.2c.1 0 .1 0 0 0 .1-.1.1-.1 0-.1.1 0 0 0 0 .1zM34.6 135.2c1.2-1.2 2.3-2.6 3.5-3.7.7-.6 2-.3 2.5.4.7.9.5 1.7-.2 2.4-.7.8-1.1 1.9-2.6 1.7.1.4.2.7.3 1.1-2 3.1-4 6.2-6.8 8.7-.7.6-1.6 1-2.4 1.3-.4.1-1-.1-1.5-.3-3-.9-4.7-3-5.4-6-.2-.9-.6-1.8-.9-2.7-.1-.4-.2-.7-.2-1.1.1-1.8-.2-3.6.6-5.4.5-1.2.2-2.8.6-4.1.6-2.4 1.4-4.8 2.8-6.9.8-1.3 1.3-2.8 1.9-4.2.5-1.2 1.1-2.3 1.8-3.4.4-.6 1.2-1 2-1.6 0-.1-.2-.3-.5-.7.5-.8 1.2-1.6 1.8-2.4 1.1-1.6 2.2-3.1 3.2-4.7.4-.6.6-1.4 1-2 .5-.9 1.1-1.6 2.5-.8v-2.3c.2-.2.4-.6.7-.9 3.5-3.5 7-7 10.6-10.4 1.3-1.2 3.1-1.9 4.6-2.9 1.6-1 3.1-2.1 4.8-3 .8-.5 1.7-.8 2.6-1.2 2-.9 3.9-2 6-2.7 2.2-.7 4.5-.8 6.7-1.4 2.9-.7 5.8-.2 8.7.1 1.3.1 2.5.7 3.6 1.3 3.1 1.9 6 4.1 7.6 7.5.4.8.7 1.8.7 2.8 0 2.8-.1 5.5-.2 8.3 0 .3.1.6.1.9.2 1.1.1 2.1-.6 3.1-.6.9-1 1.9-1.3 2.9-.6 2.2-1.9 4.2-2 6.6 0 .9-.6 1.8-1 2.7-1.9 4-3.8 8-5.9 11.9-1.1 2.1-2.5 4-3.9 5.9-2 2.6-4.2 5.1-6.1 7.8-1.8 2.5-3.3 5.2-5 7.7-.6.9-1.2 1.7-1.9 2.5s-1.5 1.5-2.1 2.3c-1.6 2.4-3.1 5-4.8 7.4-.7 1-1.7 1.9-2.7 2.7-2.1 1.7-3.7 3.8-5.2 6-.4.6-1.1 1-2 1.7 0 1.2-1 2.4-2.1 3.5-1.6 1.7-3.2 3.3-4.8 5-.4.4-.6 1-.8 1.4-.6-.1-1.1-.3-1.7-.4-.1.1-.2.3-.2.4.3.4.7.8 1.2 1.4-.8.6-1.8 1.2-3.1 2.1-.6 1.7-2.3 2.9-4.5 4v-1.6c-.5.2-.9.3-1.4.4-2.1-1.6-3.2-3.5-2.6-5.9.7-2.7 1.5-5.3 2.3-7.9.1-.3.3-.5.4-.7.3-1.3.7-2.5 1-3.8.5-1.9 1.1-3.8 1.6-5.7.1-.2.1-.5.2-.7 2.3-4.8 3-10.1 4.4-15.1 1.1-3.8 2.3-7.5 3.4-11.3 1.1-3.8 2.1-7.7 3.2-11.5.3-1.2.6-2.4 1-3.6.6-1.9 1.3-3.8 1.8-5.7.2-.6 0-1.4-.2-2.1-.3-.7-.7-1.4-.2-2.1.6-.8 1.4-1.5 2.5-1.3 1.5.3 2.9.7 4.3 1.2.8.3 1.3 1 1.2 1.8-.2 1.6-.5 3.1-.9 4.7-.6 2.2-1.3 4.3-2 6.5-.4 1.2-.9 2.5-1.1 3.7-1 4.8-2.5 9.4-4.2 14-.8 2.2-1.9 4.4-1.7 6.8 0 .2 0 .3-.1.5-1.7 3.3-1.6 7.1-3.2 10.5 0 .1-.1.2-.1.3l.3 1.8c.5-.3 1.1-.4 1.3-.8 3.4-5.5 8.4-9.7 12.2-14.9 2.5-3.4 5-6.8 7.5-10.3 1.8-2.5 3.4-5.1 5.2-7.7 1.1-1.6 2.5-3.2 3.5-4.9 2-3.3 3.9-6.7 5.8-10.1 1.3-2.4 2.7-4.7 3.8-7.2 1-2.3 1.8-4.6 2.6-7 .1-.4-.1-1-.2-1.6 1.6-.9 1.1-2.5 1.1-3.9 0-1.3 0-2.6-.1-3.9-.1-1.7-1.2-2.6-2.6-3.2-2.9-1.4-6-1.3-9.2-1.3-3.7-.1-6.9 1.1-10.1 2.5-2.7 1.1-5.2 2.6-7.8 4.1-4.8 2.8-8.9 6.5-12.8 10.4-2 2-3.6 4.1-4.4 7-.5 1.6-1.7 3-2.7 4.5-1.2 1.6-2.7 3.1-3.4 5-.2.4-.6.8-1 1.1-.1.6-.3 1.2-.4 1.9-.5-.1-.8-.2-1.2-.3v-1.3c-.1 0-.2-.1-.3-.1-.5.6-1.5 1.3-1.3 1.7.2.7 1.1 1.2 1.9 1.9-1.1 1.9-1.4 4.4-3.1 6.2-.2.7-.2 1.3-.5 1.9-.9 2-1.9 3.9-1.8 6.3 0 .6-.5 1.2-.7 1.7.3.8.6 1.6.7 2.4 0 .5-.4 1.1-.5 1.6-.1.3-.1.5-.2.8-.1.4-.2.9-.3 1.3 0 .3.1.7.1 1 .3-.2.7-.3.9-.5.3-.2.4-.6.5-.9h2.1c.4-.7.8-1.3 1.2-2.1.3.5.4.9.7 1.3.3 0 .7-.1 1-.1.2 1.2.8 1.4 1.9.7-.7-.4-.4-1.9-1.7-1.6-.3-.3-.5-.7-1-1.2 1.3-1.9 2.3-2.9 3.4-3.9.2.4.3.9.5 1.5.5-.2.8-.3 1.1-.6.1-.1.1-.7 0-.8-.3-.2-.7-.3-1-.3-.3.1-.5.2-.6.2zm11.6 32.4c.5.8 1.1 1.4 2.2 1.4v-2.9c.1 0 .2-.1.3-.1-.4-.3-.8-.6-1.1-.8-.6.9-.9 1.6-1.4 2.4zM29 125c.3-.5.6-1 .8-1.3-.2-.9-.4-1.5-.5-2.2-2.2 1.1-2.3 2.1-.3 3.5zm3.8 17.4c-.6-1.2-1.4-.6-2.1-.6-.3 0-.6.5-.8.6.4.5.7.9 1 1.4.7-.6 1.3-1 1.9-1.4zm2.5 40.3c-.2-.8-1.6-1.6-2.6-1.4-.1.4-.3.9-.5 1.4h3.1zm1-2.5c.2 0 .3.1.5.1.5-.6.9-1.1 1.5-1.9-.9-.2-1.4-.3-2-.4v2.2zm-.8-3.3c-.4-.3-.8-.7-.8-.6-.4.4-.8.8-1.1 1.3 0 .1.4.5.7.7.3-.4.7-.8 1.2-1.4zm5.7 1.9c-.6-.2-1.1-.5-1.5-.4-.6.1-.7 1.3-.3 2 .5-.4 1-.8 1.8-1.6zm-5.6-73c.9 1.2 1.7 1.5 2.4 1.1-.7-1.3-1.5-1.7-2.4-1.1zm-1 65.9c-.3.6-.5.9-.8 1.4.7.2 1.3.3 1.8.5.1-.1.2-.3.3-.4-.3-.5-.7-.9-1.3-1.5zm2.1-3c0-.1 0-.2-.1-.3-.7.1-1.5.3-2.3.5.8.9 1.6.8 2.4-.2zM28.5 114c-.1.1-.1.3-.2.4.5.2 1 .4 1.5.7.1-.1.1-.3.2-.4-.1-1-.8-.8-1.5-.7zm2.7-3.2c1.1.4 1.4-.4 2.1-.7-1-.6-1.5-.1-2.1.7zm9.8 65.4c-.1 0-.3-.1-.4-.1l-.6.9c0 .1.3.4.4.4.2 0 .6-.2.7-.3 0-.3-.1-.6-.1-.9zm-8.4-63.7c0-.1.1-.3.1-.4-.3-.3-.7-.5-1-.8l-.3.3c.1.3.2.7.4 1 .1.1.5 0 .8-.1zm-.5 68.1c-.2-.6-.3-1-.5-1.5-.3.2-.6.4-.6.5 0 .3.1.7.3.9 0 .2.4.1.8.1zm-7.3-53.7h.4c.1-.4.3-.8.4-1.2-.1-.1-.2-.1-.3-.2-.3.2-.7.3-.8.6-.1.2.2.5.3.8zm9.5-17.9c-.6-.4-1-.6-1.3-.9-.1.1-.2.1-.2.2.1.4.3.7.4 1.2.4-.1.6-.2 1.1-.5zm-2.8 5.9c.2-.3.5-.6.5-.7-.1-.2-.4-.5-.6-.5-.2 0-.5.3-.5.5s.3.3.6.7zm-3.8 1.9c.1-.1.3-.1.4-.2 0-.3 0-.6-.2-.8-.1-.1-.5-.1-.8-.1-.1.1-.1.2-.2.3.3.2.6.5.8.8zm10.7 17.8v-.5h-1v.5h1zm-12.9-11.7H25v.9h.6c-.1-.3-.1-.6-.1-.9zm5.6-2.6c-.4-.3-.8-.5-1.2-.7.3 1.2.4 1.3 1.2.7zm11.4 53.8c0-.1.1-.2.1-.3-.2-.1-.5-.3-.7-.4-.1.2-.2.4-.4.7h1zm.5-3c-.2 0-.3 0-.5-.1 0 .3-.1.6-.1.9.2 0 .3 0 .5.1 0-.3 0-.6.1-.9zm-15.1-52.9c-.1-.1-.1-.2-.2-.3-.3.1-.6.1-.7.3-.1.1 0 .5 0 .7.1 0 .2.1.3.1.1-.3.3-.5.6-.8zm6.1-5.7c.1-.2.2-.3.3-.5-.3-.2-.6-.3-.9-.5-.1.1-.2.3-.3.4.4.3.7.4.9.6zm-7.7 12.4c-.4-.4-.6-.6-.8-.7-.1.2-.3.4-.6.7h1.4zm25.4 40.2c-.2-.1-.3-.1-.5-.2-.1.3-.2.6-.4.9.1.1.3.1.4.2.2-.4.4-.7.5-.9zm-17.1 15.5c.1-.1.2-.3.3-.4-.2-.1-.4-.3-.7-.4-.1.1-.1.2-.2.3.2.1.4.3.6.5zm8.1-7.6c0-.2-.1-.3-.1-.5-.3.1-.6.2-.8.2 0 .1.1.3.1.4.2 0 .5-.1.8-.1zm-5-68.2c.2 0 .3 0 .5-.1 0-.3-.1-.5-.1-.8h-.4c-.1.3 0 .6 0 .9zm-8.1 39.3v-.3c-.2-.1-.5-.1-1-.2.3.4.3.7.5.7.1 0 .3-.2.5-.2zm5.4 35.1c-.1-.1-.1-.2-.2-.4-.2.1-.4.2-.6.2.1.1.2.3.2.4.3 0 .5-.1.6-.2zm-1.5-36.6c.1-.1.1-.3.2-.4-.2-.1-.4-.2-.5-.2 0 0-.2.3-.1.3 0 .2.2.2.4.3zm3-9.4c0 .1 0 .2-.1.3.2.1.4.3.5.2.1 0 .2-.3.5-.7-.5.1-.7.1-.9.2zm2.4 40.8c0-.1.1-.3.1-.4-.2-.1-.5-.2-.7-.2 0 .1-.1.2-.1.3.2.1.5.2.7.3zm-15.1-38.8c-.1.1-.2.1-.3.2.1.2.2.3.3.5 0 0 .2-.1.3-.2-.1-.2-.2-.3-.3-.5zm2.4-15.2c.1-.1.1-.2.2-.3-.2-.1-.3-.3-.5-.4-.1.1-.2.2-.2.4.2.1.4.2.5.3zm-2.3 4.8c-.1.1-.2.1-.3.2.1.2.2.3.3.5.1 0 .2-.1.2-.1-.1-.3-.1-.4-.2-.6zm15.8 46.8v.3c.2 0 .4 0 .6-.1v-.3c-.2.1-.4.1-.6.1zm-16.8-31.9c.1-.1.2-.2.3-.2-.1-.1-.2-.3-.3-.4l-.3.3c0 .1.1.2.3.3zm14.8-31.5v-.3h-.6v.2c.2.1.4.1.6.1zm-7.4 35.9h-.4c0 .2 0 .4-.1.5h.4c.1-.2.1-.4.1-.5zm5.4-35.1c0-.1 0-.2.1-.3-.1 0-.3-.1-.4-.1 0 .1-.1.3-.1.4h.4zm-5.5 6.1c-.1.1-.1.2-.2.3.2.1.3.1.5.2 0-.1.1-.2.1-.2-.1-.2-.2-.3-.4-.3zm4.2 60.1v.2h.4v-.3c-.2.1-.3.1-.4.1zm-2.7-65.9c.1 0 .2 0 .3.1 0-.2 0-.4.1-.5h-.3s-.1.2-.1.4zm-5.1 18.1c0-.1-.1-.2-.1-.3-.2.1-.3.1-.5.2 0 .1.1.2.1.3.2-.1.4-.1.5-.2zm8.7 44h-.2c0 .1 0 .3.1.4h.2c0-.2-.1-.3-.1-.4zm4.8 3.5v.2c.1 0 .3-.1.4-.1v-.2c-.1 0-.2.1-.4.1zm-2 4.9h.2v-.3h-.2v.3zm4.5-11.6h-.2v.5h.2v-.5zM26.9 126h.2v-.3H27c-.1.1-.1.2-.1.3zm2.1-5h.2v-.3H29v.3zm7-13.7c-.1-.1-.2-.1-.2-.2l-.1.1c0 .1.1.2.1.2 0 .1.1 0 .2-.1zm-8.2 20.8v-.2c-.1 0-.2.1-.3.1v.1h.3zm11.1-25.6c-.1-.1-.1-.1 0 0-.1-.1-.1 0 0 0-.1 0-.1 0 0 0-.1 0-.1 0 0 0zm-.4-1.1c.1 0 .1.1.2.1 0 0 .1-.1.1-.2-.1 0-.1-.1-.2-.1s-.1.1-.1.2zm6.3 64.1c0-.1 0-.1 0 0-.1-.1-.1-.1-.2-.1v.1h.2zm-15.3-20l-.1-.1s-.1.1 0 .1h.1z"/><path d="M262.6 139.8c.2-.1.4-.1.6-.2-.1-.3-.3-.6-.5-1.2 1.8-.7 3.7-1.3 5.4-2.2 2.5-1.3 5.4-1.2 8-2.3 1-.4 2.1-.2 3.2-.3 2.8-.3 5.5-.6 8.3-.8 2.8-.2 5.5.3 8.1 1.3.9.3 1.9 1.3 2.3 2.2 1 2.3 1.9 4.8 2.4 7.2.3 1.3-.1 2.9-.6 4.2-.6 1.8-1.5 3.6-2.3 5.3l-.3.6c-.4 2.8-2.1 4.8-3.8 6.9-1.6 2-3.1 4.2-4.8 6.2-2 2.4-4.1 4.7-6.1 7.1-1 1.1-1.7 2.5-2.8 3.5-2.3 2.5-4.9 4.8-7.1 7.4-2.4 2.9-5.1 5.4-8 7.8-1.1.9-1.7 2.2-2.7 3.2-.9 1-1.9 1.8-2.9 2.8-1.9 1.9-4 3.6-5.6 5.7-1.6 2-3.7 2.5-5.8 3.2-.4.1-1-.1-1.3-.4-.5-.4-.8-.9-1.2-1.3-.3-.3-.8-.6-1.1-.5-.3.1-.7.5-.8.9-.6 1.8-1 3.6-1.6 5.3-.7 2-1.4 4-2.2 6-.1.2-.2.4-.2.6-.8 3.3-1.6 6.5-2.5 9.7-.4 1.3-1 2.6-1.6 4.1.5 1.4-.6 2.7-1.1 4.2-.6 1.9-1.3 3.8-2 5.6-.1.4-.4.7-.5 1.1-.3.8-.5 1.6-.7 2.4-.4 1.6-.7 3.3-1.1 4.9-.1.4-.5.7-.6.8-.3 1.3-.5 2.3-.8 3.3-.1 1.6-1 3-2.6 3.7.1.3.3.7.4 1 .1 0 .2.1.3.1-.4 1.2-.9 2.4-1.2 3.6-.2.8-.2 1.6-.2 2.5 0 1.6-.1 1.7-1.5 2.2-2.3.8-2.6.8-3.8.5 0-.3 0-.7-.1-1.3-.5.3-.9.5-1.3.8-1.9-.4-2.3-2-.9-4-.7-1.6-.7-3.2.4-4.7.4-.5.4-1.3.6-1.9.1-.4.2-.7.3-1.1.5.1.8.2 1.2.4.1-.1.2-.1.2-.2-.2-.4-.4-.9-.7-1.5.1-.2.4-.7.7-1.1.1-.3.1-.8.2-1.1.9-.1 1.6-.3 2.3-.4v-.4c-.3-.1-.6-.3-1-.5-.7-1.2-.6-1.6 1.1-3-.1-.2-.2-.5-.4-.8.6-1.5 1.2-3 1.8-4.6.5-4.6 2.4-8.9 4.3-13.2.3.1.6.1.9.2.1-.1.2-.1.3-.2-.2-.4-.4-.8-.7-1.3.3-1.1.5-2.4 1.9-3 .2-.5.4-1 .6-1.6h-.9c.9-3.5 1.6-7 3.2-10.4-.1-.1-.3-.4-.4-.6.5-1.8.9-3.6 1.4-5.4.2-.7.5-1.5 1-2.1.8-.9 1.2-1.8 1.5-2.9.4-1.5 1-3 1.5-4.5.6-2 1.2-4 1.9-6s1.5-3.9 2.2-5.9c.9-2.5 1.8-5.1 2.8-7.6 1.1-2.9 2.1-5.9 3.2-8.8.7-2 1.5-4 2.2-6 .2-.6.2-1.2.2-1.8 0-1.7.7-2.8 2.2-3.4 1.8-.7 3.7-.8 5.5.1 1.3.6 1.4 1.3.9 2.6-.2.6-.5 1.2-.5 1.7 0 3.5-1.9 6.2-3.1 9.2-1.3 3.3-2.7 6.7-4 10-.7 1.8-1.3 3.6-1.9 5.4-.9 2.6-1.9 5.2-2.8 7.8-.1.3 0 1 .2 1 .4.1.9.1 1.2-.1 1.3-1.1 2.6-2.2 3.8-3.3 2.3-2.1 4.4-4.3 6-7 .2-.3.4-.6.6-.8 1.9-1.9 3.8-3.7 5.7-5.7 1.7-1.8 3.3-3.7 5-5.6l6.9-7.8 3-3.6c1.2-1.5 2.6-2.9 3.8-4.5 2.8-3.7 5.7-7.5 7.5-11.9.6-1.4.5-3.1.5-4.7 0-.4-.4-1.1-.8-1.3-1.5-.6-3.1-1.3-4.8-.9-.5.1-1 .2-1.5.2-2.8.2-5.5.2-8.3.5-.8.1-1.6.4-2.4.7-1.1.4-2.3.7-3.4 1.3-2 1-4 2.1-6 3.2-3.3 1.8-6.5 3.6-9.7 5.5-1.3.7-2.4 1.7-3.5 2.6-3 2.2-6.1 4.2-8.9 6.6-2.7 2.3-5.2 4.9-7.7 7.4-1.4 1.4-2.7 2.9-4 4.4-.5.5-.8 1.2-1 1.9-.4 1.2-1.2 2-2.3 2.5-1.1-.6-2.3-1-3.2-1.7-1.1-1-2-2.3-2.9-3.5-.4-.6-.1-1.2.6-1.4 1.5-.3 2.5-1.3 3.5-2.3 5.1-5.3 10.8-9.9 16.7-14.4.4-.3 1-.5 1.5-.8.8 1.6 2.3 1.9 3.7.8-.3-.7-.7-1.4-1-2.2-.7.3-1.3.6-1.8.8.8-.7 1.3-1.7 2.6-1.6.7.1.9-.2 1-1.3.5-.4 1.1-.8 1.7-1.2.3-.1.7-.2 1-.1.7.4 1.5.8 2.1 0 .4-.5.3-1.3.3-2 1.2-1.6 5.8-4 6.7-3.6.3-.4.6-.9 1-1.4.3.4.5.7.8 1.1 0 0 .5-.3.9-.6zM249.2 151c.2-.1.5-.2 1-.5-.5-.1-.7-.2-1.1-.3 0 .4.1.6.1.8-.1 0-.2 0 0 0-.2 0-.1 0 0 0zm-29.3 108.8c.4 1.8 1.7 1.9 3 2 .2-.5.3-.9.5-1.6-1.2.4-2.1.4-2.9-.5 0-.1-.4 0-.6.1zm1.3-1.3v.6c.6.4 1.2.7 2 1.2v-2.4c-.8.2-1.4.4-2 .6zm1.8-11.3c-.1.1-.1.2-.2.3.3.8.6 1.5 1 2.5.3-.1.7-.4.7-.4-.2-.7-.5-1.4-.8-2.1-.1-.2-.5-.3-.7-.3zm3 7.4h-1.5c.5.7.8 1.3 1.2 1.9 1.2-.5.8-1.2.3-1.9zm34.1-108.8c.8-.5 1.5-.8 2.3-1.3-1.6-.6-2.3-.2-2.3 1.3zm-29.2 93.6c1 .7 1.4.7 1.6-.4-.4-.1-.7-.3-1.2-.4-.1.3-.3.6-.4.8zm1.7-10.6c-.6-.1-1.2-.3-2-.5.6 1.4 1.2 1.5 2 .5zM222.5 257c.3.3.5.7.7.8.3.1.6-.2 1-.3-.3-1-.9-.8-1.7-.5zm1.6-1.1c-.3-.7-.6-1.1-1.4-.4.3.8.7 1.1 1.4.4zm2.5-10.3c.1.1.2.2.3.4.3-.3.7-.5.9-.8.1-.2-.1-.5-.3-1-.5.6-.7 1-.9 1.4zm9.1-35.7h.5c.1-.4.2-.8.4-1.4-.5.2-.9.2-.9.4-.1.3 0 .7 0 1zm-15.1 55.7c0 .2-.1.3-.1.5.4.2.7.5 1.2.8.1-.4.2-.6.4-1-.6-.1-1-.2-1.5-.3zm0-2.5c-.6-.1-1-.2-1.6-.3.5 1.2.7 1.3 1.6.3zM251 149.4c.1.1.1.2.2.2.3-.1.7-.1.7-.2.1-.3 0-.6-.1-1h-.4c-.1.4-.3.7-.4 1zm-7.8 3.3c0-.2.1-.3.1-.5-.3-.5-.7-.4-1.3.3.5.1.9.2 1.2.2zm9-3.1c.1.1.1.2.2.3.4.1.8.1 1.1.2l.2-.2c-.2-.3-.4-.6-.7-.9-.3.3-.6.4-.8.6zm-25.4 101l.6.3c.1-.3.3-.6.4-.9-.2-.1-.3-.2-.5-.3-.2.3-.3.6-.5.9zm-3.6 12.7c-.2 0-.4-.1-.5-.1-.1.3-.2.6-.2.9.2 0 .3.1.5.1 0-.2.1-.6.2-.9zm24-112.5c.2 0 .3-.1.5-.1-.1-.3-.2-.6-.3-1-.2 0-.3.1-.5.1.1.4.2.7.3 1zm-24.9 112.6c-.1-.1-.2-.3-.4-.4-.2.2-.4.5-.7.7l.3.3c.3-.2.5-.4.8-.6zm13.3-34.3c-.1 0-.2-.1-.3-.1-.1.2-.3.4-.3.6 0 .1.3.3.7.6 0-.6-.1-.9-.1-1.1zm-17.9 33c.2.1.3.1.5.2.1-.3.2-.5.3-.8-.1 0-.3-.1-.4-.1-.2.3-.3.5-.4.7zm14.6-38.4h.4c0-.2.1-.4.1-.7h-.6c0 .3.1.5.1.7zm1.9-1.2c-.1.1-.2.2-.2.3.2.1.3.3.5.4.1-.1.2-.3.3-.4-.2 0-.4-.2-.6-.3zm-15.4 35.6c-.1.1-.3.2-.4.2.2.3.4.5.5.8.1-.1.2-.1.3-.2-.1-.2-.3-.5-.4-.8zm8.1-3.7c-.2 0-.3 0-.5.1.1.2.1.5.2.7.1 0 .3 0 .4-.1 0-.2 0-.5-.1-.7zm30.2-110.7c0-.1 0-.2-.1-.4-.3.1-.5.1-.8.2 0 .1 0 .2.1.3.3 0 .5 0 .8-.1zm-34.7 118.6l-.5-.5-.5.5.4.4c.3-.1.4-.3.6-.4zM258 143.7h-.4c0 .2.1.4.1.6h.3v-.6zm-25.6 87c0-.1 0-.3.1-.4h-.6v.3c.1 0 .3.1.5.1zm3.8-8.4c-.1 0-.2-.1-.3-.1-.1.2-.1.3-.2.5.1 0 .2.1.3.1.1-.1.2-.3.2-.5zm-18 38.5c.1-.1.2-.1.2-.2-.1-.1-.2-.3-.3-.4-.1.1-.2.1-.3.2.2.1.3.3.4.4zm6.2-6.8c0-.1-.1-.2-.1-.3-.1 0-.3.1-.4.1 0 .1.1.2.1.3.1 0 .3-.1.4-.1zm-1.7-3.2c.1-.1.2-.1.3-.2-.1-.1-.2-.3-.4-.4l-.2.2c.1.1.2.2.3.4zM256.1 144c-.1.2-.2.3-.2.3l.3.3.2-.2c0-.1-.2-.2-.3-.4zm4.2-1.8c-.1 0-.2.1-.3.1.1.1.1.3.2.4.1 0 .1 0 .2-.1-.1-.1-.1-.3-.1-.4zm1.5 1.1c.1 0 .2 0 .2.1 0-.1.1-.2.1-.4-.1 0-.2 0-.3-.1v.4zm-32.7 100.8c0 .1 0 .1-.1.2.1.1.2.1.4.2 0-.1.1-.2.1-.3-.2-.1-.3-.1-.4-.1zm8.3-37h-.3c0 .1.1.3.1.4h.2v-.4zm-10.7 39.8v-.2c-.1 0-.3.1-.4.1v.2c.1 0 .2 0 .4-.1zm23.6-98.8h-.2c0 .1 0 .2.1.3h.2c0-.1-.1-.2-.1-.3zm6.3-1.2v-.2c-.1 0-.2 0-.3.1v.2c.1-.1.2-.1.3-.1zm-35.4 110.3h.1c0-.1.1-.2.1-.3-.1 0-.2 0-.2-.1v.4zm7.2-12c0-.1 0-.1 0 0h-.1.1zm26.2-99.2l-.1-.1s-.1 0-.1.1.1.1.1.2c0-.1 0-.1.1-.2zm7-4s0 .1 0 0c0 .1 0 .1.1.1l-.1-.1c.1 0 0 0 0 0zm-37.1 114.2v.1h.2v-.1h-.2zm29.2-109.5c0 .1-.1.1-.1.2l.1.1s.1-.1.1-.2c0 0-.1 0-.1-.1zm3.9-3.6c0-.1 0-.1-.1-.2h-.2c0 .1.1.1.1.2.1.1.1 0 .2 0zm5.3.8c.1 0 .1-.1.1-.1s0-.1-.1-.2c-.1 0-.1.1-.2.1.1.1.1.2.2.2zm-7.7 1.6c-.1-.1-.1-.1 0 0-.1-.1-.1-.1-.2-.1v.1h.2zm-30.1 103.3l.1.1v-.1h-.1zM289.2 31.7c-.1 2.5-1.1 4.1-2 5.8l-2.1 3.9c-1.2 2.4-2.5 4.8-3.7 7.2-.4.8-1.1 1.1-2 1-1.6-.1-3-.9-4-2-1.3-1.4-1.4-3.3-.8-5 1-3.2 2.4-6.2 3.6-9.4.3-1 .3-2.1.3-3.2s.2-1.5 1.3-1.4c.8.1 1.7.2 2.5 0 2.2-.4 4 .4 5.8 1.5.5.3.9 1.2 1.1 1.6zM329.2 159.6c0 .4 0 .8-.1 1.2-2.3 1-5.5-1-5.6-3.4-.1-1.4-.1-2.6.6-3.9.8-1.5 1.1-3.2 1.7-4.9.1.2.1.5.2.7.1-.1.3-.2.4-.2-.2-.2-.4-.3-.5-.5.5-1.4 1.1-2.9 1.4-4.3.2-.8.2-1.7.1-2.6-.2-1.1.1-1.4 1.2-1.4.8 0 1.6 0 2.3-.3 2.3-.9 4.4-.2 6.4 1 .9.5 1.2 1.6.7 2.8-.7 1.7-1.6 3.4-2.4 5.1-.6 1.1-1.3 2.1-1.8 3.2-.1.2 0 .5-.1.7-.2.8-.4 1.6-.7 2.4-.5-.1-.8-.2-1.3-.3 0 .4.1.7.1 1.1-.1.1-.3.3-.5.4.1.3.3.6.4.9l-1.2 2.1c-.5-.1-.8-.1-1.1-.2-.2-.2-.3-.4-.6-.7-.4.8-.2 1.1.4 1.1zm-2.5-3c0-.7.1-1.2 0-1.5-.3-.5-1.6-.3-2.2.4l2.2 1.1zm-.8 2.8c.1.2.2.3.3.5.3-.2.5-.4.8-.5-.1-.1-.2-.3-.3-.4-.2.1-.5.3-.8.4zm2.2-2.1c0-.1-.1-.2-.1-.4-.2 0-.6-.1-.7 0-.1.1-.1.5-.2 1 .5-.3.8-.5 1-.6zm4.1-6.1v-.4h-.7v.4c.2-.1.5-.1.7 0zm-3.8 3.9v.4h.7v-.3c-.2-.1-.4-.1-.7-.1zm3.9-2.1c-.1-.1-.1-.2-.2-.3-.2.1-.3.2-.5.3.1.1.2.2.2.3.2 0 .4-.1.5-.3zm.5-1.1s0 .1.1.1l-.1-.1c.1 0 .1 0 0 0zM117.4 85.2c-.4.9-.8 1.9-1.3 2.8l-2.4 4.8c-.3.6-.8 1-1.3 1.7.4 1.1-.4 1.9-1.3 2.7-.7 2.5-1.8 3.7-4.1 2.5l-.3-.9c-2.2.1-3.1-.8-3.3-3.1-.2-1.8.2-3.3 1-4.9.6-1.3.9-2.7 1.4-3.9.4-.9 1.1-1.7 1.2-2.8.1-1.2.3-2.4.3-3.6 0-1.1.2-1.4 1.3-1.3 1 .1 2 .1 2.9 0 2.2-.4 3.9.5 5.7 1.6.7.5.6 1.2.7 2 .1 1 0 1.7-.8 2.3.1 0 .2.1.3.1zm-8.5 1.1c.5.1.9.3 1.2.2.4-.2.6-.6.9-.9-.8-.7-1.3-.5-2.1.7zm3.5-4.1c.1.2.1.3.2.5.5-.1 1-.2 1.4-.4.1 0-.1-.6-.2-1.2-.6.5-1 .8-1.4 1.1zm-5.6 10.7c-.1-.1-.2-.2-.3-.4-.3.2-.6.4-.8.7-.1.1.1.5.1.7h.3c.3-.2.5-.6.7-1zm5.4-8.3h-.3c0 .3-.1.6-.1.9h1.2c-.5-.5-.7-.7-.8-.9zm-2.9 5.1c.3-1.1.1-1.3-.9-1 .4.3.6.6.9 1zm-2.1-3.6c.1.1.2.1.3.2.3-.2.5-.5.8-.7 0-.1-.1-.2-.1-.3-.3 0-.6 0-.8.2-.1 0-.1.3-.2.6zm.8 1.2c.1.1.2.3.3.4.4-.2.7-.4 1.1-.6-.1-.1-.1-.2-.2-.3-.5.1-1.1-.1-1.2.5zm5.8-.1c-.1-.1-.3-.2-.4-.4-.3.3-.5.6-.8.9l.3.3c.3-.2.6-.5.9-.8zm-4.3 11.9c.1-.2.2-.3.3-.5-.2-.2-.5-.3-.7-.5-.1.2-.3.5-.3.5.2.3.5.4.7.5zm-.4-13.8h.5c0-.3-.1-.6-.1-.9h-.4v.9zm7-2.7c-.1-.2-.1-.3-.2-.5-.3.1-.5.3-.8.4.1.1.1.3.2.4.3-.1.6-.2.8-.3zm-6.3 6h.5v-.7h-.4c0 .2 0 .4-.1.7zm-1.1-8.7v-.3h-.5v.2c.1.1.3.1.5.1zm5.4 6.2c0-.1.1-.2.1-.3-.2-.1-.3-.2-.5-.2 0 .1-.1.2-.1.3.1 0 .3.1.5.2zm-7.8 3.2c-.2-.1-.3-.2-.4-.2-.1 0-.2.2-.2.3 0 .1.2.2.2.2.2 0 .3-.1.4-.3z"/><path d="M221.2 184.5c-1.7-.8-2-1.4-1.4-3.1l-.6-.9c-.4-.2-.8-.3-1.2-.4.6-.6.9-.6 1.2 0 .4.8.9 1.3 1.8 1.5.3 0 .7.2.9.5.9.6 1 1.9-.7 2.4zM470.3 162.4c-.3.5-.5 1-.9 1.3-.2.1-.8 0-1.1-.2-.3-.2-.4-.6-.6-1 .9-.1 1.6-.1 2.6-.1zM75.4 171.5c-.7.4-1.3.4-1.7-.3-.1-.2.1-.8.3-.9.9-.2 1.1.5 1.4 1.2zM131.8 133.9c.4.3.7.6 1.1.9-.1.2-.2.3-.3.5-.4-.1-.8-.1-1-.3-.2-.2-.1-.6-.2-.9.1 0 .2-.1.4-.2zM442.1 234.9c.8 1 .6 1.3-.7 1.5.3-.6.4-1 .7-1.5zM472.6 160.2c-.2-.3-.5-.6-.7-.9.1-.1.3-.2.4-.3.3.3.5.6.8.9-.2.1-.4.2-.5.3zM227 184.1c-.3.3-.7.5-1 .8-.1-.1-.2-.3-.3-.4.3-.3.6-.6 1-.9.1.2.2.3.3.5zM474.2 122.7c-.3-.3-.6-.7-.9-1l.3-.3c.3.3.6.7 1 1-.1.1-.2.2-.4.3zM222.8 175.6c.2.3.4.5.6.8-.1.1-.2.2-.4.3-.2-.3-.4-.5-.6-.8.1-.2.3-.2.4-.3zM81.7 167.2c.2.2.4.3.6.5-.1.1-.2.2-.2.4-.2-.1-.4-.3-.6-.4.1-.2.2-.4.2-.5zM220 185.6c0-.2-.1-.4-.1-.6h.5v.6h-.4zM473.2 125.2l-.3.6c-.1 0-.2-.1-.3-.1.1-.2.1-.4.2-.6.2 0 .3.1.4.1zM216.1 184.3c.2.1.4.2.5.3-.1.1-.1.2-.2.2-.2-.1-.4-.1-.6-.2l.3-.3zM188.8 123.4c-.1-.1-.3-.2-.3-.3 0-.1.1-.2.2-.3.1.1.2.1.3.3 0 0-.1.2-.2.3zM178.4 104.8c.1-.2.3-.3.4-.5.1.1.2.1.2.2-.1.2-.3.3-.4.5-.1-.1-.2-.1-.2-.2zM413.3 39.8c-.1-.1-.2-.3-.3-.4l.2-.2c.1.1.2.3.3.4l-.2.2zM302.2 56.9c0 .2-.1.4-.1.6-.1 0-.2 0-.3-.1 0-.2.1-.4.1-.6.1 0 .2.1.3.1zM223.5 177.3c.2.2.4.3.6.5 0 .1-.1.1-.1.2-.2-.2-.4-.3-.6-.5 0-.1.1-.1.1-.2zM132.4 128.8v.8h-.1c0-.3-.1-.5-.1-.8h.2zM344.7 224.9c0 .1.1.3.1.4h-.2c0-.1 0-.3-.1-.4h.2zM27.5 151.5c.1-.1.2-.2.2-.1.1 0 .1.1.1.2l-.1.1c-.1-.1-.1-.2-.2-.2zM290.2 56.5c-.2 0-.5-.1-.7-.1 0-.1.1-.2.1-.3.2.1.4.2.6.4zM470.3 164.5c-.1 0-.3 0-.4.1v-.2c.1 0 .3 0 .4-.1v.2zM243.4 170.1c.1-.1.3-.2.4-.2 0 0 0 .1.1.1-.1.1-.3.2-.4.3 0-.1 0-.2-.1-.2zM80.9 174.8c0 .1-.1.2-.1.2-.1 0-.1-.1-.2-.1l.1-.1h.2zM75.9 163.8c.1 0 .2 0 .3-.1v.1c-.1 0-.2.1-.3.1v-.1zM233.5 153.6c-.1-.1-.2-.1-.3-.2l.1-.1c.1.1.2.1.3.2-.1 0-.1.1-.1.1zM221.6 175c0 .2 0 .4.1.5h-.1c0-.2-.1-.3-.1-.5 0 .1.1 0 .1 0zM226.6 155.7c.1.1.1.2.3.6-.3-.2-.4-.3-.5-.4l.2-.2zM194 129.1c0 .1-.1.2-.1.2-.1 0-.1-.1-.2-.1l.1-.1c0-.1.1-.1.2 0zM427.2 225.4c.1.1.1.3.2.4 0 0-.1 0-.1.1-.1-.1-.2-.2-.2-.3 0-.1.1-.1.1-.2zM301.8 58.6c-.1 0-.2.1-.2.1s0-.1-.1-.1c.1 0 .1-.1.2-.1 0 0 .1 0 .1.1zM177 111.7v.2h-.1c0-.1 0-.2.1-.2-.1 0 0 0 0 0zM470.6 154.6c-.1-.1-.2-.1-.3-.2 0 0 0-.1.1-.1.1.1.2.1.3.2l-.1.1zM343.6 230.4c0 .1 0 .1 0 0h-.2v-.1c.1.1.2.1.2.1zM229.5 157.7c-.1.1-.1 0-.2 0v-.1c.2 0 .2 0 .2.1zM219.7 178.7c.1.1.1.1 0 0v0c0 .1 0 .1 0 0zM338.8 227c0 .1 0 .1 0 0-.1 0-.1 0-.1-.1h.1v.1zM427.7 221.3s-.1.1 0 0c-.1.1-.1 0-.1 0h.1zM245.2 164.8c0 .1 0 .1.1.2-.1-.1-.1-.2-.1-.2-.1 0 0 0 0 0zM348.1 218c.1-.1.2-.1 0 0 .2 0 .2 0 0 0zM298.4 67.8c0-.1 0-.1 0 0 .1-.1 0 0 0 0zM473.5 116.1c0 .1 0 .1 0 0h-.1.1zM231 180.1s-.1-.1 0 0c-.1-.1 0-.1 0 0 0-.1 0-.1 0 0zM245.1 166.3c0 .1.1.1.1.2h-.1v-.2zM227.4 158.9c0 .1-.1.1-.1.2h-.1c.1-.1.1-.2.2-.2-.1-.1 0 0 0 0zM81 173l.1.1H81zM188.6 129.9h-.1zM469.9 132s0 .1 0 0c0 .1 0 .1 0 0-.1 0-.1 0 0 0zM349.4 219.3s-.1 0 0 0c-.1 0-.1 0 0 0-.1 0-.1 0 0 0-.1-.1-.1 0 0 0zM127.7 135.7l.1-.1v.1zM74.4 162.9l-.1.1v-.1zM342.8 93.4v-.1.1zM405.1 51.7l-.1.1v-.1zM406.6 43.4h-.1v-.1zM8.9 141.8s0-.1 0 0c0-.1 0-.1 0 0zM262.6 139.8s-.1 0 0 0c-.1 0 0 0 0 0z"/></svg>