<svg xmlns="http://www.w3.org/2000/svg" viewBox="0 0 87.6 87.7"><path d="M87.6 55v8.5h-.2-.1v.3l-.1.1v.4c-.1.1 0 .3-.1.3 0 .1-.1.2-.1.3-.1 0-.1.1-.1.2-.1.1 0 .2-.1.2l-.1.1v.3l-.1.1v.4l-.1.1v.5l-.1.1c0 .1 0 .2-.1.3 0 .1-.1.2-.1.3 0 .1-.1.2-.1.2 0 .1-.1.2-.1.2-.1.1 0 .2-.1.3-.1.1 0 .1-.1.2s0 .2-.1.2v.2l-.1.1v.2l-.1.1v.2l-.1.1v.1c0 .1-.1.1-.1.2s-.1.2-.1.3c-.1.1-.1.2-.2.3-.1.1-.1.3-.2.4 0 .1-.1.1-.1.2s-.1.2-.1.3c0 .1 0 .1-.1.2 0 0 0 .2-.1.2s0 .2-.1.2c0 .1-.1.1-.1.2s-.1.1-.1.2-.1.2-.1.2c0 .1-.1.2-.1.2 0 .1-.1.2-.1.3 0 .1-.1.2-.1.3-.1 0-.1.1-.1.2s0 .2-.1.2c-.1.1-.1.2-.2.3-.1.1-.1.2-.2.3l-.3.6c0 .1 0 .2-.1.3 0 .1-.1.2-.1.3-.1.1-.1.2-.1.2l-.3.3c-.1.1-.1.3-.2.4-.1.1 0 .1-.1.2l-.1.1c0 .1-.2.2-.2.3 0 .1-.2.2-.3.3-.1.1-.1.2-.2.3v.1c-.1.1-.1.3-.2.4 0 .2-.2.2-.3.3-.1.1-.2.1-.2.3-.1.1-.1.3-.3.3-.1.1-.1.2-.3.3l-1.1 1.1-.1.1c-.2 0-.2.2-.3.2-.1 0-.2.2-.3.2l-.2.2c-.1.1-.1.1-.2.1-.1.1-.2.1-.2.1l-.6.3c-.1 0-.1.1-.2.2s-.2.1-.3.2c-.1 0-.2.1-.3.1h-.2s-.1 0-.1.1h-.2l-.1.1h-.2l-.1.1c-.1 0-.2 0-.3.1-.1 0-.2.1-.4.1-.1 0-.2.1-.2.1-.1.1-.2 0-.3.1-.1.1-.2 0-.2.1h-.1c-.1 0-.2 0-.3.1H73s-.1 0-.1.1h-.4l-.1.1h-.5s-.1 0-.2.1h-.3l-.1.1H71c0 .1-.1.1-.2.1s-.1.1-.2.1-.1 0-.2.1c-.1 0-.1.1-.2.1s-.1.1-.2.1c0 0-.1 0-.1.1h-.2c-.1.1-.2 0-.3.1H69.1c-.1 0-.1.1-.2.1h-.2c-.1 0-.1.1-.2.1s-.2.1-.3.1c-.1.1-.2.1-.3.2-.1 0-.2.1-.3.1-.1 0-.2.1-.3.1-.1.1-.2 0-.3.1-.1.1-.2 0-.3.1h-.2c-.1 0-.1.1-.2.1s-.2.1-.3.1h-.1c-.1.1-.2.1-.3.2-.1.1-.2.1-.3.2-.1.1-.2.1-.4.2-.1 0-.2.1-.3.2h-.2s0 .1-.1.1-.2.1-.3.1c-.2 0-.3.1-.5.2 0 .1-.2.1-.3.2-.1.1-.2.1-.3.1-.1.1-.2 0-.3.1-.1.1-.2 0-.3.1l-.1.1h-.3l-.1.1h-.3l-.1.1c-.1 0-.2.1-.3.1-.1.1-.3.1-.4.2-.1 0-.1 0-.2.1h-.2c-.1.1-.1 0-.2.1l-.1.1v.2h-7.7v-.2l-.1-.1h-.3l-.1-.1h-.2l-.1-.1h-.2c-.1-.1-.1 0-.2-.1 0-.1-.2 0-.2-.1-.1-.1-.2 0-.2-.1-.1-.1-.2 0-.2-.1l-.1-.1H50l-.1-.1h-.5l-.1-.1H49l-.1-.1h-.2c-.1 0-.1-.1-.2-.1s-.2-.1-.3-.1c-.1 0-.1 0-.2-.1s-.2 0-.2-.1c0 0-.1 0-.2-.1s-.2 0-.3-.1H47c-.1-.1-.2 0-.3-.1l-.1-.1h-.3s0-.1-.1-.1h-.4l-.1-.1h-.3l-.1-.1h-.2c-.1-.1-.2 0-.2-.1-.1 0-.2-.1-.3-.1-.1-.1-.2 0-.3-.1-.1-.1-.2 0-.2-.1-.1-.1-.2-.1-.3-.1h-.1l-.1-.1c-.1.1-.3-.1-.4-.1h-.5l-.1-.1h-.7l-.1-.1h-3.2l-.1.1H38l-.1.1h-.4l-.1.1h-.2l-.1.1c-.1 0-.2.1-.3.1-.1.1-.2 0-.3.1-.1 0-.2.1-.3.2-.1 0-.2.1-.4.1 0 0-.1 0-.1.1-.1 0-.3-.1-.4.1h-1.5l-.1-.1h-.2c-.1 0-.2-.1-.2-.1-.1-.1-.2 0-.2-.1l-.2-.2h-.1l-.1-.1c-.1 0-.1-.1-.2-.1 0 0-.1 0-.1-.1l-.1-.1c-.1 0-.1 0-.2-.1h-.2l-.1-.1h-.2l-.1-.1h-.2s0-.1-.1-.1-.2 0-.3-.1c-.1.1-.2-.1-.3-.1h-.1c-.1-.1-.2 0-.2-.1h-.2l-.1-.1h-.3l-.1-.1h-.7l-.1-.1h-3l-.1.1h-1.6l-.1.1h-3.3-.1l-.1-.1h-.9l-.1-.1h-.9l-.1-.1h-.7c1.1.2 1 .2.9.2h-.3l-.1-.1H18l-.1-.1h-.2c0-.1-.2-.1-.2-.1h-.1c-.1 0-.2-.1-.3-.1 0-.1-.1 0-.2-.1H16.6l-.1-.1h-.2l-.1-.1H16l-.1-.1h-.3c-.1-.1-.2 0-.3-.1-.1 0-.2-.1-.3-.1-.1-.1-.2-.2-.3-.2-.1 0-.2-.1-.3-.2h-.1c-.1-.1-.2-.1-.2-.1-.1-.1-.1 0-.2-.1-.1 0-.2 0-.3-.1-.1-.1-.2-.1-.4-.2-.1 0-.2-.1-.2-.2h-.1l-.2-.2c-.1 0-.1-.1-.2-.2-.1 0-.3-.1-.4-.1-.1-.1-.2-.1-.3-.2l-.3-.3s-.1-.1-.2-.1-.1-.1-.2-.1-.1 0-.2-.1c0-.1-.1-.1-.2-.1l-.5-.5c-.2-.2-.4-.3-.5-.4-.1-.1-.3-.2-.4-.4-.1-.2-.2-.3-.3-.4l-.5-.5v-.1l-.5-.5s-.1-.1-.1-.2-.1-.1-.1-.2 0-.1-.1-.2c-.1 0-.1-.1-.1-.2l-.2-.2c0-.1-.1-.1-.1-.2s-.1-.1-.2-.2c-.1 0-.1-.1-.1-.2 0 .1 0 0-.1-.1 0 0-.1-.1-.1-.2s-.1-.1-.1-.1c-.1-.1-.1-.2-.1-.2l-.2-.2c0-.1-.1-.1-.2-.2 0 0 0-.1-.1-.1 0-.1-.1-.1-.2-.2 0-.1-.1-.1-.2-.2s-.1-.2-.1-.2c-.1-.1-.2-.2-.2-.3 0-.1-.1-.2-.2-.4-.1-.1-.1-.2-.2-.3-.1-.1-.1-.2-.2-.3-.1-.1-.2-.3-.3-.4-.1-.1-.1-.2-.2-.3 0-.1-.1-.1-.1-.2-.1-.2-.1-.3-.2-.4 0-.1 0-.2-.1-.2-.1-.1-.1-.2-.2-.3-.1 0-.1-.1-.1-.2-.1-.1 0-.1 0-.2 0 0 0-.1-.1-.1v-.2l-.1-.1c0-.1 0-.2-.1-.2 0-.1-.1-.2-.1-.3 0-.1-.1-.2-.1-.3-.1-.1 0-.2-.1-.3-.1-.1 0-.2-.1-.2V69l-.1-.1v-.3l-.1-.1v-.6l-.1-.1v-1.4l.1-.1v-.5l.1-.1v-1.2l-.1-.1v-.2l-.1-.1v-.2c-.1-.1-.1-.2-.1-.3-.1-.2-.2-.4-.4-.5-.1-.2-.2-.3-.3-.5 0 0 0-.1-.1-.1v-.2l-.1-.1v-.3l-.1-.1v-1-.1c.1-.1.1-.2.1-.3 0-.1.1-.2.1-.3V60c.2 0 .3-.2.4-.3v-.1c.1-.1.2-.2.3-.4.1-.1.2-.3.4-.4.1-.1.2-.3.4-.4.1-.1.2-.3.4-.3.1-.2.3-.2.4-.3.1-.1.2-.1.3-.2.1-.1.2-.1.3-.2.1-.1.1 0 .2-.1s.1-.2.2-.3l.3-.3v-.5c-.1 0-.2-.1-.3-.2-.1 0-.2 0-.2-.1H3.7c-.1 0-.2 0-.2-.1 0 0-.1 0-.2-.1s-.2-.1-.2-.1l-.6-.3h-.1l-.2-.2c-.2-.1-.3-.2-.4-.3v-.1c0-.1-.1-.1-.1-.2s-.1-.1-.1-.2v-.2s0-.1-.1-.1v-1.3-1.1l.1-.1v-2.4l-.1-.1v-6.9l.1-.1v-1l.1-.1v-1.6-.1l-.1-.1v-.3l-.1-.1v-.2c-.1-.1-.1-.3-.3-.5-.1-.1-.1-.1-.1-.2s0-.2-.1-.2c0-.1 0-.2-.1-.3 0-.1-.1-.2-.1-.4 0-.1-.1-.2-.1-.4-.1-.1-.1-.2-.1-.3l-.1-.1v-.5c0-.1.1-.1.1-.1.1-.1.1-.3.2-.4.1-.1.3-.1.3-.3l.3-.3c.2-.1.5-.2.7-.4.1 0 .1 0 .2-.1 0-.1.1-.1.1-.1 0-.1 0-.1.1-.2v-.6c-.1 0-.1-.2-.1-.2 0-.1-.1-.2-.2-.3 0-.1-.1-.2-.2-.2 0 0 0-.1-.1-.1l-.2-.2c0-.1-.1-.2-.2-.2l-.2-.2c-.2-.1-.3-.1-.4-.2-.1-.2-.3-.2-.6-.3l-.3-.3h-.2v-1.3c.1-.1.2-.1.2-.1.1-.1.2-.1.2-.1.2 0 .3-.1.5-.2.3-.1.3-.2.3-.2.1 0 .2-.1.3-.1.1 0 .2-.1.3-.2.1-.1.2-.1.3-.2.1-.1.2-.3.3-.4 0-.2.2-.3.2-.6-.1-.1-.1-.2-.1-.2-.1-.1-.1-.2-.2-.2l-.3-.3-.3-.3-.4-.4c-.1-.2-.1-.3-.2-.4-.1-.1-.1-.2-.1-.3-.1-.1-.1-.2-.1-.3v-.5-.1l.1-.1v-.2c.2 0 .2-.2.3-.3l.4-.4.3-.3c0-.2.2-.2.2-.3 0-.1.1-.2.2-.3.1-.1.1-.2.2-.3 0-.2.1-.3.2-.4v-.3l.1-.1v-.3l.1-.1v-.4l.1-.1v-.5L3 20v-.9l-.1-.1v-2.4l.1-.1v-.6V15.7l.1-.1v-.2l.1-.1v-.2c.1-.1 0-.2.1-.3v-.3l.1-.1v-.3l.1-.1v-.2l.1-.1v-.2c.1-.1.1-.2.1-.4.2-.1.2-.3.3-.4v-.1c.1-.1.1-.2.2-.3.1-.1.1-.2.2-.3.1-.1.1-.2.2-.3.1-.1.2-.2.2-.3l.1-.1c0-.1.1-.2.2-.3.1-.1.1-.2.2-.3.1-.1.1-.2.2-.3l.3-.3.3-.3c0-.1.1-.2.2-.3l.3-.3.3-.3c.1-.1 0 .1.1 0l.3-.3c.1-.1.2-.2.3-.2l.2-.2c0-.1.1-.1.2-.2 0 0 .1 0 .2-.1s.2-.1.3-.2l.3-.3c0-.1.1-.1.2-.2 0 0 .1-.1.2-.1s.1-.1.2-.1.1-.1.2-.1.1 0 .2-.1.3-.2.4-.3c.1 0 .1-.1.2-.1.1-.1.2 0 .2-.1.1 0 .1-.1.2-.1s.1-.2.3-.2l.2-.2c.1-.1.2-.1.3-.2.1-.1.3-.1.4-.2.1-.1.2-.1.3-.2.1-.1.2-.2.3-.2.1 0 .2-.2.3-.2.1 0 .2-.1.3-.2.1 0 .1-.1.2-.1s.2 0 .2-.1c.1 0 .2 0 .3-.1.1 0 .2-.1.3-.1.1 0 .2-.1.3-.2.1 0 .2-.1.3-.2.1-.1.2-.1.3-.1.1-.1.2-.1.3-.1.1 0 .2-.1.4-.1 0-.1.1-.1.2-.1s.1-.1.3-.1c.1-.1.3-.1.4-.2l.1-.1c.1 0 .2-.1.3-.2.1 0 .1-.1.2-.1h.1s.1 0 .1-.1h.2l.1-.1h.2l.1-.1h.1c.1 0 .2-.1.3-.1h.1c.3-.1.5-.3.8-.4.1 0 .2-.1.2-.1h.3c.1-.1.2 0 .3-.1l.1-.1h.2l.1-.1h.2l.1-.1c.1.1.2-.1.3-.1.2-.1.4-.2.5-.3.1-.1.2 0 .3-.1-.2.2-.1.1 0 .1s.1-.1.3-.1h.2c.1 0 .1-.1.2-.1s.2-.1.3-.1c.2 0 .3-.1.4-.2.1-.1.3-.2.4-.3h.1V0c0-.1.1 0 .2 0h3.5v.2c.1-.1.2 0 .3.1l.6.3c.1 0 .1 0 .2.1h.1c.1 0 .1.1.2.1.2 0 .3.1.4.1l.1.1h.2l.1.1c.1 0 .2 0 .2.1.2 0 .3.2.5.2.1 0 .2.1.3.2h.3l.1.1h2.1l.1-.1h5l.1.1h2.1l.1.1h2l.1.1h2.8l.1.1h5.7l.1-.1h1.9l.1-.1h.9l.1-.1h.6l.1-.1h.4l.1-.1h.3l.1-.1h.3l.1-.1h.2l.1-.1h.2l.1-.1h.4c-.5-.1-.4-.1-.4-.1h.4l.1-.1h.6l.1-.1h.3l.1-.1h.1l.6-.3c0-.1.2-.1.2-.1.1-.1.2 0 .3-.1V0h3.7v.2c.1 0 .2.1.3.1.1 0 .2.1.3.1.1.1.2.1.3.2.1.1.2.1.3.1.1.1.2 0 .3.1h.1l.1.1h.4l.1.1h.3c-.1 0-.1 0-.1.1h.2s0 .1.1.1h.2c.1 0 .1.1.2.1s.2.1.3.1c0 .1.1 0 .2.1s.2 0 .2.1c.1.1.1.1.2.1s.1.1.3.1c.1 0 .1.1.2.1h.3l.1.1h.4s.1 0 .2.1h.3l.1.1h.2l.1.1c.1 0 .2.1.3.1.1 0 .1.1.2.1s.2 0 .2.1c.1.1.2 0 .2.1.1.1.1 0 .2.1h.2l.1.1h.3c.1.1.1.1.2.1s.2.1.3.1c.1 0 .2 0 .3.1l.6.3c.1 0 .1.1.2.1.1.1.2.1.2.1.1 0 .1.1.2.1s.1.1.2.1.2.1.3.1c.1 0 .2.1.3.1h.2c0 .1.2.1.3.2.1.1.3.1.3.3.1 0 .2.1.3.1h.1c.2 0 .3.1.5.2.1.1.2.1.3.2-.1-.1.1-.1.2 0s.2.1.3.2c.1 0 .2.1.3.2.1 0 .2.1.2.2.1.1.1.2.2.2.1.1.2.1.3.2.1.1.2.1.3.3l1.3 1.3.1.1c0 .1.1.2.2.2.1.1.1.2.2.3l.3.3c.1.1.1.2.2.3.1.1.1.2.2.3.1 0 .1.1.1.2.1.2.3.3.4.5.1.2.3.3.4.4.1.2.3.3.5.5l1.9 1.9.3.3c0 .1.2.2.2.3l.3.3c.1.1.1.2.2.3 0 .1.1.2.2.3.1.1.1.2.2.3 0 .1.2.2.2.3 0 0 0 .1.1.1 0 .1 0 .2.1.2v.2s0 .1.1.2v.5l.1.1v1l.1.1v.6l.1.1v.5l.1.1v.3l.1.1v.3l.1.1v.4l.1.1v.3l.1.1v.4l.1.1v.4l.1.1v.6l.1.1v.9s0 .1.1.2v1.5l.1.1v.4l.1.1v.4l.1.1v.5l.1.1v.4l.1.1v.5l.1.1v.6l.1.1v.6l.1.1h.1v16.9h-.1l-.1.1v2.6l-.1.1v6l.1.1v.6c-.2-.1-.2-.1-.1-.1zM61.8 19.1h1.1c.1.1.2.1.2.3 0 .1.2.1.3.2h.4l.4.4h.1l.1.1h.5l.7.7v7.5c-.1.1-.1.2-.2.3 0 .1-.1.1-.2.1s-.1.1-.2.2h-2.5c-.4.1-.5.3-.7.5h-1.3c-.1.1-.3.1-.3.2l-.2.2c-.1.1-.2.1-.2.1h-.4c-.2.2-.4.4-.6.5-.1 0-.1.1-.2.2 0 .1-.1.2-.2.2h-.3c-.1.1-.2.1-.2.2-.1.1-.2.2-.3.2-.1 0-.2.2-.3.2-.1.1-.2.1-.2.2-.1.1-.1.2-.3.3-.1 0-.2.1-.2.2s-.1.2-.2.2-.2.1-.3.2v.6c-.1.1 0 .2-.1.3l-.2.2c0 .1-.1.2-.2.3v1.8c-.1.1-.1.2-.1.3V37.7l.1.1v3.9l.5.5v.2l.1.1v.2l.3.3h.2l.1.1h2c.3-.1.4-.3.6-.5h.9c.2-.1.4-.2.4-.4 0-.1.1-.1.2-.1 0 0 .1 0 .1-.1h3.3c.2.2.4.5.7.6 0 0 .1 0 .1.1 0 .2.2.2.3.3.1.1.1 0 .2.1s0 .1.1.2l.3.3v.2l-.1.1c0 .1 0 .2-.1.2.1.1.1.3.2.4v1l-.3.3h-.1c0 .1-.1.1-.1.2v4c-.2.1-.4.2-.5.4v1c-.1.2-.4.2-.5.4v.9c-.1.1-.2.3-.3.4h-.3c-.3.1-.4.3-.6.5h-2.7l-.1.1h-1.2s-.1 0-.2-.1h-.2l-.1.1h-2.1c-.2 0-.2.2-.3.3l-.3.3c-.1 0-.1.1-.2.1 0 .1-.1.2-.2.3-.1 0-.2.1-.3.2v14.2c.1.1.1.2.2.3.2 0 .2.2.3.3v.3c-.1.1-.1.3-.3.3-.1.1-.1.1-.1.2 0 0 0 .1-.1.1v.5c-.1.1-.1.2-.2.3-.1 0-.2.1-.3.2v1.3c0 .1.1.2.1.2 0 .1.1.1.2.2 0 0 0 .1.1.1 0 .1.1.1.1.2l.1.1v.5c.1.2.2.4.4.4.1.1.2.2.2.3 0 .1.1.3.3.4h1.8l.1-.1h1.2l.1-.1h1.2s.1 0 .2-.1h.9l.1-.1h.8c.1 0 .1-.1.2-.1h.6l.1-.1H64.3c.1-.1.2-.1.3-.1h.3l.1-.1h.6s.1 0 .2-.1h.6l.1-.1h.5c.1-.1.3 0 .4-.1l.1-.1c.1 0 .3-.1.4-.1.1 0 .2-.1.3-.1.1-.1.2-.1.3-.1.1 0 .2-.1.3-.1l.1-.1h.2s.1 0 .1-.1h.3l.1-.1h.2c.1 0 .1-.1.2-.1s.1-.1.2-.1.1-.1.2-.1.1-.1.2-.1h.3l.1-.1c.1 0 .2 0 .3-.1.1-.1.2-.1.2-.2.1-.1.2-.2.3-.2.1 0 .1-.1.2-.1s.1-.1.2-.2c.2-.1.3-.3.5-.4l.3-.3.3-.3c.1-.1.2-.1.3-.2.1-.1.1-.2.2-.2.1-.1.1-.2.2-.3l.3-.3.3-.3c.1-.1.1-.2.2-.3.1-.1.1-.2.2-.3 0-.1.1-.1.1-.2.1-.1.1-.2.1-.2.1-.1.2-.3.3-.4 0-.1.2-.2.2-.3 0-.1.1-.1.1-.2s0-.2.1-.2c0-.2.2-.4.2-.6.2-.2.2-.4.4-.6.1-.1 0-.2.1-.3v-.1-.1l.1-.1v-.3l.1-.1v-.2l.1-.1c-.1-.2.1-.3.1-.5.1-.1.1-.2.1-.3 0-.1.1-.2.1-.3.1-.1 0-.2.1-.3v-.2-.2l.1-.1V63c0-.1.1-.1.1-.1v-2.3l-.1-.1V60l-.1-.1v-.4l-.1-.1v-.3c-.1-.1 0-.3-.1-.4l-.1-.1v-.5l-.1-.1v-.4l-.1-.1v-.9l-.1-.1v-.9l.1-.1v-.4l.1-.1v-.9c.1-.1.1-.1.1-.2s.1-.1.1-.2v-.3c.1-.1 0-.2.1-.2l.1-.1v-.2l.1-.1v-.4l.1-.1v-.8l.1-.1v-3.3l-.1-.1v-.4V46c0-.1 0-.1-.1-.2V33.2l.1-.1v-2.2l.1-.1v-4.6l-.1-.1v-.6l-.1-.1v-.2c0-.1-.1-.2-.1-.4-.1-.1 0-.2-.1-.3-.1-.1 0-.2-.1-.3 0-.2-.1-.3-.1-.4 0-.1-.1-.1-.1-.2v-.2l-.1-.1v-.5l-.1-.1v-.6l-.1-.1v-.6l-.1-.1V21l-.1-.1v-.4c-.2-.1 0-.3-.1-.4v-.3l-.1-.1v-.2l-.1-.1v-.2l-.1-.1c0-.1 0-.2-.1-.3v-.4l-.1-.1V18l-.1-.1v-.4l-.1-.1v-.2l-.1-.1V17c-.1-.1-.1-.3-.2-.4-.1-.1-.1-.2-.2-.3-.1-.1-.1-.3-.2-.4 0-.2-.1-.3-.2-.5 0-.1-.1-.1-.1-.3l-.4-.4c0-.2-.2-.2-.2-.3 0-.2-.2-.2-.3-.3l-.3-.3c-.2 0-.2-.2-.3-.2-.1-.1-.2-.1-.2-.2-.1-.1-.2-.1-.3-.2-.1-.1-.2-.1-.3-.2-.1-.1-.2-.1-.3-.2-.1.1-.2-.1-.4-.1-.1-.1-.2-.1-.3-.1-.1 0-.2-.1-.2-.1-.2-.1-.3-.1-.5-.2h-.2c-.1 0-.1-.1-.2-.1 0 0-.1 0-.1-.1h-.3l-.1-.1h-.4l-.1-.1h-.3l-.1-.1h-.2c-.1-.1-.1-.1-.2-.1s-.2-.1-.2-.1c-.1-.1-.2 0-.2-.1s-.1 0-.2-.1-.2 0-.2-.1c-.1-.1-.2 0-.3-.1-.1-.1-.2 0-.3-.1l-.1-.1h-.3l-.1-.1h-.9l-.1-.1h-8l-.1-.1H44.7l-.1.1h-3.3c-.1.1-.1.1-.2 0h-.9c-.1 0-.1-.1-.2-.1h-.1c-.2-.1-.4-.2-.5-.3-.1 0-.2-.1-.3-.1 0 0-.1 0-.1-.1h-1.3l-.1-.1h-.2l-.1-.1h-.2l-.1-.1h-.7c-.2 0-.5-.1-.7.1h-.8l-.1-.1h-1.6-.1l-.1.1h-1.5l-.1.1H31c0 .1-.1.1-.2.1s-.1.1-.2.1-.1.1-.2.1-.1.1-.2.1H30l-.1.1h-.2l-.1.1h-.2l-.1.1c-.1 0-.2 0-.3.1h-.4l-.1.1h-3.2l-.1.1h-.7l-.1.1H24l-.1.1h-.4l-.1.1h-.2c-.1 0-.1.1-.2.1s-.2 0-.3.1c-.1 0-.1 0-.2.1s-.2 0-.2.1l-.1.1H22l-.1.1h-.3l-.1.1h-.3l-.1.1h-.2c-.1 0-.1.1-.2.1s-.2.1-.3.1c-.1.1-.2.1-.3.2-.1 0-.1.1-.2.1s-.1.1-.2.1-.1.1-.2.1c-.1.1-.2.1-.3.1-.1.1-.2.1-.4.2-.1.1-.3.1-.5.3l-.3.3c-.1 0-.2.1-.3.2-.1.1-.2.1-.3.2-.1.1-.2.1-.2.2l-.4.4c-.1.1-.3.2-.4.4-.1.1-.2.2-.3.4-.1.1-.2.2-.3.4l-.1.1c0 .1 0 .1-.1.2 0 .1-.1.1-.1.2-.1 0-.1.2-.1.2-.1.1-.1.2-.2.3-.1.1-.1.2-.1.2-.1.1-.1.2-.2.3-.1.1-.1.2-.2.3 0 .1-.1.2-.1.3 0 .1-.1.1-.1.2s-.1.2-.1.3l-.3.6c-.1.1-.1.2-.2.3 0 .1-.1.2-.1.3.2.7.2.8.2.9v.2c0 .1-.1.1-.1.2s-.1.2-.1.3c-.2.1 0 .2-.1.3-.1 0-.1.2-.1.2 0 .1-.1.1-.1.2s-.1.1-.1.2-.1.1-.1.2v.2l-.1.1v.2l-.1.1V23.4c-.1 0 0 .1 0 .1 0 .1-.1.1-.1.2s-.1.2-.1.3c-.1.1 0 .2-.1.3 0 0 0 .1-.1.2v.2c0 .1-.1.1-.1.2v.2l-.1.1v.2c-.1.1-.1.3-.1.4l-.1.1v.6l-.1.1v.8l-.1.1v.7l-.1.1v3.8l.1.1v10.9l-.1.1v3.5l-.1.1v6.7l.1.1v1.3l.1.1v1.5l.1.1v.9l.1.1v1.3l.1.1v.6l.1.1v.5l.1.1v.5c.1.1.1.3.1.4l.1.1v.3l.1.1v.3l.1.1v.2l.1.1v.2l.1.1v.4c0 .1.1.1.1.1v.5l.1.1v.5l.1.1v.4l.1.1c-.1.1 0 .2.1.2 0 .1 0 .1.1.2s0 .2.1.2c0 .1.1.1.1.2s.1.2.1.3c0 .1.1.1.1.2v.2l.1.1c0 .1 0 .2.1.3v.3c.1.1 0 .2.1.3l.1.1v.3c.1.1.1.3.2.4 0 .1.1.1.1.2.1.1.1.3.2.4 0 .1.1.2.1.3 0 .1.1.2.1.3v.1c0 .1.1.2.2.4 0 .1.1.1.2.2s.1.2.2.3c.1.1.1.2.2.3l.3.6s0 .1.1.1l.3.3.3.3c0 .2.1.2.2.3l.3.3.3.3.3.3.3.3c.1 0 .2.1.3.2.1.1.1.2.2.2s.2.1.2.2h.1c.1.1.2.1.3.2.1.1.3.1.4.2.1.1.3.2.4.3.1.1.2.1.3.2.1 0 .2.1.3.1.2 0 .3.1.5.1h.1c0 .1.1 0 .1 0 .1 0 .1.1.2.1s.2.1.4.1c.1.1.2 0 .2.1.1.1.2 0 .2.1.1 0 .2.1.3.1 0 0 .1 0 .1.1h.3l.1.1h.5l.1.1h1l.1.1h18.7c.1-.1.2-.1.3-.2-.1-.1 0-.2.1-.3v-.2c0-.2 0-.3.1-.5v-.2s0-.1-.1-.1c-.1-.2-.1-.3-.2-.4l-.1-.1c0-.1.1-.1.1-.2.1-.1.2-.2.2-.3v-.2c.1-.1.1-.1 0-.3v-3.9c.1-.1.1-.3.2-.4.1 0 .1-.1.2-.2s.1-.2.1-.2v-.9s-.1-.1-.1-.2l-.3-.3h-.1c0-.1-.1-.1-.1-.2v-.5l.1-.1V66l-.1-.1v-.6c-.1-.1-.1-.2-.1-.3.1-.1.1-.2.1-.3v-3-.3l.1-.1v-1.8s0-.1-.1-.2v-2-.1h.1V56l-.1-.1v-.2c-.1-.1-.1-.1-.2-.1l-.2-.2c-.1-.1-.1-.2-.2-.3-.1-.1-.2-.1-.2-.1-.1-.1-.2-.1-.2-.2l-.2-.2h-3.7l-.1-.1H39c-.1-.1-.2-.1-.3-.2l-.2-.2h-.3c0 .1-.1.1-.2.1l-.2.2c-.1 0-.2.1-.3.1 0 0-.1 0-.2.1h-1.9l-.8-.8v-.3l-.1-.1v-.2c-.2-.1-.3-.2-.4-.4v-3.3l-.1-.1v-.3l.1-.1v-2.6l.4-.4c0-.1.1-.1.1-.2v-1.3c.1-.1.1-.2.1-.2.1-.1.3-.1.3-.3l.3-.3h.2l.1-.1h.2l.4-.4c.1 0 .1-.1.2-.1h2.9l.2-.2c.1-.1.1-.2.2-.2s.1.1.2.1c0 .1.1.1.1.2h.1s.1 0 .1.1h.3l.1-.1h.3l.1.1h.6c.1.1.2.1.2.1.1.1.1.1.1.2.1.1.2.1.3.2h.2l.1.1h.7c.2-.1.3-.2.4-.3.1-.1.1-.2.2-.2s.1-.1.2-.1c0-.1.1-.1.1-.3l.1-.3.2-.2c0-.1 0-.2.1-.2v-.4c-.1 0-.1-.2-.3-.2-.1 0-.1-.2-.2-.3v-.4l.1-.1v-2.3l-.1-.1v-.4c.1-.2.2-.3.4-.4.1 0 .1-.1.1-.2 0 0 0-.1.1-.1v-1-.2c0-.1-.1-.2-.1-.3 0-.1-.1-.2-.1-.2-.1 0-.1-.1-.2-.1-.1-.1-.1-.2-.2-.3v-.4c.2-.2.1-.5.1-.7v-2-.2l-.1-.1V31v-.1l.1-.1v-.2l.2-.2c-.3-.4-.3-.5-.3-.8 0 0 0-.1.1-.1v-.8l-.1-.1v-.2c.1-.1.1-.2.1-.3.1 0 .1-.2.3-.2.1 0 .1-.2.2-.3v-.5c.1 0 .1-.2.3-.2.1 0 .1-.2.2-.3v-.5l.3-.3.3-.3.3-.3V25l.1-.1v-.3l1-1c0-.1.1-.1.1-.2V23l.2-.2.2-.2c.1-.1.1-.2.1-.2l.2-.2c.2 0 .2-.2.3-.3 0-.1.1-.2.2-.3l.3-.3c.1-.1.2-.1.3-.1.1-.1.2-.1.2-.2s.1-.2.2-.2c0 0 .1 0 .1-.1h1l.5-.5h.6l.5-.5h.9l.1-.1c.1 0 .1-.1.2-.1 0-.1.1-.2.2-.3h3.4l.1-.1.1-.1.1-.1c.1-.1.1-.2.2-.2h.4c.2-.1.3-.1.4-.2l.3-.3h.9l.1.1c.1 0 .3-.1.4.1h.5l.6.3c.1.3.4.3.8.4-.1-.1-.1-.1 0 0z"/></svg>