<svg xmlns="http://www.w3.org/2000/svg" viewBox="0 0 232.5 199.6"><path d="M13.2 177.4c.5.1.8-.3 1.2-.5.5-.3 1.1-.7 1.5-1 .9-.7 2.1-1 3.1-1.6.1-.1.3-.1.4-.1.4.6.3 1.5.9 1.9.6-.4.7-.9.4-1.4-.2-.3-.4-.5-.6-.8.1-.2.2-.3.3-.4.6-.3.9-.9.8-1.6 0-.3 0-.5.1-.8 0-.2.2-.4.3-.6.2 0 .5 0 .7.1.5.2 1 .4 1.5.7.4.2.7.2 1.1 0 .3-.2.7-.4 1.1-.6.2-.1.5-.1.8-.2.2.2.4.4.6.7.1 0 .3-.1.5-.1 0-.3-.1-.6-.1-.9.6-.4 1.3-.8 2-1.2.1-.1.2-.1.3-.2.8-.4 1.2-1 1.1-1.9 0-.5.2-1 .4-1.5.6-1 .9-2.1 1.2-3.2.2-.8.4-1.5.6-2.3.3-1.1.7-2.2 1-3.4.1-.4.2-.8.2-1.2.1-1.2.5-2.3.9-3.4.1-.3.2-.6.3-.8.1-.6.3-1.1.7-1.6.8-1 1.1-2.2 1.4-3.4.1-.4.2-.8.3-1.3.1-.5.2-1 .2-1.4 0-1.4.5-2.5 1.2-3.6.1-.2.2-.4.4-.5.9-1 1.1-2.2 1.2-3.5v-1c.1-.8.3-1.5.8-2.1 1-1.3 1.8-2.8 2.6-4.2 0-.1.1-.1.1-.2.3-1.1.6-2.1.8-3.2 0-.2 0-.4-.1-.6 0-.3-.1-.5-.1-.8 0-.5.2-.8.7-1 .1 0 .3-.1.4-.1.7-.3 1.2-.9 1.3-1.6.3-1.2.8-2.4 1.3-3.6.9-1.9 1.8-3.8 2.6-5.8.5-1.2 1-2.5 1.2-3.9.1-.7.5-1.3.7-1.9.3-.6.5-1.2.8-1.9.1-.3.2-.7.1-1-.2-.6 0-1.1.4-1.6.4-.4.8-.9 1.2-1.3 1.1-1 1.8-2.2 2.3-3.5.2-.6.3-1.2.6-1.8.2-.6.5-1.1.7-1.7.1-.3.2-.7.3-1 .1-.9.4-1.6 1.1-2.2.2-.1.3-.4.4-.6.7-1.3 1.2-2.6 1.4-4 .1-.8.4-1.4 1-1.9.9-.7 1.4-1.6 1.7-2.7.4-1.6.9-3.2 1.5-4.8.4-1.2 1-2.3 2-3.2.6-.6 1-1.4 1.4-2.2.5-.8.9-1.7 1.4-2.5.4-.7.8-1.4 1.3-2.1.4-.7.6-1.4.7-2.2.1-.4.1-.8.1-1.1 0-.7.3-1.2 1-1.5.6-.3 1.1-.8 1.4-1.4.4-.8.8-1.6.7-2.5v-1c0-.6.2-1.1.6-1.6.8-.8 1.3-1.9 1.8-2.9.2-.4.4-.8.6-1.1.5-1 1-1.9 1.5-2.9.1-.2.2-.4.4-.6 1.1-1.4 1.8-3 2.7-4.6.9-1.4 1.7-2.9 2.6-4.3.7-1 .8-1.9.3-2.9-.4-.8-.4-1.6-.1-2.4.1-.3.2-.6.2-.9 0-.7-.6-1.1-1.3-.8l-.6.3c-.5.3-1.1.4-1.7.4-.3 0-.7.1-1 .2-1.5.7-3.2.9-4.8 1.4-1.3.4-2.7.7-3.9 1.3-.3.1-.7.2-1.1.2-.8.8-1.8 1.1-2.9 1.1-1.1 0-2 .2-3 .7-.4.2-.7.4-1.2.7-.3-.1-.7-.5-1.1-.1-.3.4.2 1.1-.5 1.4-.7-.2-.4-1-1-1.5-.1 0-.3-.1-.6-.1-.5 0-1-.1-1.5-.1-.7 0-1.3-.2-2-.5-1.4-.2-2.4-1-3.4-1.9-1.3-1.2-2.1-2.8-2.5-4.6-.1-.4-.1-.8 0-1.1.2-.8 1-1 1.5-.5.3.3.6.5.9.8.3.3.7.3 1.1.2 1.1-.3 2.3-.5 3.4-.8.7-.2 1.3-.4 1.9-.6.4-.1.9-.2 1.3-.3.3-.1.5-.1.8-.2.8-.4 1.7-.6 2.6-.7.4-.1.8-.2 1.2-.4.3-.2.7-.2 1-.4.9-.3 1.7-.6 2.5-1 .2-.1.5-.2.7-.2 1.2-.1 2.2-.5 3.3-.9.1 0 .3-.1.4-.1 1.1-.1 2-.5 3-.9.1-.1.3-.1.4-.1.7 0 1.2-.3 1.9-.6.9-.3 1.9-.6 2.8-1 .9-.4 1.9-.6 2.9-.7.5-.1 1.1-.3 1.6-.5.6-.2 1.2-.5 1.8-.7.2-.1.5-.1.7-.3.5-.4 1.1-.5 1.7-.4.4 0 .8 0 1.2-.1.8-.3 1.2-.9 1.6-1.7.3-.7.7-1.5 1.1-2.2.5-.8 1.2-1.4 2-1.9.4-.2.8-.3 1.2-.2.7.2 1.4.1 2.1-.1 1.6-.5 3-.3 4.5.5.5.3.9.6 1.4.9.9.6 1.9.5 2.8.2 1-.4 2.1-.7 3.2-.7.9 0 1.8-.1 2.7-.5.5-.3 1.1-.3 1.7-.3 1.9 0 3.9-.1 5.8-.1h.6c1.5-.2 3 0 4.5.5.9.3 2 .4 2.8.9.4.2.8.6 1.1.9.5.5.5 1.1.3 1.7l-.9 2.1c-.2.4-.4.6-.8.7-.4.1-.9.3-1.3.4-.3.1-.5.1-.8.2-.1.3-.1.5-.2.8-.2-.2-.4-.3-.6-.5-.2.1-.5.1-.8.2-.1.2-.1.4-.2.6-.3-.3-.7-.2-1.1-.2-.8.1-1.6.3-2.3.7-.3.2-.7.2-1.1.3-.7.1-1.4 0-2 .1-.2 0-.4 0-.6.1-.5.2-1.1.4-1.6.7-.5.2-1 .2-1.5.2-.3 0-.7-.1-.9.2-.2.3.2.8-.3 1.1-.5.1-1.1.1-1.8 0s-1.3 0-1.8.6c-.1.1-.3.2-.4.2-.3 0-.5-.2-.6-.4-.2-.4-.6-.5-1-.4-.3.1-.6.1-1 .2-.8.9-1 2.1-1.9 2.9-.2-.1-.5-.2-.7-.3 0 .2-.1.3-.1.5.1.2.2.4.4.6-.3.3-.5.7-.8 1-1.1 1.2-1.9 2.5-2.6 4-.5 1-.9 2-1.4 3-.1.2-.2.3-.2.4-.3.2-.9-.1-1 .5l.6.3c0 .2 0 .4-.1.5-.6 1.3-1.3 2.6-1.9 3.9-.1.1-.2.3-.3.4-.7.7-1 1.6-1.1 2.6-.1.6-.3 1.2-.8 1.7-.8.9-1.3 1.9-1.7 3-.4.9-.7 1.8-1.1 2.7-.3.6-.6 1.2-1.1 1.7-.5.5-.8 1-.9 1.7-.1.9-.4 1.6-.9 2.3-1.1 1.8-2.1 3.6-3.3 5.3-.8 1.1-1.3 2.3-2 3.5-.3.6-.5 1.2-.5 1.8 0 .8-.3 1.4-.7 2-.8 1.2-1.6 2.3-2.4 3.5-.5.7-.9 1.4-.9 2.2 0 .3-.2.6-.4.7-.5.4-.8.9-.8 1.5 0 .4-.2.8-.3 1.2-.3.6-.6 1.2-.7 1.8-.6 2.3-1.9 4.3-3.3 6.2-.1.1-.1.2-.2.3-.8 1.2-.8 1-.6 2.3.1 1.2-.3 2.2-.9 3.1l-.9 1.2c-.5.6-.8 1.3-.8 2.2 0 .7-.3 1.3-.7 1.9-.4.8-.8 1.7-.9 2.6l-.3 1.8c-.1.5-.3 1-.6 1.4-.9 1.2-1.6 2.4-2.2 3.8-.2.4-.3.8-.3 1.2.1.5-.1.9-.4 1.3-.4.4-.6.9-.6 1.5 0 .3-.1.7-.3 1l-.6 1.5c-.1.4-.4.6-.7.9-.9.9-1.5 2-1.6 3.3 0 .2 0 .5-.1.7-.1.9-.5 1.6-1.2 2.1-.1.1-.3.2-.4.3-.4.3-.6.7-.7 1.1-.2.9-.3 1.9-.5 2.8-.1.6-.5 1.1-.9 1.4-.9.8-1.3 1.7-1.6 2.8-.5 1.6-1 3.2-1.7 4.7-.4.8-.8 1.5-1.2 2.3-.5.9-.8 1.9-1.1 3-.3 1-.6 2.1-.6 3.2 0 .2 0 .3-.1.5-.6 1.1-.9 2.3-1.6 3.4-.4.5-.7 1.1-.9 1.7-.2.4-.3.8-.4 1.2-.1.5-.3 1-.6 1.4-.8 1.1-1.3 2.3-1.2 3.6.1 1.2-.3 2.2-1 3.2-.3.4-.5.8-.7 1.3-.2.5-.3 1-.5 1.5-.1.2-.2.5 0 .7.2.2.4.2.6.1.9-.3 1.8-.5 2.6-.8 1.2-.5 2.4-1.1 3.7-1.3.6-.1 1.2-.4 1.8-.6.9-.4 1.8-.7 2.8-.9.7-.2 1.4-.5 2.2-.7.1 0 .1-.1.1-.1 1.1-.3 2.1-.6 3.2-.8.9-.1 1.8-.3 2.6-.7.5-.3 1.1-.4 1.6-.5.9-.2 1.8-.6 2.7-.8.8-.1 1.6-.5 2.3-1 .2-.2.5-.4.8-.6.4-.3.8-.2 1.1.1.3.3.6.7.8 1 .3.5.6 1 1.1 1.2.2.1.5.2.7.3.7.1 1 .6 1.1 1.2l.3 2.1c.2.9.2 1.9.6 2.8.1.3.1.6-.1.9l-.9 1.5c-.2.3-.5.4-.8.5h-.6c-1.5 0-2.9.1-4.4.1-.5 0-1.1.2-1.5.2-.4.4-.8.7-1.1.9-.3 0-.6-.1-.8-.1-.5.5-1 .6-1.5.1-.4.4-.9.5-1.3.7-1.1.5-2.2.7-3.3 1.1-.8.3-1.7.5-2.5.8-.5.2-1.1.4-1.6.6-.8.4-1.6.7-2.5 1-1.1.4-2.2.7-3.2 1.4-.7.5-1.5.7-2.2 1-.3.1-.6.3-.9.4-.2.1-.5.2-.7.2-.5.1-1 .2-1.5.5-1 .5-1.9.9-2.9 1.4-.3.1-.6.2-.7.2-.4.2-.6.4-.9.5-.1.1-.2.1-.3.2-1 1-2.1 1.9-2.8 3.3-.4.8-.7 1.1-1.3 1.4-.4 0-.7-.4-1-.6-.6-.5-1.3-.9-2.1-1.2-.2.1-.3.2-.5.2-.2.1-.5.2-.7.2-.7 0-1.2.3-1.8.6-.5.3-1 .6-1.6.8-.4.2-.7.4-.9.8-.6 1-.8 1.1-1.9.7-.4-.1-.8 0-1.2.1-1.4.5-2.8 1-4.1 1.8-.4.3-.9.5-1.3.7-.7.3-1.4.7-2.2.9-1.2.4-2.2 1.1-3.2 1.9-.5.4-1 .7-1.5 1.1h-2.4c-.2-3.7-.2-7.3-.2-11zM104.3 21c-.6.2-.9.6-1.1 1.4.1.1.2.1.4.2.2-.4.5-.8.7-1.2V21zm-11.7 1.8c.1-.1.3-.1.4-.2.1 0 .1-.1.1-.2-.1-.2-.2-.3-.4-.5 0-.2 0-.4-.1-.6-.1-.4-.5-.5-.8-.2-.1.1-.1.2-.2.3.4.4 1 .8 1 1.4-.2 0-.4-.1-.7-.1-.3 0-.5.1-.5.4.2.5.3.6.7.7.3.1.5 0 .7-.3-.1-.3-.2-.5-.2-.7zM25 174.4c.1.2 0 .5.3.7.3 0 .5-.2.5-.5-.2-.4-.5-.3-.8-.2-.1-.4-.2-.9-.2-1.3-.5 0-.7 0-.7.4-.1.8-.4 1.3-1.2 1.5-.4.1-.6.5-.7.9-.1.3.1.6.3.7.2.1.4.1.7-.2l.1-.1c.4-.5.9-.9 1.2-1.5 0-.2.3-.3.5-.4zM85 57.7c-.5.2-.7.5-.9.8-.2.4-.5.6-1 .6-.2 0-.3 0-.5.1s-.3.3-.2.6c.2 0 .4.1.6.1.6 0 1 .2 1.3.7 0 .1.1.1.2.2h.8c.5.2.8.7 1.4.6.1-.1.2-.3.3-.4.2 0 .4.1.5.1 0-.2.1-.3.1-.4-.8-.4-1-1.1-.8-1.9.1-.5-.1-1-.3-1.5-.1-.1-.2-.3-.2-.4.1-1 .2-1 1-1.2.2 0 .3-.1.4-.2.3-.2.4-.4.2-.8h-.5c-.2 0-.5.1-.7.1-.7 0-1.1.4-1.5.9-.4.5-.2 1.1.3 1.4.1.1.3.1.4.2.2.5.2.5-.1.8-.2-.1-.5-.2-.8-.4zm-8.1 21.4c0-.2.1-.3.1-.4v-.4c-.6-.4-1-.2-1.5.4 0 .5.5.4.8.7 0 .2 0 .5-.1.7.4.3.8.4 1.2.5.1-.3.1-.5.1-.7l.5-.5c.1-.2.1-.4 0-.5-.1-.1-.3-.2-.4-.1-.2 0-.4.1-.7.3zm-1.7.9c-.5-.3-.9-.6-1.3-.8-.4-.2-.8-.2-1.3-.2-.4 0-.6.4-.4.7.2.3.4.4.7.5.4.1.8.3 1 .6.2.2.4.4.8.3.4-.1.5-.4.5-.8.1 0 0-.1 0-.3zM102 18.5c-.4-.4-.8-.6-1.1-.9l-.2.2c.1.4.2.7.3 1.1h.7c0 .4.1.7.1 1 .3.3.5.4.9.3.2-.3.3-.5.5-.8-.3-.6-.7-.9-1.2-.9zM63.3 96.7c.6.3.9-.1 1.2-.4.3-.3.3-.6.1-1-.4-.1-.9-.3-1.3-.4-.2-.1-.4 0-.5.1-.1.2-.1.4 0 .6.1.4.3.7.5 1.1zM82.5 69c-.6-.2-1-.4-1.5-.5-.7-.2-1.2.4-1.1 1.1.3.2.5.1.7 0 .3-.2.6-.2 1-.1.7.3.9.2 1.4-.5 0 0 0-.1-.1-.2-.1.1-.3.2-.4.2zm-11 21.9c.3-.1.5-.2.7-.3l.6-1.2c-.2 0-.3-.1-.4-.1-.3.1-.6.2-.9.4-.5.3-.8.8-1.1 1.3-.2.3 0 .5.5.7.2-.3.4-.5.6-.8zm35.9-71.2v.7c-.6.3-1-.1-1.5-.2-.3.4-.3.5-.2.7.1.2.3.3.6.3.6 0 1.2-.1 1.8.4 0-.6.1-1 .1-1.4-.2-.2-.3-.5-.8-.5zm-24.6 7.7c-.2.5-.2.6.1.8.7.4 1.4.7 2.2.9.2 0 .3-.1.5-.1.1-.4-.1-.5-.3-.6-.7-.4-1.5-.5-2.1-1h-.4zM60.2 165.6v.9c0 .2.1.4.3.3.4-.3.7-.7 1.1-1 .3-.3.3-.7-.1-.9h-.7c-.3.3-.5.5-.6.7zm6.7-70.7c-.1.5.1.8.4 1 .4.3.7.6 1.2.6.3 0 .5-.3.4-.5 0-.1-.1-.3-.2-.3-.4-.2-.8-.4-1.2-.7-.1-.1-.4 0-.6-.1zM32.8 172c-.5.3-.6.5-.5.8.1.3.4.6.7.5.4-.1.8-.2 1.1-.4.1 0 .1-.2.2-.3-.5-.4-1.1-.2-1.5-.6zm52-105.3c-.2-.3-.3-.5-.4-.6 0-.3 0-.6.1-.8-.4-.3-.4-.3-.9-.2-.1.3-.5.6-.2 1.2.4.1.7.3 1 .8.2-.2.3-.2.4-.4zM67.5 93.6c-.3-.1-.6-.2-1-.3-.3-.1-.5 0-.7.2-.2.2-.3.4 0 .7.4.1.9.1 1.4 0 .3 0 .4-.2.3-.6zm-15 27.6c-.1-.5-.1-.5-.7-.5l-.7.7c0 .4 0 .8.1 1.3.2 0 .4-.1.5-.1.1-.4.1-.7.1-1.1.2 0 .4-.1.7-.3zm57.4-106.5c-.2.3-.1.5.1.7.2.2.4.2.7 0 .3-.2.5-.3.8-.5-.1-.5-.1-.5-.6-.7-.4.3-.7.4-1 .5zM41.3 168.2c-.8.6-.9 1-.8 1.5.1 0 .3 0 .4-.1.3-.3.8-.4 1-.9 0-.3-.2-.5-.6-.5zm6.3-25.5c-.2-.1-.2-.1-.3-.1-.6.2-1 .6-1.2 1.2-.1.2 0 .4.3.4.5-.2.8-.7 1.2-1.1.1 0 0-.2 0-.4zm13.9-47.4c-.4.2-.5.3-.5.5 0 .4.2.7.6.9.3.1.7.3.9-.1 0-.5-.4-.4-.6-.7-.1-.1-.2-.3-.4-.6zm10.8-11.6c-.6 0-.8.1-.8.4-.1.3.1.7.4.8.3.1.5.1.8-.4-.2-.2-.3-.5-.4-.8zm1.8 2.6c0-.2.1-.4.1-.5-.1-.2-.2-.4-.4-.6-.3-.3-.4-.2-.8.1 0 .8.2 1 1.1 1zm33.2-69.6c.1.4.4.6.8.6.4-.2.5-.6.4-1 0-.3-.2-.5-.5-.5-.4.2-.6.5-.7.9zM70.6 94.1c.4-.3.3-.6.3-.9-.9-.6-1-.6-1.4-.1.3.3.7.6 1.1 1zm6.1-23.8c.1.3.3.5.5.6.3.1.7-.1.8-.4.1-.3-.1-.7-.5-.7-.2 0-.4 0-.5.1-.2.1-.3.3-.3.4zm11.4-46.6c-.4.5-.4.8-.1 1.1.3.2.8 0 1.1-.4-.4-.5-.4-.5-1-.7zM81 65.9c-.5-.2-.6-.2-.7 0-.1.2-.1.4-.1.5.1.3.3.7.7.9.4-.6.1-1 .1-1.4zm-41.7 94.5c-.5.3-.3.8-.3 1.2 0 .3 0 .5.3.6.3-.3.4-.3.3-.6.1-.3.3-.8-.3-1.2zm60.8-140.6c-.4-.8-.6-.9-1.2-.5.2.3.2.8.6 1.2.2-.2.4-.4.6-.7zM69.2 85.7c-.3.1-.5.3-.5.6s.1.5.4.6c.2.1.4 0 .5-.1.2-.2.2-.4.1-.6-.1-.3-.2-.5-.5-.5zM116.9 15c.5.1.9.3 1.3.1-.1-.5-.4-.8-.8-.9-.3.1-.5.3-.5.8zM75.4 73.6c-.5 0-.5 0-.7.1-.2.2-.2.4-.2.7.1.3.5.4.7.2.3-.2.4-.6.2-1zM41.6 155c.2-.5.2-.8-.1-1-.2-.2-.4-.6-.8-.4.1.4.3.8.4 1.1.1.1.3.1.5.3zm10 13.8c.1.3.2.4.3.6.2.2.4.2.6.1.2-.1.3-.4.2-.6-.1-.2-.3-.4-.5-.3-.2 0-.3.1-.6.2zm58.8-146.5c.2.4.6.3.8.2.4-.1.7-.3 1-.7-.1-.1-.1-.1-.2-.3-.2.2-.4.3-.7.5-.3.2-.7-.1-.9.3zm2.2-7.5c0 .5.2.6.9.8.3-.3.3-.5 0-.7-.3-.2-.5-.3-.9-.1zM87.5 27.3c-.2-.3-.2-.7-.7-.7-.4.6-.4.6 0 1.1.4 0 .6 0 .7-.4zM38.1 159.1c-.7.2-.8.4-.7 1 .4.1.6-.1.8-.4.2-.2.1-.4-.1-.6zm32.6-70.4c0-.3-.2-.6-.6-.6-.2 0-.4.1-.4.3 0 .3.2.6.5.6.3.1.5 0 .5-.3zM89 55.9c-.4 0-.7.2-.8.6.4.4.6.4.9.2.1-.1.2-.2.1-.3 0-.2-.1-.3-.2-.5zm-17.1 103c-.4.2-.6.4-.8.9.1.1.2.2.2.3.9-.4 1-.7.6-1.2zm-36.1 6c-.3.3-.7.4-.6.9.1 0 .2.1.3.1.1 0 .2 0 .3-.1.1 0 .1-.1.2-.1.2-.2.2-.4-.2-.8zm-17.1 10.5c-.2.3-.2.5.1.7.2.1.4.1.6 0 .1-.2.2-.3.1-.5-.1-.3-.3-.3-.8-.2zM84.2 63.5c0-.4-.2-.5-.5-.5s-.4.2-.4.5c.4.4.4.4.9 0zM18.5 177.7c.2-.3.1-.6-.2-.7-.1 0-.3 0-.4.1-.2.1-.2.3 0 .5.1.2.3.3.6.1zm23.7-24.6c.1.4.4.6.8.5.2-.3.2-.5-.1-.7-.2-.1-.5-.1-.7.2zM28 174.2c-.3-.4-.4-.5-.7-.4-.2.1-.2.3-.1.7.4.1.7.1.8-.3zm38.2-11.1c.4 0 .7-.1.8-.5-.1-.3-.3-.4-.5-.2-.3.1-.4.3-.3.7zM88.9 26.4c.5.3.6.3 1.1 0 0-.3-.3-.4-.5-.4-.3 0-.6.1-.6.4zm-47.2 122c-.2.3-.2.5-.1.7.1.2.3.2.5.1.3-.5.3-.6-.4-.8zm41.7-78.6c-.5.4-.5.5 0 .9.5-.4.5-.5 0-.9zm-31.1 45.6c.4.1.7 0 .8-.5-.1 0-.2-.1-.3-.1h-.3c-.1 0-.2 0-.2.1-.2 0-.2.2 0 .5zm-7.5 25.5c.4-.1.4-.3.3-.6-.1-.2-.2-.4-.5-.4-.1.6-.1.6.2 1zm-17 31.3c-.2-.2-.4-.3-.7-.1-.1.1-.2.3-.1.4 0 .2.2.3.4.3.3-.1.5-.3.4-.6zM80.3 29.5c.6 0 .8-.1.7-.7-.3.1-.3.1-.7.7zM16.4 177.1c-.2.3-.2.5 0 .7.1.2.3.2.5.1.2-.2.1-.5-.1-.6-.1-.1-.3-.2-.4-.2zm8.9 2.2c.3-.1.4-.4.3-.6 0-.2-.1-.4-.4-.3-.3.5-.3.5.1.9zM51 168.5c.2-.2.1-.4-.1-.6-.1-.1-.3-.1-.4 0-.1 0-.2.2-.2.3 0 .1.1.3.2.3.2.1.4 0 .5 0zm44.5-146c-.2 0-.4.2-.4.4 0 .1.2.3.3.3.2.1.4-.2.4-.4 0-.1-.1-.3-.3-.3zm-4.2 5.6c.4.1.6.2.8-.2-.3-.4-.3-.4-.5-.4-.1 0-.2.1-.3.1v.5zM79 66c-.2.2-.2.5.1.6.1.1.3 0 .4 0 .1-.1.1-.2.1-.3-.1-.3-.3-.4-.6-.3zm26.3-46.9c.5 0 .5 0 .8-.3-.6-.3-.8-.3-.8.3zM68 90.7c-.3-.1-.5-.1-.6.2-.1.2.1.3.6.3 0-.1.1-.2.1-.3 0 0 0-.1-.1-.2zm31.3-55.9c-.1-.3-.1-.5-.2-.6 0-.1-.2-.1-.3-.1-.2 0-.3.1-.3.3 0 .1.1.3.2.3.1.1.3.1.6.1zM99 23.6c-.4.4-.4.6.1.8.2-.4.2-.4-.1-.8zm-2.1-1.2c0-.3-.1-.5-.4-.5-.2 0-.3.3-.2.5.2.3.4.3.6 0zm-6.5 25.2c.4.3.5.3.7-.2-.4-.4-.5-.3-.7.2zM109 17.9c.2.3.4.3.6.1.2-.1.2-.3 0-.5-.3 0-.6 0-.6.4zM71.9 81.1c.3 0 .4-.2.3-.4-.1-.2-.2-.3-.4-.2-.2.3-.2.3.1.6zm-24.2 54c.3.4.3.4.6.1-.2-.4-.3-.5-.6-.1zm7.7-104.9c-.5.4-.5.5 0 .8.3-.4.3-.4 0-.8zm53.7-9.6c-.4 0-.4 0-.6.3.1.2.3.3.5.1.2-.1.3-.2.1-.4zm-53.7 86.7c-.4.4-.4.4 0 .7.3-.3.3-.3 0-.7zm44.2-70.1c-.5-.2-.5-.2-.6.3.5.2.5.2.6-.3zM68.8 88c.5.1.7-.1.6-.6-.3.1-.5.3-.6.6zm3.8.1c-.4-.2-.5-.1-.6.2.4.4.5.4.6-.2zM75 77.2c.2-.2.2-.4.1-.5-.1-.1-.3 0-.4-.1-.2.3-.2.5.3.6zm3.7-2.7c.2.2.4.3.6.1 0-.1.1-.1.1-.3-.1-.1-.3-.1-.4-.2-.1.2-.2.3-.3.4zm-36.4 72.7c.2.3.4.4.5.2.1-.1.1-.3 0-.3-.1-.2-.3-.2-.5.1zm7.5-12.4c.3-.3.3-.5 0-.6-.3 0-.4.1-.3.4.1.2.2.2.3.2zm-.2 34c-.1-.2-.2-.3-.2-.4-.4.3-.5.4-.3.6.1 0 .3-.1.5-.2zm-20.1 2.6c0-.4-.2-.5-.5-.3 0 .3.1.4.5.3zm27.7-66.5l.5-.5c-.3-.1-.4-.1-.6-.1.1.2.1.3.1.6zm-9 34.6c-.5.1-.5.1-.3.5.3-.2.3-.2.3-.5zM25 176.2c-.1-.5-.1-.5-.5-.4 0 .3.1.4.5.4zm78.2-151.6c.1.2.2.4.2.5.3-.1.4-.2.2-.5h-.4zm5.2-.8c.4-.2.4-.2.3-.6-.1.1-.2.1-.3.2-.1.1 0 .3 0 .4zm-39.2 58v.5h.4c.1-.4 0-.5-.4-.5zm7.2-7.5c.2-.2.3-.4.1-.6-.4.2-.4.2-.1.6zM14.3 180.4c.3.2.3.2.5-.1-.1-.2-.3-.2-.5.1zm36.3-56.2c-.1-.2-.1-.3-.2-.4-.1.1-.2.1-.3.1 0 .3.1.5.5.3zm17.9-31.8c0-.1-.1-.1-.1-.2-.1 0-.3 0-.5.1.1.2.2.3.3.4l.3-.3zm1.2-59.6c-.2-.1-.3-.1-.5-.1-.1 0-.1.1-.2.2.3.3.4.3.7-.1zm-31 138.6c-.1.4-.1.4.3.4.1-.2.1-.3-.3-.4zm-20.6 11.4v-.2c-.1 0-.2-.1-.4-.1-.1 0-.1.2-.2.4.3-.1.5-.1.6-.1zm54.2-150c-.3-.1-.4-.1-.7-.2.1.2.2.3.2.5.2 0 .3-.1.5-.3zM35.1 173c.1.2.1.3.2.4.3-.2.4-.3.2-.5-.2 0-.2 0-.4.1zm56-143.8l-.1-.1c-.1.1-.2.1-.3.2.1.1.1.2.3.4.1-.3.1-.4.1-.5zm-16-.7h.6c-.1-.2-.2-.3-.3-.4-.1.1-.2.2-.3.4zm-4.4 133.4h-.4c0 .4 0 .5.3.4 0-.1 0-.2.1-.4zM55 112.3h-.2v.4h.3c-.1-.1-.1-.3-.1-.4zm34.5-82.7c.2-.3.1-.4-.2-.4 0 .1-.1.2-.1.3.1 0 .2 0 .3.1zm-24.3 4.8c.1.1.2.3.4.1v-.2c-.2-.2-.3-.1-.4.1zm-5.3.7c.2-.1.3-.2.1-.3h-.2c-.2.1-.1.2.1.3zM73 86.9c0-.2-.1-.3-.1-.4-.2.3-.2.3.1.4zm-7.8-58c.1.2.2.3.3.1v-.2c-.1-.2-.2-.1-.3.1zm17.6 37c-.2-.1-.3-.1-.3-.1-.1 0-.1.1-.2.2 0 .1.1.2.1.2.1-.1.1-.2.4-.3zM25.9 177.4c.2-.2.2-.4-.1-.5-.2.2-.2.3.1.5zm79-147.5c-.1-.1-.2-.1-.2-.1-.1 0-.1.1-.2.1.1.1.1.1.2.1 0 0 .1-.1.2-.1zm-48 1.2l.2-.2-.1-.2c-.1 0-.2.1-.2.2-.1 0 0 .1.1.2zm10.8 1.7c-.2-.1-.3-.1-.3-.1s-.1.1-.1.2.1.2.2.2c0 0 0-.2.2-.3zm38.6-8v.1h.2v-.1c0-.1-.1-.1-.2 0zM38 173.1c-.1-.1-.2-.2-.2-.1-.1 0-.1.1-.2.2 0 0 .1.1.2.1s.1-.1.2-.2zM60.1 101c-.1 0-.1-.1-.2-.1s-.1.1-.1.1c.1 0 .1.1.2.1 0 .1 0 0 .1-.1zm-19.6 55.6c-.1-.1-.1-.1-.2-.1s-.1.1-.2.1l.2.2c.1 0 .2-.1.2-.2zm4.4-7.7s.1 0 .1-.1c0 0 0-.1-.1-.1 0 0-.1 0-.1.1 0 0 .1 0 .1.1zm57.8-126l-.2-.2-.1.1c0 .1 0 .2.1.2 0 0 .1-.1.2-.1zM46.3 130.3c.1-.1.1-.1.1-.2s-.1-.1-.1-.1c-.1 0-.1.1-.1.1s.1.1.1.2zM68.6 95c-.1-.1-.1-.1-.2-.1s-.1.1-.2.1l.2.2c.1-.1.1-.2.2-.2zm-5.2 4.3c-.1.1-.1.1-.1.2s.1.1.1.2l.2-.2c-.1 0-.2-.1-.2-.2zM36.7 168c0 .1-.1.1-.1.2l.1.1c0-.1.1-.1.1-.2.1 0 0-.1-.1-.1zM83.3 62.5l-.1-.1h-.1v.1h.2zm-27.8 63s-.1 0-.1-.1l-.1.1s.1 0 .1.1l.1-.1zm20-92.6s0-.1-.1-.1h-.1c0 .1.1.1.1.2l.1-.1zm22-6s0-.1 0 0c0-.1 0 0 0 0zM36.4 159.2z"/><path d="M115.4 123.9c-.5 1.4-1.2 2.5-1.9 3.7-.1.2-.3.3-.4.5l-.6-.3c-.2-.1-.4 0-.6.1-.2.2-.1.4 0 .6.1.2.2.3.4.5-.3.4-.5.9-1.1.9-.2-.2-.3-.5-.5-.7-.2 0-.3 0-.6.1 0 .3.1.6.1.8-.2.3-.7.5-.6 1l.5.5c0 .1-.1.3-.1.4-.5.8-1 1.7-1.5 2.5-.3.6-.6 1.3-1 1.9-.5.8-1 1.7-1.5 2.5-.6 1.1-1.3 2.1-2.1 3.1-.6.7-1.1 1.4-1.6 2.1-.8 1.1-1.8 1.9-3 2.5-1.3.7-2.7 1.1-4.1 1.6-.5.1-1 .2-1.5.2h-4.6c-1.3 0-2.4-.4-3.4-1.2-.6-.5-1.2-1-1.8-1.6-.2-.2-.3-.4-.4-.6-1.2-.7-2.1-1.5-2.8-2.6-.3-.6-.8-1.1-1.2-1.7-.2-.2-.3-.4-.5-.7.1-.2.2-.4.3-.7l-.5-.5c-.2-1.2.2-2.4-.2-3.5-.3-.1-.5-.3-.8-.4-.1-.2-.3-.5-.3-.8-.1-.7-.5-1-1.2-1-.4 0-.7-.2-.8-.6.1-.4.4-.5.7-.5 1 .3 1 .3 1.6 1.2.4.2.8.2 1.2-.1.1-.1.2-.2.2-.3 0-.6.3-1.1.6-1.6.4-.6.5-1.3.4-2-.1-.5-.1-.9 0-1.4.2-.9.4-1.9.5-2.8.1-.7.4-1.4.8-2 .9-1.5 1.6-3.1 1.8-4.8.1-.5.2-1 .4-1.5.5-1.3.9-2.6 1.4-3.9.1-.2.1-.5.2-.7.1-.4.1-.7-.2-1-.2-.3-.3-.6-.2-1 .5-.4 1-.6 1.7-.8l.6-.9c.2-.3.4-.7.6-1.1.6-.8 1-1.7 1.4-2.6.2-.5.5-1 .9-1.4.9-.9 1.7-1.8 2.4-2.8l.3-.3 3.9-4.8c.5-.6.9-1.3 1.3-1.9.3-.4.6-.9 1-1.2.6-.4 1-1 1.3-1.7.6-1.8 1.9-3.2 3.4-4.4.9-.7 1.8-1.4 2.5-2.3.8-.9 1.8-1.6 2.7-2.3.5-.3 1-.7 1.4-1.1.3-.3.6-.7.6-1.1 0-.9.6-1.4 1.4-1.7.8-.3 1.5-.6 2.1-1.2.4-.4.7-.4 1.2.1.3.3.5.6.7.9.4.5.9 1 1.4 1.5.5.5 1.2.7 1.9.4.6-.2 1.2-.2 1.7.2.3.2.6.3.9.5.9.5 1.8.9 2.7 1.2.1 0 .3.1.4.1.9.5 1.8 1 2.6 1.8.4.4.8.7 1.2 1 .3.2.5.4.6.7.3.5.6 1.1 1 1.6.3.4.3.4.9.6.8-.5.9-1.2.8-2.1.2-.2.4-.4.7-.6.5-.4.7-.8.5-1.4v-.3c.2-.5.6-.8 1.1-.9.4-.1.6-.3.9-.5.3-.3.4-.7.2-1.1-.1-.1-.1-.2-.2-.4-.1-.3-.1-.6.1-.8.3-.3.6-.5.9-.7l.9-.6c.3-.3.4-.6.2-1-.1-.2-.2-.4-.1-.7 1.5-.4 2.1-1.5 1.9-3.1.4-.2.6-.3.9-.5.8-.3 1.3-.8 1.6-1.6.2-.6.5-1.1.7-1.7.1-.3.3-.7.3-1.1.1-.7.3-1.4.7-2 .3-.5.6-1.1.7-1.7.1-.3.2-.5.4-.8.6-.8 1.1-1.7 1.6-2.6.7-1.2 1.4-2.2 2.2-3.3.3-.5.6-.9.9-1.4.2-.3.4-.7.7-1 .9-1.2 1.6-2.6 2.3-4 .5-1.2 1.1-2.3 1.6-3.4.4-.9 1-1.7 1.6-2.6.1-.1.2-.2.2-.4.3-1 .9-1.8 1.5-2.6l1.2-1.5c.4-.5.7-1 .9-1.6.1-.3.3-.6.5-.9.6-.7 1-1.5 1.3-2.4.3-1.2.9-2.3 1.6-3.2.4-.6 1-1.1 1.5-1.6.2-.2.4-.3.4-.7-.2-.1-.3-.3-.5-.4 0-.1 0-.2.1-.2l.6-.3c.7-.1 1-.6 1.1-1.2 0-.4.2-.8.4-1.2 0-.3 0-.5-.1-.9.5-.6 1.1-1 1.9-1.3.7-.3 1.5-.2 2.2.2.2-.1.5-.2.8-.2.2.3.4.5.5.8.5 1 1 1.3 2.1 1.1.1 0 .3-.1.4-.1.5 0 1 .1 1.3.4.8.7 1.7 1.5 2.5 2.2.5.4 1.1.7 1.5 1.2.5.6.9 1.2.7 2.1 0 .2 0 .3-.1.5-.4.9-.7 1.8-1.1 2.6-.3.4-.5.9-.6 1.3-.2.5-.5.9-.9 1.3-.7.7-1.2 1.4-1.5 2.3-.2.6-.3 1.2-.4 1.8-.1.7-.3 1.3-.8 1.8-.3.2-.4.5-.7.9-.1 0-.2.1-.4.2-.3.1-.5.4-.5.7 0 .5-.4.9-.7 1.2-.3.2-.6.5-.9.7-.4.4-.7.8-.9 1.3-.1.3-.3.7-.6 1-.6.8-1.3 1.6-2 2.4-.2.3-.4.6-.5.9-1 2.1-1.9 4.2-2.9 6.3-.3.5-.7 1-1.1 1.4-.6.7-1.1 1.4-1.4 2.3-.1.4-.5.8-.8 1.2-.2.4-.5.7-.8 1-.2.3-.3.6-.4 1-.1.4-.3.8-.6 1.1-.7.8-1.2 1.6-1.5 2.7 0 .1-.1.2-.1.3-.6.9-.9 1.8-1.3 2.8-.2.6-.6 1.1-1.1 1.5-.7.4-1.1 1.1-1 2 0 .6-.2 1.1-.5 1.5-.9 1.2-1.5 2.6-2 4.1-.4 1.3-.9 2.5-1.7 3.6-.5.7-.8 1.5-1.2 2.2-.3.7-.7 1.4-1 2-.5.9-1 1.8-1.4 2.7-.2.4-.4.8-.7 1.2-.8 1-1.2 2.1-1.7 3.2-.2.3-.1.6 0 .9.2.5.2.9-.1 1.3-.3.4-.5.9-.9 1.3-.8.9-1.3 2-1.8 3.1-.6 1.5-1.2 3-2 4.4-.7 1.2-1.2 2.5-1.6 3.9-.4 1.5-1 3-1.7 4.4-.4.7-.6 1.4-.6 2.2 0 1.1-.5 2.2-.8 3.2-.1.2-.2.4-.2.6-.2.8-.3 1.5-.5 2.3-.1.4-.2.8-.4 1.1-.3.4-.5.9-.3 1.4 0 .1.1.2.1.3-.1 1 .3 1.9.7 2.8.2.5.3 1 .3 1.5v2.5c0 .3 0 .7.1 1 .1.7.6 1.2 1.3 1.2h3.5c.2 0 .4-.1.6-.2 1.4-.6 2.7-1.3 3.8-2.5.3-.3.8-.6 1.2-.8.9-.5 1.6-1.1 2.3-1.8.3-.4.5-.7.3-1.2-.1-.2 0-.4-.1-.6.3-.2.5-.5.7-.7.9-.5 1.5-1.3 2.3-1.9.5-.4.9-.8 1.4-1.1.2-.1.4-.3.6-.4.2-.5.4-.9.6-1.3.2-.4.6-.8 1-1 .3-.2.6-.4.8-.6.6-.7 1.4-1.3 1.8-2.2.1-.2.3-.4.5-.6.1-.1.3-.2.3-.4.1-.6.6-1 1-1.4.5-.6.8-1.2 1.1-1.9.1-.2.2-.3.3-.5.3-.4.7-.9.8-1.4 0-.1.1-.2.1-.3.7-.6.9-1.5 1.5-2.2.1-.1.2-.3.3-.5.2-.8.4-1.6.5-2.4l.6-4.8c0-.1 0-.3.1-.4.4-1.2.4-2.4.6-3.6.1-.4.1-.8 0-1.2-.1-.9.1-1.7.4-2.5.2-.6.4-1.2.3-1.9 0-.9.1-1.7.3-2.6.1-.5.1-1 .2-1.4.1-.4.1-.8.2-1.1.2-.5.4-1 .3-1.6-.1-.7.3-1.1 1-1.3.3-.1.6-.2.9-.4.5-.3.6-.6.4-1.1-.1-.3-.3-.6-.4-1-.2-.5-.4-1-.4-1.6 0-.4.1-.9.4-1.2.2-.3.4-.5.5-.8.4-.5.7-1.1.9-1.7.2-.7.6-1.4 1.3-1.8.4-.2.6-.6.7-1 .2-.9.5-1.8.8-2.7.1-.2.1-.4.2-.5.4-.3.8.2 1.1-.4-.2-.2-.4-.5-.6-.9.2-.3.3-.7.5-1.1l.6-.9c.3-.4.5-.9.7-1.4.3-.8.6-1.5 1.1-2.2.4-.5.7-1.1.9-1.8.2-.6.5-1.2.9-1.7.8-1 1.4-2.1 1.8-3.3.2-.5.2-.9.4-1.4.2-.1.5-.3.7-.4.2-.8.5-1.6.8-2.5.2-.2.3-.4.5-.5 0-.1.1-.1.1-.2.1-1 .5-1.9 1.3-2.6.3-.3.5-.6.8-.8l1.5-1.2 2.1-1.8c.3 0 .7-.3 1-.7.2-.2.4-.4.7-.5.2 0 .3-.2.5-.3.7-.5 1.5-1 2.3-1.3.4-.1.7-.4 1.1-.6.6-.4 1.2-.5 1.9-.4.6.1 1.2.2 1.8.1.8-.1 1.6-.1 2.3.3.2.1.5.1.7.1h1.4c.5 0 1 0 1.4.3.2.1.5.2.8.2.3 0 .6.1.9.3.9.5 1.8.9 2.7 1.4l.7.7c.2.3.5.5.7.8 1-.1 2.1.3 3.1.6.5.1 1 .2 1.4.2.5 0 .9.1 1.3.4.7.4 1.3.8 2 1.3.4.3.7.7 1.1 1 .4.3.7.6 1.1.8.7.3.8.9.5 1.5-.5 1-.9 2-1.1 3.1-.1.5-.3 1-.7 1.5-.6.8-1 1.7-1.5 2.6l-.6 1.2c-.5 1.1-.7 2.3-.7 3.5v.6c-.2 1.3-.4 2.5-.5 3.8-.1.8-.2 1.6-.2 2.3-.1 1.1-.5 2.2-.7 3.2-.1.6-.3 1.1-.4 1.7-.1.6-.3 1.1-.7 1.5-.4.4-.6.8-.6 1.4v.5c0 .5-.2.8-.6 1.1-.3.2-.5.4-.8.7v.5c.1.6-.2.9-.6 1.2-.2.1-.5.1-.6.5.1.1.2.3.3.4.1.1.3.2.4.3.3.3.2.7-.2.8-.2.1-.4.1-.6.1-.2-.2-.4-.3-.6-.5-.1.2-.3.3-.3.4-.4 1-.9 1.9-1 3-.1.5-.3.9-.6 1.3-.5.8-.8 1.6-.9 2.5-.2 1.3-.6 2.5-1.1 3.7-.6 1.6-1.6 2.9-2.6 4.2-.2.3-.4.6-.7.8-.9.6-1.5 1.4-1.9 2.4-.3.6-.7 1.2-1.1 1.7-.5.6-1 1.3-1.1 2.1-.1.3-.2.6-.4.9-.6.9-1.1 1.9-1.6 2.9-.3.6-.6 1.2-1 1.7-.7.8-1 1.6-1.3 2.6-.1.4-.3.8-.6 1.1-.5.5-.7 1.2-.9 1.9-.3.7-.5 1.4-.8 2.1-.1.2-.2.4-.4.6-.7.9-1.3 1.8-2 2.7-.2.2-.4.4-.5.6-.5.2-.9-.3-1.3.1.1.2.1.5.2.8-.1.1-.2.3-.4.5-.6.5-1.1 1.2-1.6 1.8-.5.7-1.1 1.3-1.7 1.9-.1.1-.2.1-.4.2-.3-.5-.6-.9-.9-1.4-.3-.4-.4-.4-1-.2-.1.4.2.7.4 1 .2.3.3.7.4 1.1-.2.3-.5.5-.8.6-.8.3-1.6.6-2.5.6-1.1 0-2.2.2-3.3.2-.4 0-.8-.1-1.2-.2-.8-.2-1.5-.5-2.3-.8-.6-.2-1.1-.6-1.5-1.1-1-1.3-1.9-2.5-2.7-4-.2-.3-.3-.6-.8-.7-.1.1-.3.2-.4.4-.5.6-1 1.3-1.4 2-.2.4-.4.7-.7 1.1-.4.5-.4.5-1.1.7 0 .5-.4.9-.8 1.2-.2.2-.4.4-.6.5-.6.6-1.4 1.1-2.2 1.4-.7.3-1.3.7-1.8 1.2-.6.6-1.3 1.1-2 1.7-.5.5-1 .9-1.5 1.5-.7.7-1.3 1.4-2.2 1.9-.4.2-.7.4-1 .7-1.4 1-3 1.8-4.6 2.5-.2.1-.5.2-.8.2-.8.1-1.5.2-2.2.5-.7.3-1.4.3-2.1.3-.6 0-1.2 0-1.9.1-.4.1-.8.2-1.2.4-1.2.4-2.5.5-3.7 0-.4-.2-.8-.3-1.2-.3-1-.1-1.9-.3-2.8-.9-.4-.2-.8-.4-1.2-.5-.8-.2-1.5-.7-2.1-1.3-1.2-1.3-2.7-2.3-4.2-3.3-.7-.5-1.5-1-2.2-1.5-1.6-1.3-2.6-2.9-3.1-4.9-.1-.6-.2-1.3-.2-1.9 0-1.2.1-2.4.3-3.6.1-.9-.1-1.3-.9-1.4 0 .1-.4-.1-.8-.3zm27.9-36.1c-.2 0-.3.1-.5.1-.7.4-.8 1-.2 1.6.2.2.5.4.9.5-.2-.4-.4-.7-.6-1 .4-.3.5-.8.4-1.2.2-.1.4-.2.4-.5-.1 0-.2-.1-.3-.2-.1.3-.1.5-.1.7zm-18 24.2c-.1-.2-.1-.4-.2-.6-1.1-.7-1.1-.7-1.6-.3-.1.6.5.7.7 1-.1.2-.2.4-.2.6 0 .1.1.2.1.3l.1.1c.5.5.9.4 1.3-.1.1-.2.2-.4.3-.7-.3-.2-.4-.2-.5-.3zm-35.5 8.9c.1.1.2.3.3.4.1.1.3.1.4 0 .2-.1.2-.3 0-.5-.3 0-.3 0-.7.1-.1-.6-.3-1.2-.3-1.9 0-.3-.3-.6-.6-.6-.2 0-.5.2-.5.6v.2c.2.8-.3 1.4-.3 2.1-.3.2-.8-.1-1 .4.4.3.7.8 1.2.9.5-.1.8-.4.9-.9.3-.4.4-.6.6-.8zM202 76.4c.1-.1.2-.2.3-.2.4-.3.6-.7.6-1.3 0-.4.2-.8.3-1.2.2-.6.2-1.2.2-1.8 0-.6.1-1.2.2-1.8.4-1.8.9-3.5 1.4-5.3.1-.3.1-.5.1-.8 0-.6-.1-1.2-.2-1.8-.1-.7-.5-1.1-1.2-1.2-.4-.1-.8-.1-1.1-.1-.5 0-1 .2-1.3.6-.3.3-.5.7-.8 1-.4.5-.8.9-1.5 1.1-.5.2-.9.4-1.4.6-.9.4-1.7.7-2.7.7-1 0-2 0-3-.1-.9-.1-1.7.2-2.3.9-.8.9-1.4 1.8-1.9 2.8-.4.7-.6 1.4-.6 2.2 0 .7-.2 1.3-.5 1.9-.3.6-.6 1.3-.9 1.9-.2.4-.4.9-.8 1.2-.6.7-1 1.6-1.3 2.5-.2.7-.5 1.4-.8 2.1-.3.7-.7 1.3-1.1 2-.3.7-.7 1.3-1.3 1.7-.5.4-.8.9-.7 1.5.1.5-.2.9-.5 1.3-.6.5-1.1 1.2-1.4 1.9-.1.3-.3.5-.6.7-.5.3-.8.7-1 1.3-.3 1.1-.6 2.2-.6 3.4 0 .4-.1.8-.3 1.3-.3.6-.5 1.2-.6 1.8-.1.9-.3 1.7-.4 2.6-.1.7-.2 1.5 0 2.2.4 1.4.4 2.7-.2 4-.2.6-.3 1.1-.3 1.7 0 .6-.1 1.2-.1 1.8 0 .5-.1 1.1-.1 1.6.1 1.1-.2 2.1-.7 3-.5.9-.8 1.8-.9 2.8-.1.8-.1 1.7-.3 2.5-.1.7 0 1.3.4 1.9.3.6.6 1.1 1 1.7.2.3.4.7.7 1 .4.5.7.5 1.2.3 1.2-.6 2.3-1.4 3.1-2.6.7-1.1 1.6-2.2 2.4-3.3 1-1.3 2-2.6 3-4 .4-.5.7-1.1 1.2-1.8 0-.1 0-.4.2-.7.4-.6.5-1.2.7-1.9.2-.6.5-1 .8-1.5.2-.2.4-.5.6-.7.6-.6.9-1.3 1.2-2.1.3-.6.5-1.2.8-1.8.4-.8.8-1.5 1.2-2.3.9-1.8 1.8-3.5 2.7-5.3.2-.4.5-.8.9-1.1.2-.1.4-.4.5-.6.4-.9.7-1.8 1.1-2.6.2-.4.4-.7.4-1.1.3-1.2.8-2.3 1.6-3.3.3-.4.6-.9.8-1.4.2-.5.4-1.1.5-1.7.1-.8.5-1.4 1-1.9.3-.4.6-.7.9-1.2.4-.8.9-1.6.8-2.6 0-.2.1-.5.2-.7.3-.4.3-.8.3-1.3.1.2.1 0 .1-.4zm-98.9 35.9c-.2.3-.3.6-.5.9-.9 1.3-1.8 2.5-2.5 4-.3.7-.7 1.5-1 2.2-.9 1.7-1.7 3.4-2.6 5.1-.4.7-.5 1.5-.4 2.3.1.6 0 1.2-.2 1.8-.1.4-.2.8-.2 1.3s-.1.9-.4 1.2c-.5.4-.7 1-.6 1.7.1.8 0 1.5-.6 2.1-.4.5-.6 1.1-.5 1.8.1.8.3 1.5.5 2.3.3.8.8.9 1.4.3.6-.5 1.1-1.1 1.6-1.7 2-2.4 4-4.9 6.1-7.3 1.8-2.2 3.5-4.5 5.5-6.7.6-.6 1.1-1.4 1.5-2.1.5-1.1 1.2-2.1 2-3.1.5-.7 1-1.4 1.4-2.1.6-1.1 1.3-2.1 2.1-3.1.3-.3.5-.7.6-1.1.2-.6.5-1.2.9-1.7.3-.4.6-.9 1-1.3.2-.2.3-.5.5-.7.3-.5.3-1.1 0-1.6-.2-.3-.3-.6-.5-.9-.4-.6-.4-1.1 0-1.7.6-.8.8-1.7 1.1-2.6.4-1.3.9-2.7 1.3-4 .1-.5.3-.9.3-1.4.1-.9 0-1.8.1-2.8 0-.7-.2-1.3-.7-1.8-.4-.4-.7-.4-1.2-.1-.7.6-1.5 1.2-2.2 1.8-.4.3-.7.7-1.1 1-.7.6-1.4 1.3-2.1 1.9-.5.5-1.1.9-1.5 1.5-.8 1-1.6 2-2.4 3.1-.2.3-.3.7-.5 1-.1.4-.2.8-.4 1.2-.6 1.4-1.4 2.7-2.5 3.7-1.1 1.1-2.1 2.4-3 3.7-.3.6-.6 1.1-.3 1.9zm-5.7-7.1c.5.1 1 .4 1.3.9-.4.8.4 1.3.5 2l.1.1c.1 0 .3 0 .4-.1.2-.6.2-1.1-.3-1.5-.1-.1-.2-.2-.2-.3v-.4c.3.1.5.3.8.4.6-.5.8-1.3 1.3-1.9.1-.2 0-.5 0-.8 0-.1-.2-.2-.4-.3-.1.2-.2.3-.3.4-.4.6-.6.7-1 .3-.5-.8-.8-1.4-1.2-2-.1-.2-.4-.3-.6-.4-.3-.1-.7-.2-1-.3-.5.3-1.2.2-1.5 1 .1.1.2.2.3.2.4-.1.7-.2 1-.3.4.5.7 1 1.3 1.2-.1.4-.3.6-.5.8-.2.4-.3.7 0 1zm-9.8 18.5c-.3-.1-.5-.1-.7-.2-.2-.3-.3-.6-.4-.8-.6 0-.8.4-1.1.6-.4.4-.7.7-1.3.8-.1 0-.1.1-.3.1 0 .1-.1.4 0 .5.1.2.3.3.4.5.2.1.4.1.6.2 0 0 .1.1.1.2s-.1.2-.1.3c-.4.1-.8-.3-1.2 0-.3.2-.7.5-.9.8-.3.5-.5 1.1 0 1.6.4 0 .8.3 1.3.2-.1-.3-.2-.5-.3-.8-.1-.3 0-.5.2-.7.8-.7 1.7-.8 2.7-.3.2.1.4.2.6.1.2-.3-.1-.5-.1-.7-.1-.2-.1-.5-.1-.7-.9-.2-.9-.2-1.2-.6.1-.3.3-.3.6-.4h.9c.3 0 .4-.1.3-.7zm-.1 6.9c-.5-1.5-.5-1.5-1.2-1.7-.1.2-.2.3-.2.5.1.7-.3 1.1-.6 1.6-.8 0-1.6-.3-2.4.3.4.8.3 1.5.4 2.3-.1.4-.5.8-.1 1.2.4.2.8.3 1.2.5 0 0 .1-.1.2-.1-.1-.3-.3-.6-.4-.9.3-.2.5-.4.7-.6-.2-.3-.3-.5-.5-.7l1.5-1.2c.4-.4 1.1-.6 1.4-1.2zM144.8 82c.2-.2.3-.3.5-.4.2-.2.3-.4.3-.7 0-.3-.1-.5-.3-.6-.2-.1-.4 0-.6.1-.3.3-.7.6-1 1-.2.3-.4.7-.5 1.1-.1.3 0 .6.3.8.2 0 .4 0 .7-.1.3.4.5.8.8 1.2.2-.1.4-.2.5-.4-.1-.7 0-1.5-.7-2zm-12.5 25.5c-.3-.3-.5-.6-.9-.6-.7.5-.8 1.3-1.1 2-.1.3.2.6.5.6.4 0 .7-.2.9-.5.3-.5.5-.9.6-1.5zm6.9-15.1c.2.4.4.4.7.4.7-.1 1.4-.5 2.2-.3.2 0 .4-.1.4-.5-.3-.5-1-.2-1.3-.6H140c-.3.3-.6.6-.8 1zm-8.1 46.9c.3.1.5 0 .7-.2.2-.2.4-.3.7-.2.2.2.4.3.7.5.1-.2.2-.3.2-.4-.2-.6-.4-1-.6-1.5-.5-.1-1 .2-1.4.4-.1.1-.3.3-.3.4-.2.4-.3.7 0 1zm-3.3-26.4c-.1.6-.1.6.1 1 .7.4 1.2-.4 1.8-.2.3-.3.3-.6 0-.8l-1.2-.6c-.3.2-.5.4-.7.6zm56.3 14.3l.3-.3c0-.1 0-.2-.1-.3-.4-.6-.8-1-1.4-1.4-.4-.2-.9-.1-1.2.2-.2.2-.2.4 0 .6.6.2 1.3.4 1.9.5.1.1.1.2.2.3.1.1.1.2.3.4zm-58-10.5c.2.7.5.8.9.4.3-.4.7-.7 1.2-.9 0-.6-.3-.9-.7-1-.4-.1-.7 0-.9.3v.6c-.2.2-.4.4-.5.6zm-23.5 20c.2-.5.2-.9.1-1.2-.2-.4-.6-.8-1-.8-.2 0-.4.1-.5.4.2.3.3.7.4 1.1.1.6.4.7 1 .5zm-20.9 1.8h.8c.3 0 .5.1.8.1.3 0 .5.1.8-.1.1-.5.1-.6-.3-.7-.5-.1-.9-.2-1.4-.3-.3.2-.8.3-.7 1zm54.4-39.9c0-.9-.2-1.6-.6-2.2-.1-.1-.2-.2-.3-.2-.2 0-.3.2-.4.3.2.6.3 1.2.5 1.8.1.2.2.3.3.4.1 0 .3-.1.5-.1zM151.4 74c-.1.3-.2.5-.2.7 0 .2.1.4.3.5.2.1.4.1.6-.1.2-.2.2-.4.1-.7-.1-.2-.2-.4-.3-.5 0-.3 0-.5.1-.8-.2-.3-.5-.6-.7-.9-.1-.1-.2 0-.3 0-.1.8 0 1.1.4 1.8zm-26.1 36.6c0-.1.1-.2 0-.3-.1-.4-.2-.9-.1-1.3 0-.1-.2-.2-.3-.4-.4.2-.8.5-1.1.7-.1.6.3.9.6 1.2.3.2.6.3.9.1zm-37.5 7.9c.2-.3.4-.5.5-.8.1-.2.2-.5.1-.8-.2-.3-.4-.3-.7-.3-.3 0-.6.1-.7.5 0 .5 0 1.1.8 1.4zm3.8-6.8c-.1 0-.2-.1-.2-.1-.1.1-.2.2-.2.3 0 .6-.4 1.1-.2 1.6.1.2.2.5.5.6.4 0 .6-.3.7-.7-.2-.4-.4-.9-.4-1.4 0-.1-.2-.2-.2-.3zm45.6-9.2c-.2 0-.2-.1-.3-.1-.7.4-.9 1.1-1.2 1.7-.1.2 0 .5.1.8.1.3.3.4.7.3.1 0 .1-.1.2-.1-.1-.3-.2-.5-.2-.6 0-.4.1-.7.1-1.1l.6-.9zm13.4-32.7c1-.1 1.1-.2 1.2-1-.2-.2-.5-.4-.7-.7-.9.5-1.1 1.1-.5 1.7zM110.7 86c-.1.7.2 1.1.4 1.6.1.1.3.2.4.2.2 0 .4 0 .5-.2.2-.1.2-.4.1-.6-.2-.4-.5-.8-1-1-.1-.1-.2 0-.4 0zm65.4 3.8c.2-.1.4-.2.4-.3.2-.6.4-1.1.5-1.7.1-.2-.1-.4-.4-.5-.3.1-.6.3-.8.7l.3.6c-.1.3-.6.6 0 1.2zm-45.6 24.5c-.1.2-.2.3-.2.4.1.4.2.8.4 1.2.1.3.4.5.7.6h.6c-.1-.3-.1-.4-.2-.6l-.6-.9-.7-.7zm63.2-6.1c.2.1.4.2.5.2.2 0 .4-.1.5-.3.3-.4.4-.9.3-1.4 0-.2-.2-.3-.3-.4-.1-.1-.3.1-.3.1-.3.6-.5 1.1-.7 1.8zm-45.3-29.6c0-.5-.2-.8-.6-1-.3-.1-.6 0-.6.3-.1.4.1.9.4 1.2.2.2.6.2.7-.1 0-.2.1-.4.1-.4zm-13.5 27.2c0-.3-.1-.5-.3-.6-.3-.1-.5-.1-.8.1 0 .2-.1.4-.1.6-.2.3-.6.5-.3.9.1 0 .3 0 .4-.1.5-.2.8-.5 1.1-.9zm71.6-42.3c.3.6.9.9 1.3 1.4.1.1.3.1.5 0s.2-.4.1-.6l-.3-.3c-.4-.2-.7-.5-1.1-.7-.1-.1-.3-.1-.5.2zm-84 49c-.2.3-.3.4-.3.5 0 .4 0 .9.3 1.2.4.1.6 0 .8-.3.2-.3 0-.6-.2-.8-.2-.2-.3-.4-.6-.6zM85.1 140c-.1-.2-.1-.4-.2-.4-.4-.3-1.4-.1-1.7.2-.2.2-.1.6.2.7.2.1.4.1.6-.1.2-.1.3-.3.5-.4h.6zm38.7-18.3c.2 0 .3.1.5.1s.3-.2.4-.3c.1-.2.1-.4.1-.5 0-.2 0-.4-.2-.6-.2-.2-.5-.1-.7.1-.2.3-.2.7-.1 1.2zm56.7-44.8c-.8-.4-1.2-.2-1.6.7.3.4.8.3 1.2.1.3-.1.4-.4.4-.8zm-66 8.8c-.5.2-.7.6-.9 1.1-.1.4 0 .5.5.7.3-.4.5-.8.7-1.2.1-.3.1-.5-.3-.6zm16.2 18c.3-.3.3-.6.2-1-.5.1-.9-.3-1.4 0 0 .2 0 .4.1.5.3.3.6.6 1.1.5zm-15.2 19c.2.3.4.4.7.2.3-.1.6-.3.6-.7 0-.2-.1-.4-.3-.4-.3-.1-.5-.1-.7.2-.2.1-.4.3-.3.7zm24.6-36.2c-.2-.1-.4-.2-.6-.4-.1.2-.1.3-.2.4l.9.9c.3.1.6 0 .8-.3.1-.3 0-.5-.3-.7-.2.1-.4.1-.6.1zm-26.9 37.6c-.5-.4-.9-.5-1.3-.4-.1 0-.2.2-.3.4.5.3.8.6 1.3.7.4-.1.4-.4.3-.7zm7.8-14.5c.4-.1.4-.5.6-.7.2-.1.4-.2.6-.4-.5-.3-.9-.3-1.3-.2-.4.6-.4.9.1 1.3zm7.5 28.5c-.6.5-.4.9-.3 1.3.1.3.3.6.7.5.3-.5-.2-.9-.2-1.3.1-.1 0-.2-.2-.5zm8.2-38.4c.7.3 1.4 0 2 .2v-.4c-.4-.1-.8-.3-1.2-.4-.2 0-.4 0-.6.1-.1 0-.1.3-.2.5zm-2.7 11.4c.3-.4.4-.5.2-.7-.1-.2-.3-.4-.5-.6-.2-.2-.3-.1-.6.2.2.4.5.8.9 1.1zm48.1-38.2c0-.2.1-.3.1-.5-.6-.3-1.1-.4-1.6-.1.1.5.3.6 1.5.6zm-16.3-20c.1.4.3.5.6.3.4-.2.9-.2 1-.9-.7 0-1.2.1-1.6.6zm-60 40.3c-.1.5.2.7.5.8.2.1.4 0 .5-.1.1-.2.1-.4 0-.6-.2-.3-.4-.3-1-.1zM207.5 63c.2.2.4.2.7.1.2 0 .3-.2.4-.4 0-.2-.1-.4-.3-.5-.2-.1-.5-.1-.7.1-.2.2-.2.4-.1.7zm-94.2 22.4c-.3-.2-.6-.2-.8.1-.2.2-.1.5.1.7.2.2.4.2.6.1.2-.2.3-.4.1-.9zm22.7 15.8c.1-.4-.1-.7-.4-.8-.2-.1-.4-.1-.5.1-.1.2-.1.3-.1.5.2.3.4.4 1 .2zm-43.7 6.5c-.4-.1-.7-.1-.9.2-.1.3 0 .4.2.6.2.1.5.2.8 0-.1-.3-.1-.5-.1-.8zm100.6 2.4c.1.6.3.8.6.7.3-.1.4-.3.4-.8-.4-.3-.7-.1-1 .1zM121 128.2c-.5.3-.6.5-.5.8.1.3.3.4.5.3.4-.6.4-.6 0-1.1zm10.4-14.2c.2.7.2.7.8.8.1-.1.2-.3.2-.4 0-.1-.1-.3-.1-.4-.3-.3-.5-.3-.9 0zm-9.7 3.8c.1-.4 0-.7-.4-.8-.1-.1-.3 0-.4 0-.2.1-.2.3-.1.5.1.3.3.4.9.3zm48.7-75.9c-.1-.2-.3-.3-.5-.3-.4.1-.6.4-.6.7.6.5.8.4 1.1-.4zm-36 53.6c.4.2.6 0 .8-.3.2-.3.1-.5-.2-.7-.3-.1-.5.1-.6.3-.1.2-.1.4 0 .7zm-40.1 10.8c-.3.4-.3.7-.2 1.1.1.2.2.3.5.1.1-.3.2-.7.1-1.2h-.4zm16-19.4c0-.2-.2-.4-.5-.4s-.5.2-.5.5c0 .2.3.4.5.4.3 0 .5-.2.5-.5zm88.9 13.5c.2-.3.2-.5.1-.7-.1-.2-.3-.3-.5-.2-.2 0-.3.1-.4.4 0 .2.1.4.3.4.2.1.3.1.5.1zM108 96.3c-.4.1-.5.4-.5.7 0 .1.2.3.3.3.1 0 .3-.1.4-.2.1-.1.1-.3.1-.4 0-.2-.2-.3-.3-.4zm17.1 8.4c-.2.1-.3.2-.4.3-.1.1-.1.3-.1.5 0 .1.2.3.2.3.1 0 .3 0 .4-.2.3-.3.3-.5-.1-.9zm-1.2 13.8c-.1.4-.1.5 0 .6.2.2.5.2.7 0 0-.5 0-.5-.7-.6zm-4.2-2l-.3-.3c-.3-.1-.5.2-.5.5 0 .2.1.3.4.4.2.1.4-.2.4-.6zm-39.2 20.8c.4-.2.7-.4.6-.8-.3-.2-.5-.2-.7 0-.3.2-.2.4.1.8zm102.5-8.4c.2-.3 0-.6-.1-.8-.1-.2-.3-.2-.5-.1-.3.6-.1.8.6.9zM103.9 102c.8.4 1 .4 1.3 0-.4-.4-.6-.4-1.3 0zm30.9 35.2c-.1-.4-.3-.5-.6-.5-.1 0-.3.1-.4.2-.1.2 0 .4.2.5.3.1.6.1.8-.2zm42.3-63c-.2 0-.4.2-.5.4 0 .3.1.5.4.5.2 0 .4-.1.5-.4 0-.2-.2-.4-.4-.5zm-30.2 1.6c-.2.5-.2.6.1.8.3.2.4.2.7-.1-.1-.4-.4-.6-.8-.7zm-49.6 33.9c.4-.1.5-.2.5-.5s-.1-.4-.5-.5c-.3.6-.3.6 0 1zm84.6-42.3c-.1.3-.1.7-.2 1.1.3-.2.5-.4.7-.5.2-.2.2-.4 0-.6-.1-.2-.3-.2-.5 0zm-77.6 27.7c0-.2-.1-.4-.3-.5-.2 0-.5.1-.5.4 0 .3.2.5.4.5s.4-.2.4-.4zM125 108c0 .1 0 .1.1.2.1 0 .3.1.3 0 .3-.3.5-.7.7-1.2-.6.1-.8.6-1.1 1zm-42.6 33.3c.5-.4.5-.6 0-.9-.4.3-.4.5 0 .9zm63.1-64.2c-.2 0-.4.2-.4.4s.2.4.4.4.4-.2.4-.4c.1-.2-.1-.4-.4-.4zm8.6-11.5c.2-.4.2-.6 0-.8-.2-.2-.3-.2-.7.1.1.4.3.6.7.7zm-29.4 58.9c-.4-.3-.8-.1-1.1.1.6.3.8.4.9.3l.1-.1c0-.1 0-.2.1-.3zm55.2 4.2c-.3-.4-.5-.5-.8-.4-.2.1-.3.2-.2.5.3.2.6.1 1-.1zm-48.2-15.5c.3.1.5 0 .6-.2.1-.3 0-.5-.3-.6-.4.3-.4.3-.3.8zm10.1-25.1c0-.2-.1-.4-.3-.4-.2 0-.4.1-.5.3 0 .2.1.4.3.5.2 0 .4-.2.5-.4zm-28.1 34.1c-.1-.5-.3-.7-.6-.9-.3.1-.3.1-.3.5.2.1.4.4.9.4zm-30 13.7c.1.4.3.6.7.5.2-.3.2-.5 0-.6-.2-.2-.4-.2-.7.1zm99.2-74.1c-.3.3-.2.5 0 .7.1.2.3.3.5.2.1-.7.1-.7-.5-.9zm-45.8 21.6c.3-.4.6-.6.5-1-.4 0-.7.3-.9.6l.4.4zm-48.9 32.3c0-.2.1-.3.1-.4 0-.2-.1-.4-.4-.4-.2 0-.3.1-.3.3-.1.3 0 .5.3.6 0-.1.2-.1.3-.1zm107.6-59.9c0-.2-.2-.4-.5-.4-.2 0-.4.2-.4.5 0 .2.2.3.4.3.3.1.5-.1.5-.4zM120.2 119c-.2-.3-.4-.3-.7-.2-.2.1-.3.3-.2.5.5.2.5.2.9-.3zm55.8 6c-.2.2-.2.4 0 .6.2.2.4.2.6.1 0-.6 0-.6-.6-.7zm-14.3-82.8c.1-.3 0-.5-.2-.6-.3-.1-.5 0-.5.3.1.4.3.5.7.3zm-50.6 83.1c-.3 0-.4.1-.5.4 0 .3.1.5.4.5.4-.4.4-.4.1-.9zm23.7 13.3c-.6 0-.6.1-.6.6.2.2.4.2.6 0 .1-.1.2-.4 0-.6zm-44.7-5.7c-.4-.1-.5.1-.5.4 0 .3.1.5.5.4.2-.2.3-.5 0-.8zm1.6-16.4c-.2-.3-.4-.4-.7-.3-.1.3 0 .6.3.7.2 0 .4-.1.4-.4zm92.9-55.6c.3-.1.4-.3.3-.6-.2-.2-.4-.2-.6.1-.1.2 0 .4.3.5zm-42 22c0-.2-.2-.3-.4-.3s-.4.2-.4.3c0 .2.2.3.4.3.2.1.4-.1.4-.3zm-22.7 25.3c.3-.2.6-.4.7-.7-.1-.1-.2-.1-.3-.2-.2.3-.5.5-.4.9zm1.8-21.5c.1-.3 0-.5-.3-.5s-.5.1-.5.4c.3.3.5.3.8.1zm-13.4 3.7c.1-.4 0-.6-.4-.7-.3.1-.3.3-.2.5.1.2.3.3.6.2zm96.9-17.7c-.3 0-.4.2-.4.4s.2.3.3.3c.2 0 .4-.2.3-.4 0-.1-.2-.2-.2-.3zM136 106.5c-.1-.4-.3-.4-.6-.3 0 .1 0 .3-.1.4.3.3.6.2.7-.1zm55.6 4.5c-.3.2-.2.5 0 .6.2.1.3.1.5-.1-.1-.3-.2-.4-.5-.5zM143 90.7c-.3.5-.3.6.2.8.1-.4.1-.6-.2-.8zm-62.3 42.8c.3 0 .5-.1.5-.3 0-.1-.1-.2-.2-.3-.5.1-.5.3-.3.6zm24.7-36.7c.3-.1.4-.2.3-.4-.1-.2-.2-.3-.5-.2-.1.2-.1.4.2.6zm103.2-37.2c-.3.2-.3.4-.1.7.2.1.4 0 .5-.2 0-.2-.1-.4-.4-.5zM147.5 73c-.2-.4-.4-.4-.5-.3-.1.1-.1.3 0 .4.1.2.2.2.5-.1zm-9.2 28.3c-.6 0-.6 0-.4.5.4 0 .4 0 .4-.5zm25.2 23.5c.4-.2.4-.2.3-.6-.5 0-.6.1-.3.6zm-22.9-39.2c.3-.1.5-.3.5-.6-.6-.1-.7 0-.5.6zm5.8-16.9c.3 0 .4-.1.4-.3 0-.2-.1-.4-.4-.3-.2.1-.2.4 0 .6zm38.7 53.5c.3-.2.3-.4.1-.6-.5.3-.5.3-.1.6zm-58.9-8.1c.4 0 .5-.1.4-.4 0-.1-.1-.1-.2-.1-.2.2-.2.2-.2.5zm-45.7 20.4c-.4.3-.4.4.1.6.1-.3.1-.5-.1-.6zm42.7-48.3c0-.1.1-.1.1-.2l-.4-.4-.3.6h.6zm-7.4 5.8l-.4-.4c-.1.2-.2.4-.2.5.3.1.3.1.6-.1zm26.3 1c-.3.3-.3.5 0 .7.1-.1.2-.2.2-.3 0-.1-.1-.2-.2-.4zm8-17.7c-.3.2-.3.4 0 .6l.4-.4c-.2-.1-.3-.2-.4-.2zm-4.3-5.8c-.1-.3-.2-.4-.5-.3.1.6.1.6.5.3zm9.5-16.6c-.4-.3-.4-.3-.6.1.3.2.3.2.6-.1zM91 127.4c.3-.2.3-.4.1-.6-.5.2-.5.2-.1.6zm37-16.5c.3-.3.3-.5 0-.7-.3.3-.3.4 0 .7zm-34.5 9.8c-.3.1-.4.3-.3.5.2.2.4.1.5-.1 0-.1-.1-.2-.2-.4zm9-16.9c.3-.2.3-.3.1-.6-.1.1-.3.1-.5.2l.4.4zM122 124c.3-.4.3-.4 0-.6-.3.3-.3.3 0 .6zm17.9-43.3c.4-.2.4-.2.2-.5-.3.1-.3.1-.2.5zm66.8-15.2c.3-.4.3-.4-.1-.6-.2.2-.2.2.1.6zm-68.6 14.3c.3-.2.3-.3.1-.6-.1 0-.3.1-.5.2.1.2.2.3.4.4zm35.3 20.6c-.2 0-.3-.1-.5-.1v.5c.3-.1.3-.1.5-.4zm-82.8 29.4c.1-.4.1-.4-.3-.5-.1.4-.1.4.3.5zm28.1-42c-.4-.1-.5-.1-.5.2.2.2.2.2.5.1v-.3zm49.1-44.5c-.4-.1-.4-.1-.4.2.3.1.3.1.4-.2zm-28.5 32.8c0-.4-.2-.4-.4-.3-.1.3.1.4.4.3zm8.8 63.5c.2-.3.2-.3 0-.5-.3.2-.3.4 0 .5zm3-62.6h-.5c.2.3.2.3.5 0zM167 45.2h-.7c.1.2.2.3.4.5 0-.1.1-.2.3-.5zm-33.3 52.6l-.6.3c.3.1.4.2.5.3.1-.3.1-.4.1-.6zm29.7-57.1v.4h.3c.2-.3.1-.4-.3-.4zM148 81.6c-.1.1-.2.2 0 .4h.2c.1-.2 0-.3-.2-.4zm57.7-5.5c-.1 0-.1.1-.2.1 0 .1 0 .3.1.5.2-.1.3-.1.4-.2-.1-.2-.2-.3-.3-.4zm-67.5 17.1h.5v-.3c-.1-.1-.1-.1-.3-.2 0 .2-.1.3-.2.5zm12.9-22.6v-.2c-.1 0-.2-.1-.3-.1 0 0 0 .2-.1.3.2.1.3 0 .4 0zm-8.6 70.8c.1-.1.2-.2.2-.3 0-.1-.1-.2-.2-.2s-.2.1-.2.2c.1.1.2.2.2.3zm-21-26.8c-.1.1-.2.2 0 .4h.2c.1-.2 0-.3-.2-.4zm42.1-81.5c.2-.2.2-.4-.1-.5-.2.2-.2.4.1.5zM126.2 101c-.1-.1-.1-.2-.2-.1-.1 0-.1.1-.1.1l.1.1c.1.1.1 0 .2-.1zm11.9-11.3c.1 0 .1-.1.2-.1-.1-.1-.1-.2-.2-.2l-.1.1c-.1 0 0 .1.1.2zm33.5-49.6c.2-.3.2-.3-.2-.4-.1.2 0 .4.2.4zm-40.7 78.8c0 .1-.1.2-.1.2l.1.1c.1 0 .1-.1.1-.1 0-.1-.1-.1-.1-.2zm-1.9-1.1l-.2.2s.1.1.1.2c.1-.1.2-.1.2-.2.1 0 0-.1-.1-.2zm27-61.1c-.1.1-.1.1-.1.2s.1.1.1.2l.2-.2-.2-.2zm-68.1 69.5h.1c0-.1.1-.2.1-.2s-.1-.1-.3-.1c0 .1.1.2.1.3zm-6.8 12.4c-.1-.1-.1-.1-.2-.1s-.1.1-.2.1l.2.2.2-.2zm73.5-67.9c.1-.1.1-.1.1-.2s-.1-.1-.1-.2c-.1.1-.1.1-.1.2-.1 0 0 .1.1.2zm28.1-7.2c-.1-.1-.1-.1-.2-.1s-.1.1-.1.1c0 .1.1.1.1.1.1 0 .1 0 .2-.1zm-95 59c-.1-.1-.2-.2-.2-.1-.1 0-.1.1-.2.2.1 0 .1.1.2.1l.2-.2zm5.9-14.3c.1 0 .1-.1.1-.1 0-.1-.1-.1-.1-.2l-.1.1c0 .1 0 .2.1.2zm52.3-32.7s0-.1-.1-.1h-.1c0 .1.1.1.1.2l.1-.1zm-6.7 3.5c-.1-.1-.1-.1-.2-.1s-.1.1-.1.1l.1.1c.1 0 .1-.1.2-.1zm-12.9 42.2l-.1.1s.1 0 .1.1c0 0 .1 0 0-.1.1 0 0 0 0-.1zm14.3-24.5l-.1-.1-.1.1.1.1.1-.1zM122.5 116s-.1 0-.1.1c0 0 0 .1.1.1 0 0 .1 0 .1-.1l-.1-.1zm-32.1 15.3l.2-.2-.1-.1c-.1 0-.1 0-.2.1 0 0 .1.1.1.2zm80.7-18.7l.1-.1-.1-.1-.1.1c0 .1.1.1.1.1zm36.1-52.1s.1 0 .1-.1c0 0 0-.1-.1-.1s-.1.1-.2.1l.2.1zM101.6 109l-.1-.1-.1.1.1.1.1-.1zm72-4.4s.1 0 0 0c.1-.1.1-.2 0-.2l-.1.1.1.1zm-53.1 9.9s-.1 0-.1-.1l-.1.1.1.1c.1 0 .1 0 .1-.1zm51.1-73.6s0-.1-.1-.1c0 0-.1 0-.1.1 0 0 0 .1.1.1s.1 0 .1-.1zm-30.3 53.7h-.1v.1l.1-.1c-.1.1 0 0 0 0zm-35.9-1.9l.1.1c0-.1 0-.2-.1-.1.1-.1 0 0 0 0zm-.9 42.5s0 .1-.1.1h.1v-.1c0 .1 0 0 0 0zm62.1-85.8c-.1-.1-.1 0-.1 0s.1.1.1 0c0 .1 0 0 0 0zm-57.1 78.2v-.1.1zm-12.8-12zM153.6 62s0-.1 0 0c0-.1 0-.1 0 0-.1-.1-.1 0 0 0-.1 0 0 0 0 0zm-9.5 78.2c0 .1 0 .1 0 0 0 .1 0 0 0 0zm34.5-65.3c0 .1 0 .1 0 0 0 .1.1 0 0 0zm-49 34.6c-.1 0-.1 0 0 0-.1 0-.1 0 0 0-.1 0-.1.1 0 0-.1.1-.1 0 0 0zm42-1.9s0-.1 0 0zm-65.5 26.5zM187.2 62c-.1 0-.1 0 0 0-.1 0-.1 0 0 0-.1.1-.1.1 0 0-.1.1-.1 0 0 0zM217.7 78.9c.5-.1.8.2 1.1.6 0 .2.1.4.1.7 0 .8-.2 1-1.1 1.1-.1-.1-.3-.2-.4-.3-.2-.1-.3-.2-.4-.2-.1-1.2-.1-1.3.7-1.9zM24.3 166.3v-.8c-.3-.4-.6-.8-.4-1.4.4-.1.7-.2.9.2 0 .2-.1.5-.2.8.2-.1.3-.1.5-.2.5-.2.8-.1.9.4v.4c0 .1 0 .3-.1.4l-.6.3c-.1-.2-.1-.3-.2-.4-.2.2-.4.2-.8.3zM83.9 107.7c.6-1 .9-1 1.6-.2.1.9-.1 1.1-1.1 1.1-.1-.3-.3-.6-.5-.9zM135 17.2c.4.3.8.6 1.1 1-.1.4-.4.5-.6.6-.5.3-1.2 0-1.2-.6 0-.4.1-.8.7-1zM28.9 164.3c.5 0 .9.1 1.3.4.1.1.1.3.2.4-.3.4-.6.4-.9.6-.9-.4-1-.7-.6-1.4zM213.1 88.5c.4-.2.8-.2 1.1.1.2.3.3.7 0 1.1h-.9c-.4-.5-.3-.8-.2-1.2zM77.9 119.5c.2-.5.3-.9.5-1.4.4 0 .6.3.6.6.1.4-.1.7-.4.9-.2.1-.5.2-.7-.1zM70.4 112.9c.2-.4.4-.6.8-.5.3.1.7.2.7.6-.3.3-.6.4-1 .4-.2 0-.4-.1-.5-.5zM70.3 117.6c-.1-.4-.2-.7-.3-1l.6-.6c.3.1.4.2.4.4 0 .4-.1.9-.7 1.2zM142 11.8c.2-.6.3-.6 1.1-.3v.4c-.4.2-.8.2-1.1-.1zM129.6 23.5c.1-.1.3-.2.4-.3h.5c.2.1.2.2.2.6-.7.3-.9.3-1.1-.3zM75.8 125.2c.4-.1.6 0 .7.3.1.3 0 .4-.4.7-.5-.2-.4-.6-.3-1zM63.3 130.7c.6 0 .6 0 .6.7-.1 0-.1.1-.2.2h-.3c-.3-.3-.2-.6-.1-.9zM14.1 172.6c.4-.2.8-.4 1.2-.7.1.5-.2.7-.5.9-.2.1-.4.2-.7-.2zM62.5 39.9c.1.4.2.8-.1 1.1-.4-.1-.4-.3-.4-.6.1-.3.1-.5.5-.5zM54.6 39.9c-.3.3-.5.3-.8.1 0-.5.3-.5.6-.6.1.2.2.3.2.5zM64.9 124.8c.1.6.1.6-.2.8-.3-.5-.3-.6.2-.8zM164.7 26.1v.7c-.4 0-.4-.2-.4-.4s.1-.4.4-.3zM61.9 43.3c.2.2.2.4.1.6h-.2c-.2-.3-.2-.4.1-.6zM68.9 38.8c.2.2.2.3 0 .5-.3-.2-.3-.2 0-.5zM54 41.9l-.1.1-.1-.1c.1 0 .1-.1.2-.1-.1 0 0 .1 0 .1zM179.1 28.7s.1 0 0 0c.1 0 .1 0 0 0 .1.1 0 .1 0 0zM52.4 40.3s0 .1-.1.1l-.1-.1v-.1c.1.1.2.1.2.1zM85.9 60.1c-.2.1-.2.1-.3.2-.4-.3-.4-.3-.3-.9.3.1.5.3.6.7z"/><path d="M176.1 100.6c-.6-.6-.8-1.3-.5-2.1.5-.2 1-.2 1.5-.1.6.7.4 1.3.1 2-.5.3-.5.3-1.1.2zM180.1 89.4c.5.9.5 1.1-.1 1.8-.7.1-1.1-.2-1.4-.9.1-.2.2-.5.3-.8.4-.2.8-.2 1.2-.1zM186.3 79.5s0 .1-.1.1l-.1-.1v-.1c.1.1.1.1.2.1zM125.3 112c-.1 0-.2.1-.2.1v-.1h.2z"/></svg>