<svg xmlns="http://www.w3.org/2000/svg" viewBox="0 0 289.4 246.9"><path d="M101 40.4c.1.3.1.7.6.8.5.1.8-.1 1-.5.4-.9 1-1.2 2-1.1.4.1.8 0 .8-.6-.1-.1-.4-.3-.5-.5-.1-.2-.1-.4-.1-.6.2 0 .5-.1.7 0 .2.1.4.3.6.5.8-.8 1.8-.7 2.8-.9.3-.1.7-.3.9-.6 1.6-1.6 3.1-3.2 4.7-4.8 1-1 1.8-2.2 3.1-2.8.6-.3 1.3-.5 2-.6.8-.2 1.6-.3 2.4-.4.6-.1 1-.4 1.3-1 .2-.5.6-.6 1.1-.4.9.3 1.7-.1 2.3-.7.3-.3.6-.4 1-.5.9-.1 1-.3.8-1.2v-.7h.2c.1.2.2.3.3.5.3.6.5.7 1.1.5.2 0 .4-.1.5-.2 1.2-.7 2.4-1.3 3.5-2.1.4-.2.6-.7.9-1.1.2-.4.5-.7 1-.5.8.3 1.3 0 1.9-.5 1-.8 2.2-1.3 3.4-1.6 1-.3 1-.2 1.2-1.3.1-.6.4-.8 1.1-.7 1.2.2 2.2-.2 3.2-.7.6-.3 1.2-.7 1.3-1.4 0-.1.1-.2.2-.3.1 0 .2-.1.2-.1 1.3.6 2.2-.4 3.2-.9s1.9-1 2.9-1.5c1.1-.6 2.2-1.1 3.3-1.7.3-.1.6-.3.9-.4 1-.3 2-.7 3-.9 1.1-.2 2-.9 3-1.4.7-.3 1.4-.6 2.1-.8l3.9-1.2c.4-.1.6-.4.6-.8h5.3c-.1.6.4.8.8.9 1 .3 2 .7 2.9 1 .8.3 1 .6.9 1.5-.1.5-.2 1-.4 1.5-.1.2-.2.3-.2.5-.2 1.7-1.4 2.6-2.6 3.6-.9.7-1.7 1.1-2.9 1-1.4-.1-2.5.7-3.7 1.3-1.1.6-2.3 1.1-3.5 1.5-1.8.5-3.5 1-5.1 2-2 1.3-4 2.5-6.1 3.7-.7.4-1.5.6-2.2 1-1 .5-2 1.1-3 1.6-.6.3-1.2.5-1.8.7-.7.2-1.5.3-2.2.5-1.2.4-2.2 1.1-3.2 1.9-.9.8-1.9 1.4-3.2 1.7-1.5.4-3 1-4.3 2.1-.8.8-1.9 1.1-2.9 1.4-1.5.3-2.9 1-4.3 1.8-.9.5-1.7.9-2.6 1.4-.9.4-1.8.7-2.6 1.2-.8.4-1.6.9-2.4 1.4-.4.2-.9.4-1.3.5-1.2.3-2.2.9-3.1 1.6-.4.3-.7.8-.8 1.3 0 .4-.3.7-.7.9-.4.2-.8.5-1 .9-.8 1.3-1.6 2.6-2.3 3.9-.3.5-.5 1.2-.5 1.8-.1 1.6-.8 2.8-1.6 4.1l-1.8 3c-.2.3-.3.8-.3 1.1-.1 1.1-.7 2-1.6 2.7-.9.6-.8.7-.5 1.7.1.3.1.6.1.8-.1.5-.3 1.1-.5 1.6-.4 1-.9 2-1.4 3L103 73c-.1.3-.1.8.1 1.2.2.6.1 1.2-.3 1.7-1.4 1.9-2.3 4-2.8 6.3-.2.7-.1 1.4-.3 2.1-.1.5-.5 1-.7 1.6-.3 1.1-1 2.1-.7 3.4.1.5.1 1 0 1.4-.4 1.3-.8 2.7-1.3 3.9-.7 1.8-1.4 3.5-2.2 5.2-.5 1.1-.9 2.2-1.4 3.3-.2.5-.6.9-.9 1.3-.5.5-.8 1-.8 1.7 0 .9-.2 1.7-.8 2.4-.2.3-.4.7-.6 1-.3.5-.4 1.1-.1 1.7.5 1 .4 2-.1 3.1s-.6 2.4-1 3.6c-.2.8-.5 1.5-.7 2.3-.2.7-.5 1.4-.6 2-.1 1.7-.8 3-1.7 4.4-.6 1-1.1 2.1-1 3.3 0 1-.3 1.8-.8 2.6-.8 1.2-1.4 2.5-1.7 3.9-.2 1-.8 2-1.4 2.9-.4.6-.5 1.2-.5 2 0 1.5 0 3-.1 4.5 0 .3-.2.6-.4.8-1.2 1.1-1.7 2.7-2.5 4.1-.2.3-.3.6-.5.9-.2.5-.4 1-.5 1.5-.1.3 0 .6-.1.8-.8 1.5-.6 3.3-1.6 4.8-.3.5-.4 1.3-.3 1.9.2 1.8-.7 3.3-1.4 4.8-.2.5-.5 1-.7 1.4-.3.6-.3 1.1-.1 1.7.3.7.1 1.4-.2 2.1-.3.5-.5 1.1-.6 1.6-.1 1.2-.6 2.1-1.3 3.1-.4.7-.9 1.4-1.1 2.2-.4 1.9-1.3 3.6-2 5.5-.1.4-.3.8-.4 1.2-.2 1.8-.3 3.7-.5 5.5 0 .4-.1.7-.2 1.1-.4 1.4-.9 2.8-1.4 4.3l-.6 1.5c0 .1-.1.2-.1.3-.4 1.8-1.4 3.5-1.4 5.4 0 .7-.2 1.4-.3 2.1-.1.5-.2 1-.1 1.4.2 2-.4 3.8-.9 5.6-.3 1.1-.5 2.3-.6 3.4-.1.8-.2 1.5-.5 2.2-.4.9-.7 1.8-.8 2.8-.3 1.7-.5 3.4-1.2 5-.4.8-.7 1.6-1.1 2.4-.9 1.6-2.4 2.3-4.2 2.5-1.3.2-2.6 0-3.8-.4-1.2-.3-2.3-.6-3.5-.4-.2 0-.5 0-.7-.1-1-.9-2-1.7-1.8-3.2.2-1.4-.2-2.6-1.2-3.8-.3.2-.5.4-.8.6-.4.2-.7.4-1.1.5-.2 0-.5-.2-.5-.3-.1-.2.1-.5.2-.6.9-.6 1.5-1.3 1.9-2.3.1-.3.4-.5.7-.7.5-.4.7-.8.7-1.4.1-1.5.2-3.1.3-4.6.1-1.1.4-2 1.1-2.9.2-.2.3-.5.3-.8 0-1.3.8-2.1 1.7-2.8.6-.5 1.1-1.1 1.4-1.8-.9-1.1-1.5.3-2.4.2-.1-.3-.2-.5-.2-.8.2-.9.5-1.8.7-2.7l.6-1.8c.3-.8.5-1.6.8-2.4.2-.5.4-1 .2-1.5-.3-.8-.1-1.5.3-2.3.3-.6.5-1.3.5-2 0-1.8.6-3.4 1.3-5.1.1-.1.2-.3.2-.4.3-1.5.7-3 1.5-4.4.1-.2 0-.6 0-.9 0-.2-.1-.5-.2-.7-.1-.8.3-1.2 1-1.4.3-.1.6-.2.7-.4.1-.2-.1-.5-.3-.7-.3-.3-.4-.7-.3-1.2.4-1.5.7-2.9 1.6-4.2.6-1 1.2-2 1.3-3.2 0-.3.2-.6.4-.9.4-.4.5-.9.4-1.5-.1-.7 0-1.3.3-1.8.1-.2.2-.4.2-.7 0-.9.3-1.6.6-2.4.7-1.8 1.4-3.7 2.1-5.5 1.1-2.6 2.2-5.1 2.7-7.8.9-1.4.9-3.1 1.6-4.6.9-2.2 1.7-4.4 2.5-6.6.6-1.6 1-3.2 1.5-4.9.1-.4.1-.8.3-1.2l.6-1.8c0-.1.1-.1.1-.2.2-1.6 1.3-2.7 2-4v-.1c.4-1.4.9-2.9 1.2-4.4.1-.5.3-.8.6-1.2.7-.9 1.4-2 1.3-3.2-.1-1.1.2-2.1.8-3.1.4-.7.8-1.3 1.1-2 .2-.6.3-1.2.4-1.8.1-1.9.8-3.7 1.4-5.5.5-1.4 1.3-2.7 2.1-3.9.4-.7.8-1.5 1.1-2.2.4-1.2.8-2.4 1.2-3.5.1-.3.3-.6.4-.9.2-.5.6-1 .7-1.5.5-2.2 1.5-4.3 2.3-6.4.2-.5.3-1.1.4-1.7.1-.7 0-1.5.1-2.2 0-.4 0-.9.3-1.1.9-1.2 1.2-2.7 1.7-4 .5-1.3 1-2.5 1.5-3.8.5-1.2 1-2.4 1.4-3.6.2-.5.1-1.1 0-1.6-.2-1 0-1.7.8-2.3 1.2-.8 1.8-2 2.2-3.3.3-.9.8-1.8 1.2-2.7.4-.9.9-1.7 1.4-2.5.2-.4.4-.9.5-1.4.1-.8-.4-1.3-1.3-1.2-.3 0-.6 0-.9.1-.4.1-.8.3-1.2.5-.5.2-1 .5-1.5.8-1.1.5-2.2.9-3.2 1.5-1.4.8-2.6 1.7-4.3 1.9-.7.1-1.4.6-2.1 1-1.6.8-3 1.9-4.7 2.2-.6.1-1.1.5-1.6.9-.9.7-1.8 1.4-3 1.7-1.1.3-2 .9-3 1.5-1.1.6-2.2 1.2-3.4 1.8-.4.2-.7 0-1-.4-.2-.2-.3-.5-.5-.7-.2-.3-.5-.5-.9-.3s-.4.6-.2 1c.1.2.3.4.5.6.3.4.3.7-.1 1-1.3.9-2.5 1.7-3.8 2.6-.2.1-.3.3-.5.3-.7.2-1.3.6-1.8 1.1-.2.2-.4.2-.7.4-.4-.5-.7-1-1-1.4-.4-.4-.7-.9-1.3-.7-.7.3-1.1.9-1.1 1.6v1.8c0 .5-.2.8-.6 1-.5.2-.8.2-1.2-.2-.6-.7-.9-.7-1.6-.1-.2.2-.5.4-.7.4-.8.1-1.4.5-2 1-.5.4-.8.8-.7 1.4 0 .7-.3 1.3-1 1.4-1.4.2-2.3 1.2-3.5 1.7-1.3.5-2.1 1.5-3 2.5-.8 1-1.9 1.9-2.9 2.7-.2.2-.4.3-.6.3-.2 0-.5-.1-.6-.3-.1-.2 0-.4.1-.6.1-.2.3-.2.4-.4.5-.5.4-1.4-.1-1.9-.6-.5-1.4-.3-1.6.6-.3 1.5-.3 1.5-1.9 1.5-.6 0-1.1.2-1.6.6-.2.2-.6.3-.9.3-.4-.1-.4-.5-.4-.8v-.3c-.1-.3-.2-.6-.6-.6-.4 0-.5.3-.5.7v.7c0 .2-.1.4-.1.6-.9-.3-1.6 0-2.4.6-.1-.4-.2-.6-.3-.8-.1-.6-.4-.9-1-1.1l-1.2-.3c0-.2-.1-.3 0-.4.2-.6 0-1-.6-1.3-.5-.2-.7-.6-.8-1.1-.1-.4-.2-.7-.2-1.1-.1-1.4-.1-1.4-1.4-1.5-.3 0-.7-.1-.8-.5.3-.5.8-.8 1.5-.5.7.4 1.4.3 2.1 0 .3-.1.8 0 1.2 0 1.5.1 2-.3 2.3-1.8.1-.6.4-1.2.7-1.7.5-.8 1.2-.8 1.9-.2.5.4.9.7 1.6.6.2 0 .4 0 .5-.1.9-.9 2.4-.8 3.3-1.8.2-.2.6-.2.9-.2.2 0 .4.1.6.2 1 .2 1.4-.2 1.2-1.3 0-.1 0-.3-.1-.5.8-.4 1.5-.8 2.3-1.1.2-.1.5.2.8.4.3.1.6.4.8.4.2-.1.4-.5.5-.7.1-1.1.7-1.7 1.6-2.1 1.6-.8 3.1-1.7 4.7-2.5 1.1-.6 2.2-1.4 3.3-2l.6-.3c1.2-.2 2.2-1 3.2-1.6.5-.3 1-.5 1.5-.8 1.3-.6 2.6-1.1 3.9-1.8 2.1-1.1 4.2-2.1 6.2-3.4 1-.7 2.2-1.3 3.5-1.4.3 0 .7-.3 1-.5.7-.7 1.5-1.2 2.6-1.5.9-.3 1.7-.8 2.5-1.3.3-.2.6-.4 1-.6 1.1-.6 2.2-1.1 3.3-1.6.8-.4 1.7-.9 2.5-1.1 1.2-.3 2.2-1.1 3.3-1.6.3-.1.5-.3.8-.4.7-.3 1.4-.7 2.1-1 .8-.4 1.7-.8 2.5-1.2.2-.1.4-.2.6-.4 1-.7 2.1-1.3 3.4-1.4.9-.1 1.8-.4 2.1-1.5.1-.4.5-.6.8-.4.7.6 1.4.2 2-.1-.1 0 0-.1.2-.1zm-29.8 87.9h.2c.6-.5 1.2-.9 1.7-1.4.2-.2-.1-.7-.4-.7-.3 0-.6.1-.9.3l-.9.6c-.3.2-.6.3-.5.8 0 .4.3.4.8.4zM52 220.9c-.2.2-.4.3-.4.4 0 .2.1.4.3.5.5.2.8.5.9 1.1 0 .1 0 .2.1.2.2.1.5.4.7.3.2 0 .5-.3.5-.5s-.1-.5-.2-.8c-.1-.1-.3-.1-.5-.2l-.9-.6c-.1 0-.3-.2-.5-.4zM96.3 78.6c.4-.7.6-1.3.6-2-.1-.5-.4-.7-.9-.6-.4.1-.6.4-.5.9.2.5.5 1.1.8 1.7zm-38-10.5c.6 0 1-.3.9-.7 0-.4-.4-.7-1-.7-.5 0-.9.3-.9.7.1.4.4.7 1 .7zM95.2 89c.2-.1.3-.1.4-.2.4-.4.7-.9 1.1-1.4.1-.1 0-.4-.1-.5-.2-.1-.4-.1-.6 0-.4.3-.7.5-1 .9-.1.2-.2.5-.2.7.1.2.3.4.4.5zM42.6 78c0-.5-.2-.8-.6-.8-.4 0-1.1.7-1.1 1.1 0 .4.4.5.7.6.6 0 1-.3 1-.9zm4.5 132.5c-.6-.5-1.1-.4-1.4 0-.4.6-.3 1 .4 1.4.4-.3.8-.7 1-1.4zm16.6-42.8c.1 0 .2-.1.3-.1.4-.4.7-.7 1.1-1.2.1-.1 0-.4-.1-.5-.1-.1-.4-.1-.6 0-.4.3-.7.6-1 .9-.1.1-.1.4-.1.6.1.1.3.2.4.3zM83.9 51.4c.6 0 1-.2 1-.6 0-.5-.4-.6-.8-.6-.6 0-1 .2-1 .6.1.5.5.5.8.6zm-47.3 24c-.1-.1-.3-.4-.6-.5-.4-.1-.9.3-.9.7 0 .4.3.7.7.7.4 0 .7-.3.8-.9zm16.9-4.8c-.1-.1-.3-.4-.6-.5-.3-.1-.6.3-.6.8 0 .4.1.7.6.7.3.1.6-.3.6-1zm40.5-23c.5-.1.8-.4.7-.8 0-.4-.3-.6-.7-.6-.4 0-.9.3-.7.6.2.4.5.6.7.8zm4.2-1.2c.1-.1.4-.3.5-.6.1-.4-.3-.6-.7-.6-.4 0-.7.1-.8.5 0 .5.3.7 1 .7zm-35.6 16c.3-.4.6-.6.7-.8.1-.4-.3-.5-.6-.5-.4 0-.8.1-.7.5-.1.3.3.5.6.8zm33.5 22.1c-.4-.3-.6-.6-.8-.7-.4-.1-.6.3-.6.7 0 .3.2.7.5.7s.5-.4.9-.7zm-4.8-30.8c-.2-.5-.6-.5-.9-.4-.2.1-.3.3-.4.5 0 .1.2.4.4.4.5.2.8 0 .9-.5zm-16.7 87.2c.6-.6.6-.9 0-1.3-.7.5-.7.8 0 1.3zm20.5-90.3c-.4-.3-.6-.6-.8-.6-.2 0-.4.3-.5.6-.1.4.2.7.5.6.3 0 .4-.3.8-.6zm.2 41.8c-.3.3-.5.5-.5.7-.1.3.2.6.5.5.2 0 .5-.3.5-.5 0-.1-.3-.3-.5-.7zm-6.9-40.9c.2-.3.5-.5.5-.7 0-.2-.3-.5-.5-.5s-.5.3-.5.5.2.4.5.7zm-28.9 19c-.3-.2-.5-.5-.6-.4-.2 0-.5.3-.5.5s.3.5.4.5c.2-.1.4-.3.7-.6zM45.9 224c.2-.3.5-.4.5-.6 0-.2-.2-.3-.4-.5-.2.2-.4.3-.5.5 0 .1.2.3.4.6zm14.8-48.6c-.2.3-.4.5-.4.6 0 .2.3.4.4.4.1 0 .4-.3.4-.4.1-.2-.1-.3-.4-.6zm11.9-36.2c.2-.3.4-.5.4-.6 0-.2-.3-.3-.4-.5-.2.1-.4.3-.4.5 0 .1.2.3.4.6zm-7.9-75.9c.2-.3.4-.5.4-.7 0-.1-.3-.4-.4-.4-.2 0-.4.2-.4.4s.2.3.4.7zm3.9 100.3c-.2.3-.4.5-.3.6.1.2.3.3.5.4.1-.2.3-.3.3-.5 0-.1-.3-.2-.5-.5zm33.2-113.8c-.3-.2-.4-.4-.6-.4-.1 0-.4.3-.4.4.1.2.2.4.4.4.1 0 .3-.2.6-.4zM44.2 218.4v.3c.2 0 .4 0 .6-.1v-.2h-.6zm.8-4.5c.1-.1.3-.2.2-.3 0-.1-.1-.2-.2-.2s-.2.1-.2.2c0 0 .1.1.2.3zm54.2-163v-.2h-.5v.2c.1.1.2.1.3.2.1-.1.1-.2.2-.2zM49.1 214.3h-.2v.6l.3-.3c0-.1-.1-.2-.1-.3zm16.8-70.7c-.1-.1-.1-.2-.1-.2-.1 0-.1 0-.2.1 0 .1.1.2.1.2.1 0 .2-.1.2-.1zM58.8 181c-.1 0-.1 0 0 0 0 .1 0 0 0 0zm44.9-129.3c-.1 0-.1.1 0 0-.1.1 0 .1 0 0 0 .1 0 0 0 0z"/><path d="M150.5 167.2c-.2.2-.4.4-.4.6-.1 1.1-.8 1.8-1.3 2.7-.6 1.2-1.1 2.4-1.7 3.6-.6 1.3-1.2 2.5-1.8 3.8-.5 1-.9 2.1-1.4 3.1-1 2.2-2 4.3-3.4 6.3-1.3 1.9-3.2 3.2-4.8 4.7-.9.9-2 1.6-2.9 2.5-.5.4-1.1.6-1.8.5-1-.1-1.9-.3-2.9-.4-.6-.1-1.3-.1-1.9-.4-1.8-.8-3.3-1.9-4.4-3.4-.6-.8-.7-1.9-.9-2.9-.1-.5.1-1.1.1-1.7.1-1 .1-2 .1-3v-.4c.1-2.2.2-4.4.5-6.5.2-1.7.9-3.3 1.3-4.9.2-.7.5-1.5.5-2.2.1-2.2.5-4.3 1-6.5.4-1.6 1-3.2 1.5-4.8.3-1 .8-2 1.2-3v-.1c.1-1.9 1.2-3.6 1.4-5.5v-.3c-.3-1.4.5-2.5 1.2-3.6.3-.6.4-.7 0-1.3-.2.1-.4.2-.5.3-1.3 1.8-3 3.1-4.9 4.3-.1 0-.1.1-.2.1-1.6 1.3-3.2.9-4.9.3-1-.3-1.7-.9-2.4-1.8-1.1-1.4-1.8-3-2.5-4.6-.2-.4-.4-.9-.8-1.2-.5-.5-1-.4-1.3.2-.4.7-.8 1.5-1 2.3-.4 1.4-.6 2.9-1 4.4-.5 1.9-1.1 3.8-1.7 5.7 0 .1-.1.3-.1.4-.4 1.7-.7 3.3-1.2 5-.4 1.6-1 3.2-1.6 4.8-.4 1.1-.9 2.2-1.2 3.3-.5 1.4-.8 2.8-1.3 4.2-.4 1.2-.9 2.4-1.4 3.6-.1.2-.2.4-.2.6-.6 2.2-1.3 4.4-1.9 6.6-.2.7-.1 1.5-.2 2.2l-.3 2.4c-.2 1-.4 1.9-.6 2.9-.5 2.3-1.1 4.7-1.6 7-.1.3-.2.6-.4.8-.6.8-.7 1.7-.9 2.6-.2.8-.4 1.5-.6 2.3 0 .1-.1.2-.1.3-.5 1.8-.9 3.6-1.3 5.4-.3 1.2-.9 2.2-2 2.8-.6.3-1.3.4-1.9.2-1.2-.5-2.5-1-3.7-1.5-1.3-.6-1.8-1.8-1.5-3.2.1-.5.2-.9.3-1.4.4-2 .7-4 1.1-6 .1-.3.1-.7.1-1 0-1.2.2-2.4.5-3.5.2-.6.1-1.3.1-1.9 0-.6 0-1.1.1-1.7 0-.3.2-.5.2-.8.1-1.6.5-3 1.4-4.4.2-.4.1-.9.1-1.4 0-.4-.1-.8.1-1.2.6-1.2.5-2.4.4-3.7 0-.5-.1-1.1-.1-1.6 0-.8.2-1.5.7-2.1.5-.6.5-1.2.3-1.9-.3-.9-.1-1.8.4-2.5.7-1 .7-2.1.6-3.3-.1-.6-.1-1.2 0-1.8.1-.6.4-1.1.6-1.7.2-.5.4-.9.4-1.4.1-1.1.1-2.2.3-3.2.3-1.4.5-2.9.6-4.3.1-.8.4-1.6.6-2.4.1-.6.3-1.1.4-1.7.2-1.3.3-2.7.6-4 .3-1.9.8-3.7 1.1-5.6.2-1.3.4-2.7.6-4 0-.3 0-.7-.1-1-.2-.6-.1-1 .3-1.4.7-.6.6-1.5.5-2.3 0-.2-.4-.4-.7-.5-.2-.1-.5-.1-.7-.2-.1-.6.3-.8.6-.9 1.2-.3 1.5-1.3 1.7-2.4.4-2.2.7-4.4 1-6.6.1-.5-.1-1-.2-1.5 0-.1-.2-.1-.3-.2-.9.1-.3 1.4-1.3 1.5-.1-.2-.3-.4-.3-.7.1-.9.1-1.8-.8-2.4.3-.6.7-.8 1.2-.5.4.2.7.5 1.1.7.6-.3.5-.7.5-1.1v-4.1c0-1.6.9-2.6 2.1-3.5.5-.3 1-.7 1.6-1 1.2-.8 2.6-1.1 3.9-1.3.4-.1.8 0 1.1.2.5.3 1 .7 1.4 1.2.6.6.6 1.2.1 1.9-.8 1.1-1.4 2.3-1.5 3.6-.1.5-.1 1-.1 1.5.1 1 0 1.9-.3 2.8-.1.4-.3.9-.3 1.3l-1.5 10.2c-.1.9-.4 1.7-.5 2.6-.1.9-.2 1.9-.3 2.8-.1.6-.2 1.2-.4 1.8-.2.5-.3 1.1-.1 1.6.1.5 0 .9-.2 1.3-.3.9-.6 1.8-.8 2.7-.1.4-.1.8.4 1 .5.2.8-.1 1-.5.8-1.3 1.3-2.6 1.6-4.1.5-2.2 1.2-4.3 1.9-6.4.4-1.1 1-2.1 1.4-3.2.5-1.2.9-2.5 1.3-3.8l1.5-4.5c.1-.3.3-.6.3-1 .2-1.4 1-2.5 1.7-3.7.6-1.2 1.1-2.4 1.6-3.7.6-1.7.9-3.5 1.7-5.1l.9-2.1c.8-1.6 2-2.6 3.7-3.2.9-.3 1.6-.9 2.4-1.3.2-.1.5-.3.7-.4.7-.1 1.4-.7 2.1-.1.8.8 1 2.1.6 3.1-.5 1.5-1.4 3-1.7 4.6-.1.9-.7 1.7-.9 2.5-.5 1.5-1 3.1-1.4 4.7-.7 2.3-1.5 4.6-2 7-.5 2.2-1.4 4.4-1.2 6.8 0 .4-.1.7-.2 1.1-.7 2.8-.3 5.4 1 7.9.5 1 1.3 1.9 2 2.9.4.5.8.6 1.3.1.9-.9 1.8-1.9 2.7-2.8 1.3-1.3 2.5-2.7 3.7-4.1.7-.8 1.3-1.7 2-2.5l.3-.6c.3-.7.5-1.4.8-2.2.4-1.2.9-2.3 1.4-3.5.4-1.1.8-2.1 1.2-3.2.1-.3.2-.8.1-1.1-.4-1.2.2-2.1.7-3 .4-.8.9-1.6 1.3-2.5.3-.7.3-1.5-.1-2.1-.4-.6-.4-1.2.2-1.7.1-.1.3-.3.3-.5.8-1.9 1.5-3.8 2.3-5.8.5-1.3 1-2.5 1.5-3.8.1-.3.2-.5.3-.8.3-1.6 1.3-2.8 2.5-3.9.4-.3.7-.6 1-1 .7-.8 1.4-1.1 2.5-.9 1.3.3 2.6.5 3.9.8.1 0 .2.1.3.1 1.3-.4 2.4.3 3.5.7 1 .4 2 1.1 2.9 1.8.5.3.4.9.2 1.4-.4.8-.9 1.6-1.3 2.5l-1.8 3.6c-.3.6-.7 1.2-1 1.9-1.2 2.3-2.3 4.6-3.5 6.9-.1.3-.2.5-.3.8-.2.7-.4 1.4-.7 2-.1.3-.2.5-.2.8-.2 1.8-1 3.3-1.9 4.8-.3.5-.4 1.1-.6 1.7-.3.9-.5 1.8-1.2 2.6-.1.1-.2.3-.3.5l-1.2 3.6c-.4 1.1-.8 2.3-1.3 3.4-.4.9-.5 1.9-.7 2.8-.3 1.5-.8 2.9-1.3 4.4-.5 1.6-1.1 3.1-1.7 4.7-.5 1.5-.9 3.1-1.7 4.5-.5.9-.7 1.9-1 2.8-.3.7-.5 1.4-.8 2.2-.4 1.1-.8 2.2-1 3.4-.3 2-.9 3.8-1.5 5.7 0 .1 0 .1-.1.1-.8 1.2-.9 2.5-.8 3.9 0 .4-.2 1-.4 1.3-.4.7-.6 1.4-.6 2.2-.1 1.1-.2 2.2-.2 3.3 0 .8.1 1.6.2 2.4 0 .2.3.6.6.6.2 0 .5-.2.7-.4.6-.7 1-1.6 1.6-2.3l3.6-4.8c.8-1.1 1.6-2.3 2.4-3.5l2.4-3.9c.5-.9.9-1.9 1.4-2.8.5-.9 1-1.7 1.5-2.6 1.3-2.1 2.6-4.2 4-6.3.7-1.1 1.5-2.3 2.3-3.4.1-.2.3-.4.4-.6.6-1.4 1.1-2.8 1.7-4.2.1-.2.1-.5.1-.7.1-.6.1-1.3.4-1.9 1-2.1 1.1-4.5 1.8-6.7.5-1.7 1-3.4 1.5-5 0-.1.1-.1.1-.2.4-2.3 1.4-4.5 1.5-6.9.1-.9.5-1.8.8-2.7.1-.4.2-.9.1-1.2-.4-1.3-.1-2.4.3-3.6.2-.7.4-1.4.7-2.1l1.5-4.5c.4-1.2.9-2.4 1.3-3.6.6-1.7 1.1-3.5 1.7-5.2.2-.6.2-1.2.3-1.8 0-1 .3-1.9.8-2.8.6-1.1 1-2.3 1.2-3.5.3-2.2 1.1-4.2 1.8-6.3.1-.2.2-.4.2-.6.3-1.7 1.1-3.2 1.8-4.7.4-.9.7-1.8 1-2.7.5-1.4.9-2.8 1.3-4.2l1.2-3.6c0-.1.1-.3.1-.4.1-1.4.6-2.6 1.3-3.7.2-.4.3-1 .2-1.5-.1-.7.1-1.3.5-1.9.9-1.3 1.5-2.8 1.8-4.4.5-2.3 1.1-4.4 2.5-6.3.5-.7.8-1.4 1.2-2.2.3-.7.2-1-.4-1.5-.5-.4-.5-.5-.1-1.2.3.2.7.4 1.1.7.1-.3.3-.5.4-.8.5-1.4 1.1-2.9 1.6-4.3.1-.2.2-.3.2-.5.6-1.9 1.2-3.8 1.7-5.7.2-.9.2-1.9.5-2.8.4-1.6 1-3.3 1.5-4.9.2-.5.3-1 .5-1.4.4-1.3.8-2.6 1.3-3.8.5-1.3 1-2.5 1.6-3.8.2-.5.4-1 .7-1.4.5-.9.7-1.8.7-2.8 0-.7-.1-1.5-.1-2.2-.1-1.1.5-1.7 1.6-1.6h1.9c.5 0 .8.2 1.1.6.4.7.7.7 1.3.1.5-.5 1-.6 1.6-.1 1.3 1.1 2.6 2.3 3.8 3.5.3.3.6.6.6 1 .2 1.5.4 3 .4 4.4 0 .8-.4 1.7-.7 2.5-.6 1.6-1.1 3.3-1.7 4.9-.2.4-.5.7-.7 1.1-.2.3-.4.6-.4.9.3 1.1-.2 2.1-.5 3-.5 1.5-1.1 3-1.6 4.4-.2.4-.4.8-.5 1.3-.2.5-.5 1-.5 1.5 0 1.6-.8 2.8-1.3 4.2-.5 1.4-1 2.8-1.4 4.2-.2.7-.5 1.3-.7 2-.2.6-.4 1.1-.5 1.7-.1.7-.3 1.3-.7 1.9-.7 1.4-1.4 2.7-1.4 4.3 0 .5-.3 1.1-.5 1.6-.6 1.3-1.3 2.6-1.5 4.1-.1 1.3-.7 2.4-1.4 3.5-.2.3-.4.7-.5 1.1-.3 1.4-.6 2.8-.9 4.1-.2.7-.4 1.4-.7 2.1-.3.9-.8 1.7-1.1 2.6-.5 1.4-.9 2.7-1.3 4.1-.4 1.4-.7 2.9-1.2 4.3-.3.8-.6 1.6-1.1 2.4-.9 1.6-1.5 3.3-1.8 5.2-.2 1-.8 2-1.2 3-.3.7-.6 1.5-.7 2.2-.4 2-.7 3.9-1 5.9 0 .2-.1.3-.1.5-1 2.1-1.4 4.3-2 6.6-.3 1.1-.8 2.2-1.3 3.3-.1.3-.3.6-.4.9-.3 1.1-.6 2.3-.9 3.4-.1.5-.2 1.1-.2 1.6 0 .3.2.7.4.8.2.1.6-.2.8-.4.6-.8 1.2-1.7 1.8-2.6 1.6-2.3 3.2-4.6 4.7-6.9 1.1-1.6 2.1-3.2 3.2-4.7.6-.9 1.3-1.6 2-2.5 1-1.2 1.9-2.4 2.9-3.6 1.3-1.6 2.6-3.2 4-4.8 1.3-1.5 2.8-2.7 4.4-3.6 1.7-1 3.7-1.3 5.7-.9 1.4.3 2.4.9 2.6 2.5 0 .5.3.9.5 1.3.4.9.8 1.9.4 2.9-.1.2 0 .5.1.7.6.7.6 1.5.7 2.2.2 1.4.2 2.8-.4 4.2-.2.3-.3.7-.3 1.1-.1 2-.8 3.7-1.4 5.5-.1.4-.3.7-.3 1.1-.4 1.9-.8 3.7-1.3 5.6-.3 1.3-.8 2.5-1.3 3.8-.5 1.5-1.1 3-1.7 4.5-.4 1-.9 1.9-1.3 2.8-.1.2-.2.3-.2.5-.1 1.5-.9 2.8-1.4 4.2-.1.2-.2.5-.3.7-.3.9-.7 1.8-1 2.7-.4 1.2-.7 2.4-1.4 3.4s-1.2 2.1-1.7 3.1c-.6 1.1-1.1 2.1-1.6 3.2-.6 1.2-1.1 2.4-1.6 3.7-.9 2.5-2.2 4.7-3.6 6.8-.3.5-.6 1.1-.9 1.7-1.5 2.6-2.9 5.1-4.4 7.7-.2.3-.4.6-.6.8-1.1 1.5-2.3 3.1-3.4 4.6-1.1 1.5-2.1 3.2-3.2 4.7-.6.9-1.6 1.5-2.3 2.4-1.2 1.4-2.3 2.8-3.5 4.3-1.3 1.6-2.8 2.8-4.4 4-.5.4-1.1.4-1.8.2s-1.5-.4-2.3-.5c-1.1-.2-1.8-.8-2.6-1.5-.4-.4-.4-.9-.2-1.4.6-.9.7-2 .5-3-.2-.8.1-1.5.8-1.9.9-.5 1.4-1.4 1.9-2.3 1.2-2 2.2-4.1 3.4-6.1 1.1-2 2.3-3.9 3.5-5.9 1.1-1.9 2.2-3.9 3.4-5.8.8-1.4 1.6-2.7 2.4-4 .8-1.3 1.6-2.7 2.4-4.1.9-1.5 1.8-3.1 2.6-4.7.8-1.5 1.5-3 2.4-4.5.8-1.4 1.7-2.8 2.5-4.1.5-.8.9-1.6 1.3-2.4.6-1.3 1.2-2.6 1.7-3.9.5-1.2 1.1-2.3 1.4-3.6.5-1.7 1-3.4 2-4.8.9-1.3 1.2-2.8 1.7-4.2.5-1.3 1-2.5 1.4-3.8 1-2.7 2.4-5.4 2.6-8.3 0-.2.1-.4.2-.6.5-1.4 1-2.7 1.4-4.1.3-.8.5-1.7.6-2.6.1-.5-.1-1-.3-1.5-.1-.2-.5-.4-.8-.5-.4 0-.5.4-.5.7-.1.4-.2.9-.5 1.2-1.8 2.4-3.5 4.7-5.4 7.1-.6.8-1.4 1.4-2 2.2-1 1.4-1.9 2.8-2.9 4.2-.8 1.2-1.7 2.4-2.3 3.7-.2.4-.4.9-.5 1.3-.5 1.4-.9 2.7-1.4 4.1-.6 1.8-1.1 3.6-1.8 5.4-.5 1.3-.8 2.6-1.6 3.8-.5.8-.9 1.8-1.3 2.7-.4.7-.8 1.5-1.1 2.2-.6 1.1-1.2 2.2-1.7 3.3-.9 1.6-1.8 3.3-2.6 4.9-.6 1.1-1.3 2.2-1.5 3.5-.2 1.2-.6 2.3-.9 3.5-.3.9-.8 1.8-1.1 2.7-.3 1-.5 2-.6 3-.1 1.7-.9 3.2-1.6 4.7-.6 1.3-1.1 2.6-1.6 3.9-.5 1.4-1.2 2.8-2.1 4-.2.2-.5.4-.8.5-1.3.4-2.7.8-4.1 1.2-.8.3-1.6.2-2.4-.2-.6-.3-1.2-.4-1.8-.3-.5.1-1.1 0-1.6-.1-.6-.1-1.2-.3-1.8-.5-.8-.2-1-.6-.8-1.4.1-.4.3-.8.3-1.1.2-.9.3-1.9.5-2.8.1-.5.1-1-.5-1.2zm48.8-134.5c0 .6.5.9.9.6.5-.4 1-.7 1.6-.9.4-.1.4-.6.1-.8-.5-.4-1.1-.3-1.7-.1-.6.2-1 .7-.9 1.2zm-46.8 70.1c-.4 0-.7 0-.9.1-.6.4-1.1.7-1.8.7-.2 0-.3.3-.5.5.2.1.4.4.6.4.5 0 1 0 1.4-.2.5-.2 1-.6 1.2-1.5zm42.8-56.5c0 .5.2.9.6.9.4 0 .9-.6.9-1.1 0-.4-.3-.7-.7-.7-.5 0-.8.3-.8.9zm9.8-21.7c0 .5.3.9.6.9.4 0 .6-.4.7-.9 0-.5-.3-.9-.6-.9-.4.1-.7.4-.7.9zm-1.6 79.2c-.3.4-.4.9 0 1.3.1.1.5.2.5.1.2-.2.3-.6.3-.8 0-.5-.3-.7-.8-.6zm-75.6 88c-.5.4-.7.8-.3 1.1.1.1.5.1.7 0 .2-.3.1-.7-.4-1.1zm0-16.4c-.3.3-.5.5-.5.6 0 .2.3.4.4.6.2-.1.5-.3.5-.4 0-.3-.2-.5-.4-.8zM89.4 191c.6-.5.6-.7-.1-1.1-.5.5-.5.8.1 1.1zm12.8-39.4c.6-.5.5-.7 0-1.1-.6.5-.6.7 0 1.1zm26.3 38.3c-.3-.2-.4-.4-.6-.4-.1 0-.4.2-.4.4s.2.4.4.5c.1-.1.3-.3.6-.5zm19.1-83.2c.3-.2.5-.5.2-.7-.1-.1-.4-.1-.5 0-.2.2-.1.5.3.7zm49.3-78.1c.1-.3.3-.4.3-.5 0-.1-.2-.2-.4-.3-.1 0-.3.2-.3.3.1.1.2.3.4.5zm-53.4 77.1c0 .2-.1.3-.1.5.6-.1.6-.1.1-.5zm59.3-6.2c.1-.2.3-.3.2-.3 0-.1-.2-.2-.3-.3l-.2.2c.1.1.2.2.3.4zm-1.7-3.4c-.1-.1-.2-.1-.3-.2-.1.1-.2.3-.3.4.1.1.3.2.3.2.2-.2.2-.3.3-.4zM99.5 178c-.2-.1-.3-.2-.4-.2-.1 0-.2.2-.2.2.1.1.2.2.3.2.1 0 .2-.1.3-.2zm31.3 12.6c-.1.1-.2.2-.2.3 0 .1.1.2.1.2.1-.1.2-.1.2-.2.1-.1 0-.2-.1-.3zm-35.4 7.2s0-.1-.1-.1c0 0-.1 0-.1.1 0 0 0 .1.1.1 0 0 0-.1.1-.1zM248.1 64.6c-.5-.4-.8-.6-1.2-.9 0-.5.3-.7.7-.7.3 0 .6 0 .9.1.9.2 1.6 0 2.2-.6.1-.1.3-.2.4-.4.6-.9 1.6-1.2 2.5-1.6.6-.3 1.3-.3 1.8.1.7.4 1.4.5 2.2.5.9 0 1.8 0 2.6.1.8 0 .9-.1 1.1-.9l.3-.9c.7.1.7.4.7.8.2 1 .2 1 1.2 1 1.3 0 1.4.2 1.9 1.4.3.8.8 1.6 1.2 2.3.8 1.5.9 3.1.2 4.6-.3.8-.3.9.5 1.3.2.1.5.3.6.4-.2.9-1.3.4-1.5 1.2.2.3.4.7.6 1-.5.6-.9 0-1.4.1 0 0-.2.1-.2.2l-3 5.1c0 .1-.1.1-.1.2 0 1.1-.8 1.7-1.4 2.4-.6.7-1 1.5-1.5 2.4-.4.7-.6 1.4-.9 2-1 2.1-2 4.1-3.1 6.1-.7 1.3-1.6 2.4-2.4 3.6-.6.9-1 1.8-1.6 2.7-.8 1.2-1.7 2.5-2.6 3.6-.5.6-1.3 1-1.8 1.7-.9 1.3-1.7 2.8-2.5 4.1-.4.7-.9 1.3-1.3 1.9l-1.8 3c-.8 1.5-1.6 2.9-3.1 3.8-2.4 1.5-4.6 3.3-6.7 5.2l-.1.1c-1.6 2.3-4 3.6-6 5.4-.8.7-1.7 1.5-2.5 2.2-.4.4-.9.6-1.3 1-.3.2-.6.4-.7.7-.4.8-1 1.4-1.7 1.9-1.4.8-2 2.1-2.4 3.6-.2.7-.4 1.4-.6 2.2-.1.6-.2 1.1-.3 1.7-.1 1.4-.2 2.7-.9 3.9-.5.9-.7 2-.9 3-.2 1-.4 1.9-.6 2.9-.1.4-.1.8 0 1.2.3.9.6 1.9.9 2.8.2.6.2 1.1-.1 1.7-.2.4-.5.7-.6 1.1-.4 1.9-.9 3.7-1.2 5.6-.2 1-.1 2.1 0 3.1.1 1.1.8 1.3 1.8.7 2.2-1.4 3.7-3.5 5.2-5.5.5-.7 1.1-1.2 1.7-1.8l1.5-2.1c.4-.6.8-1.3 1.2-1.9 1.2-1.7 2.3-3.3 3.5-4.9.8-1.2 1.7-2.3 2.6-3.4 1.3-1.8 2.6-3.5 3.6-5.6.6-1.2 1.4-2.2 2.1-3.3 1.2-1.6 2.4-3.3 3.6-4.9 1.2-1.6 2.4-3.1 3.5-4.7.6-.9 1-1.9 1.5-2.8.7-1.3 1.5-2.7 2.2-4 .6-1.1 1.2-2.3 1.9-3.3 1.3-2.1 2.6-4.1 4.7-5.5.6-.4 1.2-.9 1.9-1.3.3-.2.7-.3 1.1-.2.7.1 1.3-.1 1.9-.3.6-.2 1.3-.5 1.8 0 .5.6.3 1.3 0 1.9-.6 1.3-1.3 2.6-2 3.9-.8 1.4-1.4 2.9-1.8 4.5-.4 1.5-1.1 2.8-2 4-1.6 2.1-3.1 4.3-4.8 6.4-.8 1-1.7 1.8-2.5 2.8-.4.5-.9 1-1.2 1.6-.6 1.5-1.6 2.7-2.5 4-.6.9-1.1 1.8-1.6 2.8-.6 1.1-1.1 2.2-1.7 3.2-.8 1.4-1.7 2.7-2.7 4-.8 1.2-1.7 2.4-2.6 3.5-1.2 1.4-2.4 2.9-3.6 4.2-1.5 1.7-3.1 3.4-4.7 5-.4.4-.7.8-1 1.3-.8 1.1-1.8 2-2.8 2.8-1.1.9-2.1 1.9-2.8 3.1-.7 1.2-1.8 1.9-2.9 2.6-1.6 1.1-3.3 1.7-5.2 2.2-.5.1-1 .3-1.4.4-1.2.5-2.4.7-3.6.6-.6 0-1.2-.1-1.8-.1-2.1-.1-3.6-1-4.6-2.8-.5-.9-1-1.9-1.5-2.8-.4-.7-.5-1.4-.4-2.2 0-.4.1-.8 0-1.2-.6-3.2-.5-6.3.4-9.4.5-1.7.8-3.5.7-5.3 0-.4.1-.8.1-1.2.1-.8.2-1.7.3-2.5 0-.7.3-1.3.8-1.8.8-.7 1.1-1.5 1-2.6 0-.8.5-1.6.8-2.5.2-.6.5-1.2.7-1.8l.9-2.7c.5-1.7.7-3.4 1-5.1.4-2 1.1-3.9 1.6-5.8.4-1.4 1.2-2.6 1.9-3.8l.3-.6c.6-2.2 1.8-4.2 2.8-6.2.6-1.1 1.1-2.2 1.3-3.5 0-.4.3-.9.6-1.2.7-.8 1.5-1.6 1.5-2.8 0-.2.1-.3.2-.4.6-.8.7-1.7.7-2.7 0-.3.2-.7.3-1 .2-.6.5-1.1.7-1.7.5-1.4 1.3-2.7 2.4-3.8.6-.7 1.4-1.3 2-1.9.7-.7 1.5-1.5 2.1-2.3.3-.5.5-1.1.6-1.7.1-.6.2-1.1.8-1.4 1.3-.8 2.1-2.1 2.9-3.3.6-1 1.3-1.9 2.3-2.6.6-.3 1-1 1.4-1.6.6-1 1.2-2.1 1.8-3.2.5-.9 1.1-1.6 1.9-2.2.5-.3.7-1 .9-1.5.2-.5.5-.9.9-1.2 1.5-1 3-2.1 4-3.7.4-.6.9-1.1 1.4-1.6 1.6-1.5 2.9-3.3 4.8-4.4.7-.4.8-.6 1.1-.9zm-12.5 32.2c.3.5.2 1-.1 1.4-.4.6-.8 1.1-1.2 1.6-.9 1.4-2.2 2.6-2.7 4.3 0 .1-.1.2-.2.4-.5.8-1 1.6-1.6 2.4-.4.5-.2 1.7.2 2.1.4.3.9.1 1.5-.6.1-.1.1-.2.2-.3l1.2-1.8c.8-1.1 1.4-2.3 2.7-3 .5-.3.9-.9 1.3-1.4 1-1.3 2-2.6 3-3.8.8-1 1.8-1.8 2.6-2.8 1.4-1.8 2.8-3.8 4.2-5.6l1.8-2.4c.3-.4.5-.8.2-1.2-.4-.3-1.2-.2-1.1-1.2l1.5.6.2.2c.2-.3.4-.5.5-.8.6-1 1.2-2 1.8-2.9.3-.5.7-1 .9-1.5l2.7-5.7c.1-.3.3-.5.3-.8 0-.3-.1-.7-.3-.8-.2-.1-.6.1-.9.1-.1 0-.2.2-.3.3l-3.9 3.6c-.4.4-.8.8-1.3 1.4.5.1.8.1 1 .3.2.2.4.5.5.7 0 .1-.4.4-.6.5-.3 0-.7-.1-1-.1-.7-.2-.9-.1-1.2.6-.2.4-.4.8-.7 1.2-.8 1.2-1.7 2.4-2.5 3.7-.7 1.1-1.4 2.1-2.4 2.9-.5.4-.9 1-1.2 1.6-.6.9-1.1 1.9-1.7 2.9-.4.6-.8 1.2-1.5 1.5-.2.1-.3.5-.5.7-.2.3-.2.7-.4 1-.2.3-.4.6-.9.6-.9-.9-1.4-.9-1.8-.1.5.3 1.2-.1 1.7.2zm-13.8 23.1c.8-.1.9-.1.7-.8-.5 0-.8.2-.7.8z"/><path d="M152 87.6c-.2-.7-.4-1.5-.5-2.2-.1-.4 0-.8.1-1.2.1-.4.3-.8.5-1.2.9-1.8 1.6-3.7 2-5.6.2-1.1.6-2.1.9-3.1.4-1 .9-1.9 1.2-2.8.5-1.3.9-2.6 1.3-3.9.3-.9.1-1.8-.3-2.7-.2-.5-.4-1.1-.4-1.6-.1-.8.4-1.2 1.2-1 .2 0 .4.1.5.2.9.5 1.8.5 2.8.2.9-.2 1.8-.4 2.7-.7 1.7-.6 3.1 0 4.6.6.3.1.6.4 1 .4 1.2.1 1.9.9 2.8 1.6.7.7 1 1.4.6 2.4-.2.5-.1 1-.3 1.5-.2.7-.5 1.4-.8 2.2-.2.4-.4.9-.5 1.3-.3 1.2-.8 2.2-1.6 3.1-.6.7-1.1 1.6-1.4 2.6-.3 1-.9 1.9-1.3 2.9-.2.5-.4.9-.5 1.4-.1.8-.3 1.4-.7 2.1-.5.7-.8 1.5-1.2 2.2-1 2-2.1 4-3.1 5.9-.3.5-.7.9-1.1 1.2-.2.2-.5.3-.7.3-.9 0-1.8-.1-2.6-.1-.1 0-.2 0-.3-.1-1.2-.7-2.5-1.3-3.7-2-.8-.5-1.3-1.2-1.3-2.2 0-.6-.1-1.1-.1-1.7h.2zM251.7 57.5c0-1 1.5-2 2.3-1.6.2.1.5.5.5.7 0 .2-.3.5-.6.5-.5.1-1 .2-1.3.7-.1.1-.5.2-.6.2-.2-.1-.3-.4-.3-.5zM20.1 92.9c-.4-.5-.3-.9.1-1.1.5-.4.6-.9.6-1.5 0-.4.1-.8.5-.8.6.5.7 1.3.3 1.9l-.9 1.2-.6.3zM11.3 95.9c.7-.4 1.5-.4 2.2-.4.4 0 .6.2.7.7-.6.7-1.4.4-2.2.4-.3.1-.7-.1-.7-.7zM7.6 97.4c-.2-.1-.4-.1-.4-.2-.3-.4-.7-.5-1.1-.5-.4 0-.7-.1-.7-.6 0-.3.6-.7.9-.4.5.4 1 1 1.4 1.5.1 0 0 .1-.1.2zM17 89.1c-.1.1-.3.4-.6.5-.4.1-.9-.7-.9-1.2 0-.4.3-.6.6-.5.6 0 .9.4.9 1.2zM22.9 87.8c0 .5-.3.8-.7.8-.4 0-.7-.6-.7-1.1 0-.4.2-.6.7-.6.5 0 .8.4.7.9zM19.8 85.4c-.2.1-.5.3-.6.3-.5-.4-.9-.8-1.3-1.3 0 0 .2-.3.3-.5l1.5 1.2c.2.1.1.2.1.3zM126.5 21.2c.4-.6.9-1.1 1.5-1.4.3.7.1 1.2-.5 1.6-.3.3-.5.2-1-.2zM9.1 89c.6-.2.9 0 .9.4 0 .3-.1.6-.2.9 0 .1-.4.1-.5.1-.1-.2-.3-.5-.3-.7-.1-.2 0-.4.1-.7zM246.1 62.2c-.1-.3-.3-.6-.2-.6.4-.5.9-.9 1.3-1.3.5.2.6.4.3.7-.4.3-.9.7-1.4 1.2zM37 221.8c-.3-.5-.6-.8-.8-1.2.5-.5.8-.4 1.1-.1.4.3.3.7-.3 1.3zM9.9 84.4c0 .4-.2.6-.6.6-.4 0-.8-.3-.8-.6 0-.4.3-.5.7-.5.4-.1.6 0 .7.5zM268.9 66.4c-.4-.3-.4-.7 0-1.1.3-.3.7-.2 1.1.2-.3.7-.4.8-1.1.9zM39.8 226c-.3.3-.5.6-.7.6-.4.1-.6-.3-.6-.7 0-.4.1-.8.5-.7.3.1.5.5.8.8zM10.7 95.5c-.6 0-.8-.4-.7-.8 0-.4.2-.8.8-.7.2.5.3 1-.1 1.5zM250.7 56.4c-.3-.3-.7-.5-.8-.7-.1-.4.3-.5.6-.5.4 0 .8.1.7.5.2.2-.2.4-.5.7zM17.4 96.4c-.5-.4-.9-.8-1.4-1.2.6-.3 1.1 0 1.6 1-.1.1-.2.1-.2.2zM108.1 36.8c-.4-.4-.5-.8-.2-1 .1-.1.4-.1.5 0 .3.3.2.7-.3 1zM100.8 37.7c-.3.2-.5.5-.7.5-.1 0-.4-.3-.4-.4 0-.2.3-.4.4-.6.3.2.5.3.7.5zM261.7 55.7c-.2.5-.5.6-.9.3-.1-.1-.1-.4 0-.5.3-.4.6-.2.9.2zM247.7 57.3c-.1-.5 0-.9.5-.9.1 0 .4.2.4.3-.1.5-.4.6-.9.6zM49.1 240.9c.4.5.4.8-.1 1.1-.6-.4-.6-.7.1-1.1zM17.8 81.8c-.5.1-.8 0-.8-.4 0-.1.3-.4.5-.4.4 0 .4.3.3.8zM19 77.4c-.3.2-.5.4-.7.4-.1 0-.3-.3-.4-.4.2-.1.3-.3.5-.4.2 0 .4.2.6.4zM159.4 59.3c-.4-.2-.5-.5-.3-.8.1-.1.4-.1.5 0 .3.3.2.6-.2.8zM8.7 87.5c.4.4.2.6-.1.9-.5-.5-.5-.6.1-.9zM46.3 231.3c-.1.2-.2.5-.3.7h-.2c-.1-.2-.2-.4-.2-.5.1-.2.3-.2.5-.4l.2.2zM8.1 93.8c.5-.2.7-.1.7.4 0 .1-.2.3-.3.3-.4 0-.5-.3-.4-.7zM41.7 224.4c-.3.2-.5.3-.6.3-.1 0-.4-.2-.3-.3.1-.2.2-.4.4-.4 0 0 .2.2.5.4zM243.2 60.2c.2.2.4.3.4.4 0 .1-.2.3-.3.4-.1-.1-.4-.2-.4-.3 0-.1.1-.3.3-.5zM21.8 84.3c-.2.2-.4.4-.5.3-.2-.1-.3-.3-.4-.4.1-.1.3-.3.4-.3.2.1.3.3.5.4zM100.1 33.4c0-.2-.1-.4-.1-.6h.5c0 .2 0 .4-.1.6h-.3zM159.8 53.8c-.2.1-.3.2-.4.2-.1 0-.2-.2-.3-.3.1-.1.3-.2.4-.2.1-.1.2.2.3.3zM239.7 71.6c-.2.1-.3.2-.4.2-.1 0-.2-.2-.3-.3.1-.1.3-.2.4-.2 0-.1.1.1.3.3zM96.6 129.7c-.2.1-.3.3-.4.2-.1 0-.2-.2-.3-.3.1-.1.2-.2.3-.2.2 0 .3.2.4.3zM161.7 52.8c-.1.1-.3.2-.4.2-.1-.1-.2-.2-.3-.4.1-.1.2-.2.4-.2.1 0 .3.1.4.1 0 .2 0 .3-.1.3zM92.3 128.1c-.1-.2-.3-.3-.3-.4 0-.1.2-.2.3-.3.1.1.3.2.3.3 0 .1-.1.2-.3.4zM156.5 56.1c-.1-.2-.3-.3-.3-.4 0-.1.2-.2.2-.3.1.1.3.2.3.3.1.1-.1.3-.2.4zM20.4 76.2c.1.2.1.3.2.5-.1 0-.3.1-.4.1v-.5s.1-.1.2-.1zM107.4 34c-.1.1-.2.2-.4.2 0-.1-.1-.1-.1-.2l.3-.3c.1.1.1.2.2.3zM140 13.3c-.1.1-.2.2-.3.2-.1 0-.2-.1-.3-.2.1-.1.1-.2.2-.2s.2.1.4.2zM155.2 52.9l.3-.3.2.2c-.1.1-.2.2-.3.2-.1 0-.2-.1-.2-.1zM152.4 58.9v-.4h.1c0 .1 0 .2.1.4-.1-.1-.1-.1-.2 0zM142.6 12.4c0-.1-.1-.1-.1-.2 0 0 .1 0 .1-.1 0 .1.1.1.1.2s0 .1-.1.1zM95.4 37s0 .1-.1.1c0 0-.1 0-.1-.1 0 0 0-.1.1-.1l.1.1zM96.4 39.8l.1.1-.1.1h-.1c.1-.1.1-.1.1-.2zM101 40.4s0-.1 0 0c0-.1 0-.1 0 0z"/></svg>