<svg xmlns="http://www.w3.org/2000/svg" viewBox="0 0 289.4 246.9"><path d="M49.9 243.5c0-.5-.2-.8-.5-1.1-.6-.7-1.3-1.4-1.6-2.3-.1-.4-.2-.9-.2-1.4.1-1.1.1-2.1-.1-3.1-.2-.8-.2-1.4.6-1.9.5-.3.7-.7.4-1.3-.3-.8-.2-1.4.2-2.1.2-.5.4-1.1.5-1.6.2-.7.3-1.4.4-2.2 0-.3 0-.6-.1-.9-.1-.7-.2-1.3-.3-2 0-.6.2-.8.7-.9 1-.3 2.1.7 1.9 1.8 0 .2-.1.5 0 .8.2.7.9.9 1.4.4.3-.3.6-.6.8-1 .4-.6.2-1-.5-1.2-.2 0-.4-.1-.6-.1-.4 0-.7-.2-.9-.6-.2-.5-.6-.8-1.1-1-.1-.1-.3-.1-.4-.2-1.5-.7-1.4-.3-1.7-2.4-.1-.9-.1-1.8 0-2.6s0-1.6-.3-2.3c-.2-.5-.3-1-.4-1.5-.1-1-.4-2-.7-3-.3-.8-.2-1.6-.2-2.4 0-.7.2-1.5.3-2.2.2-1.2-.2-2-1.2-2.7-.7-.5-.8-.7-.7-1.5.3-1.6.4-3.2.9-4.7.2-.4.1-1 .1-1.4v-2.8c.1-1.1.1-2.1-.1-3.2-.1-.5 0-1.1-.1-1.7 0-.6 0-1.2-.2-1.8-.3-.9-.4-1.9-.3-2.9 0-.8.1-1.5.1-2.3 0-1.3.2-2.5.7-3.7.3-.7.4-1.5.4-2.3-.1-.8 0-1.5.4-2.2.3-.6.3-1.3 0-1.9-.1-.2-.1-.3-.2-.5-.6-1.2-.7-2.3-.1-3.5.4-.8.8-1.7 1.3-2.5.4-.7.4-1.4-.3-1.8-1.1-.6-1.1-1.4-1.1-2.4 0-.8.2-1.5.7-2.1.5-.6 1.1-1.2 1.6-1.8.9-1 1-1.6.3-2.7-.1-.1-.2-.2-.2-.4-.3-.6-.2-1.1.4-1.3.7-.3.8-.8.8-1.5 0-1.1.1-2.2.3-3.3.1-.4.4-.9.7-1.2.5-.6.5-1.1.2-1.8-.3-.6-.4-1.4-.5-2.1 0-.3.1-.6.3-.9.7-1.3 1.2-2.7 1.4-4.2.1-1 .4-1.9 1.2-2.7.6-.6.9-1.3.7-2.2-.1-.9 0-1.7.6-2.4.6-.8.8-1.7.9-2.7.1-1.2.4-2.4.5-3.5.2-1.1.3-2.1.5-3.2.1-1 .3-2 .4-3 0-.2.1-.3.1-.5 0-.4 0-.8-.4-.9-.4-.2-.8 0-1.1.3-.2.2-.4.5-.5.8-.6 1.2-1 2.5-1.9 3.5-.4.4-.5 1-.4 1.6.1.8-.1 1.5-.5 2.3-.5 1.2-.9 2.5-1.3 3.7-.2.6-.4 1.2-.7 1.7l-.6 1.8c-.3 1.3-.6 2.7-.9 4.1-.2.6-.4 1.3-1 1.6-.5-.1-.5-.6-.7-.9-.4-.8-.9-.9-1.6-.4-.5.4-.6.7-.3 1.3.6.9.8 1 2.2 1.1 0 .3.2.6.1.9-.3 1.6-.5 3.3-1 4.8-.6 1.7-1.5 3.2-2.2 4.8-.8 1.6-1.6 3.2-1.9 5-.2 1.2-.8 2.4-1.4 3.5-.8 1.6-1.5 3.2-1.7 5-.2 1.7-.6 3.4-1 5.1-.1.3-.2.7-.4.9-.5.7-.6 1.4-.8 2.2-.2 1-.4 2-.6 2.9-.2.9-.5 1.8-1 2.5-.2.2-.3.5-.3.8-.4 1.3-.7 2.6-1.2 3.9-.4 1.2-1 2.4-1.5 3.6-.2.6-.5 1.2-.7 1.8-.3 1-.7 1.9-1.3 2.7-.2.3-.5.6-.7 1-.7.9-1.5 1.5-2.7 1.7-.5.1-1 .1-1.4.3-.8.2-1.1.7-1.1 1.5 0 .5.1 1 .3 1.4.3.9-.1 1.8-.3 2.6-1.1-.1-2.3-1.4-2.5-2.6.2.1.4.1.6.2.7.2 1.1-.1 1.1-.8 0-.8-.4-1.4-1.1-1.7-.5-.2-1.1-.5-1.7-.6-1.4-.2-2.3-1.1-3.2-2-.5-.5-1.1-1-1.7-1.5-.5-.4-1-.6-1.7-.5-.1 0-.3 0-.4-.1.1-.5.4-.6.7-.6.9-.1 1.5-.7 2-1.4.4-.5.4-.9.1-1.4-.6-1-.6-2-.5-3 .2-1.8.2-3.5-.5-5.2-.2-.6-.2-1.2-.3-1.8-.1-1.4-.1-2.8-.1-4.2 0-2.1.1-4.2.5-6.3.3-1.6.5-3.1.7-4.7.2-1.4.2-2.8.6-4.1.4-1.7.6-3.3.1-5-.1-.2 0-.5 0-.8.2-1.7.4-3.3.5-5 0-.4.1-.9 0-1.4-.4-1.5-.2-3 0-4.6.1-.5.2-1 .2-1.4 0-.4 0-.9-.2-1.3-.2-.6-.3-1.3-.2-1.9 0-.3 0-.6.1-.8.3-1.5.4-3 0-4.6-.3-1.1-.1-2.3.2-3.5.3-1.2 0-2.3-.7-3.2-.4-.5-.4-1-.1-1.6.3-.6.5-1.2.5-1.9 0-2.2.5-4.4 1.2-6.4.5-1.6.8-3.2.9-4.8.1-1 .3-2.1.5-3.1.2-1.3.4-2.5.6-3.8.1-1.2.3-2.4.8-3.5.4-.9.7-1.9.5-3-.1-.4.1-1 .3-1.4.8-1.6 1.2-3.2.8-5-.3-1.4-.2-2.8.4-4.2.8-2 1.6-4 1.6-6.1 0-.3.1-.7.1-1 .5-3.2 1.1-6.4 1.6-9.7.3-2 .7-4.1.9-6.1.1-.6 0-1.3-.2-1.8-.4-1.3-.2-2.6.2-3.8.1-.4.4-.7.7-.9.9-.5 1.9-1.1 3-1.2.2 0 .5-.1.7-.1 1.7 0 3.4.1 5.1.1 1 0 1.9.1 2.7.7.2.2.6.2.9.4.7.3 1 .8.6 1.3-.7 1.2-.7 2.4-.7 3.7 0 .3-.1.5 0 .8.3 2.4-.1 4.7-.5 7-.4 2.4-.8 4.9-1 7.3-.1.7-.1 1.5 0 2.2.1 1 .2 2 .1 3-.1 1.2 0 2.3 0 3.5.1 2 .2 3.9.2 5.9 0 .9-.2 1.7-.7 2.5-.4.5-.5 1.1-.4 1.8.2 1.8 0 3.5-.2 5.3-.1.6-.1 1.3-.3 1.9-.3 1.3-.7 2.5-.8 3.8 0 .2-.1.4-.3.5-.7.9-.8 1.9-.6 2.9.3 1.8 0 3.6-.4 5.4-.2.7-.2 1.3.1 2 .5.9.5 1.9 0 2.8-.5.9-.6 1.8-.3 2.8.2.6.2 1.2.3 1.8.1.7 0 1.4-.3 2-.5 1-.6 2.1-.5 3.1.1.9 0 1.7-.1 2.6-.2.9-.3 1.9-.2 2.8.2 1.6-.4 3-1.1 4.3-.4.7-.8 1.3-1.1 2-.4.7-.3 1 .4 1.3.6.3.9.7.9 1.4 0 .4.1.8.2 1.3.1.4.2.7.6.8.5 0 .7-.3.8-.6l1.8-3.9c0-.1 0-.1.1-.2.1-1.5.7-2.8 1.3-4.1.6-1.3 1.1-2.6 1.6-3.9.1-.2.2-.5.3-.7.6-1.9 1.5-3.7 2.4-5.5.7-1.2 1.5-2.4 2.2-3.7.3.1.6.2.8.3.5.1.9 0 1-.3.2-.4.1-.7-.4-1-.3-.2-.6-.3-.6-.8.1-.4.3-.7.7-.9.2-.1.3-.1.5-.2.5-.1.8-.5.8-1-.1-1.2.6-2 1.1-3 .7-1.1 1.2-2.2 1.9-3.2.5-.8 1.1-1.5 1.7-2.2.4-.6.9-1.2 1.3-1.8.9-1.3 1.9-2.5 2.8-3.8 1-1.3 1.7-2.7 2-4.4.2-1.4.8-2.7 1.2-4.1.2-.6.4-1.2.5-1.8.2-1.1.4-2.1.5-3.2.2-1.5.4-3.1.7-4.6.2-1.4.5-2.7.8-4.1.2-.8.7-1.4 1.4-1.8 1.3-.9 2.7-1.3 4.2-1.3.7 0 1.5-.2 2.2-.5 1.8-.7 3.3 0 4.7 1 .2.2.5.5.4.8 0 1 .2 1.9-.2 2.9-.4.8-.7 1.7-1 2.6-.1.3-.2.5-.2.8-.3 1.8-.6 3.6-.9 5.5-.4 2.6-.8 5.2-1.2 7.7-.3 1.7-.6 3.4-.8 5-.2 1.4-.3 2.8-.5 4.1-.2.9-.4 1.9-.7 2.8-.1.4-.1.8-.2 1.2 0 .9 0 1.8-.1 2.6-.1.7.1 1.2.7 1.5.2.1.3.2.6.4-.4.2-.6.4-.8.4-.8.2-1.2.8-1.3 1.6-.1 1-.2 2.1-.2 3.1 0 .6-.1 1.2-.4 1.7-.1.3-.2.7 0 1 .4.8.4 1.6.4 2.5-.1.8 0 1.5.6 2 .1.1.1.2.1.3v.1c-.8.7-.8 1.5-.7 2.5.1.8 0 1.5-.1 2.3v2.8c.1.9 0 1.7-.5 2.4s-.6 1.5-.3 2.3c.2.6.3 1.3.2 1.9-.2 1.8-.3 3.7-.7 5.5-.3 1.6-.8 3.1-1.3 4.7-.4 1-.7 2-.3 3.1.4 1.1.1 2.1-.5 3-.9 1.3-.9 2.7-.8 4.2.4 2.6-.2 5.1-.8 7.7-.1.3-.2.7-.3 1-.2 1-.1 1.9.5 2.8.1.2.3.4.4.6.6 1.1.6 1.5-.2 2.5-.5.6-.7 1.2-.7 1.9.1 1.9-.2 3.7-.6 5.6l-.6 3.3v.6c0 .5.1 1.1.2 1.6 0 .2.2.4.2.6.6.1.8-.3.9-.6.2-.6.3-1.2.3-1.8.1-.6.2-1.2.5-1.8.2-.3.4-.7.5-1.1.4-1.4.7-2.9 1-4.3.1-.5.4-1 .6-1.6.2-.5.4-1 .6-1.6.3-1 .5-2.1.8-3.1.2-.6.5-1.2.7-1.8.2-.7.5-1.4.6-2.1.3-1.8.8-3.6 1.6-5.3.3-.6.5-1.3.5-2 .2-1.9.7-3.7 1.6-5.4.3-.6.5-1.4.5-2.1.2-2 .7-3.9 1.5-5.7.2-.3.3-.7.4-1 .2-1.2.6-2.2 1.2-3.3.5-.8.7-1.8.9-2.7.1-1 .4-2.1.9-3 .2-.4.3-1 .5-1.5.3-1.2.7-2.3 1.6-3.2.1-.1.2-.3.3-.5.6-1 1.2-2.1 1.7-3.1.5-1.1.9-2.3 1.1-3.5.3-1.6 1.2-2.9 1.6-4.5l.3-.6c1.1-1.6 2-3.3 2.8-5.1.3-.8.6-1.5 1-2.2.3-.5.7-1 1.1-1.5.5-.5.8-1.1 1-1.8.2-.7.3-1.4.5-2.1.2-1.1.4-2.1 1.1-3 .2-.2.3-.5.3-.8.2-1.3.9-2.4 1.6-3.5.3-.5.6-1.1.7-1.6.3-1.3.9-2.5 1.6-3.7.1-.1.2-.3.2-.4.5-2 1.8-3.7 2.3-5.7.3-1.1 1-2.1 1.5-3.1.6-1.1 1.3-2.3 2-3.4.3-.5.5-.9.7-1.4.2-.5.5-.8 1-1 .6-.2.9-.6 1-1.2v-.3c0-2.2 1-4.2 1.8-6.2.1-.3.2-.5.3-.8.1-.5 0-.9-.4-1.2-.8-.6-.8-1.6-1-2.5-.1-.5.2-1 .7-1.3.5-.2 1-.2 1.4.2.2.2.4.4.6.5.5-.2.6-.6.7-.9.1-.5.4-.9.7-1.3.5-.6.8-1.3 1.2-2 .3-.7.6-1.2 1.4-1.4.1 0 .1-.1.2-.1V64c-.5-1-.2-1.9.2-2.8.6-1.4 1.4-2.7 1.7-4.2.1-.3.2-.6.4-.9.1-.2.3-.4.4-.7.6-1.7 1.5-3.2 2.3-4.8.3-.6.7-1.1 1-1.6.2-.4.5-.9.6-1.3.2-.8.6-1.5 1.3-2.1.2-.2.4-.6.5-.9.4-1.4 1-2.7 1.8-3.8 1.1-1.6 2.2-3.3 3.4-4.9 1-1.3 2.2-2.4 3.3-3.7 1-1.2 2-2.5 3-3.8.1-.2.2-.3.4-.6.3.4.5.7.6.9.3.3.6.4.9.1.2-.2.2-.6-.1-.9-.2-.2-.5-.3-.7-.4-.2-.5 0-.8.2-1.2.7-1 1.4-2 2-3.1.2-.3.5-.5.9-.5 1.1 0 1.7-.6 2.2-1.5l.6-1.2c-.1-.2-.1-.3-.2-.4-.5-.8-.5-.9.1-1.6 1.3-1.6 2.6-3.3 3.9-4.9.5-.6 1-1.2 1.5-1.7.8-.8 1.6-1.5 2.4-2.2.8-.8 1.8-1.2 3-1.3.4 0 .9-.2 1.2-.5.8-.7 1.6-.5 2.5-.4.2 0 .4.3.5.6.6 1.2.4 2.4-.4 3.4-.5.8-1.2 1.5-1.9 2-1.6 1.3-2.9 2.8-4.1 4.6-.9 1.3-1.7 2.6-2.5 4-.2.3-.3.7-.4 1.1-.3 1.7-1.1 3.2-1.9 4.6-.5.9-.8 1.8-1.3 2.7-.2.4-.5.9-.9 1.3-.8 1.1-1.6 2.2-2.5 3.2-.5.6-1 1.1-1.6 1.6-.8.7-1.6 1.4-2.2 2.3-.7 1-1.5 1.8-2.3 2.7-.7.7-1.3 1.6-2 2.3-1.1 1.2-2 2.5-2.5 4.1-.4 1.1-1.1 2.2-1.6 3.3-.5 1.3-1.1 2.6-1.3 4-.1.8-.3 1.6-.8 2.3-.3.5-.4 1.1-.5 1.6-.3 1.5-.9 2.9-1.6 4.2-.2.4-.5.8-.6 1.2-.4 1.4-.8 2.8-1.3 4.1-.2.6-.5 1.2-1 1.7-1.1 1.2-1.9 2.6-2.8 4-.9 1.4-1.2 3.1-1.9 4.5-.5 1.1-1.1 2.3-1.6 3.4-1 2-1.9 4.1-2.9 6.1l-1.5 3c-.2.5-.4 1.1-.6 1.7-.2.5-.3 1.1-.6 1.6-.6 1.3-1.2 2.6-1.5 4-.1.5-.4 1.1-.6 1.6-.5 1-1 2.1-1.4 3.1-.4.9-.7 1.8-1 2.7-.1.2-.1.3-.2.5-.8 1.1-1.1 2.4-1.7 3.6-.4.9-.8 1.9-1.1 2.9-.4 1.3-1.3 2.4-1.9 3.6-.5 1.1-1.1 2.1-1.6 3.2-.6 1.2-1.1 2.4-1.7 3.6-.4.8-.7 1.5-1.1 2.3l-1.5 3.3c-.5 1.2-1 2.3-1.5 3.5-.8 2-1.8 4-2.3 6.1-.1.5-.4 1.1-.6 1.6-.5.8-.7 1.6-.8 2.5-.2 1.2-.4 2.5-.6 3.7-.2 1.1-.3 2.3-.4 3.4-.1.4-.1.8-.3 1.2-.4 1-.9 2-1.2 3-.3.9-.4 1.9-.6 2.9-.2 1.4-.2 2.9-.8 4.2-.8 1.7-1.3 3.4-1.6 5.3-.1 1-.8 1.9-1.1 2.8-.2.6-.4 1.2-.6 1.9-.1.7-.3 1.4-.7 2-.7 1.2-1 2.5-1.2 3.9-.2 1.2-.5 2.4-1 3.6-.8 1.9-1.3 4-1.4 6.1 0 2.3-.6 4.5-1.6 6.6-.2.5-.3 1.1-.5 1.6l-.6 1.8c-.7 1.5-1.2 3.1-1.4 4.7-.1 1.1-.3 2.1-.8 3-.2.4-.3 1-.4 1.5 0 .8-.2 1.5-.6 2.2l-.3.9c-.3 1.8-.7 3.5-.9 5.3-.2 1.8-.2 3.7-.3 5.5 0 .6-.1 1.1-.4 1.6-.4.8-.6 1.6-.6 2.5-.1 1.5-.4 3-.9 4.5-.3.7-.3 1.6-.3 2.3 0 1.2-.1 2.4-.8 3.4-.5.8-.8 1.7-1 2.7-.1.9-.4 1.6-.8 2.4-.5.8-.8 1.7-1.2 2.5-.3.5-.6 1-.8 1.5-.2.3-.2.6-.3.9-3.9-.3-8.1-.3-12.4-.3zM28.4 124.9c.5 0 1.1-.1 1.7-.2.3 0 .6-.2.6-.6 0-.4-.3-.6-.7-.6-.3 0-.7 0-1 .1-.8.1-1.6-.2-1.9-.9-.4-.8-.6-.9-1.5-.5-.4.2-.9.3-.9.9.1.6.6.7 1.1.8.5.1.9.2 1.2.6.4.3.8.4 1.4.4zm22.4 94.2c-.1.1-.4.2-.5.4-.1.3.1.6.4.7.1 0 .2 0 .3.1.3.1.6.3.9.4.5.4.7.4 1.3.1.3-.2.6-.4 1-.5.4-.2.7-.3.7-.8 0-.4-.5-1.2-.8-1.4-.4-.2-.7 0-1 .3-.4.4-.9.8-1.6.7-.1.1-.3.1-.7 0zm-25.4-86.5c.1-.2.3-.5.4-.7.3-.6 0-1.1-.7-1.2-.9-.1-1.5.4-1.6 1.4 0 .3 0 .6.1.9.1.9.5 1.3 1.4 1.4.2 0 .6 0 .7-.2.1-.2.1-.6.1-.9 0-.2-.2-.4-.4-.7zm1.8 4.8v-.4c-.1-.5-.4-.8-.8-.8s-.6.3-.6.9c0 .3.1.6.1.8 0 .6-.2.9-.8 1-.2.1-.5.1-.7.2-.2.1-.4.4-.4.7 0 .2.2.5.4.6.6.4 1.4.1 1.8-.6.1-.2.2-.5.5-.7.4-.3.5-.9.5-1.7zm-.7-23.5c.6.1 1.1.2 1.6.3.6.1.9-.1 1.1-.5.2-.5-.2-.7-.5-1-.4-.3-.7-.6-1-1-.1-.1-.2-.4-.4-.4-.3-.1-.6-.3-.8-.2-.2.1-.4.5-.5.7-.1.8 0 1.5.5 2.1zm0 7c.6-.5.7-1.1.8-1.7.1-.4-.1-.7-.4-.9-.4-.2-.7-.1-1 .2-.4.3-.8.6-1.2 1-.1.1-.2.3-.3.5.6.6 1.4.6 2.1.9zm33.7 82c-.6.4-1.1 1.6-.8 2.2.1.3.4.5.7.5.4 0 .6-.2.7-.6.2-.6.1-1.2-.2-1.8-.1-.1-.3-.2-.4-.3zm-35.5-86.1c-.5-.7-1-.7-1.6-.6-.4.1-.6.4-.6.7 0 .4.2.9.6 1.1.4.2.7.1.9-.2.2-.3.4-.7.7-1zM56.8 194c-.1-.2-.1-.5-.2-.7-.2-.3-.5-.4-.9-.3-.4.1-.6.6-.6 1.1 0 .5.2.8.6 1 .4.1.7 0 .9-.3.1-.3.1-.5.2-.8zm-26.6-67.4c-.5 0-.8.3-.9.6 0 .5.7 1.2 1.2 1.2.4 0 .7-.3.7-.8.1-.5-.4-1-1-1zm26.5 95.9c0-.6-.3-1.1-.8-1.1-.4 0-.8.4-.8 1s.3 1.1.8 1.1.8-.4.8-1zM31.8 92.1c.4 0 .4-.3.3-.6-.3-.5-.5-1-.9-1.4-.3-.3-.7-.3-1-.1-.3.3-.2.7.1 1 .5.4 1 .7 1.5 1.1zm38.6 20.8c-.1-.2-.3-.5-.5-.8-.1-.1-.5-.1-.6 0-.4.2-.4.6-.4 1.1v.1c.1.5.4.7.8.7s.6-.4.7-1.1zm-9.9 87.6c.5 0 1-.3 1-.7 0-.4-.4-.8-.9-.8s-1 .3-1 .7c-.1.5.3.8.9.8zm-7.6-54.3c-.2.6 0 1 .3 1.3.3.4.7.5 1 .3.3-.3.4-.8.1-1.1-.3-.4-.8-.6-1.4-.5zm5.8 45.3c0-.4-.3-.8-.7-.8-.4 0-.7.3-.7.6 0 .4.3.7.8.7.4.1.6-.1.6-.5zm-28-106.9c-.4 0-.7.3-.7.7 0 .4.3.8.7.8.4 0 .7-.3.7-.7 0-.5-.3-.8-.7-.8zm34.7 66.1c-.4 0-.7.3-.7.7 0 .4.4.7.7.6.3 0 .6-.3.6-.7.1-.3-.2-.6-.6-.6zm-8.8 34.4c0-.4-.2-.7-.6-.7-.4 0-.7.2-.7.6 0 .4.3.7.7.7.3 0 .6-.2.6-.6zm-25.9-69.8c.4 0 .7-.3.7-.7 0-.4-.3-.6-.7-.6-.4 0-.6.3-.6.7-.1.4.2.6.6.6zm35.8 21c.4 0 .7-.3.7-.7 0-.4-.3-.6-.6-.7-.4 0-.7.3-.7.7-.1.4.2.7.6.7zm15.3 10.9c0-.4-.3-.6-.6-.7-.4 0-.7.3-.7.6 0 .4.3.7.6.7.4.1.7-.2.7-.6zm-54.7-21c0-.4-.3-.7-.7-.7-.4 0-.6.2-.6.6 0 .4.3.7.7.7.4.1.6-.2.6-.6zm37.9 9.5c0-.4-.2-.7-.6-.7-.4 0-.7.2-.7.6 0 .4.3.7.6.7s.6-.3.7-.6zm-4.8 52.9c-.4 0-.7.3-.7.6s.2.7.6.7c.4 0 .7-.3.7-.6 0-.4-.3-.7-.6-.7zm2.1 4.2c-.4 0-.7.2-.7.6 0 .4.2.7.6.7.4 0 .7-.2.7-.6 0-.3-.3-.6-.6-.7zm-6.8-83.4c0-.4-.3-.6-.7-.6-.4 0-.6.2-.6.6 0 .4.3.7.6.7.4-.1.7-.4.7-.7zm-3.7 117.1c-.4 0-.7.3-.6.7 0 .3.3.6.6.5.4 0 .6-.3.6-.6s-.3-.6-.6-.6zm-28.9-76.2c0-.4-.2-.6-.5-.6s-.6.3-.6.6c0 .4.2.6.6.6.3-.1.4-.3.5-.6zm.3-25c0-.4-.4-.7-.7-.6-.3.1-.5.2-.5.6 0 .3.3.5.6.4.2-.1.4-.3.6-.4zM64.3 156c-.2.3-.4.5-.5.7-.1.3.2.5.5.5s.5-.2.5-.5c0-.2-.2-.4-.5-.7zm-21-23.5c-.5.2-.5.5-.3.9.1.3.4.4.7.2.2-.7.2-.7-.4-1.1zm13.4-21c-.3-.3-.5-.5-.6-.5-.3-.1-.5.1-.6.5 0 .3.1.5.4.5.2-.1.4-.3.8-.5zm-5.2 120.9c-.2-.4-.5-.5-.8-.3-.2.1-.3.4-.1.6.4.2.7.1.9-.3zm.2-41.5c.2-.3.4-.4.4-.6 0-.2-.2-.4-.4-.4-.1 0-.4.2-.4.4 0 .1.2.3.4.6zm-2.5-63.7l-.8-.4c-.1 0-.3.3-.3.4.1.2.3.4.4.4.2.1.4-.2.7-.4zm19 3.6c-.2.3-.3.5.1.7.1 0 .4-.1.4-.1.1-.4-.1-.6-.5-.6zm-42.4 19.8c0-.4 0-.6-.4-.6-.1 0-.3.2-.3.3.1.5.3.5.7.3zm25.9 2.1c.4.2.7.1.7-.4-.4-.1-.6-.1-.7.4zm1.6-40.1c-.2-.2-.3-.3-.4-.3-.1 0-.2.2-.3.3.1.1.2.3.3.3 0-.1.2-.2.4-.3zm-23-41c.2.3.4.4.6.2.1-.1 0-.4 0-.4-.3-.2-.5-.1-.6.2zm-5.1 76.5c-.1.3-.1.5.2.5.1 0 .3-.2.3-.3 0-.3-.2-.4-.5-.2zm3.7-37.7c-.2-.1-.3-.2-.3-.2-.1 0-.2.1-.2.1 0 .1.1.2.2.2.1.1.1 0 .3-.1zm26-3.3c0 .1 0 .1 0 0 0 .1.1.1 0 0zm-26.1 8.7c.1 0 .1 0 0 0v-.1.1z"/><path d="M220.1 105.1c0 .9.1 1.6.1 2.4 0 .4-.2.9-.4 1.2-.2.4-.4.8-.3 1.3.1 1-.2 1.8-.7 2.7-.4.8-.9 1.5-1.3 2.3-.4.8-.5 1.7-.3 2.6.2.8.8 1 1.3.3.9-1 1.5-2.1 2.1-3.3.4-.8.9-1.6 1.4-2.3.6-1 1.2-2 1.7-3 .4-.8.8-1.6 1.3-2.3.9-1.5 1.8-3 2.6-4.5.5-.9.9-1.7 1.4-2.6l.9-1.5c1.2-2.2 2.3-4.4 3.5-6.5.6-1 1-2.2 1.8-3.1.4-.5.7-1.1.9-1.7.4-1.3 1.2-2.3 1.9-3.4.8-1.3 1.6-2.7 2.4-4 .8-1.3 1.6-2.7 2.6-3.9 1-1.4 1.9-2.9 2.7-4.4.6-1.1 1.1-2.2 1.6-3.3.3-.6.4-1.2.8-1.7.5-.8.9-1.7 1.6-2.3 1.2-1.2 1.9-2.7 2.5-4.2.5-1.2 1-2.3 1.5-3.4.6-1.5 1.1-3 1.8-4.5.6-1.3.9-2.7 1.7-4 .8-1.2 1.9-2.1 3.1-2.9 1.5-1 3-1.9 4.5-2.9.4-.2.8-.4 1.2-.4.9-.1 1.7-.3 2.5-.7.6-.3 1.3-.3 1.9-.2.9.2 1.6 1.1 1 2.1-.5 1-1 2.1-1.4 3.2-1 2.4-2.1 4.7-3.5 6.9-.7 1.1-1.2 2.4-1.8 3.6-.5 1.1-1 2.2-1.6 3.3-.8 1.4-1.5 2.8-2 4.4-.3.8-.8 1.6-1.3 2.3-.6.9-1.1 1.9-1.4 3-.2.6-.5 1.2-.8 1.9-.2.6-.5 1.2-.6 1.8-.3 1.4-.9 2.7-1.7 3.9-.7 1.1-1.3 2.3-1.7 3.6-.5 1.9-1.1 3.9-2.4 5.5-.2.3-.4.6-.5 1-.4 1.3-.7 2.6-1.1 3.9-.5 1.4-1 2.7-1.6 4-.3.6-.5 1.2-.5 1.9 0 .8-.3 1.6-.6 2.4-.6 1.7-1.5 3.3-1.6 5.1 0 .3-.1.6-.2.8-.4 1-.4 2-.3 3 .1.9.1 1.7-.2 2.5-.2.5-.2 1.1-.2 1.7-.1 1.5-.2 3-.2 4.5 0 .3.1.6.1.9 0 .7.2 1.5.1 2.2-.1.8 0 1.5.3 2.1.2.6.5 1.2.7 1.7.2.4.3.8.5 1.1 1 1.3 1.8 1.6 3.2.9.2-.1.4-.2.6-.2 1.3-.2 2.2-1 3.1-1.9.9-1 1.9-1.9 2.6-3 .4-.7 1.1-1.3 2-1.5.8-.2 1.3-1 1.9-1.5.4-.4.8-.7 1.2-1 .7-.4 1.3-.2 1.6.5.3.5.4 1.1.3 1.7-.1.5-.1 1 0 1.5s0 1-.1 1.4c-.7 1.7-1.7 3.2-3.3 4.3-2.1 1.5-4.1 3.2-6.1 4.8-.5.4-1 .6-1.6.7-.6 0-1.2.2-1.7.7-.4.4-.9.7-1.4 1-.4.2-.8.3-1.2.4-1.8.1-3.6.1-5.4-.7-.2-.1-.5-.2-.7-.2-.6-.1-1.1-.5-1.6-1-.4-.5-.9-1-1.4-1.5-.5-.6-.8-1.3-.8-2v-.8c-.1-1.3-.2-2.6-.9-3.8-.8-1.6-.9-3.3-.8-5.1 0-.5.2-.9.3-1.4.4-1.2.4-2.3-.3-3.4-.3-.4-.4-1-.4-1.5-.1-1.3.1-2.5.5-3.8.3-.9.5-1.9.8-2.9.1-.2.2-.5.1-.8-.1-.7.1-1.4.4-2 .3-.6.4-1.3.5-2 .1-1.1.3-2.1.7-3.1.4-1.1.8-2.3 1.2-3.4.2-.5.5-1 .7-1.4.2-.3.3-.7.4-1 .1-.4 0-.8-.4-.9-.4-.2-.7 0-.9.4-.3.6-.7 1.1-1 1.7-.6 1.2-1.1 2.4-1.7 3.6-1 2-1.9 4.1-2.9 6.1-.3.6-.6 1.1-.9 1.6-.9 1.5-1.8 2.9-2.6 4.5-.6 1-1 2.2-1.5 3.2-.4.8-.8 1.6-1.3 2.3-.7 1.2-1.5 2.4-2.2 3.6-.5.8-.9 1.6-1.3 2.5-.9 1.8-1.9 3.6-2.8 5.5-.9 1.7-1.8 3.5-2.6 5.3-.4.8-.7 1.7-1.1 2.5-.8 1.6-1.5 3.1-2.3 4.6-.3.6-.8 1.2-1.1 1.8-.6 1.1-1.2 2.2-1.9 3.2-.8 1.3-1.8 2.5-3 3.4-1.4 1-2.9 1.7-4.7 1.7-1.1 0-1.4-.2-1.8-1.2-.1-.3-.3-.6-.6-.8-.5-.4-.6-.9-.5-1.5.1-.6.1-1.2.1-1.9 0-1.3.2-2.5.7-3.7.2-.4.3-.7.4-1.1.1-.4.1-.8-.2-1.2-.6-.2-.9.1-1.2.6l-1.8 3c-1 1.8-2.2 3.5-3.5 5.2-2.6 3.3-5.4 6.4-8.4 9.3-1.1 1.1-2.2 2.2-3.2 3.3-.5.6-1.1 1-1.6 1.5-1.2.9-2.3 1.9-3.2 3.1-.8 1.1-2 1.7-3.2 2.4-1.1.6-2.3 1.2-3.5 1.7-.4.2-.9.3-1.4.4-2.2.1-4.5 0-6.7-.6-.6-.2-1.2-.3-1.8-.3-1.3 0-2.4-.6-3.3-1.4-1-.9-1.9-1.9-2.8-2.9-.3-.3-.5-.9-.5-1.3-.1-.9-.1-1.9-.2-2.8 0-.4 0-.8-.5-1.1-.2 0-.4.1-.6.2-.3.2-.6.4-.8.6-1.4 1.5-2.7 2.9-4 4.4-.5.5-.9 1.1-1.2 1.7-.6 1-1.1 2.1-1.7 3.2-.3.6-.6 1.2-.9 1.7-.9 1.3-1.5 2.7-2.1 4.2-.3.9-.8 1.7-1.3 2.6-.5 1-1 1.9-1.5 2.9-.1.2-.1.3-.2.5-.4 2.2-1.5 4.2-2.4 6.2 0 .1-.1.1-.1.2-.3 1.4-1.3 2.5-1.8 3.8-.3 1-.3 1.1.5 1.8.3.2.6.5.3 1-.2 0-.5 0-.7-.1-.8-.2-1.1-.1-1.5.6l-1.2 1.8c-.2.2-.3.5-.4.7-.5 1.3-1.4 2.2-2.6 3-.8.5-1.6 1.1-2.5 1.5-1 .6-2.1.6-3.1-.1-.9-.6-1.9-1-2.9-1.5-.7-.4-1.3-.9-1.9-1.4-.3-.3-.5-.7-.7-1-.7-1.6-1-3.3-.8-5 .2-1.4-.1-2.8-.1-4.2v-4.2c0-.3.1-.6 0-.8-.2-2.1 0-4.1 0-6.2 0-.8.2-1.6.3-2.4.2-1.3.4-2.5.7-3.8.1-.5.2-1 .4-1.5.3-.7.4-1.3.3-2-.2-1.2.2-2.3.7-3.3.4-.8 1-1.5 1.4-2.3.3-.5.4-1.1.5-1.6.2-1.7.6-3.2 1.7-4.4.6-.7 1.1-1.5 1.3-2.4.1-.4.4-.8.6-1.1.2-.4.5-.8.8-1.2.7-1.1.7-2.3.5-3.5-.1-1-1.4-1.4-2.1-.6-.7.8-1.5 1.6-2 2.5-1.1 1.6-2 3.4-3 5.1l-1.2 2.4c-.9 1.8-2.3 3.1-3.8 4.5-.3.2-.5.5-.8.7-.7.5-1 1.2-1.1 2.1-.2 1.7-1.5 2.6-3.3 2.3-1.7-.3-3.3-.8-4.8-1.8-.2-.2-.5-.2-.8-.3-1-.2-1.7-.8-2.2-1.6-.6-.9-1.2-1.8-1.8-2.8-.5-.9-.6-1.8-.5-2.8.1-.9.1-1.8.1-2.6 0-1.5.2-2.9.8-4.2.1-.2.1-.3.2-.5.4-1.6.9-3.1 1.3-4.7l.3-.9c.6-1.1.8-2.3.9-3.6 0-.6.2-1.2.4-1.8.3-.9.8-1.8 1.1-2.7.2-.6.3-1.3.5-1.9.1-.5.3-.9.5-1.3.1-.3.3-.7.4-1 0-.1 0-.2.1-.2.9-1.3.7-2.9 1.1-4.3.2-.7.5-1.3 1.2-1.6 1-.5 1-.7.2-1.4l-.2-.2c0-.1 0-.3.1-.4.9-.8.8-1.9.6-3-.2-1.2 0-2.3.1-3.4 0-.3.3-.7.5-1 .2-.5.6-1 .7-1.6.2-1.1.8-2 1.4-2.9.3-.4.5-.8.6-1.3.6-1.5 1.2-3.1 1.7-4.6.5-1.5 1.1-2.9 1.8-4.2.3-.5.3-1.2.4-1.8 0-.6.2-1.1.6-1.5 1.1-1.1 1.6-2.4 1.8-3.9.1-.7.3-1.4.9-1.9.2-.2.3-.4.4-.6.7-1.6 1.4-3.3 2.1-4.9.2-.4.4-.6.8-.8.7-.2.9-.5.8-1.2-.3-1.5.2-2.8 1-4 .6-1.1 1-2.3 1.5-3.4 0-.1 0-.2.1-.2.8-1.3 1-2.8 1.5-4.1.3-.6.2-1.2-.2-1.7-.2-.2-.4-.5-.5-.8-.4-.7-.4-1.1.2-1.6.6-.5 1.1-1 1.8-1.5.6-.4 1-1 1.3-1.7.7-1.5 1.5-3.1 2.3-4.5.4-.7 1.2-1.3 1.9-2.1 0 0 .1-.1 0-.2-.3-1.1 0-2.3.1-3.4.1-.7.5-1 1.2-.7.2.1.3.1.5.2.5.3 1 .3 1.5.1.5-.1 1.1-.1 1.6-.2.6 0 1 .2 1.4.6.2.2.6.4 1 .4.5.1 1 .2 1.4.5 1 1 2.1 1.9 3.1 2.9.3.3.6.8.8 1.2.5 1.2.4 1.6-.5 2.6-.3.4-.7.8-.8 1.3-.3 1.1-.8 1.9-1.3 2.8l-.6 1.2c-.6 1.1-1.1 2.2-1.7 3.2-.4.7-.8 1.3-.9 2.1-.1.7-.3 1.4-.5 2.1-.1.2-.2.5-.3.7-1 1.5-1.6 3.1-2.2 4.8-.4 1.1-.8 2.2-1 3.4 0 .2-.2.5-.3.7-.4.7-.6 1.5-.7 2.4-.1.5-.3 1-.4 1.5-.2.6-.5 1.2-.7 1.8-.4 1.3-.7 2.5-1 3.8 0 .2-.1.3-.2.5-.7 1-1 2.1-1.2 3.3l-.6 3.9c-.1 1.2-.5 2.3-1.1 3.3-.2.4-.5.7-.8 1-.4.4-.7.8-.6 1.3.1 1.2-.4 2.2-.9 3.2-.5.8-.7 1.7-.8 2.6-.1.5-.2 1.1-.4 1.5-.7 1.3-1.2 2.6-1.6 4-.2.6-.4 1.1-.6 1.7l-.3.9-1.5 6.3c-.3 1.2-.6 2.4-1.1 3.6-.4 1-.6 2.1-.7 3.1-.1.8-.3 1.5-.7 2.2-.1.1-.1.2-.2.4-.1.5 0 .9.3 1.2.4.3.8.2 1.1 0 .3-.2.7-.5.9-.9 1.5-1.8 3-3.6 4.4-5.4.7-.8 1.2-1.8 1.8-2.7.3-.4.6-.9.9-1.3 1-1.2 1.9-2.5 2.7-3.9.2-.5.6-.9 1.1-1.2.7-.5 1.2-1.1 1.6-1.9.4-1 1.1-1.7 1.8-2.5 1.4-1.5 2.7-3 4.1-4.5.6-.7 1.3-.8 2.1-.5 1.2.4 2.3 1 3.4 1.5l5.1 2.4c.5.2.9.4 1.4.7.6.4.6.8.3 1.4-.5 1.1-1 2.2-1.5 3.2-.1.3-.2.5-.3.8-.3.6-.7 1.2-.9 1.9l-1.5 3.6c-.1.2-.2.4-.2.6-.6 2.4-1.7 4.5-3 6.5-.3.5-.4 1-.7 1.6-.4 1-.7 2-1.2 2.9-.4.8-.6 1.5-.6 2.4 0 .6-.2 1.2-.5 1.7-.2.3-.3.6-.4.9-.5 1.3-1 2.5-1.7 3.6-.3.4-.5.9-.6 1.4-.4 2-1.5 3.7-2.4 5.4-.7 1.2-1.2 2.4-1.2 3.9 0 1.1-.3 2.1-.9 2.9-.7.9-1.2 1.9-1.4 3.1 0 .2 0 .4-.1.5-.8 1.3-1.1 2.7-1.7 4.1-.5 1.3-1 2.5-1.5 3.8-.4 1.3-.7 2.6-1.3 3.8-.9 2-1 4.1-1.5 6.1-.1.5-.2 1-.2 1.4 0 .6.3 1.1.8 1.2.5.1.9-.1 1.3-.6 1-1.6 2-3.3 3-4.9.4-.7.7-1.5 1.1-2.3.7-1.4 1.4-2.8 2.1-4.3.7-1.7 1.9-3.1 2.9-4.6 1.3-2 2.6-3.9 3.9-5.9.9-1.4 1.8-2.7 2.8-4.1 1.2-1.8 2.4-3.5 3.6-5.3 1-1.6 1.9-3.2 2.8-4.8.3-.6.6-1.2.8-1.8 1-2.3 2.1-4.5 2.8-6.9.3-1.3.8-2.5 1.5-3.7.7-1.2 1.3-2.6 1.3-4.1 0-1.8.3-3.5.7-5.2.4-1.9 1.2-3.7 1.9-5.4.3-.7.4-1.4.7-2 .5-1.2.9-2.4 1.5-3.6.4-.7.7-1.5.7-2.2.1-1 .5-1.9 1-2.7.9-1.3 1.1-2.8 1.2-4.3.1-.6.1-1.1.4-1.6.1-.2.3-.5.3-.7.4-2.2 1.7-3.9 3.2-5.4.6-.6 1.1-1.2 1.6-1.8.5-.7.9-1.4 1-2.3 0-.5.3-1 .7-1.3.9-.8 1.6-1.8 2.1-2.9.5-.9 1-1.8 1.9-2.4.6-.5 1-1.1 1.3-1.9.7-1.5 1.3-3.1 2.5-4.3.6-.6 1-1.2 1.2-2 .1-.3.3-.6.5-.8 1.6-1 2.6-2.5 3.7-4 1.4-2 3-3.7 4.8-5.4.9-.8 1.8-1.7 2.7-2.6.5-.5 1.1-.9 1.7-1.3.7-.5 1.5-.6 2.3-.2.6.3 1.2.3 1.8.3.6-.1 1.3 0 2-.1 1 0 2-.1 3-.2.9-.1 1.2 0 1.7.9.3.6.7 1.3 1.1 1.8.3.4.7.7 1.1 1 .2.1.3.3.5.4-1 1.3-1 2.8-1.4 4.2-.4 1.6-1 3-1.7 4.4-.6 1.1-1.1 2.2-1.7 3.3-.5 1-1.1 2-1.6 3.1-.7 1.5-1.2 3.1-1.9 4.7-.8 1.8-1.4 3.6-2.5 5.2-.6.9-1.1 2-1.6 3-.9 1.7-1.8 3.5-3.2 4.9-.9.8-1.4 1.8-1.9 2.8-.8 1.8-1.9 3.4-2.7 5.1-.2.3-.3.7-.5 1-.5 1.7-1.5 3-2.9 4-1.8 1.3-3.4 2.8-5 4.4l-.2.2c-1 1.8-2.7 2.9-4.2 4.3-1.6 1.6-3.4 3.1-4.8 5l-.9.9c-1.2.9-2 2.2-2.2 3.7-.1.8-.3 1.6-.4 2.4-.1.6 0 1.2-.1 1.8-.1.6-.1 1.3-.3 1.8-.5 1.5-.8 2.9-1 4.5 0 .7-.2 1.2-.8 1.6-.4.3-.6.6-.4 1.2.2.1.5.2.7.3.2.1.5.2.6.4.6 1.1 1.1 2.1.5 3.4v.1c-1.2 1.5-.5 2.9.5 4.2.9 1.1 2 2.1 3.3 2.8 1 .5 1.9.6 2.9 0 .8-.5 1.6-1 2.4-1.6.3-.2.5-.6.8-.9.5-.6.9-1.3 1.4-1.8 1-.9 1.9-2 2.6-3.1.4-.5.8-1.1 1.2-1.6.9-1.2 1.8-2.4 2.7-3.5 1.3-1.7 2.7-3.3 4.1-5 .5-.7 1-1.4 1.4-2.1 1-1.4 1.9-2.8 2.9-4.1.8-1.1 1.7-2.3 2.6-3.3.6-.8 1.3-1.5 2-2.3 1.4-1.5 2.3-3.2 3-5.1.7-1.8 1.7-3.4 3.1-4.8l.3-.3c.5-.7.9-1.4 1.4-2 .8-1.1 1.4-2.4 1.7-3.8.2-.7.5-1.4.7-2.1.2-.4.3-.8.5-1.3l.3-1.2c.3-.9.5-1.7.2-2.7-.1-.4 0-.8.1-1.2.1-.7.3-1.4.3-2.1.1-.6.2-1 .5-1.5.8-1.1 1.3-2.4 1.6-3.7 0-.2 0-.3.1-.5.6-1.3.9-2.7 1.3-4.1.2-.5.2-1 .1-1.6-.2-.7 0-1.4.2-2 .6-1.4.9-2.9 1.4-4.4.2-.6.4-1.3.7-1.9.6-1.6 1.4-3.2 1.5-4.9 0-.5.2-.9.3-1.4l.9-3.3c.2-.6.4-1.2.5-1.8.4-1.4.9-2.8 1.3-4.2.2-.5.3-1 .5-1.5.2-.6.6-1 1.1-1.4.5-.4.6-.6.3-1.2-.4-.6-.2-1 .2-1.5.7-.7 1.4-1.3 2.3-1.8 1.4-.7 2.6-1.7 4-2.4 1.7-.9 3.5-1.3 5.4-.5.4.2.8.4 1.1.7.7.6.8 1.1.4 1.9-.3.7-.7 1.3-1 2-1.1 2.1-2.1 4.1-3.1 6.2-.9 1.7-1.7 3.4-2.6 5.2-.1.2-.2.3-.2.5-.2 1.2-.7 2.2-1 3.3-.4 1.2-1 2.2-1.7 3.2-.5.7-.8 1.5-.8 2.4 0 1.8-.6 3.4-1.5 5s-1.5 3.2-1.8 5v.3c.2 1.1 0 2.1-.6 3.1v.2c-.1 1.8-1 3.2-1.6 4.8-.2.5-.4 1-.5 1.5-.2.7 0 .5-1.2 1.5zm-18.9-28.3c-.9-.3-1.5.2-1.9.7-1.2 1.3-2.4 2.5-3.5 3.8-.2.2-.4.5-.6.7-.6 1-1.2 2-1.8 3.1-.5.8-1 1.6-1.4 2.4-.5 1-1 2-1.8 2.8-.7.7-1.4 1.5-1.6 2.6-.1.3-.3.5-.4.8-.9 1.7-2.2 3.2-2.9 5.1-.3.7-.6 1.3-1 1.9-.9 1.3-1.7 2.7-2.4 4.1-.4 1-.9 1.9-1.3 2.9-.4.9-.3 1.8-.2 2.7 0 .4.3.7.7.7.4 0 .7-.3.8-.7.1-.2.1-.4.1-.6l.3-.9c.3-.5.6-.9.8-1.4.7-1.2 1.4-2.3 2.4-3.3.5-.5.9-1.2 1.3-1.8 1-1.4 2-2.8 3-4.1.4-.5.9-1.1 1.2-1.6.9-1.4 1.9-2.8 2.8-4.3 1-1.6 2.1-3.1 2.8-4.8 1-2.3 2.4-4.5 3.3-6.9.4-1 .8-2.1 1.1-3.1.1-.2.1-.5.2-.8zm-54.7 41.4c-.3.1-.6 0-.9.1-.7.1-1.1.6-1.1 1.3 0 .4.1.7.5.9.4.1.7 0 .9-.3.3-.4.6-.6 1.1-.5h.3c.4-.1.6-.3.6-.7 0-.4-.3-.6-.6-.7-.2-.2-.5-.1-.8-.1zm-28.1 9.8c.8 0 1.3-.4 1.3-1.2 0-.8-.4-1.3-1.1-1.3-.8 0-1.4.4-1.5 1.2.1.8.5 1.3 1.3 1.3zm2.7-5.1c.4-.1.7-.1 1.1-.2.4-.1.6-.3.6-.7 0-.4-.2-.8-.6-.8-.7-.1-1.5 0-2.2 0-.4 0-.6.3-.6.7 0 .4.2.6.6.7.3.2.7.2 1.1.3zm8.3-27.5c0-.5-.2-1-.6-1.2-.3-.2-.6-.2-.9.1-.4.4-.4.8-.3 1.3.1.5.5.8 1 .8.5-.1.8-.5.8-1zm14.9 28.1c.2.4.3.8.6 1 .3.3.6.2.9-.1.3-.4.3-1.3-.1-1.7-.3-.3-.6-.4-.9-.1-.1.2-.3.5-.5.9zm-19.2-11.7c0-.5-.3-.9-.8-.9s-.8.4-.8 1 .3 1 .8 1c.4 0 .8-.5.8-1.1zm5.1-24.6c.2.5.4.5.7.3.4-.2.8-.5 1.1-.7.4-.3.4-.7.1-1-.3-.3-.8-.3-1 .1-.4.4-.6.9-.9 1.3zm85.1 19.3c-.5 0-.9.3-.9.7 0 .4.5.8 1 .8s.9-.3.9-.7c0-.5-.4-.8-1-.8zm-66.9 13.7c-.4 0-.7.4-.7.8s.4.8.7.8c.4 0 .7-.4.7-.8.1-.5-.3-.9-.7-.8zm12.8 16.9c-.4 0-.7.2-.8.6 0 .4.3.7.7.8.4 0 .8-.3.8-.7.1-.4-.3-.7-.7-.7zm9.3-9.2c.4 0 .7-.3.7-.7 0-.4-.3-.7-.7-.7-.4 0-.6.3-.7.6 0 .5.3.8.7.8zm-3.1 3.2c.4 0 .7-.3.7-.7 0-.4-.4-.7-.7-.7-.3 0-.6.3-.6.7-.1.4.2.7.6.7zm-38.3-22.8c0-.3-.3-.6-.6-.7-.4 0-.7.2-.7.6 0 .4.3.7.7.7.3.1.6-.2.6-.6zm-9.4-7.4c0-.4-.3-.6-.7-.6-.4 0-.6.2-.6.6 0 .4.3.6.6.6.4.1.7-.2.7-.6zm-.1 34.2c.2-.4.1-.8-.2-1-.2-.1-.5-.1-.7.1-.1.1-.2.4-.1.6.1.4.5.5 1 .3zM148 123c0-.3-.3-.6-.6-.6-.4 0-.6.2-.6.6 0 .3.2.6.5.6.4.1.7-.2.7-.6zm-17.9-19.9c0-.3-.2-.6-.6-.6-.3 0-.6.2-.6.6 0 .3.3.6.6.6.4 0 .6-.3.6-.6zm-10.3 36.7c-.1-.4-.3-.5-.6-.5-.4 0-.7.3-.6.6.1.4.3.5.7.5.3 0 .5-.2.5-.6zm45.5 17.5c.3 0 .6-.2.6-.6 0-.4-.3-.7-.6-.6-.4 0-.6.2-.6.6 0 .4.2.5.6.6zm-12.7-38.9c.4 0 .6-.3.6-.6 0-.4-.3-.6-.7-.6-.3 0-.6.3-.5.6.1.4.3.6.6.6zm-34.7 5.1c-.3 0-.6.3-.6.6s.3.6.6.6c.4 0 .6-.2.6-.6.1-.4-.2-.6-.6-.6zm10.6-18.3c-.2-.7-.5-1.1-1.2-1.2-.1.8.3 1.3 1.2 1.2zm-13 7.3c-.3-.2-.5-.4-.7-.5-.3 0-.5.2-.5.5s.2.5.5.5c.2 0 .4-.3.7-.5zm48.3 24.1c-.3-.2-.5-.5-.7-.5-.3 0-.5.2-.5.5s.2.5.5.5c.2-.1.4-.3.7-.5zm-32.4-45.8c-.2.3-.5.5-.5.7 0 .3.3.5.6.5.2 0 .5-.3.4-.4 0-.3-.2-.4-.5-.8zm-11.3 44.9c.6.6.7.6 1.1 0-.5-.6-.6-.6-1.1 0zm96.1-14.9c.2.3.5.2.7 0 .2-.2.2-.5-.2-.7-.3.1-.6.3-.5.7zm-102.8-5.1c-.3-.2-.5-.4-.6-.4-.1 0-.3.3-.4.4 0 .1.2.3.4.3.1.1.3-.1.6-.3zm29 8.4c.1.4.4.5.6.3.1-.1.1-.4.1-.5-.2-.3-.5-.2-.7.2zm22.4 18.5c.2.8.2.8.8.5-.1-.4-.3-.6-.8-.5zM138.2 56c0-.4-.1-.5-.4-.4-.1.3 0 .4.4.4zm-8.7 86.5s-.1 0-.1.1v.1h.1c.1-.1.1-.1 0-.2zm3.2-60.5h-.1v.1l.1.1V82zM128.9 204.2c-.1.9-.5 1.3-1.2 1.1-.2 0-.4-.2-.4-.3-.2-.6-.3-1.3 0-1.9.2-.5.9-.5 1.2 0 .2.3.2.7.4 1.1zM92.8 83.1c.5-.4 1-.3 1.5-.3s.7.4.7 1c-.1.5-.4.8-.9.7-.7-.2-1.1-.7-1.3-1.4zM17.6 196.6c0 .5-.3.9-.8.9s-.9-.4-.9-.9.5-1 .9-.9c.5-.1.8.3.8.9zM281 120.3c-.2-.5-.3-.8-.4-1.1-.1-.4.1-.7.5-.7.3-.1.7-.1.9.2.2.3.1.7-.2.9-.1.3-.4.4-.8.7zM120.5 202.2c-.5 0-.8-.2-.8-.7 0-.4.2-.8.6-.8.4 0 .9.5.9.9s-.2.6-.7.6zM99 80.9c-.1.6-.5.9-.9 1.2-.7-.3-.7-.3-.8-1 .6-.6 1-.6 1.7-.2zM277.2 122.4c-.5 0-.8-.3-.8-.7 0-.3.3-.6.7-.6.4 0 .8.3.8.7 0 .4-.2.6-.7.6zM19.7 215.7c.1.5 0 .8-.3 1-.1.1-.4.2-.6.1-.2-.1-.3-.3-.3-.5-.1-.6.5-.9 1.2-.6zM75.1 131.1c.7-.1 1.3-.1 1.8-.1.3.5.1.6-.2.8-.5.1-1.1-.1-1.6-.7zM301.1 117.7c-.5.6-.7.6-1.4.2.2-.7.7-.8 1.4-.2zM95.5 71.4c.1.7 0 .9-.8 1.1-.4-.2-.3-.6-.1-.9.2-.2.5-.4.9-.2zM123.8 201c.4-.6.9-.7 1.5-.2-.3.5-.7.6-1.5.2z"/><path d="M140.5 188.3c-.8.1-1-.1-.9-.9.8-.2 1 0 .9.9zM130.4 201.9c-.1-.2-.2-.4-.2-.7 0-.3.2-.6.5-.5.2.1.3.4.3.6 0 .2-.2.4-.4.6 0 .1-.1 0-.2 0zM94.9 93.9c-.2.8-.4 1-1.1.8.2-.7.3-.8 1.1-.8zM211.6 86.3c-.6-.2-1-.6-1.3-1.2.5.1 1.1.5 1.3 1.2zM151.6 179.8c.4.4.4.7.1 1.1-.6-.3-.6-.7-.1-1.1zM132.6 205.1c-.3.4-.6.4-1.1.1.2-.2.3-.4.5-.5.2-.2.5 0 .6.4zM105 74.6c-.5-.2-.9-.4-.9-1 .7.1.8.3.9 1zM21.8 201.8c-.3.2-.5.4-.6.4-.1 0-.3-.2-.3-.4 0-.1.2-.4.3-.4.1.1.3.2.6.4zM141.1 191.1c-.5-.3-.5-.6 0-.9.3.2.3.5 0 .9zM123.1 203.2c-.4-.4-.3-.7.1-.9.4.3.3.6-.1.9zM278.5 126.4c.1-.2.2-.4.4-.6.1.5.1.5-.4.6zM299.6 121.9c.1-.1.2-.1.2-.1l.2.2c-.1 0-.1.1-.2.1s-.1-.1-.2-.2zM140.9 198.9c-.1-.1-.2-.1-.2-.2s.1-.1.1-.2c.1 0 .1.1.2.1.1.2 0 .2-.1.3zM287.2 127c.1.1.2.1.2.2s-.1.1-.1.2c-.1 0-.2-.1-.2-.1-.1-.1 0-.2.1-.3zM117.1 45.3c-.1 0-.2.1-.2.1s-.1-.1-.1-.2.1-.1.2-.1c0 0 0 .1.1.2zM94.9 81v.3h-.1c0-.1-.1-.2-.1-.3h.2zM88.5 105.1h.1c-.1.1-.1.1-.1 0 0 .1 0 .1 0 0zM41.2 91.4c-.1.1-.1.1 0 0-.1 0-.1 0 0 0-.1 0-.1 0 0 0zM269.4 124.1s.1 0 0 0c.1 0 .1.1 0 0 0 .1 0 0 0 0zM283.9 118.7c.1 0 .1 0 0 0 .1 0 .1 0 0 0 .1.1 0 .1 0 0z"/></svg>