<svg xmlns="http://www.w3.org/2000/svg" viewBox="0 0 309.8 246.9"><path d="M137.9 193.8c-.9.8-1.5 0-2.1-.5-.1.1-.3.2-.3.3-.2 1.2-1.3 1.8-1.9 2.7-.6.9-1.6 1.6-2.6 2.1-.5.2-.8.6-1.3.8-1.4.7-2.7.4-4-.3-1-.6-2-1.1-3-1.7-1.2-.8-2.1-1.7-2.2-3.3-.1-1.5-.3-2.9-.1-4.4.1-.8-.1-1.7-.2-2.6-.1-.7-.2-1.4-.3-2.2-.1-.9-.1-1.8.1-2.7.1-.6.2-1.3.1-1.9-.2-1.1-.2-2.1 0-3.2.1-.6 0-1.3.1-1.9 0-.6.1-1.2.2-1.8.1-.8.2-1.5.4-2.3.2-.8.3-1.7.5-2.5.4-1.2.6-2.4.5-3.6-.1-.9.2-1.8.6-2.6.5-1.1 1.2-2.1 1.8-3.1.4-.5.6-1.2.5-1.8-.1-1.5.5-2.7 1.3-3.8.6-.8 1-1.7 1.5-2.5.2-.4.4-.9.7-1.3 1.1-1.3 1.3-2.8 1.3-4.3 0-.6-.4-1.1-.9-1.3-.6-.3-1 0-1.4.4-1.2 1.3-2.3 2.6-3 4.2-.2.5-.6.9-.9 1.4-.7 1.2-1.3 2.4-1.9 3.7-.6 1.4-1.5 2.6-2.6 3.7-.8.7-1.6 1.5-2.4 2.2-.7.6-1.2 1.4-1.3 2.4-.1 1-1.1 2.1-2.1 2.3-.3 0-.7-.1-1-.1-.8-.2-1.6-.4-2.3-.6-.4-.1-.9-.3-1.3-.5-.6-.3-1.1-.6-1.7-.8-1.2-.4-2.2-1.1-2.9-2.2-.6-1-1.3-2.1-1.9-3.1-.3-.6-.4-1.3-.3-2 .1-1.1.1-2.2.2-3.2 0-.5.1-1 .2-1.5.5-2 1.1-4 1.7-5.9.3-.9.5-1.9.9-2.8.6-1.4.7-2.9.9-4.3.1-.7.3-1.3.6-1.9.6-1.4 1.3-2.7 1.4-4.3 0-.3.1-.6.2-.9l1.2.3c.1-.2.3-.3.4-.5.1-.1.1-.3.1-.4.6-.9.6-1.7 0-2.7-.6-1.1.1-2.1.6-3.1.3 0 .6.1.8.1.2 0 .4.1.6 0 .4 0 .8-.1.9-.6.1-.3-.2-.6-.8-.8-1.3-.3-1.3-.4-1.2-1.7.1-.7.2-1.4.4-2.1.2-1 .5-1.9.6-2.9.1-1.3.9-2.3 1.4-3.4.1-.3.5-.4.8-.6.5-.4.7-.6.4-1.1-.3-.5-.2-.9.1-1.3.1-.1.2-.3.3-.5.4-1.2.8-2.3 1.2-3.5.1-.3.1-.5.3-.8 1.1-2.2 1.8-4.6 2.4-7 .2-1 .7-1.8 1.5-2.4.7-.6 1-1.3 1-2.2 0-.4.2-.8.3-1.1.1-.3.4-.6.4-.9.1-1.2.9-2.1 1.4-3.1.3-.6.5-1.2.8-1.8.2-.5.5-.9.7-1.3.1-.2.3-.3.4-.5.2-.5.5-.7 1-.9.5-.2.6-.5.6-1 0-.2-.2-.5-.2-.7-.1-.3-.2-.7-.1-1 .2-.7.6-1.4.9-2.2.2-.5.5-1 .8-1.4.5-.9.9-1.8 1.1-2.8.1-.3.3-.5.4-.8.2-.4.3-.8.5-1.3s.2-1 .4-1.5c.3-.8.2-1.5-.4-2.1l-.3-.3c-.4-.5-.5-.9 0-1.4.4-.4.8-.8 1.3-1.1.9-.7 1.6-1.4 2.1-2.5.5-1.4 1.3-2.7 2-4 .2-.5.6-.9.9-1.3.9-1 1.1-2.2 1.1-3.5 0-.4 0-.7.1-1 .2-.9.8-1.2 1.6-.8.5.3 1 .3 1.6.3.6-.1 1.1-.1 1.7-.1.6 0 1.2.1 1.7.5.3.2.8.3 1.2.5.4.2.9.3 1.2.6 1 .9 2 1.8 2.9 2.7.3.4.6.8.8 1.3.5 1.1.4 1.5-.5 2.4-.5.4-.7 1-1 1.6-.3.8-.8 1.7-1.2 2.5-.1.3-.4.5-.5.8-.3 1.2-1 2.1-1.5 3.1-.3.6-.6 1.2-1 1.8-.4.6-.6 1.3-.7 2.1 0 .7-.3 1.4-.7 2-.6.9-1.2 1.9-1.5 2.9-.8 2.4-1.7 4.8-2.5 7.3-.4 1.3-.6 2.7-1.3 4-.2.3-.1.7-.2 1.1-.1.4-.2.9-.3 1.3-.2.6-.4 1.1-.6 1.7-.1.3-.2.7-.4 1-.5.6-.6 1.4-.7 2.1-.2 1.2-.4 2.3-.6 3.5-.1.5-.1 1-.2 1.5-.2.8-.4 1.7-.7 2.5-.2.4-.5.8-.9 1.1-.5.4-.8.8-.7 1.5.1.8 0 1.5-.5 2.2-.4.6-.7 1.3-1 2-.2.4-.3.9-.3 1.4 0 .7-.3 1.4-.6 2-.5 1.2-.9 2.4-1.4 3.6-.8 1.8-1 3.7-1.7 5.6-.1.2-.1.3-.2.5-.4 1.6-.7 3.3-1.2 4.9-.5 1.7-1 3.5-1.3 5.3-.1.6-.5 1.2-.7 1.8-.1.4-.2.9-.1 1.3.2.7.8.9 1.4.4.2-.1.3-.3.4-.5 1.8-2.2 3.6-4.4 5.4-6.7.1-.2.3-.4.3-.5.6-1.3 1.5-2.4 2.4-3.6.5-.7 1-1.5 1.5-2.2.6-1 1.2-1.9 2.2-2.6.3-.2.6-.6.8-1 .3-.8.7-1.4 1.2-2 1.6-1.8 3.3-3.7 4.9-5.5.3-.4.7-.6 1.2-.5.5.1 1 .1 1.5.3 2.2 1 4.3 1.9 6.5 3 .5.2.9.6 1.4.9.5.3 1 .6 1.5.8.6.3.8.6.4 1.2-.9 1.1-1.1 2.4-1.7 3.6-.2.4-.4.9-.6 1.3-.1.2-.2.3-.3.5-.8 2.1-1.5 4.2-2.3 6.3-.4 1-.9 2-1.4 3-.4.8-.9 1.5-1.3 2.2-.3.5-.5 1.1-.7 1.7-.3.8-.7 1.7-1.1 2.5-.2.5-.5 1.1-.6 1.7-.1 1.4-.8 2.7-1.3 4-.6 1.4-1.3 2.7-2 4-.2.4-.3.9-.4 1.4-.1.7-.3 1.3-.7 1.9-.8 1.4-1.6 2.8-2.2 4.3-.2.5-.3 1.2-.3 1.7.1 1.6-.5 2.8-1.4 4-.3.4-.5.8-.6 1.3-.3 1.2-.8 2.3-1.4 3.5l-.6 1.5c-.2.5-.4 1-.6 1.4-.1.2-.2.3-.2.5-.8 2.2-1.6 4.5-2.3 6.7-.1.4-.3.8-.4 1.1-.1.3-.3.7-.3 1-.3 1.6-.6 3.1-.8 4.7-.1.4 0 .8 0 1.2.1.5.4.8.9.8s.8-.2 1-.6c.3-.5.5-1.1.8-1.6.6-.9 1.2-1.7 1.7-2.6.6-1 1.1-2.1 1.6-3.2.4-.8.8-1.6 1.2-2.5 1-2.1 2.1-4.1 3.5-6 1.9-2.7 3.5-5.5 5.3-8.2.5-.8 1.1-1.7 1.7-2.4 1.6-2 3-4.2 4.2-6.4.9-1.5 1.7-3 2.5-4.6.8-1.7 1.6-3.4 2.3-5.2.5-1.2.8-2.5 1.2-3.7l.3-.9h.8c.4 0 .8-.1.9-.5.2-.4-.1-.7-.4-.9-.1-.1-.3-.2-.4-.2.1-.3 0-.5.1-.6.8-1.1.8-2.4.9-3.6.1-.7.2-1.4.3-2.2l.3-1.5c.1-1.6.6-3.1 1.1-4.6 0-.1.1-.2.1-.3 1-1.6 1.3-3.5 2-5.2.4-1 .8-2 1.3-3 .4-.7.6-1.4.6-2.2 0-.8.3-1.5.8-2.1 1.1-1.4 1.3-3 1.5-4.7.1-.5.2-1 .4-1.5.1-.3.3-.5.3-.7.4-2.3 1.8-3.9 3.3-5.6.7-.8 1.4-1.7 2-2.5.4-.5.6-1.1.6-1.7 0-.5.2-1 .6-1.3 1-.8 1.7-2 2.3-3.1.4-.8 1-1.5 1.7-2.1.7-.6 1.1-1.3 1.4-2.1.7-1.5 1.2-3.2 2.6-4.3.5-.4.7-1.1 1.1-1.6.3-.4.5-.9.9-1.2 1.2-1 2.2-2.2 3.1-3.5 1.3-1.9 2.8-3.5 4.5-5.1 1.3-1.2 2.5-2.4 3.8-3.6.5-.4 1.1-.8 1.7-1 .6-.3 1.2-.1 1.7.1.4.1.9.3 1.3.3h3.8c.6 0 1.1-.1 1.7-.2.9-.1 1.2 0 1.6.7.5.8 1 1.5 1.4 2.3.2.5.5 1 .4 1.5 0 1.2-.2 2.4-.4 3.6-.3 1.7-1 3.2-1.9 4.7-.7 1.2-1.2 2.4-1.8 3.6-.3.6-.7 1.3-1 1.9-.7 1.8-1.4 3.6-2.2 5.4-.9 2.1-1.8 4.1-3.1 6-.4.6-.6 1.2-.9 1.8-.8 1.6-1.7 3.2-2.8 4.7l-.6.6c-1.1 1-1.7 2.4-2.4 3.7-.4.7-.6 1.6-1.1 2.2-.8 1.1-1.3 2.3-1.8 3.5-.5 1.1-1.1 2.1-2.1 2.9-1.5 1.2-3 2.4-4.4 3.7-.7.6-1.2 1.3-1.8 2-.7.7-1.3 1.4-2 2.1-.7.7-1.6 1.4-2.3 2.2-1.6 1.6-3.3 3.1-4.6 5-.2.2-.4.5-.6.6-1.3.8-1.8 2-2.1 3.3-.3 1.3-.4 2.6-.4 3.9-.1.9-.2 1.8-.4 2.6-.4 1.3-.6 2.7-.9 4-.1.4-.1.9-.2 1.3-.2.9-.1 1.7.3 2.5.3.6.6 1.3.8 2 .1.3 0 .6 0 .9 0 .2-.1.4-.2.6-1.1 1.6-.5 3 .6 4.2.8.9 1.8 1.8 2.7 2.5 1 .8 2.7.8 3.8.1.4-.3.9-.6 1.3-.8.7-.3 1.1-1 1.5-1.6.7-1 1.6-1.8 2.4-2.7.7-.7 1.2-1.7 1.8-2.5.3-.5.7-.9 1-1.3.7-1 1.5-1.9 2.2-2.9.9-1.2 1.9-2.3 2.9-3.5 1.5-1.8 2.7-3.8 4-5.7 1.6-2.3 3.5-4.5 5.2-6.7 1.2-1.5 2.3-2.9 3.4-4.4.2-.3.4-.7.5-1 .5-1.6 1.3-3 2.2-4.3 1.1-1.6 2.4-3.2 3.6-4.7.5-.7 1.2-1.2 1.7-1.8.7-.7 1.3-1.5 1.9-2.3.3-.4.4-1 .6-1.5.2-.4.2-.9.5-1.3.5-.8.6-1.7.6-2.6 0-.5-.1-1-.1-1.5 0-.6.1-1.1.5-1.6s.5-1.1.5-1.7c-.1-1.1.2-2.1.4-3.1.2-1.1.3-2.2.5-3.3.1-.7.3-1.3.5-2 .2-.6.4-1.2.4-1.8.1-1.6.3-3.3.8-4.9.4-1.5.7-2.9 1.1-4.4.1-.3.1-.6.1-1 0-.3 0-.5.1-.8.5-2.7 1-5.4 1.5-8 .4-2.1.7-4.2.6-6.3-.1-1.8 0-3.6.2-5.4.1-1.2.8-2 2-2.4 1.3-.4 2.7-.8 4.1-.7.7 0 1.2.2 1.7.7.4.4.8.8 1.1 1.2.5.6.5 1.2 0 1.8-.9 1.3-1.5 2.6-1.4 4.2.1 1.7-.4 3.3-.7 5-.5 2.7-.9 5.4-1.4 8.1-.1.6-.3 1.3-.5 1.9-.3.8-.5 1.7-.5 2.6 0 1.3-.1 2.5-.6 3.7-.2.5-.3 1-.3 1.6 0 .4.1.7.4.9.4.2.7.1 1-.2.3-.4.7-.8.9-1.3.4-1 .6-2 1-3 .1-.4.3-.8.4-1.2.1-.3.3-.5.3-.8.2-1.8 1.2-3.2 1.9-4.8.4-.9.7-1.8 1.1-2.7.5-1.4 1.1-2.9 1.6-4.3.4-1.2 1-2.3 1.8-3.3.8-1.1 1.2-2.4 1.6-3.7.5-1.7 1.2-3.3 2.1-4.8.5-.8 1.4-1.3 2.4-1.5.9-.1 1.7-.4 2.6-.5.6-.1 1.1-.2 1.7-.3.5-.1.9.2 1.2.7.7 1.1.8 2.1.2 3.3-.6 1.1-1.1 2.2-1.4 3.4-.2.9-.7 1.8-1.1 2.7-.4 1-.7 2-1 3.1-.2.9-.7 1.8-1 2.6-.5 1.5-1 3-1.4 4.6-.3 1.1-.4 2.2-.6 3.3-.1.5-.1 1.1-.2 1.6-.4 1.2-.3 2.4-.1 3.7.4 1.8 1 3.5 2.1 5 .2.3.3.7.5 1 .5.8 1.4 1 2.1.4 1.5-1.2 3-2.4 4.4-3.7.6-.5 1-1.4 1.4-2.1.5-.9.9-2 1.4-2.9.5-.9.9-1.8 1.1-2.8.2-.8.6-1.5 1.1-2.1.1-.1.2-.2.2-.3.4-1.2 1.2-2.3 1.2-3.7 0-.2 0-.5.1-.6.6-1.2 1-2.4 1.8-3.5.7-1.1 1.7-2 2.7-2.9 1-.9 1.7-1.8 2.1-3.1.1-.4.4-.7.7-1.1.6-.8 1.3-1.5 1.9-2.3.7-.9 1.3-1.9 2.3-2.6.3-.2.6-.6.8-.9.7-1.1 1.3-2.3 2-3.5.1-.2.4-.5.6-.6.6-.4 1.1-1 1.5-1.7.3-.5.7-.9 1.1-1.2.8-.7 1.7-1.4 2.4-2.2 1.8-2.1 3.7-4 5.8-5.7 1-.8 2-1.6 3-2.5.8-.7 1.7-.9 2.7-.7 1 .3 1.9.4 2.9.3.4 0 .9.1 1.3.2.7 0 1.3.1 2 .1 1-.1 1.6.2 2 1 .3.7.5 1.4 1.1 1.9.1.1.2.5.2.7v1.9c0 .7 0 1.3-.5 1.8-.2.2-.2.5-.3.7-.2 1-.6 1.9-1.2 2.8-.6.9-1.1 1.9-1.7 2.8-.6 1-1.2 1.9-1.8 2.9-.5.8-.9 1.6-1.3 2.4-.7 1.4-1.4 2.9-2.1 4.3-.3.6-.7 1.2-1.1 1.8-1 1.6-2 3.1-3 4.6-.8 1.2-1.7 2.3-2.7 3.4-.9.9-1.5 2-2.2 3.1-.4.6-.7 1.3-1.1 1.9-.6 1-1.3 2-1.8 3-.5 1.1-1.4 2-2.4 2.7-1.4 1.1-2.9 2.2-4.3 3.3-.4.3-.8.6-1.1 1.1-.8 1.1-2 1.9-3 2.8-1.3 1.1-2.7 2.2-4 3.4l-1.5 1.5c-.4.4-.9.8-1.3 1.2-.8.7-1.4 1.4-1.6 2.5-.1.4-.3.9-.4 1.3-.2 1-.4 1.9-.5 2.9-.1.7-.2 1.4-.5 2.1-.3.6-.5 1.3-.7 2-.2.8-.4 1.6-.6 2.3-.2.8-.3 1.5.1 2.3.1.3.2.6.4.9.4.9.3 1.7-.2 2.5-.3.4-.4 1-.5 1.5-.2.7-.3 1.4-.5 2.1-.4 1.1-.5 2.2-.3 3.3.3 1.3 1 1.6 2 .8.8-.6 1.5-1.2 2.1-1.9 1.5-1.8 3-3.7 4.4-5.6 1.4-2 2.7-4 4.1-6 .4-.6.9-1.1 1.4-1.6.3-.4.6-.8.6-1.4 0-.4.2-.7.6-.9.6-.3.9-.8.8-1.4-.1-.7.2-1.2.9-1.5.3-.2.7-.5.9-.8 1.7-2.6 3.6-5.1 5.6-7.6 1.1-1.4 1.9-2.9 2.7-4.4.6-1.3 1.5-2.6 2.2-3.9.5-.9 1-1.8 1.6-2.7 1-1.7 2.4-3 4-4.1.4-.3.9-.4 1.4-.5.4-.1.7-.1 1.1-.1h1.5v1.2c-.2 1.2-.9 2.2-1.5 3.3-.7 1.2-1.2 2.6-1.5 3.9-.3 1.1-.8 2-1.5 2.9-1.2 1.7-2.4 3.3-3.7 4.9-.4.6-.9 1.2-1.4 1.7-.9.8-1.6 1.8-2.1 2.8-.6 1-1.3 2-2 3-.1.2-.3.3-.4.5-.5.9-.2 1.5.8 1.6.3 0 .5.1.8.2 0 .9-.6 1.3-1.1 1.9-.3-.3-.4-.5-.6-.7-.4-.5-.9-.5-1.4 0-.2.2-.3.5-.5.7-1.5 2.5-3.2 4.9-5.2 7.1-1.1 1.2-2.1 2.4-3.1 3.6-.1.2-.3.4-.3.6-.2.4-.5.6-.9.9-.6.4-1.1.9-1.5 1.4-.9 1.2-1.9 2.2-3 3.2-.8.7-1.5 1.4-2.1 2.3-.8 1.1-1.8 1.9-2.9 2.5-.9.6-1.9 1-3 1.2-1 .2-2 .6-3 .9-1.4.3-2.7.1-4.1-.1-.8-.1-1.5-.6-1.9-1.3-.6-.9-1.2-1.8-1.6-2.7-.2-.5-.2-1-.3-1.6l-.3-2.4c0-.2-.1-.3-.1-.5.1-1.5-.1-3.1.3-4.6.3-1.2.4-2.3.8-3.5.2-.4.2-1 .2-1.4.1-1.2.1-2.5.2-3.7 0-.5.3-.9.6-1.3.6-.6.9-1.4.9-2.3 0-.8.5-1.5.7-2.3.2-.7.5-1.4.7-2.1.2-.5.4-1 .5-1.5.2-.8.4-1.6.5-2.4 0-1-.5-1.2-1.4-.8-1.3.6-2.7.9-4.2.3-.3-.1-.5-.3-.8-.4l-2.1-1.5c-.2-.1-.3-.3-.4-.5-.7-1.3-1.4-2.5-2.1-3.8l-.3-.6c-.2-.4-.4-.8-.5-1.3-.1-.5-.3-.9-.8-1.1-.4-.1-.9.1-1.3.7-.2.3-.3.7-.5 1-.2.5-.3.9-.4 1.4-.6 2-1 4-1.7 5.9-.6 1.6-.9 3.2-1.4 4.7-.3.9-.6 1.7-.6 2.7 0 .3-.1.6-.3.8-.7.9-1.1 2-1.6 3.1-.9 1.9-1.4 3.8-2.1 5.8-.3.9-.7 1.7-1.1 2.6-.5 1.3-.9 2.7-1.4 4.1l-.3 1.2c-.2 1.2-.4 2.4-.4 3.6 0 1-.3 1.8-.6 2.7-.5 1.3-.7 2.7-1.1 4.1-.1.5-.4 1-.6 1.5-.5 1.4-1 2.7-1.4 4.1-.4 1.4-.8 2.9-1.2 4.3-.2.5-.6 1-1 1.5-.5.5-1.1.5-1.7.2-1.6-.7-3.1-1.6-4.3-2.8-.9-.8-1.2-1.8-.9-2.9.4-1.4.7-2.8.8-4.3 0-.3 0-.6.2-.8.8-1.5.4-3.2.7-4.8 0-.2-.1-.7-.3-.7-.2-.1-.6 0-.9.2-.2.1-.4.4-.5.6-1 1.5-2.2 2.9-3.6 4.1-.5.4-.8.9-1.1 1.5-.5.7-.8 1.5-1.4 2.1-1 1.2-1.8 2.5-2.6 3.8-1.3 2.4-2.8 4.6-4.7 6.7-2.1 2.4-4.2 4.8-6.4 7.1l-1.2 1.2c-1 1-1.9 2.1-2.9 3.1-.8.8-1.7 1.5-2.5 2.3-.9.8-1.6 1.7-2.5 2.6-.6.6-1.2 1.1-1.8 1.6-1.1.9-2.5 1.2-3.8 1.9-.2.1-.5.2-.7.3-.9.7-2 .8-3.1.8-1.5-.1-2.9-.3-4.3-.5-1-.1-2-.4-3-.5-1-.1-1.9-.5-2.8-1-1.4-1-2.5-2.2-3.5-3.6-.4-.6-.6-1.2-.6-2v-1.5c0-.3 0-.6-.1-.9-.1-.3-.3-.7-.6-.8-.4-.2-.6.1-.9.4-.9 1-1.9 2.1-2.8 3.1-1.3 1.4-2.4 2.8-3.3 4.5-.6 1.1-1.1 2.2-1.7 3.3-.3.6-.8 1.2-1.1 1.8-.6 1.3-1.2 2.7-1.9 4-.5 1.1-1.1 2.2-1.7 3.2-.1.3-.3.5-.4.8-.4 1.3-.8 2.5-1.2 3.8-.1.2-.1.4-.2.5-.8 1.6-1.7 3.3-2.5 4.9-.5.9-.8 2-1.2 2.9l-.6 1.2c-.4.8-.3 1.1.4 1.6 1.3 0 1.8.2 1.8.9zm63.8-117.6c-.1-.2-.2-.5-.4-.6-.2-.1-.6 0-.9.1-.2.1-.4.3-.6.5-1 1.1-2.1 2.1-3 3.3-.6.7-1.1 1.4-1.6 2.2-.6 1-1.1 1.9-1.7 2.9-.4.7-.9 1.4-1.2 2.1-.4 1-1.1 1.9-1.8 2.7-.6.7-1.2 1.3-1.4 2.2-.1.3-.3.6-.5.9-1 1.8-2.2 3.4-3.1 5.2-.5 1-1.1 2-1.6 3-.4.8-.9 1.5-1.3 2.2-.5 1-1 2.1-1.4 3.2-.2.4-.4.9-.5 1.3-.1.5.1.9.5 1.1.4.2.8.1 1.1-.3.3-.4.6-.8.9-1.3.9-1.4 1.6-3 3-4 .2-.1.3-.3.4-.5 1-1.4 1.9-2.8 2.9-4.2.6-.9 1.3-1.6 1.9-2.5 1.1-1.6 2.1-3.2 3.1-4.8.5-.8 1.1-1.7 1.6-2.5.2-.3.2-.6.3-.9.2-.4.4-.9.6-1.3.1-.3.4-.5.5-.8.7-1.5 1.5-2.9 2.2-4.4.6-1.3 1.1-2.6 1.6-3.9.3-.1.3-.5.4-.9zm65.4 1c.2.3.3.7.5.9.4.3.8-.1 1-.4.4-.5.7-1 1.1-1.5.6-.8 1.2-1.5 1.8-2.3.7-.8 1.4-1.5 2.1-2.3.5-.5.9-1.1 1.4-1.7 1.3-1.6 2.7-3.1 3.9-4.7 1.7-2.3 3.6-4.5 4.9-7.1 1-2 2.2-3.9 3.2-5.8.4-.7.6-1.4.8-2.2.1-.2 0-.6-.1-.7-.2-.1-.5-.2-.7-.1-.4.2-.7.4-1 .7-.8.8-1.7 1.5-2.5 2.3-.5.5-1.1 1.1-1.5 1.7-.7 1-1.3 2-2 2.9-.3.4-.6.9-.9 1.3-.6 1.1-1.3 2.1-2.3 2.9-.2.2-.4.4-.6.7-.9 1.7-2.1 3.3-3.2 4.9-.5.8-.9 1.7-1.5 2.4-1.6 2.1-2.9 4.4-4.2 6.7 0 .5 0 .9-.2 1.4zm-121 40.9c0 .1 0 .1 0 0-.3.1-.6.1-.9.1-.8.1-1.2.7-1 1.4.1.3.3.6.5.7.2.1.6-.1.8-.2.4-.4.7-.5 1.2-.5.1 0 .3 0 .3-.1.2-.2.5-.4.5-.6 0-.2-.2-.5-.5-.6-.3-.2-.6-.1-.9-.2zm-25.5 8.3c0-.8-.4-1.2-1.2-1.2-.8 0-1.3.5-1.3 1.2 0 .8.5 1.2 1.3 1.2s1.2-.5 1.2-1.2zm1.2-3.7c.4 0 .7-.1 1.1-.1.3-.1.6-.3.6-.7 0-.4-.2-.6-.5-.7-.7-.2-1.5-.3-2.2 0-.2.1-.4.4-.5.7-.1.3.2.6.5.7.3 0 .7.1 1 .1zm95.8-11.5c-.1-.2-.3-.5-.5-.8-.2-.3-.5-.5-.8-.7-.2-.2-.5-.4-.8-.2-.3.3-.1.5 0 .9.2.4.4.8.5 1.2.1.6.4.9.8.9.5-.1.8-.6.8-1.3zM128 96.5c.2.3.3.7.6.9.2.1.6.1.8 0 .4-.2.5-.6.4-1 0-.4-.2-.9-.6-1-.3-.1-.7 0-.8.3-.3.1-.3.4-.4.8zm16.1 26.8c0 .6.4 1.1.8 1.1s.7-.4.7-1-.4-1.1-.8-1.1-.7.4-.7 1zm-31.4-3c0-.6-.2-1-.6-1-.5 0-.9.6-.9 1.2 0 .5.3.9.8.9.4 0 .7-.5.7-1.1zM130.5 89c.2.1.4.2.4.1.5-.3 1.1-.6 1.5-1 .2-.2.2-.6-.1-.8-.2-.1-.6-.2-.8-.1-.5.5-.9 1.1-1 1.8zm-4.9 23.2c0-.6-.3-1-.8-1s-.8.4-.8.9c0 .6.4 1 .8 1 .5.1.8-.4.8-.9zm-3.6 22.5l-.2-.2c-.6-.1-1.2-.3-1.4-.9-.1-.1-.4-.2-.6-.2-.2 0-.4.3-.4.5s.2.5.3.6c.5.3 1 .5 1.5.8.4.1.6 0 .8-.6zm25.1-76.5c-.5 0-.8.3-.8.7 0 .4.3.7.8.7s.8-.3.9-.7c0-.4-.4-.7-.9-.7zm1.5 62.7c0-.4-.3-.8-.7-.8-.4 0-.7.3-.7.7 0 .5.3.8.7.8.4 0 .7-.3.7-.7zm17.7 25.6c.5.1.8 0 1.1-.4.2-.3.1-.6-.2-.8-.2-.1-.5-.1-.7 0-.4.3-.4.7-.2 1.2zm3.2-19.6c0-.4-.3-.7-.6-.7-.4 0-.7.3-.7.6 0 .4.3.7.7.7.3 0 .6-.3.6-.6zm-3 3c0-.4-.3-.7-.6-.7-.4 0-.7.2-.7.6 0 .4.3.7.7.7.3 0 .6-.2.6-.6zm13-19c0-.4-.3-.7-.7-.7-.4 0-.6.3-.6.6 0 .4.3.7.7.7.4 0 .6-.3.6-.6zm-27.6 6.3c-.4 0-.7.3-.6.7 0 .4.3.6.6.6.4 0 .7-.3.6-.7-.1-.4-.3-.6-.6-.6zm-23.1-9c-.3 0-.6.3-.6.6 0 .4.3.7.6.7.4 0 .6-.2.6-.6.1-.4-.2-.7-.6-.7zm10.1-51.7c.4-.1.6-.3.6-.6 0-.4-.3-.7-.7-.6-.4.1-.6.3-.5.7 0 .3.2.4.6.5zm-18.2 82.4c0-.3-.3-.6-.6-.6s-.6.2-.6.5c-.1.3.2.6.6.6.2 0 .6-.2.6-.5zm26.2-16.7c-.4 0-.6.3-.6.6s.3.6.6.6.6-.3.5-.7c0-.3-.1-.4-.5-.5zM144 55.5c.1-.1.3-.3.4-.5.1-.3-.2-.6-.5-.7-.3 0-.6.2-.7.5 0 .4.3.7.8.7zm-25.3 68.9c.5 0 .8-.3.8-.6 0-.4-.2-.5-.6-.5-.3 0-.7.3-.6.6 0 .2.3.4.4.5zm134-6.6c-.6-.2-1.1-.1-1.2.3-.1.3.1.6.4.7.4 0 .7-.3.8-1zm-88.3 36.9c-.1-.1-.3-.3-.6-.4-.3-.1-.6.2-.6.6 0 .3.2.5.6.6.4 0 .6-.3.6-.8zm83.4-37.7c.4.3.8.1 1.1-.2.3-.2.3-.5.1-.8-.7.1-1 .3-1.2 1zm-117.3-13.3c-.1-.1-.3-.3-.6-.4-.3-.1-.6.1-.6.5 0 .3.2.6.6.6.3 0 .5-.2.6-.7zm-.4 37.5c-.5 0-.7.2-.8.5 0 .3.1.6.5.6.3.1.7-.2.6-.5 0-.2-.2-.4-.3-.6zm-1.3-35.3c-.2-.8-.5-1.1-1.1-1.1-.1.8.3 1.2 1.1 1.1zm3.7-12.9c-.4-.3-.6-.5-.8-.5-.2 0-.5.2-.5.4-.1.3.2.5.5.5l.8-.4zm-16.6 20.5c.2-.3.4-.5.5-.7 0-.3-.2-.5-.5-.5s-.5.2-.5.5.2.4.5.7zM163 141c.2.9.4 1.1 1 1.1.2-.6 0-.8-1-1.1zm-1.2-4.5c.2-.4.5-.6.5-.8 0-.2-.2-.4-.4-.5-.3-.1-.5.2-.5.5s.2.4.4.8zm-48-21.3c-.2.3-.4.5-.4.7 0 .3.2.5.5.4.2 0 .4-.3.4-.5 0-.1-.2-.3-.5-.6zm135.9 3.8c-.4-.5-.6-.5-1.1-.1.3.3.7.4 1.1.1zM142 123.8c.1.4.4.5.7.4.1-.1.2-.4.1-.5-.2-.3-.5-.2-.8.1zm-4.1-65.4c-.2.2-.4.3-.3.4 0 .1.2.3.3.3 0 0 .3-.2.3-.3-.1 0-.2-.2-.3-.4zm-4.8 25.5l-.2-.2c-.1 0-.1.1-.2.1.1.1.1.2.2.2 0 0 .1 0 .2-.1zm118.4 40s0-.1.1-.1c-.2 0-.2 0-.1.1-.1 0-.1 0 0 0zm-123.6-34s0-.1-.1-.1h-.1v.1h.2z"/><path d="M152 13.7c-.1.2-.3.5-.5.7-1.5 1.9-2.8 3.9-4 6-.1.1-.2.3-.2.5-.1 1.2-.6 2.3-1.1 3.4-.4 1-1 2-1.5 3-1.6 3.1-3.7 5.7-6.3 8-.8.8-1.5 1.7-2.2 2.6-.2.3-.4.6-.7.9-1.3 1.1-2.2 2.5-3.3 3.7-1 1.1-1.7 2.2-2.2 3.6-.3.8-.7 1.5-1.1 2.3-.5 1-.9 2-1.3 3.1-.2.7-.4 1.4-.5 2.1-.1.7-.2 1.4-.7 2.1-.2.3-.3.7-.5 1.1-.2.7-.5 1.5-.7 2.2-.3 1.3-1 2.4-1.7 3.6-.1.1-.2.3-.2.4-.2 1.5-1 2.8-1.3 4.3-.1.6-.3 1-.7 1.4-1.5 1.3-2.3 3-3.2 4.6-.2.4-.5.8-.7 1.3-.1.2-.3.4-.3.7-.2 1.6-1.1 3-1.8 4.4-.4.9-.8 1.8-1.3 2.7-.6 1.2-1.1 2.4-1.7 3.6l-2.1 4.2c-.1.2-.2.4-.2.5-.1 1.6-1.1 2.9-1.6 4.4-.2.6-.3 1.2-.5 1.9-.1.5-.3 1-.5 1.4l-1.5 3.3c-.4 1-.7 2-1.2 3-.4.9-1 1.8-1.3 2.7-.6 1.4-1 2.8-1.6 4.2-.4.9-.9 1.8-1.4 2.7-.9 1.7-1.7 3.4-2.6 5-.5 1-.9 2-1.4 3-.6 1.2-1.1 2.5-1.7 3.7-.3.7-.7 1.5-1 2.2-.7 1.6-1.2 3.2-2 4.7-.9 1.6-1.3 3.4-1.8 5.1-.1.2-.1.5-.3.7-.7 1-.9 2.2-1.1 3.4-.4 2.1-.7 4.2-.9 6.3-.1 1.1-.7 2.2-1.1 3.4-.2.7-.5 1.5-.7 2.2-.4 1.9-.6 3.8-.9 5.8l-.3.9c-.9 1.5-1.3 3.1-1.6 4.8-.1.5-.2 1-.5 1.5-.5.8-.8 1.8-1 2.7-.3 1.2-.7 2.3-1.2 3.4-.3.5-.4 1.2-.5 1.8-.2 1.9-.6 3.6-1.6 5.2-.2.4-.3.8-.4 1.2-.4 2-.9 4.1-.9 6.2 0 1.8-.7 3.4-1.4 5l-.3.6c-.3 2.1-1.5 4-2 6.1-.1.3-.2.6-.2 1-.1 1.4-.4 2.6-.9 3.9-.5 1.3-.7 2.7-1.1 4-.6 1.9-.9 4-1.1 6-.2 1.7-.2 3.3-.3 5 0 .6-.1 1.2-.4 1.7-.2.4-.3.8-.4 1.2-.5 2.2-.9 4.4-1.3 6.7-.1.7-.3 1.5-.2 2.3.1 1.1-.3 2-.9 3-.2.4-.5.9-.6 1.3-.1 1.3-.6 2.5-1.1 3.6-.6 1.3-1.3 2.5-2 3.7-.5 1-.9 1.1-2 .8-.2-.1-.5-.1-.7-.1-.5 0-1 .2-1.5.2h-7.8c-.7 0-1.2-.1-1.6-.7-.5-.7-1-1.3-1.5-1.9-.3-.4-.5-.9-.5-1.5 0-.7.1-1.4.1-2.1 0-.4 0-.8-.1-1.2-.2-.8-.1-1.6.1-2.4.4-1.2.7-2.3 1-3.5.3-1.2.6-2.5.8-3.7.1-.4-.1-.7-.1-1.1-.1-1-.3-2-.4-3-.1-.8.2-1.5 1.1-1.6.1 0 .2-.1.2-.2.2-.4.1-.8-.1-1.2-.3-.5-.3-.9-.1-1.4.2-.8.2-1-.5-1.4-.5-.3-.7-.7-.8-1.2-.3-1.7-.4-3.5-1.1-5.2-.3-.6-.3-1.4-.3-2.1 0-1.1.1-2.2.2-3.2v-1.2c-.1-.6-.4-1-.9-1.2-1.1-.6-1.2-.9-.9-2.2.4-1.6.7-3.2 1-4.8.1-.3 0-.6 0-.9 0-.6-.1-1.1 0-1.7.2-1.8.1-3.7.1-5.5 0-.4 0-.9-.1-1.3-.4-1.7-.4-3.4-.3-5.1.1-1.3.1-2.5.2-3.8 0-.4.2-.9.4-1.3.4-.7.5-1.3.4-2.1 0-.6 0-1.3.1-1.8.4-1.2.2-2.4-.4-3.4-.5-.8-.4-1.4 0-2.2.6-1.1 1.1-2.3 1.6-3.5.3-.8.2-1.1-.5-1.5-.5-.3-.8-.7-.8-1.3 0-.4-.1-.8-.1-1.1 0-.9.2-1.7.9-2.4.6-.7 1.2-1.3 1.8-2 .6-.7.6-1.2.1-1.9-.1-.2-.3-.4-.4-.6-.2-.4-.3-.9.1-1.3 1-1 1-2.3 1.2-3.6.1-.7.2-1.4.6-2.1.5-.9.6-1.8.3-2.7-.3-1.1-.1-2.1.4-3.1.7-1.3 1.3-2.7 1.4-4.3 0-.7.3-1.3.7-1.8.2-.2.4-.5.6-.7.4-.4.5-.9.4-1.5-.2-1 0-1.9.6-2.8.5-.8.7-1.7.8-2.6.2-1.7.6-3.4.8-5.1.3-1.7.5-3.4.8-5.1.1-.7.1-1.2-.4-1.7-.2-.2-.3-.5-.5-.7-.2-.3-.4-.4-.8 0l.3.6c.2.3.1.5 0 .8l-1.5 2.7c-.3.5-.6.9-.9 1.4-.5.7-.8 1.4-.6 2.2.1.6 0 1.2-.3 1.7-.5 1-1 2.1-1.4 3.2 0 0 0 .1-.1.2-.1 2.1-1.5 3.8-1.7 5.9-.1 1.5-.6 2.8-1.2 4.2-.6 1.4-.9 2.9-1 4.5-.1 1.6-.9 2.9-1.5 4.3-.5 1.1-1 2.3-1.6 3.4-.9 1.8-1.5 3.7-2 5.7-.3 1-.8 1.9-1.2 2.8-.9 1.7-1.5 3.5-1.7 5.5-.1 1.6-.4 3.2-1 4.7-.1.2-.1.4-.2.5-.7 1-.8 2.2-1 3.4-.2 1.6-.6 3.1-1.5 4.4-.2.2-.3.5-.3.8-.4 2.3-1.4 4.4-2.2 6.6-.4 1.1-.9 2.3-1.3 3.4-.6 1.6-1.7 2.8-2.8 3.9-.4.4-1 .5-1.5.6-.7.2-1.5.4-2.2.6-1 .3-1.9.3-2.9.1-.8-.2-1.6-.4-2.3-.7-.4-.1-.7-.4-1-.7-.7-.7-1.4-1.5-2.1-2.2-.7-.8-.7-1.6-.2-2.5.1-.2.2-.3.3-.5.3-.5.4-1 0-1.4-.7-1-.6-2-.5-3.1 0-.4.1-.8.1-1.2.1-1.7-.3-3.4-1-5-.2-.5-.2-.9-.1-1.4.2-.8.2-1.5.2-2.3 0-1.3-.3-2.6-.2-3.9 0-1.2.3-2.3.5-3.4s.5-2.2.4-3.4c0-.9.3-1.9.5-2.8.3-1.7.5-3.5.7-5.2v-.8c-.2-2.5-.1-5 .3-7.5.1-.7.1-1.4 0-2.1 0-.5-.3-1-.8-1.4-.6-.5-.6-.7 0-1.3.3-.3.5-.6.6-1 .2-.6.3-1.2.3-1.8 0-.5 0-1-.1-1.5-.1-.7-.3-1.4-.4-2.1 0-.5 0-1.1.2-1.6.3-.8.4-1.5.2-2.3-.5-1.6-.4-3.1-.1-4.7.1-.4.1-.8.2-1.2 0-.4 0-.7-.4-1-.3.1-.6.1-.9.2 0-.1-.1-.2-.1-.2.4-.6.5-1.2.2-1.9-.1-.2.1-.5.1-.8.1-.7.4-1.3.4-2 .2-2.4.6-4.7 1.4-7 .3-1 .4-2.1.6-3.1.1-.5.1-1.1.2-1.6.4-2.5.8-4.9 1.2-7.4.2-1.4.5-2.7 1.1-4 .2-.4.2-1 .1-1.4-.1-.6-.1-1.1.2-1.7.1-.1.1-.3.2-.4 1-1.7 1.1-3.5.6-5.5-.4-1.4.1-2.7.6-3.9.9-2 1.2-4.1 1.5-6.2.3-1.7.4-3.4.7-5.1l1.5-9c.3-1.6.2-3.2 0-4.8-.1-.9 0-1.9.1-2.8.1-.9.8-1.5 1.6-1.8.5-.2 1-.4 1.6-.6.5-.1.9-.2 1.4-.2h4.8c.7 0 1.4.1 2.1.5.4.2.9.3 1.4.5 1 .4 1.2.9.8 1.9-.3.6-.4 1.3-.4 2 0 .8-.1 1.7-.1 2.5V60c0 .2 0 .5-.1.7-.5 3-1 6-1.4 9-.2 1.5-.3 3.1-.1 4.6.1.6 0 1.3 0 1.9 0 2.2.1 4.4.2 6.6 0 .3 0 .5.1.8.6 1.7.2 3.3-.6 4.9-.5.9-.7 1.8-.4 2.8.2.9.1 1.7 0 2.6-.1.7-.2 1.4-.3 2.2-.1.7-.4 1.4-.5 2-.1.6-.3 1.3-.4 1.9 0 .8-.2 1.6-.6 2.3-.5.9-.6 1.9-.3 2.8.2.7.2 1.4 0 2.2-.2 1.2-.5 2.4-.6 3.6-.1.4.1 1 .3 1.4.3.7.4 1.4.2 2.1-.1.2-.2.3-.3.6l-.6-.3c-.5-.3-.8-.2-1 .2-.2.4-.1.8.4.9.6.2.8.6.9 1.2.2 1.1.4 2.2.5 3.4.1 1 .2 1.1 1.3 1.3.2 0 .4.2.6.3-.4.5-.8.5-1.2.4-.2-.1-.3-.2-.5-.3-.6-.3-.9-.2-1.1.5-.1.3-.1.6-.2.9l-.1.1c-.6 0-1.3.1-2 .1-1.2 0-1.7-.8-1.4-2 .1-.7.2-1.4.1-2.2 0-.3-.3-.6-.5-.8-.3-.2-.7 0-.9.3-.3.3-.7.5-1 .8-.1.1-.2.3-.4.5.4.7 1.6.7 1.6 1.8-.2.1-.4.3-.6.5-.3.2-.6.4-.5.8.1.2.4.5.6.6.7.1 1.3.4 1.8.9.2.2.6.2.9.2.6 0 1.2-.1 1.8-.1.4 0 .8.1 1 .5.2.5 0 .9-.5 1.1h-.2c-1.4.4-1.4.6-.4 1.6.5.5.9 1 .6 1.8-.1.2-.1.4 0 .6.5 1.6-.3 2.9-1.1 4.3-.3.6-.7 1.2-1.1 1.8-.3.6-.2 1 .4 1.4.5.3.6.6.6 1.1.1.7.3 1.3.4 2 .1.4.3.7.8.7.4 0 .7-.2.9-.6.1-.2.2-.5.3-.8.4-.9.8-1.8 1.1-2.8.1-.4.3-.8.4-1.1.1-1.6.9-2.9 1.5-4.3.5-1.3 1-2.7 1.6-4 .5-1.3 1-2.6 1.6-3.8 1.3-2.4 2.6-4.7 3.9-7.1l1.2-2.4c.2-.4.5-.8.8-1.1 1-1.2 1.8-2.6 2.5-3.9.6-1.1 1.3-2.1 2-3.1l2.7-3.6c.7-.9 1.3-1.9 2-2.8.1-.1.2-.1.3-.3.2.2.3.4.5.5.2.1.5.3.8.3.1 0 .4-.3.4-.4 0-.3-.1-.6-.3-.7-.7-.6-.7-.6-.5-1.5.3-1.1.6-2.2.9-3.4.1-.5.4-1.1.6-1.6.1-.3.3-.6.4-1 .4-2.1 1.1-4.2 1.2-6.4 0-.8.2-1.7.3-2.5.2-1.4.4-2.7.6-4.1.1-1.1.7-1.9 1.6-2.5 1.4-1 2.9-1.5 4.6-1.6.9-.1 1.8-.3 2.6-.4 1.6-.3 2.9.3 4.1 1.2.2.2.4.5.4.8 0 .7.1 1.5-.1 2.2-.3 1-.8 2-1.1 3-.2.6-.4 1.2-.5 1.8-.3 1.4-.5 2.9-.7 4.3l-.3 1.8c-.2 1.4-.4 2.7-.6 4.1-.1.8-.3 1.7-.4 2.5-.3 2.1-.7 4.2-1 6.2-.3 2.2-.7 4.5-1 6.7-.2 1.2-.3 2.5-.4 3.7 0 .2-.1.4-.1.6-.7 2.4-.7 4.9-.7 7.4 0 1.8-.1 3.6-.1 5.3v1.1c.3 1.6.1 3.2 0 4.8 0 .2-.1.5 0 .7.1.6 0 1.1-.4 1.6-.3.3-.3.7-.1 1.1.3.5.2.9 0 1.4-.2.5-.4 1.1-.3 1.6.5 2.6-.1 5.2-.5 7.7-.2 1.1-.5 2.3-.8 3.4-.1.3 0 .6 0 .9.1.4 0 .7-.3 1-.7.7-.7 1.5-.7 2.3 0 .5.1.9.1 1.4.1.8-.2 1.5-.6 2.3-.7 1.4-1.1 2.8-.7 4.5.4 1.2.2 2.5-.1 3.8-.3 1-.4 2.1-.6 3.1-.1.6-.2 1.1-.4 1.6s-.3 1 0 1.5c.4.8.7 1.5 1.1 2.3.4.7.4 1.2-.1 1.8-.8.8-1 1.8-1 2.9-.1 1.8-.4 3.7-.6 5.5 0 .3-.3.7-.5.9-.3.5-.5.9-.2 1.4.3.5.2.9-.1 1.4-.1.2-.3.4-.3.6-.1.3-.1.6-.1.9 0 .4.3.7.7.8.5 0 .6-.3.7-.7.3-1.1.6-2.3 1-3.4.7-1.7 1.1-3.5 1.5-5.4.2-1 .7-1.9 1-2.8.2-.5.5-1 .5-1.5.1-1.8.8-3.4 1.5-5 .3-.7.5-1.4.6-2.1.2-1.6.7-3.1 1.3-4.5.5-1.1.8-2.1.8-3.3.1-1.5.6-2.8 1.3-4.1.4-.7.6-1.5.7-2.3.2-1.4.3-2.8.8-4 .5-1.6 1.2-3.2 1.6-4.8 0-.2.1-.3.2-.4.8-1.3 1.3-2.7 1.5-4.3.1-1 .6-2 1-3.1.3-.8.6-1.7.9-2.5l.3-.6c.3.1.6.1.9.2.6.1 1.2 0 1.7-.5.2-.2.5-.4.7-.7.3-.3.4-.6.2-.9-.2-.3-.5-.4-.9-.3-.2.1-.4.2-.7.3-.2.1-.4.2-.8.3.1-.4.1-.6.2-.7.5-1 1.1-1.9 1.6-2.9.3-.6.6-1.3.7-2 .1-1.4.7-2.6 1.3-3.9l.3-.6c.3-1.1 1-2 1.5-2.9.7-1.2 1.3-2.5 2-3.8.4-.8.7-1.6 1.1-2.3.2-.4.6-.8.9-1.1.5-.5.9-1.1 1-1.8.2-.9.4-1.8.6-2.8.2-.8.4-1.6.8-2.3.2-.3.3-.6.4-1 .3-1.3.9-2.4 1.6-3.5.3-.4.6-.9.7-1.5.4-1.8 1.3-3.3 2.1-4.9.5-1 .9-1.9 1.4-2.9.1-.1.1-.3.1-.4.2-1.6 1.1-2.8 1.7-4.2 1-2.4 2.7-4.4 3.6-6.8.2-.6.6-1.1 1-1.6.5-.6.7-1.3.8-2 0-.2.1-.4.2-.7h.4c1 .3 1.7 0 2-1 .1-.4 0-.7-.4-.9-.2-.1-.5-.2-.7-.3l-.2-.2c.1-.2.1-.5.3-.8.4-.5.9-1 1.5-1.2.4-.1.9-.3.9-.8s-.4-.7-.8-.9c-.1-.1-.2-.1-.2-.2-.2-.5.1-.9.4-1.2 1.1-1.8 2.1-3.7 2.8-5.7.4-1 .7-1.9 1.1-2.9.3-.8.7-1.1 1.6-1h.7c-.1-.3-.2-.6-.3-.8-.6-1.4-.4-2.6.5-3.8.2-.2.3-.5.3-.7 0-1.1.7-2 1.1-3 .3-.6.6-1.3.9-1.9.1-.1.2-.3.3-.4.2 0 .5.1.7.1.2 0 .6-.1.7-.2.1-.1 0-.5 0-.7-.4-.9-.4-1.1.4-1.8.9-.7.9-.7.5-1.7v-.3c.3-.5.9-.8 1.5-1.1.9-.4 1-.6.4-1.5-.2-.4-.2-.7 0-1.1 1.3-2.3 2.8-4.5 4.5-6.6l5.7-6.6c.3-.4.6-.6 1.1-.4.1 0 .2.1.3 0 .2-.1.5-.2.6-.4.1-.1 0-.5-.1-.7-.6-.9-.6-.9 0-1.8.7-1.1 1.5-2.3 2.2-3.4.1-.2.3-.3.5-.6.3.2.4.4.7.6.2.2.5.2.7-.1.2-.3.1-.6-.2-.8-.2-.1-.4-.2-.7-.3-.1-.6.2-1 .5-1.3 1-1.2 1.8-2.6 3.1-3.6.1-.1.2-.2.3-.4.9-1.8 2.2-3.2 3.5-4.6.8-.9 1.7-1.6 2.6-2.4.2-.2.4-.3.7-.4 1.1-.5 2.1-1 3.2-1.4.8-.4 1.7-.4 2.6-.2 1 .2 1.5 1.7 1 2.8-.4.9-.9 1.8-1.7 2.5-.6.6-1.2 1.1-1.8 1.7-.1.1-.3.2-.6.3l-.3-.9c-.2-.5-.4-.7-.8-.6-.4.1-.6.5-.5 1 1.1-.4 1.4 0 1.7.5zM56 219.3c0 .2-.1.4 0 .5.1.3.3.6.6.8.3.2.7 0 .9-.3.2-.3.5-.6.7-.9.3-.5.2-.9-.4-1.1-.1-.1-.3-.1-.5-.1-.5 0-.9-.2-1.2-.7-.4-.8-1.2-1-2-1.2-.4-.1-.8.2-.9.5-.1.4.2.8.7.8h.6c1 0 1.6.7 1.5 1.7zm-1-5.1c-.1.1-.4.2-.5.5-.1.4.2.6.5.7.5.1.9.2 1.3.6.3.3.6.3 1 .1.4-.2.9-.4 1.3-.7.2-.1.4-.4.5-.6 0-.6-.2-1.1-.7-1.4-.5-.3-.8 0-1.1.4-.5.5-1 .8-1.7.5-.3 0-.4 0-.6-.1zm-23.8-76.3c-.5.1-.9.1-1.3.3-.2.1-.5.3-.6.6-.1.2.1.5.3.7.3.3 1.3.4 1.5 0 .5-.7 1.2-1.3 1.4-2.2.1-.3.1-.7.1-1-.1-.5-.5-.8-.9-.8-.5.1-.5.5-.6.9 0 .2.1.4.1.6v.9zm2.6-23.4c.1-.1.4-.2.5-.4.1-.2 0-.6-.1-.7-.7-.4-1.2-1.1-1.7-1.7-.2-.3-.6-.4-.9-.1-.4.3-.4.8-.2 1.3.1.5.1 1.2.7 1.3.5.2 1 .2 1.7.3zM141 24.9c0-.4-.3-.5-.6-.5-.4 0-.8.2-1 .6-.3.5-.7.9-.9 1.4-.1.2-.2.6-.1.8.1.3.5.4.8.2.2-.1.5-.3.6-.5.4-.6.7-1.1 1-1.7.2-.1.2-.2.2-.3zM29.1 131.7c0 .1.1.5.3.8.3.5.7.5 1.1 0 .3-.4.5-.8.8-1.2.4-.6.1-1.1-.6-1.2-.9-.1-1.6.5-1.6 1.6zm24.6-16.3c0-.2 0-.3-.1-.4-.3-.8-1.1-1.1-1.7-1.5-.1-.1-.3 0-.4.1-.1.1-.2.4-.1.5.5.5.5 1.2.7 1.8.1.2.4.5.6.5.2 0 .5-.2.7-.4.3-.2.3-.4.3-.6zm-22.2 31.7c0-.5-.3-.9-.6-.9-.4 0-.8.3-.7.7.1.6.1 1.2 0 1.8 0 .2.2.5.4.6.2.1.5.1.7 0 .2-.1.3-.4.2-.6-.1-.5-.3-1.1 0-1.6zm-1.4-30.3c-.4-.6-1-.8-1.6-.5-.4.2-.6.6-.5 1 .1.5.5.8.9.8.5 0 1-.5 1.2-1.3zm33.8 82c-.6.4-1 1.7-.7 2.2.1.2.4.4.5.4.2 0 .5-.2.7-.3.4-.6.1-1.8-.5-2.3zm-11.2 20.7c.1-.1.4-.1.5-.3.1-.2.1-.5 0-.7-.3-.4-.6-.7-.9-1-.2-.1-.5-.2-.7-.1-.2.1-.3.4-.3.7-.1.6.7 1.3 1.4 1.4zm6.3-29.2c0 .6.3 1.1.8 1.1s.8-.4.8-1-.3-1.1-.7-1.1c-.4 0-.8.4-.9 1zM36.7 93.9c.6-.2.9-.5.7-.9-.3-.5-.6-1.1-1-1.6-.2-.3-.7-.3-.9 0-.2.3-.3.7 0 .9.6.4.9.9 1.2 1.6zm22.4 123.4c0 .6.3 1.1.9 1.1.5 0 .7-.4.7-1.1v-.1c-.1-.5-.3-.9-.7-.9-.5 0-.9.4-.9 1zm49.4-133.9c0-.7-.3-1.1-.7-1.1-.3 0-.6.2-.8.4-.3.3-.1.8.2 1 .2.2.5.4.8.5.1 0 .3-.1.4-.3 0-.2.1-.4.1-.5zM64.3 195.1c-.5 0-1 .3-1 .7 0 .4.3.7.8.8.6.1 1.1-.3 1.1-.7 0-.4-.4-.7-.9-.8zm-7.4-50.3c-.1.6 0 1 .3 1.3.3.4.7.5 1 .3.3-.3.4-.8 0-1.1-.3-.4-.7-.6-1.3-.5zM36.1 99.3c-.4 0-.7.4-.7.9 0 .4.2.6.6.6.4 0 .8-.5.8-.8 0-.4-.3-.7-.7-.7zm15.8 20.2c.4 0 .7-.3.7-.7 0-.4-.3-.7-.8-.7-.4 0-.7.3-.7.7.1.4.4.7.8.7zM36.5 87c0-.4-.3-.7-.6-.7-.4 0-.7.3-.7.7 0 .4.3.7.6.7.4 0 .7-.3.7-.7zm26 101c0-.4-.3-.8-.7-.8-.4 0-.7.3-.7.7 0 .4.3.7.8.6.4 0 .6-.2.6-.5zm-6-45.1c0-.4-.3-.7-.7-.7-.4 0-.7.3-.7.7 0 .4.3.7.7.7.4-.1.7-.4.7-.7zm-1.6-35.4c.4 0 .6-.3.6-.7 0-.4-.4-.6-.7-.6-.4 0-.6.3-.5.7 0 .3.3.6.6.6zm-23.1 17.7c-.4 0-.6.3-.6.6 0 .4.3.7.7.6.3 0 .6-.3.6-.7 0-.2-.3-.5-.7-.5zm36 9c-.3 0-.6.2-.6.6 0 .4.2.7.6.7.4 0 .6-.2.6-.6.1-.3-.2-.7-.6-.7zm-7.3 47.7c0-.4-.3-.7-.6-.7-.4 0-.7.3-.7.7 0 .4.2.6.6.6.4.1.7-.2.7-.6zm-1-72.1c0-.3-.2-.5-.6-.6-.4 0-.7.3-.6.7 0 .4.2.6.6.6.3 0 .6-.3.6-.7zm24.3 36.7c.4 0 .7-.2.7-.6 0-.4-.3-.7-.6-.7-.4 0-.6.2-.6.6-.1.4.2.6.5.7zm-17.9 44c.3 0 .6-.2.6-.6 0-.3-.2-.6-.6-.6-.4 0-.6.2-.6.6 0 .3.2.6.6.6zm-38-41.2c.3 0 .6-.3.5-.7 0-.4-.2-.6-.6-.6-.4 0-.5.3-.5.7 0 .4.3.7.6.6zm27.9 73.2c.4 0 .7-.3.6-.6 0-.3-.2-.6-.6-.6-.3 0-.6.3-.6.6.1.3.3.5.6.6zm80.1-189.1c.3 0 .5-.2.5-.6 0-.3-.2-.6-.6-.5-.4 0-.5.2-.5.6 0 .3.2.5.6.5zM28.2 124.3c-.5.1-.7.2-.7.6 0 .4.3.5.6.5s.6-.2.5-.5c0-.3-.2-.5-.4-.6zm19.6 7.5c-.4.2-.5.5-.4.8.1.3.4.5.8.3.3-.7.3-.7-.4-1.1zm12.8-20c-.3-.2-.5-.4-.7-.4-.3-.1-.6.3-.5.6.1.2.3.4.5.4.2-.1.4-.3.7-.6zm-11.7 7.7c.2-.3.4-.5.5-.7 0-.3-.2-.5-.5-.5s-.5.3-.4.6c-.1.2.2.4.4.6zm2 102.1c.5-.1.7-.3.5-.7 0-.1-.4-.2-.5-.2-.4.2-.3.5 0 .9zm5 5.2c-.3-.2-.5-.4-.7-.4-.3 0-.5.2-.5.5 0 .2.3.3.5.3.2.1.3-.1.7-.4zm.6-40c-.3-.2-.5-.4-.6-.4-.2 0-.3.3-.5.4.1.1.3.4.4.4.2 0 .4-.2.7-.4zm21-36c-.3-.2-.5-.3-.6-.3-.1 0-.3.3-.3.4 0 .2.2.4.4.4.1-.1.2-.3.5-.5zm-20.9 0c-.3-.2-.5-.3-.7 0 0 .1.1.3.1.4.3.1.5 0 .6-.4zM36.3 73.9c-.2-.2-.3-.4-.4-.3-.1 0-.3.2-.4.3.1.1.2.3.3.3.1 0 .3-.2.5-.3zm17 74c-.3-.4-.5-.4-.7-.1 0 .1.1.3.1.5.2-.2.4-.3.6-.4zm56.1-68.8c-.1-.1-.1-.2-.2-.2-.1-.1-.3-.2-.4-.2-.1 0-.2.2-.3.3.1.1.2.3.4.3.2-.1.4-.2.5-.2zm5.9-12.5c-.1.1-.1.2-.2.3.1.1.3.2.4.3.1-.1.1-.2.2-.4l-.4-.2zM53.2 221.7c-.1-.1-.2-.1-.3-.2-.1.1-.2.3-.3.4.1.1.3.2.3.2.2-.1.2-.3.3-.4zm6-113.9c-.3-.3-.5-.3-.5.2.2-.1.4-.2.5-.2zm-25.3 2.7c-.1.2-.2.2-.3.3 0 .1.1.2.2.2s.2-.1.3-.2c0 0-.1-.1-.2-.3zm20.9 28.6l.2-.2c0-.1-.1-.2-.1-.2-.1 0-.2.1-.2.1-.1.1 0 .2.1.3zm-1.8 12c0-.4 0-.4-.4-.3.1.1.2.2.4.3zm-18.9-35.3c0 .1-.1.1-.1.2l.1.1c.1 0 .1-.1.2-.1l-.2-.2zm17.7 98c-.1.1-.1.2-.1.2h.1c.1-.1.1-.2 0-.2zm-22.9-80s-.1 0 0 0c-.1 0-.1 0-.1.1h.1c-.1 0 0 0 0-.1zm23.9 93.5zM13.9 176.5c.7 1 .7 3.9 0 5-.8-1.2-1.5-2.3-2.2-3.4l.2-.2c.2.1.4.1.5.2.7.4 1.1.2 1.2-.6 0-.6 0-.6.3-1zM153.2 38.7c.3 1.6-.2 2.7-1.4 3.2-.4-.5-.5-1.2-.7-1.8v-.2c.4-.4.8-.7 1.3-1.1.2-.1.5 0 .8-.1zM5.4 178.6c.5 0 .8.4.8.9s-.4.8-.8.8c-.5 0-.8-.4-.8-.9s.3-.8.8-.8zM155.4 39.1c-.5 0-.9-.3-.9-.8 0-.4.4-.7.8-.7.5 0 .9.3.9.8 0 .4-.3.7-.8.7zM233 122.9c-.4-.3-.5-.7-.2-1.1.2-.2.5-.3.8-.2.4 0 .6.4.4.8-.2.3-.5.4-1 .5zM4.9 197.8c0 .6-.5.9-1 1.2-.5-.3-.5-.7-.2-1 .2-.4.6-.5 1.2-.2zM6.7 170.5c-.6-.2-1.1-.4-1.7-.6.5-.4 1-.5 1.5-.3.3.2.5.4.2.9zM230 124.8c-.3.4-.6.4-1 .3-.2-.1-.4-.4-.3-.5 0-.2.3-.4.5-.4.4-.1.6.2.8.6zM141.9 192.9c-.5.4-.9.5-1.4.2.2-.6.7-.7 1.4-.2z"/><path d="M42.7 118.9c-.1.5-.3.7-.8.7-.3-.3-.3-.6 0-.8.2-.2.5-.3.8.1zM73.7 114.9c.5-.4.7-.4 1.3 0-.5.3-.7.3-1.3 0zM8.3 184.9c.3-.3.6-.3.8.1 0 .1-.1.4-.2.4-.4.1-.6-.1-.6-.5zM44.8 187c.5.3.4.6 0 1-.4-.4-.4-.7 0-1zM207.7 88c-.3-.3-.6-.7-.9-1l.2-.2c.3.3.6.7 1 1-.1 0-.2.1-.3.2zM140 194.2c-.1.3-.1.5-.1.7-.1 0-.2 0-.2-.1-.2-.2-.2-.3.3-.6zM266 100.9l-.2.2c0-.1-.1-.1-.1-.2l.1-.1s.1 0 .2.1zM13.9 142.5c0 .1 0 .2.1.3h-.1c0-.1-.1-.2-.1-.3-.1.1 0 0 .1 0zM79.4 130.8c.1 0 .2-.1.3-.1 0 0 0 .1.1.1-.1.1-.2.1-.2.2-.2-.1-.2-.2-.2-.2zM235 101.9h-.2v-.2s.1-.1.1 0 0 .2.1.2zM168.6 85.7l.2.2-.1.1c-.1 0-.2-.1-.2-.1 0-.1.1-.1.1-.2zM10.8 183l-.1-.1.1-.1.1.1s0 .1-.1.1zM151.8 51.9c-.1 0-.1 0 0 0-.1 0-.1-.1 0 0-.1-.1-.1-.1 0 0 0-.1 0 0 0 0zM230.9 128.8c0 .1 0 .1 0 0-.1.1-.1.1 0 0-.1.1-.1.1 0 0-.1 0-.1 0 0 0zM235.9 121.9s-.1 0 0 0c-.1 0-.1 0 0 0 0-.1 0-.1 0 0zM250.8 74.8s.1 0 0 0v0zM163.9 83.9c0-.1-.1-.1 0 0 0-.1 0-.1 0 0 0-.1 0-.1 0 0zM238.9 129.9c-.1 0-.1 0 0 0h-.1c0-.1 0-.1.1 0-.1-.1-.1 0 0 0z"/></svg>