<?xml version="1.0" standalone="no"?>
<!DOCTYPE svg PUBLIC "-//W3C//DTD SVG 20010904//EN"
 "http://www.w3.org/TR/2001/REC-SVG-20010904/DTD/svg10.dtd">
<svg version="1.0" xmlns="http://www.w3.org/2000/svg"
 width="300.000000pt" height="300.000000pt" viewBox="0 0 300.000000 300.000000"
 preserveAspectRatio="xMidYMid meet">
    <style>
        @media (prefers-color-scheme: dark) {
            .a { fill: #f0f0f0 }
        }
    </style>
<g transform="translate(0.000000,300.000000) scale(0.100000,-0.100000)"
fill="#0f0f0f" class="a" stroke="none">
<path d="M1560 2785 c-7 -8 -16 -12 -21 -9 -5 3 -9 2 -9 -3 0 -4 -32 -6 -71
-5 -57 3 -70 1 -63 -10 6 -10 4 -10 -9 1 -20 16 -23 1 -4 -18 6 -8 -1 -5 -18
5 -16 11 -26 14 -22 8 4 -7 0 -14 -7 -17 -10 -4 -14 0 -11 12 2 10 -3 18 -10
18 -8 0 -12 -4 -9 -9 3 -4 1 -8 -5 -8 -5 0 -12 6 -14 13 -4 9 -6 9 -6 -1 -1
-7 -6 -10 -12 -6 -8 4 -8 0 0 -15 8 -15 9 -21 1 -21 -6 0 -8 -4 -5 -10 3 -5
-1 -10 -9 -10 -8 0 -18 -5 -22 -11 -4 -8 1 -9 17 -4 13 3 20 3 14 -2 -15 -12
-17 -33 -3 -33 6 0 4 -8 -6 -19 -13 -15 -14 -20 -3 -29 7 -6 18 -7 27 -2 8 5
23 2 39 -8 14 -10 22 -12 18 -4 -8 12 16 13 38 1 6 -3 16 -4 23 -3 6 1 16 2
22 3 5 0 7 9 4 19 -5 14 -4 14 4 2 7 -9 7 -19 2 -26 -6 -6 -7 -14 -3 -18 4 -4
-1 -4 -11 0 -14 5 -17 4 -12 -4 4 -8 -3 -16 -18 -22 -14 -5 -26 -14 -26 -19 0
-5 -9 -8 -21 -6 -17 4 -19 2 -8 -11 10 -12 9 -13 -5 -8 -21 8 -57 -23 -49 -42
3 -8 10 -11 17 -8 6 3 3 -1 -6 -9 -10 -8 -18 -20 -18 -26 0 -7 -4 -9 -10 -6
-5 3 -10 -1 -10 -9 0 -10 -9 -16 -22 -17 -13 0 -18 -3 -11 -5 8 -4 7 -11 -5
-23 -9 -10 -20 -16 -24 -14 -5 2 -8 -1 -8 -7 0 -6 -14 -24 -30 -40 -17 -17
-25 -30 -19 -30 7 0 2 -9 -11 -20 -28 -25 -41 -26 -34 -2 5 14 3 14 -10 -2
-14 -17 -20 -15 -18 5 1 3 -9 5 -21 4 -12 -1 -22 -3 -22 -4 0 -2 -8 -4 -18 -6
-12 -2 -17 1 -14 9 4 11 0 11 -18 2 -13 -6 -23 -13 -22 -16 1 -3 -6 -16 -16
-30 -9 -13 -17 -21 -17 -17 0 4 -8 -1 -18 -10 -11 -10 -17 -21 -15 -25 2 -4
-2 -5 -10 -2 -20 7 -45 -25 -28 -36 11 -6 11 -9 0 -13 -11 -4 -11 -6 0 -6 11
-1 10 -5 -5 -16 -19 -15 -19 -15 1 -8 11 3 18 4 15 2 -51 -43 -54 -44 -47 -26
4 11 3 16 -3 12 -13 -8 -13 -45 1 -45 5 0 8 -4 4 -9 -3 -6 4 -8 15 -6 11 2 18
0 15 -6 -4 -5 -1 -9 4 -9 12 0 14 -29 5 -54 -3 -9 -10 -13 -15 -10 -5 3 -9 0
-9 -6 0 -6 -4 -9 -9 -5 -12 7 -73 -29 -64 -38 3 -4 2 -7 -3 -7 -6 0 -16 -16
-24 -35 -10 -26 -17 -32 -26 -24 -8 6 -14 6 -18 0 -3 -5 0 -12 6 -14 10 -4 10
-6 1 -6 -7 -1 -13 -10 -13 -22 0 -13 -4 -18 -12 -13 -8 5 -7 0 2 -11 9 -11 10
-16 3 -11 -7 4 -13 3 -13 -2 0 -5 -18 -14 -40 -21 -22 -7 -38 -16 -35 -21 4
-6 -1 -7 -11 -3 -12 4 -15 3 -10 -5 4 -7 4 -18 -1 -24 -4 -7 -8 -19 -9 -26 -3
-19 -25 -43 -34 -37 -5 3 -11 -1 -13 -7 -4 -10 -6 -9 -6 1 -1 11 -4 11 -18 0
-14 -12 -16 -12 -8 0 6 11 4 13 -8 8 -22 -8 -32 9 -11 21 15 8 15 10 0 15 -10
4 -15 3 -12 -2 3 -5 -4 -11 -15 -14 -15 -4 -23 0 -26 14 -3 10 -9 17 -13 14
-5 -3 -7 3 -6 12 3 20 24 24 45 9 11 -8 13 -8 7 2 -4 6 -3 12 3 12 5 0 14 -8
19 -17 5 -9 21 -17 35 -17 14 -1 23 2 21 6 -5 7 18 12 39 9 11 -2 8 14 -5 28
-10 11 -10 12 -1 7 9 -5 11 -2 7 8 -3 9 -9 15 -12 14 -18 -3 -40 15 -35 28 3
8 2 14 -3 12 -5 -2 -10 2 -11 7 -2 6 3 10 10 10 6 1 11 7 9 15 -2 10 3 8 19
-5 12 -11 19 -14 15 -7 -4 6 -2 12 3 12 6 0 11 -4 11 -8 0 -7 22 -8 78 -3 7 1
10 6 7 11 -3 6 -2 10 4 10 10 0 9 14 -3 42 -4 9 -5 22 -1 28 4 6 3 10 -2 9
-25 -4 -51 3 -49 14 1 6 9 23 18 36 10 13 14 29 11 34 -3 6 -2 8 3 5 5 -3 23
8 39 25 22 23 24 26 5 11 l-25 -19 19 23 c11 12 25 22 32 22 7 0 18 16 24 35
6 19 15 33 19 31 4 -3 8 1 9 9 1 8 3 22 4 30 1 8 4 12 8 10 10 -6 51 25 46 34
-3 4 13 27 36 52 22 24 37 38 34 32 -4 -7 -2 -13 3 -13 6 0 11 5 11 11 0 5 4
7 10 4 5 -3 7 0 4 9 -4 11 0 14 15 11 12 -2 19 0 16 4 -3 5 2 12 10 15 8 3 15
9 14 13 -4 23 2 53 10 49 4 -3 17 4 27 16 12 14 14 18 4 13 -9 -5 -7 1 5 15
11 13 14 20 6 15 -11 -6 -13 -4 -7 10 5 14 4 16 -7 7 -8 -7 -17 -9 -20 -5 -4
3 -7 0 -7 -8 0 -10 -2 -11 -8 -2 -6 9 -11 6 -21 -8 -10 -17 -10 -20 1 -13 10
6 9 3 -1 -10 -11 -13 -16 -14 -23 -4 -5 8 -7 3 -4 -14 3 -18 0 -27 -7 -25 -7
1 -11 -3 -10 -10 1 -6 -4 -14 -13 -17 -10 -4 -13 -1 -9 7 3 6 -2 2 -11 -10 -9
-13 -23 -23 -30 -23 -8 0 -14 -4 -14 -10 0 -5 -10 -10 -21 -10 -19 0 -20 -2
-8 -17 8 -9 10 -14 4 -12 -5 3 -18 -2 -27 -13 -10 -10 -15 -18 -12 -18 3 0 -8
-17 -25 -37 -48 -58 -50 -61 -45 -66 3 -2 -7 -3 -21 -2 -14 2 -23 -1 -19 -6 3
-5 -3 -9 -13 -10 -11 0 -13 -3 -5 -6 10 -4 9 -9 -5 -20 -10 -8 -11 -11 -3 -7
12 5 12 4 3 -6 -6 -7 -9 -19 -6 -28 4 -10 2 -13 -5 -8 -7 4 -12 2 -12 -4 0 -6
-4 -8 -10 -5 -5 3 -10 -1 -10 -10 0 -11 -5 -15 -16 -11 -10 4 -13 2 -8 -6 5
-8 2 -9 -9 -5 -19 7 -50 -20 -41 -35 5 -7 2 -8 -7 -2 -8 5 -17 9 -21 9 -5 0
-8 2 -7 5 0 3 -4 17 -10 32 -8 20 -7 28 4 32 9 3 12 12 8 22 -4 11 -2 15 4 11
6 -4 8 3 5 18 -4 24 -25 34 -36 16 -3 -4 -16 -7 -29 -6 -14 2 -30 -5 -38 -16
-7 -10 -21 -19 -31 -19 -11 0 -15 -5 -12 -14 3 -8 -3 -16 -15 -19 -12 -3 -21
-10 -21 -17 0 -6 6 -8 12 -5 7 4 0 -5 -16 -20 -22 -21 -31 -24 -37 -13 -7 11
-9 11 -9 0 0 -7 -4 -10 -10 -7 -5 3 -10 1 -10 -5 0 -6 -5 -8 -12 -4 -10 6 -10
4 0 -8 9 -11 10 -18 2 -23 -5 -3 -10 -15 -10 -25 0 -14 -6 -18 -21 -15 -12 3
-19 2 -16 -2 4 -3 -4 -16 -18 -28 -13 -13 -21 -26 -18 -29 4 -3 -1 -6 -10 -6
-15 0 -22 -11 -18 -32 0 -5 -4 -8 -9 -8 -19 0 -52 -38 -45 -51 5 -8 4 -10 -3
-5 -7 4 -12 2 -12 -4 0 -7 -7 -10 -15 -7 -12 5 -14 -34 -14 -294 0 -300 0
-300 21 -294 15 5 18 4 13 -6 -6 -8 -4 -11 6 -7 11 4 14 -2 12 -26 -4 -58 -9
-71 -31 -81 -19 -9 -22 -18 -22 -77 0 -37 4 -70 10 -73 5 -3 7 0 5 7 -3 8 3
23 14 35 11 11 17 24 13 27 -3 4 2 4 11 0 12 -4 17 -2 15 7 -2 8 3 13 10 11 8
-1 11 2 8 7 -4 5 2 14 11 20 11 6 13 11 5 11 -7 0 -10 5 -7 10 4 6 10 8 15 5
4 -3 6 5 2 17 -5 21 -4 22 11 9 13 -10 17 -10 17 -1 0 9 3 10 13 1 10 -8 17
-7 25 1 9 9 12 9 12 -1 0 -7 5 -9 10 -6 6 3 10 -1 10 -9 0 -9 5 -16 10 -16 7
0 7 -6 0 -20 -6 -11 -19 -20 -29 -20 -22 0 -44 -23 -33 -34 4 -4 0 -6 -8 -4
-8 1 -14 -3 -12 -9 1 -7 -3 -13 -9 -13 -5 0 -8 -4 -4 -9 3 -5 -4 -16 -16 -25
-14 -9 -18 -19 -13 -28 5 -9 2 -8 -11 2 -17 14 -18 14 -6 -8 10 -18 9 -22 -4
-22 -9 0 -18 -7 -21 -15 -4 -8 -11 -12 -17 -8 -6 3 -7 1 -3 -5 4 -6 -2 -20
-12 -30 -21 -21 -28 -117 -9 -129 6 -4 8 0 4 10 -4 11 -1 17 9 17 8 0 12 5 9
10 -3 6 1 10 9 10 9 0 16 5 16 10 0 6 6 10 14 10 15 0 30 27 27 47 -1 6 4 15
10 19 8 5 9 3 4 -6 -5 -9 -4 -11 4 -6 9 6 9 11 1 21 -8 10 -8 15 1 21 8 4 9 3
5 -4 -4 -7 -2 -12 3 -12 6 0 11 4 11 8 0 5 7 9 15 9 8 0 15 -6 15 -14 0 -7 6
-13 13 -14 6 0 27 -2 44 -3 18 -1 31 0 28 2 -3 3 3 11 13 19 13 10 13 12 2 8
-11 -4 -16 1 -17 16 -1 12 -8 26 -15 30 -11 7 -11 9 0 9 7 0 10 4 7 10 -3 6 1
7 9 4 9 -3 16 -1 16 6 0 6 4 9 9 6 8 -5 25 29 22 47 -1 4 4 7 10 7 6 0 9 7 6
15 -4 8 -1 17 5 21 7 4 8 3 4 -4 -4 -7 -2 -12 3 -12 6 0 11 7 11 15 0 8 5 15
10 15 6 0 10 5 10 11 0 5 -4 8 -8 5 -5 -3 -9 1 -9 9 0 8 5 13 11 12 6 -1 10 6
10 15 -1 10 2 15 7 12 5 -3 9 0 9 6 0 6 5 8 10 5 6 -3 13 2 17 12 11 30 40 63
48 55 5 -4 5 1 2 11 -4 11 -1 17 8 17 9 0 12 8 10 20 -3 13 0 18 7 14 7 -5 9
-2 6 8 -5 11 1 15 20 14 17 -1 26 -6 24 -15 -2 -9 3 -11 13 -7 9 3 18 0 21 -7
5 -13 37 -14 67 -2 14 6 15 10 6 21 -9 12 -9 13 4 9 8 -4 18 -1 23 6 4 8 3 10
-4 5 -7 -4 -12 -1 -12 9 0 10 5 13 13 9 6 -4 8 -3 4 1 -10 12 -38 15 -31 4 9
-15 -13 -10 -26 6 -7 8 -15 13 -19 10 -7 -3 -7 30 -1 45 1 3 2 9 1 13 -1 5 3
6 8 3 5 -4 13 -1 16 5 4 5 13 8 21 5 10 -4 11 0 3 21 -8 23 -8 24 6 13 18 -15
20 0 3 19 -8 9 -8 11 -2 8 7 -4 14 0 18 8 3 8 12 12 21 9 8 -3 12 -10 9 -15
-10 -16 9 -9 22 8 9 12 13 14 14 5 0 -10 4 -9 16 2 8 9 19 14 23 11 5 -2 16 4
26 15 10 12 13 20 7 20 -7 0 -12 -4 -12 -10 0 -5 -5 -10 -11 -10 -7 0 -5 9 4
24 15 23 15 24 -6 20 -12 -2 -16 -1 -9 2 10 5 10 9 0 22 -11 13 -10 15 3 10
13 -5 16 -2 12 13 -4 14 0 19 13 19 15 0 16 2 5 9 -19 12 -2 19 45 17 26 -1
41 3 41 11 0 7 -4 10 -9 7 -4 -3 -8 0 -8 5 0 6 6 11 13 11 6 0 4 5 -6 11 -14
8 -16 14 -6 25 6 7 15 11 20 8 5 -3 9 0 9 6 0 6 5 8 12 4 7 -4 8 -3 4 5 -4 6
-13 8 -19 5 -7 -4 1 6 18 22 16 16 33 28 38 26 5 -1 6 2 3 7 -10 15 15 25 27
11 7 -7 7 -10 2 -7 -6 3 -11 -3 -11 -13 0 -15 3 -17 15 -7 12 10 13 9 3 -9 -9
-16 -7 -22 10 -33 11 -7 17 -15 14 -18 -3 -4 -2 -11 4 -17 5 -7 5 -17 0 -26
-7 -11 -10 -12 -10 -2 0 7 -4 11 -8 8 -4 -2 -14 4 -21 16 -7 11 -8 17 -3 14 6
-3 12 1 15 9 5 12 2 12 -18 3 -13 -6 -22 -16 -18 -21 4 -6 0 -8 -10 -4 -10 3
-17 2 -17 -3 0 -6 5 -10 10 -10 6 0 10 -5 10 -11 0 -5 -5 -7 -12 -3 -7 5 -8 3
-3 -5 5 -9 10 -10 18 -2 6 6 16 11 21 11 6 0 5 -4 -2 -9 -10 -6 -10 -10 3 -21
13 -11 16 -11 13 0 -2 9 9 15 30 17 20 2 31 -1 27 -7 -5 -9 7 -14 26 -12 4 1
5 -8 2 -19 -3 -11 -9 -17 -12 -12 -3 4 -15 15 -26 23 -20 15 -20 14 -1 -8 11
-12 14 -22 9 -22 -6 0 -18 -16 -27 -35 -9 -19 -19 -35 -22 -35 -3 0 -2 4 1 10
3 6 -1 7 -10 4 -9 -4 -14 -12 -12 -19 3 -6 -4 -17 -14 -24 -11 -6 -17 -16 -14
-21 3 -5 -1 -13 -10 -17 -8 -5 -16 -20 -17 -34 -2 -20 -7 -25 -20 -21 -11 2
-18 0 -16 -6 2 -6 -6 -18 -17 -27 -11 -9 -14 -14 -8 -10 8 4 11 1 7 -9 -3 -8
-11 -13 -19 -10 -7 3 -19 -2 -28 -10 -8 -8 -18 -12 -22 -8 -5 4 -5 2 -1 -5 4
-7 -4 -19 -19 -29 -13 -9 -22 -20 -19 -25 3 -5 -2 -9 -11 -9 -10 0 -13 -5 -9
-12 4 -6 0 -16 -8 -22 -8 -6 -17 -19 -21 -29 -4 -10 -11 -15 -17 -12 -5 3 -10
1 -10 -4 0 -11 -34 -49 -47 -53 -5 -2 -7 -6 -5 -11 1 -4 -4 -6 -10 -5 -8 2
-13 -6 -12 -19 1 -13 -2 -20 -6 -18 -4 3 -11 -2 -14 -11 -3 -8 -10 -12 -16 -9
-5 3 -10 1 -10 -5 0 -7 -6 -10 -13 -7 -14 5 -39 -17 -30 -27 4 -3 1 -6 -5 -6
-7 0 -11 -6 -10 -12 2 -7 -3 -12 -9 -11 -7 2 -18 -6 -25 -16 -6 -10 -18 -17
-25 -14 -7 3 -13 0 -13 -7 0 -6 -4 -9 -9 -6 -5 3 -12 -1 -15 -10 -5 -13 -9
-14 -20 -5 -10 8 -16 9 -21 1 -3 -5 -18 -10 -33 -11 -15 0 -21 -3 -14 -6 10
-4 9 -8 -5 -19 -17 -13 -17 -13 0 -14 22 0 23 -45 2 -67 -8 -8 -13 -19 -10
-24 4 -5 2 -9 -3 -9 -5 0 -12 -13 -15 -30 -4 -18 -13 -30 -22 -30 -8 0 -15 -5
-15 -11 0 -5 -4 -8 -9 -5 -5 3 -12 -1 -15 -10 -3 -8 -10 -13 -15 -10 -5 3 -7
-3 -4 -13 3 -14 -8 -33 -37 -63 -24 -24 -40 -38 -36 -31 3 6 2 15 -4 18 -6 4
-9 2 -8 -3 4 -13 -43 -72 -53 -66 -5 3 -6 -1 -3 -9 3 -8 -3 -20 -13 -28 -16
-12 -17 -12 -8 1 6 9 -1 4 -14 -10 -13 -14 -20 -19 -16 -11 6 9 4 12 -3 7 -14
-9 -17 -222 -3 -230 5 -3 14 1 20 8 9 11 9 16 0 22 -8 5 -9 3 -4 -6 5 -9 4
-11 -4 -6 -8 6 -9 12 -2 20 6 7 8 15 5 19 -3 3 4 10 15 17 12 6 19 15 16 21
-4 5 4 9 17 10 13 0 17 3 10 6 -10 4 -10 8 -1 19 6 8 8 14 5 14 -4 0 -1 6 6
14 7 7 19 11 27 8 9 -3 12 -1 7 6 -5 8 -2 10 8 6 9 -3 16 -11 16 -16 0 -7 5
-6 13 1 8 6 17 8 20 4 4 -3 7 -1 7 6 0 7 4 10 9 6 5 -3 13 0 17 6 4 8 3 9 -4
5 -7 -4 -12 -2 -12 3 0 6 5 11 11 11 8 0 8 4 1 13 -7 8 -7 18 -2 27 5 8 6 18
4 22 -3 4 3 5 13 1 10 -3 15 -3 11 1 -8 10 14 36 25 29 4 -2 7 -1 6 4 -1 4 -1
19 0 33 1 20 3 22 11 10 6 -9 10 -10 10 -3 0 6 -5 15 -11 18 -14 10 26 52 57
59 13 4 24 11 24 17 0 7 6 6 17 -2 11 -10 14 -10 9 -1 -4 7 -2 12 7 12 8 0 24
9 37 20 13 11 18 20 12 20 -6 0 -5 11 5 30 8 17 18 28 23 25 9 -5 7 15 -5 58
-5 17 -4 19 4 7 10 -13 11 -13 11 0 0 13 1 13 10 0 8 -12 10 -12 11 5 l0 20 9
-20 c5 -11 9 -14 9 -7 1 7 5 11 9 8 5 -3 9 1 10 9 1 8 3 22 4 30 1 8 8 15 15
15 8 0 11 5 8 10 -3 6 0 10 8 10 8 0 18 7 21 16 3 9 11 12 18 8 7 -4 10 -4 6
1 -9 9 26 42 54 51 11 3 17 8 14 11 -3 4 2 12 12 20 11 10 12 12 2 8 -9 -4 -8
-1 3 8 10 8 17 19 16 23 -4 21 2 28 11 14 8 -12 10 -11 10 8 0 12 5 22 10 22
6 0 9 6 8 13 -2 6 3 11 10 9 7 -1 12 8 12 20 0 19 2 20 10 8 9 -14 11 -13 14
10 0 5 7 15 15 22 12 11 13 10 7 -2 -4 -8 2 -4 13 9 12 12 19 27 16 32 -3 4 4
13 15 19 11 6 18 15 15 21 -4 5 -2 9 3 9 14 0 57 41 54 52 -1 5 2 7 8 3 5 -3
13 1 16 9 3 9 10 13 15 10 5 -3 9 2 9 10 0 8 9 20 20 26 11 6 18 15 15 21 -4
5 -1 9 5 9 6 0 9 4 5 9 -5 10 11 24 30 27 6 0 15 2 20 2 6 1 11 11 12 23 2 25
22 51 34 43 5 -3 6 1 3 9 -3 8 0 18 7 23 8 4 10 3 5 -4 -5 -8 0 -11 15 -9 12
1 24 -4 27 -12 3 -8 0 -11 -7 -7 -6 4 -11 2 -11 -3 0 -6 7 -11 16 -11 8 0 12
-5 9 -10 -3 -6 3 -10 14 -10 24 0 36 -16 20 -26 -8 -4 -9 -3 -5 4 4 7 2 12 -5
12 -6 0 -9 -8 -6 -19 3 -12 -1 -22 -10 -25 -8 -3 -11 -11 -7 -18 5 -8 2 -9 -9
-5 -9 3 -16 3 -16 -1 5 -30 -23 -40 -50 -18 -12 9 -13 8 -6 -3 6 -11 4 -13 -8
-8 -10 3 -17 2 -17 -4 0 -6 -4 -7 -10 -4 -5 3 -11 -4 -11 -17 -1 -13 -2 -33
-3 -45 0 -12 -5 -25 -10 -30 -5 -5 -6 -3 -2 4 4 7 3 13 -3 13 -5 0 -13 -9 -16
-20 -4 -11 -11 -17 -17 -14 -7 5 -9 0 -6 -14 4 -12 3 -20 -2 -17 -12 8 -26
-17 -24 -47 1 -20 -3 -25 -14 -20 -9 3 -13 1 -9 -5 3 -5 0 -10 -8 -10 -8 0
-12 3 -10 7 2 3 0 12 -5 20 -8 13 -11 13 -22 1 -10 -10 -10 -12 0 -7 6 4 12 3
12 -3 0 -5 -6 -12 -12 -14 -10 -4 -9 -6 1 -6 11 -1 11 -4 0 -18 -12 -14 -12
-16 1 -9 9 4 8 2 -2 -7 -10 -8 -14 -18 -10 -23 4 -4 -1 -2 -10 5 -13 10 -18
10 -18 2 0 -7 -4 -10 -9 -7 -5 3 -15 -2 -22 -11 -12 -14 -12 -15 -1 -9 11 7
12 4 3 -13 -12 -22 -27 -30 -16 -8 4 6 0 4 -8 -5 -8 -10 -17 -15 -21 -11 -4 4
-4 0 -1 -8 3 -9 -3 -26 -15 -40 l-21 -24 17 30 16 30 -20 -25 c-15 -18 -18
-28 -10 -38 9 -10 8 -12 -3 -10 -8 2 -13 -2 -12 -9 2 -6 -6 -14 -16 -18 -11
-3 -22 -13 -25 -22 -5 -13 -4 -14 9 -3 8 7 15 10 15 7 0 -3 -20 -21 -45 -40
-24 -19 -42 -37 -39 -39 3 -3 -13 -2 -35 2 -22 4 -38 3 -35 -1 3 -5 0 -9 -5
-9 -6 0 -11 6 -11 13 -1 7 -6 5 -14 -6 -10 -13 -15 -15 -19 -5 -3 7 -4 2 -3
-12 1 -14 6 -31 10 -38 4 -7 2 -12 -5 -12 -7 0 -4 -7 7 -15 18 -13 18 -14 1
-15 -10 0 -15 -5 -12 -10 4 -6 11 -8 16 -4 6 3 5 -3 -2 -14 -7 -12 -16 -20
-20 -19 -4 1 -15 -7 -24 -18 -9 -11 -13 -13 -9 -5 7 13 5 13 -9 1 -9 -7 -14
-18 -10 -24 4 -6 0 -8 -10 -4 -12 4 -14 0 -11 -18 3 -19 1 -23 -11 -19 -11 4
-13 2 -10 -9 4 -8 -1 -17 -10 -21 -9 -3 -13 -11 -10 -16 4 -6 3 -9 -2 -8 -10
4 -47 -33 -56 -54 -3 -9 -16 -18 -29 -20 -13 -2 -22 -8 -21 -14 2 -14 -57 -79
-81 -87 -16 -6 -16 -10 -5 -24 8 -9 10 -15 4 -12 -11 6 -56 -37 -48 -45 3 -3
-6 -3 -21 0 -18 3 -28 -1 -32 -11 -3 -8 -9 -13 -13 -11 -4 3 -13 -5 -21 -17
-12 -20 -12 -21 3 -9 13 11 15 10 10 -7 -3 -12 -10 -18 -15 -15 -5 3 -8 -2 -6
-12 2 -12 -2 -18 -10 -16 -8 1 -12 -3 -10 -10 3 -7 -2 -19 -11 -26 -14 -10
-13 -11 4 -6 19 7 19 6 -2 -15 -22 -21 -39 -29 -29 -13 3 5 -1 9 -8 9 -8 0
-12 -6 -9 -14 8 -20 130 -18 151 4 9 9 15 17 13 17 -9 2 11 46 20 46 6 0 7 -6
4 -12 -4 -7 1 -4 10 7 9 11 21 19 27 17 6 -2 8 4 4 15 -6 14 -4 15 5 6 6 -6
18 -9 27 -6 11 5 13 2 7 -6 -6 -10 -3 -11 11 -3 11 5 29 8 41 7 13 -1 24 2 24
7 1 4 2 12 3 17 0 5 5 13 9 18 5 4 7 1 5 -7 -2 -9 3 -14 12 -12 10 3 9 -3 -5
-19 -11 -12 -14 -19 -6 -14 9 5 12 3 9 -6 -3 -8 -11 -13 -17 -11 -7 1 -10 -2
-6 -8 3 -5 -1 -13 -9 -16 -9 -3 -13 -10 -10 -15 3 -5 0 -9 -6 -9 -6 0 -9 -4
-6 -9 4 -5 0 -12 -6 -15 -7 -3 25 -5 71 -4 77 1 87 3 108 26 13 14 23 30 23
35 0 6 -7 2 -16 -9 -15 -18 -15 -18 -4 3 6 13 20 28 33 34 26 15 52 39 40 39
-4 1 8 15 27 32 19 17 29 28 23 24 -9 -5 -11 -2 -7 8 3 9 11 13 17 9 6 -3 7
-1 3 6 -7 11 11 34 30 38 6 1 11 -4 11 -12 0 -8 -5 -11 -11 -8 -6 4 -5 0 2 -9
10 -12 10 -20 -1 -42 -8 -14 -16 -23 -19 -20 -3 2 -8 -2 -12 -11 -3 -9 -2 -13
4 -10 6 3 7 -1 4 -9 -3 -9 -11 -16 -17 -16 -6 0 -7 -3 -4 -7 4 -3 3 -11 -2
-17 -9 -11 -14 -46 -12 -74 1 -10 30 -13 126 -11 125 1 125 1 125 25 0 14 5
23 13 22 6 -2 11 3 9 11 -2 9 3 11 13 7 9 -3 13 -2 10 3 -3 5 3 16 13 23 11 7
20 17 20 23 0 5 9 12 19 16 10 4 14 8 8 9 -5 0 4 8 20 16 17 8 22 12 13 10
-15 -5 -16 -3 -5 14 6 11 15 20 20 20 4 0 5 5 2 10 -3 6 0 10 7 10 9 0 9 3 -2
10 -11 7 -11 10 -2 10 7 0 10 5 7 10 -3 6 -2 10 4 10 6 0 8 6 5 14 -3 8 0 17
5 21 6 3 9 11 6 16 -3 5 0 6 8 3 9 -3 17 3 20 16 3 12 10 19 16 15 7 -3 8 0 5
10 -4 8 -1 22 6 30 6 8 9 19 5 24 -3 7 0 8 9 5 9 -3 16 -1 16 6 0 6 4 8 10 5
6 -4 7 1 3 11 -5 13 -2 16 9 12 11 -5 14 1 13 23 -2 26 5 33 26 31 4 -1 5 7 2
17 -3 10 1 22 8 26 8 5 10 4 5 -3 -9 -15 -5 -15 29 -2 14 5 24 6 21 1 -3 -5 5
-11 19 -13 13 -3 22 -1 19 3 -3 5 0 9 6 9 6 0 8 5 4 11 -3 6 7 4 24 -5 17 -9
33 -25 37 -36 4 -12 11 -17 18 -13 7 4 5 -2 -3 -13 -8 -10 -10 -16 -6 -12 5 4
15 0 23 -10 8 -9 11 -11 7 -3 -4 9 -2 12 7 9 8 -3 13 -10 12 -16 -1 -5 6 -8
16 -5 10 3 22 -1 26 -8 6 -8 4 -10 -5 -4 -9 5 -11 4 -6 -4 6 -9 11 -9 21 -1
15 13 35 6 35 -12 0 -6 8 -17 18 -25 9 -8 11 -11 3 -7 -10 5 -12 3 -7 -5 6 -9
11 -9 21 -1 9 7 16 6 25 -5 7 -8 17 -12 23 -8 6 3 7 1 3 -6 -4 -6 -13 -8 -19
-5 -7 4 -1 -4 13 -17 27 -26 110 -39 110 -17 0 6 8 1 19 -10 10 -12 20 -19 23
-17 8 8 3 -30 -7 -44 -5 -10 -4 -12 4 -7 6 4 19 2 28 -6 14 -11 16 -11 8 1 -6
11 -4 13 9 8 11 -5 15 -3 10 5 -5 8 -2 9 10 5 9 -4 15 -3 12 1 -2 4 -1 14 5
22 7 12 9 12 9 1 0 -8 6 -11 16 -7 8 3 12 2 9 -4 -3 -6 -1 -10 5 -10 6 0 8 -5
4 -12 -6 -10 -5 -10 8 -1 8 7 18 10 22 6 4 -4 4 0 1 8 -3 9 2 22 11 30 10 8
15 9 11 2 -4 -6 -3 -14 3 -18 5 -3 10 -1 10 6 0 16 13 3 16 -16 1 -8 -3 -15
-9 -15 -5 0 -8 -3 -4 -6 3 -3 -6 -17 -20 -30 -13 -12 -22 -27 -19 -33 7 -11
32 -9 43 4 5 4 1 4 -7 0 -13 -8 -13 -6 -1 8 12 15 31 15 31 1 0 -3 -5 -2 -12
2 -7 4 -8 3 -4 -5 6 -9 11 -9 22 0 7 6 11 16 7 22 -4 6 0 8 10 4 11 -4 17 -1
17 8 0 8 8 19 18 24 9 6 13 11 9 11 -5 0 -1 7 7 16 9 8 20 13 25 10 5 -4 8 4
7 17 -2 16 2 23 16 23 10 0 18 -5 18 -10 0 -6 5 -5 12 2 8 8 17 8 32 0 15 -8
21 -8 24 1 2 6 10 11 18 11 8 0 14 5 14 12 0 20 13 -1 15 -24 2 -22 -33 -65
-48 -60 -5 1 -6 -2 -2 -8 3 -5 3 -16 -2 -23 -11 -18 -13 -38 -2 -31 8 5 13 -8
11 -27 -1 -4 8 -5 18 -2 11 3 20 10 20 15 0 5 5 6 12 2 6 -4 8 -3 4 4 -3 6 3
17 14 25 12 8 22 24 23 36 1 11 5 21 9 21 4 0 8 7 8 15 0 8 4 15 10 15 5 0 6
7 3 17 -5 12 -3 14 8 8 12 -7 12 -6 0 9 -13 16 -13 18 0 16 28 -4 39 0 39 15
0 8 5 15 10 15 6 0 28 18 50 40 22 22 45 40 51 40 5 0 7 5 3 12 -5 8 -2 9 12
4 10 -4 15 -4 11 0 -4 4 1 13 11 21 9 8 11 12 5 8 -7 -3 -13 -2 -13 4 0 5 6
12 13 14 9 4 8 6 -2 6 -9 1 -4 10 13 26 15 14 24 30 20 37 -4 6 -3 8 4 4 6 -3
13 -2 16 3 3 5 -1 12 -10 15 -12 4 -13 10 -6 19 6 6 10 16 9 21 -1 5 6 10 16
12 14 2 16 -1 7 -11 -8 -9 -6 -14 5 -19 9 -3 13 -2 10 4 -3 6 -1 10 4 10 6 0
11 -4 11 -9 0 -5 7 -12 16 -15 8 -3 13 -2 10 2 -3 5 1 20 9 35 10 20 11 27 2
28 -7 0 -3 4 8 9 11 5 15 9 9 9 -6 1 -11 8 -11 16 0 8 4 12 9 9 9 -6 10 -4 12
53 1 23 9 50 18 60 9 10 17 22 16 26 0 5 4 12 8 15 4 4 4 1 0 -5 -4 -7 -2 -13
3 -13 14 0 14 17 1 25 -5 3 -7 12 -4 20 4 8 10 12 15 9 5 -3 6 2 3 10 -3 9 -1
16 6 16 6 0 8 5 5 10 -4 6 -3 10 2 9 19 -3 22 2 13 27 -7 16 -7 23 0 19 6 -3
10 -12 10 -20 0 -7 8 -16 17 -19 10 -4 14 -4 10 0 -4 4 0 19 10 33 16 25 16
25 -2 11 -16 -14 -17 -13 -11 6 6 18 2 22 -20 22 -17 0 -22 -3 -13 -9 7 -4 17
-5 23 -2 5 3 6 1 2 -5 -11 -18 -47 4 -39 24 3 8 12 13 19 10 8 -3 14 1 14 9 0
18 12 19 29 3 10 -11 11 -10 6 5 -4 9 -11 17 -16 17 -6 0 -4 10 2 23 12 21 11
21 -7 7 -10 -8 -16 -10 -12 -6 4 5 2 16 -5 24 -10 13 -9 14 2 7 8 -5 5 5 -7
22 -16 23 -19 34 -11 39 7 4 9 3 6 -3 -4 -6 0 -16 8 -23 14 -11 14 -9 5 16 -6
16 -11 30 -10 32 1 2 -2 7 -6 10 -4 4 -4 1 1 -7 6 -10 4 -12 -4 -7 -8 6 -9 11
-2 20 8 10 5 18 -11 32 -16 13 -19 14 -10 2 10 -12 10 -18 1 -24 -7 -4 -9 -3
-5 4 3 6 2 13 -3 17 -6 3 -7 13 -4 22 4 10 2 14 -4 10 -5 -3 -10 0 -10 8 0 8
4 12 8 9 4 -2 11 0 14 6 4 6 1 9 -7 8 -9 -2 -13 10 -12 44 0 28 -4 44 -9 41
-6 -4 -7 -1 -2 7 4 7 2 16 -6 21 -11 7 -10 9 4 9 9 0 17 5 17 11 0 5 -4 8 -8
5 -4 -2 -8 4 -8 14 0 14 3 16 13 8 10 -8 12 -7 7 6 -3 9 -10 16 -15 16 -5 0
-9 5 -9 11 0 5 4 7 10 4 6 -3 7 1 4 9 -3 9 -10 16 -16 16 -5 0 -6 -5 -2 -12 4
-7 3 -8 -4 -4 -9 5 -9 13 0 29 10 20 10 21 -5 8 -10 -8 -17 -9 -17 -3 0 6 -9
9 -20 7 -11 -2 -21 0 -21 6 -1 5 -2 13 -3 18 0 5 -4 13 -8 17 -4 4 -3 13 4 21
9 11 7 12 -16 4 -24 -10 -30 -7 -27 11 0 4 -7 4 -16 1 -11 -4 -14 -3 -9 5 4 8
0 12 -11 12 -15 0 -16 2 -3 10 12 8 12 10 1 10 -10 0 -11 3 -2 14 9 11 9 15
-1 19 -7 3 -3 6 10 6 13 1 20 5 17 11 -4 6 1 7 11 3 13 -5 15 -3 9 8 -7 12 -6
12 8 1 13 -12 18 -11 29 7 7 12 16 17 23 11 7 -6 10 4 9 30 0 22 3 37 8 34 4
-3 5 -10 2 -16 -4 -7 -2 -8 5 -4 9 6 8 14 -5 34 -13 21 -14 24 -2 15 8 -7 18
-10 21 -6 4 3 -1 11 -10 18 -13 9 -13 14 -3 20 9 6 11 4 5 -5 -6 -10 -4 -12 8
-7 19 7 33 -8 16 -19 -8 -4 -7 -9 2 -16 11 -7 10 -8 -4 -4 -10 3 -15 2 -12 -3
3 -6 14 -9 25 -8 15 1 19 6 14 22 -6 19 -5 19 7 2 13 -16 14 -14 16 20 1 20
-3 43 -9 50 -8 11 -7 12 8 8 10 -4 6 1 -9 10 -24 14 -26 19 -16 31 7 8 8 14 3
13 -22 -4 -34 2 -35 19 0 9 -3 12 -5 5 -4 -8 -12 -5 -25 8 -11 11 -17 24 -14
29 4 6 -1 13 -10 16 -13 6 -14 8 -3 15 10 7 8 9 -6 9 -12 0 -16 5 -12 16 4 10
2 13 -6 8 -8 -5 -9 -2 -5 9 4 10 -1 21 -12 29 -11 8 -17 24 -17 42 2 32 -27
76 -50 76 -9 0 -12 5 -8 12 5 8 0 9 -14 6 -12 -4 -20 -3 -17 2 3 4 -3 11 -13
15 -24 11 -45 15 -37 7 4 -4 12 -7 18 -7 5 0 12 -7 14 -15 4 -13 3 -13 -6 0
-6 8 -11 11 -11 6 0 -5 -9 -1 -19 8 -18 17 -26 60 -9 50 14 -9 9 7 -8 23 -8 9
-13 22 -9 31 4 11 2 12 -7 6 -22 -16 -103 -11 -103 5 0 9 11 16 27 16 15 1 25
-2 22 -6 -2 -4 0 -10 6 -14 5 -3 10 2 10 11 0 16 1 16 15 -2 14 -18 14 -18 15
0 0 10 -10 27 -22 37 -23 21 -43 25 -32 8 5 -8 1 -8 -13 0 -11 6 -24 7 -28 3
-5 -4 -5 -1 -1 6 4 7 13 9 19 5 8 -4 7 -1 -1 9 -9 11 -10 18 -2 23 7 4 7 12 0
24 -5 10 -7 21 -4 23 3 3 -2 8 -11 12 -9 3 -13 2 -10 -4 3 -6 1 -10 -4 -10 -6
0 -11 5 -11 11 0 8 -6 7 -17 -2 -10 -9 -14 -9 -10 -2 6 9 -1 11 -23 8 -17 -2
-28 0 -25 5 6 10 -15 27 -37 29 -39 3 -45 5 -45 17 0 7 4 11 8 9 4 -3 5 4 2
15 -4 15 -13 20 -32 18 -15 -1 -33 2 -40 7 -9 5 -12 4 -7 -3 3 -6 2 -13 -4
-17 -5 -3 -10 0 -10 8 0 17 -37 30 -46 16 -3 -5 -11 -6 -17 -2 -17 10 -47 11
-47 1 0 -5 -4 -6 -10 -3 -6 4 -7 -1 -3 -11 5 -14 3 -16 -11 -11 -10 4 -15 3
-11 -3 3 -6 2 -10 -3 -10 -6 0 -12 7 -16 15 -3 8 -13 15 -21 15 -9 0 -13 4
-10 10 3 6 -1 7 -9 4 -9 -3 -16 -1 -16 6 0 6 -5 8 -11 4 -7 -4 -10 -1 -7 7 3
8 -1 19 -9 24 -8 6 -15 20 -16 32 -1 21 -2 21 -19 6 -11 -10 -18 -12 -18 -5 0
7 -5 12 -11 12 -5 0 -7 -5 -3 -11 3 -6 -4 -5 -17 3 -30 18 -51 17 -56 -2 -3
-9 -1 -11 4 -5 10 13 33 18 33 7 0 -4 -6 -14 -12 -22 -7 -8 -4 -7 7 2 20 16
21 16 21 -2 0 -10 -4 -16 -8 -14 -15 10 -8 -15 10 -32 16 -17 16 -17 -3 -10
-38 16 -60 13 -58 -9 1 -11 0 -14 -3 -7 -3 6 -11 9 -16 6 -7 -4 -8 -2 -4 4 4
7 3 12 -3 12 -11 0 -9 18 7 47 17 30 15 35 -9 28 -15 -5 -19 -4 -15 4 10 16 0
13 -14 -4z m33 -20 c-3 -9 -8 -14 -10 -11 -3 3 -2 9 2 15 9 16 15 13 8 -4z
m-49 -53 c3 -5 -1 -9 -9 -9 -8 0 -12 4 -9 9 3 4 7 8 9 8 2 0 6 -4 9 -8z m101
-11 c3 -5 2 -12 -3 -15 -5 -3 -9 1 -9 9 0 17 3 19 12 6z m410 -32 c11 -16 1
-19 -13 -3 -7 8 -8 14 -3 14 5 0 13 -5 16 -11z m-23 -46 c-5 -22 -10 -28 -17
-19 -14 15 -12 42 3 39 7 -2 12 2 12 9 0 6 2 9 4 7 3 -2 1 -18 -2 -36z m-414
-46 c-2 -12 -9 -28 -16 -36 -7 -7 -11 -20 -8 -28 3 -8 2 -12 -3 -8 -10 6 -87
-65 -83 -77 1 -5 -2 -8 -7 -8 -5 0 -12 -9 -16 -19 -4 -14 -12 -18 -23 -14 -9
3 -14 2 -10 -2 8 -9 -31 -42 -44 -37 -5 1 -7 -1 -6 -6 1 -4 -2 -20 -7 -35 -5
-18 -12 -26 -22 -23 -9 4 -16 -4 -20 -24 -3 -17 -10 -30 -15 -30 -5 0 -6 -4
-3 -10 3 -5 1 -10 -6 -10 -6 0 -18 -8 -26 -17 -8 -10 -11 -12 -7 -4 5 10 3 13
-8 9 -8 -4 -20 2 -27 14 -10 16 -10 19 1 13 11 -7 11 -5 0 6 -7 8 -18 14 -25
14 -7 0 -11 9 -9 19 2 12 -1 16 -10 11 -7 -4 -1 4 14 17 15 14 25 28 21 32 -3
3 1 6 11 6 9 0 15 4 12 9 -3 5 4 11 15 14 12 3 18 10 14 16 -3 6 1 11 9 11 9
0 16 5 16 10 0 6 7 10 15 10 8 0 21 12 29 28 8 15 18 27 23 27 4 0 7 3 6 8 -2
4 2 7 7 7 5 0 9 6 8 13 -2 6 2 11 9 10 6 -2 10 5 8 15 -4 20 29 64 40 54 5 -4
5 -1 1 6 -5 7 -14 11 -21 8 -9 -3 -11 2 -7 16 4 15 7 17 13 6 7 -10 12 -11 29
0 16 9 20 9 18 0 -2 -8 8 -11 32 -9 42 4 52 9 44 23 -4 6 2 5 15 -2 14 -7 21
-19 19 -33z m-214 25 c3 -5 -1 -9 -9 -9 -8 0 -12 4 -9 9 3 4 7 8 9 8 2 0 6 -4
9 -8z m611 -41 c-3 -6 -11 -11 -16 -11 -5 0 -4 6 3 14 14 16 24 13 13 -3z
m-280 -12 c-3 -5 2 -6 11 -2 12 4 15 3 10 -5 -4 -7 -1 -12 8 -12 9 0 16 -5 16
-11 0 -6 7 -9 14 -6 10 4 13 1 9 -9 -4 -10 0 -12 11 -8 12 5 15 2 10 -10 -3
-9 -1 -16 6 -16 6 0 8 -4 5 -10 -9 -14 8 -13 23 2 9 9 12 9 12 0 0 -7 5 -12
11 -12 5 0 8 4 5 9 -4 5 2 8 11 6 10 -2 21 -4 25 -4 12 -1 5 -24 -12 -39 -8
-8 -9 -11 -3 -7 9 4 11 1 7 -10 -4 -9 -13 -14 -20 -11 -8 3 -13 2 -12 -2 2
-11 -24 -62 -31 -58 -3 2 -15 -6 -26 -17 -11 -11 -13 -16 -5 -12 8 5 2 -5 -15
-21 -16 -16 -33 -27 -37 -26 -5 1 -8 -3 -8 -9 0 -5 -4 -8 -8 -5 -4 2 -14 -9
-21 -26 -10 -22 -16 -27 -22 -17 -5 8 -9 9 -9 4 0 -6 6 -17 13 -24 6 -7 7 -11
2 -9 -5 2 -10 -1 -10 -5 0 -5 -11 -15 -25 -22 -14 -7 -24 -17 -24 -22 1 -4 -2
-7 -7 -6 -4 2 -13 -6 -19 -18 -6 -11 -23 -25 -38 -31 -15 -6 -22 -12 -14 -15
21 -8 -27 -66 -49 -60 -11 3 -17 1 -14 -4 3 -4 -5 -11 -19 -15 -17 -4 -26 -15
-30 -36 -3 -17 -9 -28 -13 -25 -3 4 -12 -1 -20 -11 -8 -9 -12 -11 -8 -5 4 9 1
11 -9 7 -9 -3 -13 -10 -10 -15 3 -5 0 -9 -6 -9 -6 0 -8 -5 -4 -12 4 -7 3 -8
-5 -4 -6 4 -14 0 -17 -8 -3 -9 -11 -13 -18 -9 -6 4 -5 -1 3 -10 11 -14 11 -18
-3 -23 -11 -4 -15 -13 -11 -22 3 -9 3 -13 -1 -9 -7 7 -54 -42 -54 -57 0 -5 -3
-6 -7 -2 -4 3 -13 -4 -20 -16 -8 -15 -12 -18 -13 -8 0 13 -1 13 -10 0 -9 -13
-11 -13 -20 0 -8 12 -10 12 -10 -5 -1 -18 -3 -17 -24 7 -14 15 -23 35 -21 45
2 10 4 22 4 26 1 5 7 5 14 1 9 -6 9 -4 -1 8 -10 13 -10 18 -1 24 8 4 9 3 5 -4
-4 -7 -2 -12 3 -12 23 0 6 33 -21 43 -10 3 -20 1 -24 -5 -5 -7 -2 -8 6 -3 9 6
11 4 5 -5 -6 -10 -11 -9 -22 5 -7 11 -13 15 -13 9 0 -5 -5 -1 -11 9 -8 14 -8
22 1 30 10 9 11 9 5 -3 -5 -8 -4 -11 0 -7 9 7 13 23 17 59 1 9 4 16 6 14 6 -6
49 38 45 46 -2 4 4 5 13 1 11 -4 15 -2 11 4 -4 6 0 14 8 17 9 3 18 -1 21 -9 3
-7 13 -11 22 -8 13 4 14 3 3 -5 -7 -5 -11 -14 -7 -20 3 -6 -2 -12 -11 -14 -10
-3 1 -4 24 -4 23 0 36 4 30 8 -9 6 -8 11 3 18 8 5 11 10 5 10 -5 0 -2 5 8 11
10 6 14 15 10 22 -5 8 -2 8 9 -1 13 -10 15 -9 10 14 -4 20 -2 25 8 19 9 -6 10
-3 2 11 -11 23 -5 47 11 37 9 -5 9 -3 0 8 -8 9 -9 20 -3 29 6 8 10 23 10 33 0
23 40 76 41 56 0 -10 2 -10 6 -2 2 7 5 16 5 20 1 5 8 13 17 20 10 7 11 12 4
13 -9 0 -8 8 3 28 12 24 12 28 -1 38 -13 10 -13 12 5 17 11 3 18 1 15 -3 -3
-5 3 -8 14 -7 12 1 17 6 13 16 -4 10 -1 13 11 8 9 -3 17 -2 17 4 0 6 5 7 10 4
6 -3 10 -1 10 5 0 6 5 8 10 5 6 -3 10 1 10 10 0 9 5 13 10 10 6 -4 10 -3 9 2
-4 23 2 43 11 38 6 -3 13 1 16 10 5 13 9 13 22 3 11 -9 14 -9 9 -1 -4 7 3 21
15 34 13 12 16 19 8 15 -8 -4 -7 -1 3 7 10 9 25 24 34 34 8 10 12 12 8 6 -3
-7 -1 -13 4 -13 6 0 11 7 11 16 0 8 5 12 10 9 6 -4 8 -11 5 -16z m450 12 c-3
-6 3 -15 12 -21 16 -10 16 -11 1 -6 -9 3 -18 1 -20 -4 -2 -6 -9 -6 -18 0 -13
8 -12 11 5 24 23 18 28 19 20 7z m64 -77 c5 3 12 -1 15 -10 4 -9 2 -13 -5 -8
-6 4 -14 1 -18 -5 -5 -7 -12 -2 -20 15 -11 24 -10 26 3 15 8 -7 19 -10 25 -7z
m-55 -51 c-15 -15 -21 -19 -13 -8 14 19 13 19 -12 3 -25 -16 -26 -16 -25 5 1
18 7 22 31 22 21 0 29 4 27 15 -3 11 -1 12 8 3 10 -9 6 -18 -16 -40z m-129
-48 c18 -19 35 -32 39 -28 3 3 6 -1 6 -10 0 -9 5 -17 11 -17 11 0 -16 -44 -29
-46 -20 -2 -41 -17 -36 -25 3 -5 -2 -9 -11 -9 -9 0 -13 -4 -10 -10 6 -9 -7
-14 -27 -11 -4 0 -4 -7 -1 -17 6 -15 5 -15 -10 -3 -12 9 -17 10 -17 2 0 -7 -4
-9 -10 -6 -13 8 -13 -1 0 -26 7 -12 7 -19 1 -19 -6 0 -7 -7 -4 -17 4 -10 2
-14 -4 -10 -6 4 -14 0 -17 -9 -3 -8 -10 -12 -16 -9 -5 3 -10 1 -10 -5 0 -6 -5
-8 -12 -4 -8 5 -9 2 -4 -12 4 -10 4 -15 0 -11 -4 4 -14 1 -22 -6 -13 -10 -14
-9 -7 3 8 13 7 13 -8 1 -10 -8 -15 -16 -13 -19 3 -2 -5 -13 -17 -24 -12 -11
-15 -16 -7 -12 13 7 13 5 1 -9 -7 -9 -17 -15 -21 -12 -5 3 -10 0 -12 -5 -2 -6
-12 -12 -23 -14 -12 -2 -19 -10 -17 -19 1 -8 -6 -18 -18 -22 -11 -3 -19 -12
-17 -18 1 -7 -4 -11 -11 -9 -7 1 -15 -5 -18 -13 -3 -8 -10 -13 -15 -10 -4 3
-6 -3 -4 -14 3 -15 0 -18 -12 -14 -13 5 -15 2 -10 -11 4 -10 3 -15 -3 -11 -6
3 -10 1 -10 -4 0 -6 -6 -11 -13 -11 -15 0 -55 -40 -41 -40 5 0 1 -7 -9 -14
-10 -8 -19 -18 -20 -23 -1 -4 -5 -7 -9 -6 -4 2 -5 -3 -2 -11 3 -8 0 -17 -7
-22 -8 -4 -10 -3 -5 4 4 7 5 12 2 12 -3 0 -10 -10 -17 -21 -8 -16 -8 -20 1
-14 8 5 7 1 -1 -13 -11 -17 -16 -19 -28 -9 -10 8 -13 8 -8 1 9 -15 -18 -25
-31 -12 -7 7 -14 4 -21 -10 -8 -15 -8 -23 0 -27 6 -5 4 -12 -8 -22 -10 -8 -11
-11 -3 -7 8 4 -5 -12 -30 -36 -25 -24 -39 -39 -31 -35 9 5 12 4 7 -3 -5 -9
-13 -9 -29 -1 -29 15 -37 24 -14 16 11 -4 16 -3 12 3 -3 6 -13 10 -21 10 -8 0
-12 5 -9 10 3 6 -2 10 -12 11 -11 0 -13 3 -5 6 6 2 10 9 6 14 -3 5 0 9 6 9 6
0 8 5 5 10 -6 10 8 19 42 25 10 2 20 4 23 5 3 1 7 2 10 2 3 0 6 13 5 29 0 16
-3 29 -7 29 -4 0 -5 7 -2 15 4 8 10 12 15 9 5 -3 6 3 2 12 -5 14 -3 16 11 11
9 -4 15 -3 12 2 -3 5 5 16 19 25 14 9 25 23 25 31 0 8 5 15 11 15 5 0 8 4 5 8
-3 5 6 21 20 38 14 16 22 23 18 15 -5 -9 -3 -12 4 -7 7 4 12 15 13 24 0 10 3
12 6 5 3 -9 11 -9 29 3 13 9 21 20 18 25 -3 5 -1 9 5 9 6 0 8 6 5 14 -3 7 2
16 10 19 9 4 16 14 16 22 0 9 4 14 8 11 5 -3 19 8 30 24 12 16 28 27 35 25 6
-2 21 7 31 22 13 17 14 24 5 19 -8 -4 -5 0 6 9 11 9 19 21 18 26 -2 5 2 9 8 9
5 0 8 4 4 9 -8 13 42 64 55 56 6 -3 9 -3 8 2 -2 4 7 18 20 31 12 12 22 17 22
10 0 -9 3 -8 9 2 6 8 7 19 5 25 -3 5 2 1 10 -9 9 -11 17 -15 17 -8 1 7 2 17 3
22 0 6 8 15 16 20 13 9 13 10 0 10 -13 0 -13 1 0 10 8 5 12 10 8 10 -4 0 0 9
9 19 9 11 20 18 25 15 7 -5 11 9 6 22 -3 5 40 33 51 34 3 0 19 -16 36 -35z
m156 -111 c2 3 9 -6 16 -20 8 -18 8 -22 0 -17 -7 4 -7 0 1 -9 9 -11 10 -18 2
-23 -6 -3 -8 -11 -4 -16 3 -5 2 -9 -3 -8 -19 3 -34 -2 -29 -10 3 -4 -2 -17
-10 -27 -9 -10 -13 -12 -9 -4 4 8 -2 4 -13 -9 -10 -13 -24 -21 -30 -17 -7 4
-9 -2 -6 -17 2 -16 -4 -30 -20 -44 -13 -12 -27 -19 -30 -16 -3 4 -6 1 -6 -6 0
-7 -4 -9 -10 -6 -5 3 -10 1 -10 -5 0 -6 -4 -8 -10 -5 -5 3 -10 1 -10 -5 0 -6
-3 -9 -7 -7 -12 7 -30 -17 -27 -36 1 -9 -1 -17 -5 -17 -4 0 -8 -6 -9 -12 -3
-44 -7 -56 -16 -51 -5 3 -15 -2 -23 -12 -7 -11 -13 -15 -13 -9 0 5 -5 2 -10
-6 -5 -8 -15 -15 -22 -15 -7 0 -13 -4 -14 -10 -2 -21 -17 -45 -25 -39 -5 3
-10 0 -10 -5 -1 -6 -2 -16 -3 -21 0 -6 -8 -15 -16 -20 -8 -5 -15 -15 -15 -22
-1 -7 -6 -12 -13 -10 -7 1 -12 -3 -12 -8 0 -6 -12 -15 -26 -20 -16 -7 -23 -14
-18 -22 5 -9 2 -9 -9 1 -9 7 -17 12 -18 10 0 -2 -2 -11 -4 -19 -3 -8 -6 -24
-7 -35 -4 -26 -31 -56 -54 -60 -11 -1 -18 -8 -17 -14 3 -10 -10 -15 -29 -12
-5 0 -7 -5 -5 -12 1 -6 -4 -11 -10 -10 -7 2 -13 -4 -13 -12 0 -8 -7 -15 -15
-15 -9 0 -18 -6 -21 -14 -3 -8 -15 -12 -27 -10 -12 2 -16 2 -9 -2 6 -3 9 -10
6 -15 -4 -6 -10 -6 -18 0 -9 8 -13 7 -13 -4 0 -8 4 -15 9 -15 5 0 8 -8 6 -17
-1 -10 1 -24 6 -32 6 -9 5 -12 -2 -7 -6 3 -17 -1 -26 -10 -9 -8 -19 -13 -24
-10 -4 2 -9 -5 -9 -17 -1 -12 -7 -23 -13 -25 -5 -2 -10 -10 -10 -18 0 -8 -7
-17 -15 -20 -8 -4 -13 -10 -10 -14 3 -5 -7 -18 -22 -30 -16 -12 -22 -19 -15
-15 14 7 15 4 6 -19 -3 -9 -12 -16 -20 -16 -8 0 -13 -6 -11 -12 1 -7 -6 -12
-15 -10 -10 2 -18 -2 -18 -8 0 -6 -3 -9 -7 -7 -11 6 -62 -50 -54 -59 3 -4 -2
-4 -12 -1 -11 4 -16 3 -12 -3 3 -6 1 -10 -5 -10 -7 0 -10 -6 -8 -12 3 -7 -4
-21 -14 -30 -10 -10 -18 -15 -18 -11 0 4 -7 -2 -15 -13 -8 -11 -15 -14 -15 -6
0 6 -10 12 -22 12 -19 0 -20 2 -8 11 12 9 11 10 -7 6 -16 -4 -20 -1 -16 11 4
10 2 13 -5 8 -6 -3 -14 -1 -18 5 -5 8 -3 9 6 4 9 -6 10 -2 5 15 -5 16 -4 20 5
15 7 -4 10 -1 8 11 -2 11 2 18 9 17 8 -2 10 4 6 14 -5 13 -2 15 11 10 10 -4
15 -3 11 3 -3 6 -1 10 5 10 6 0 8 6 4 13 -4 6 -4 9 1 5 11 -11 36 12 28 25 -3
5 -1 7 5 3 6 -3 13 -2 17 4 3 5 11 10 16 10 6 0 7 -5 3 -12 -4 -7 -3 -8 4 -4
6 4 8 14 5 23 -4 11 -3 14 5 9 11 -7 17 6 13 28 -1 5 5 6 13 3 10 -4 14 0 11
14 -2 11 -1 18 3 15 10 -6 32 21 24 30 -4 4 2 4 12 0 16 -5 17 -4 6 9 -10 12
-10 15 4 15 10 0 14 4 11 10 -4 6 1 7 11 3 12 -4 15 -3 10 6 -5 7 -2 10 6 9 7
-2 12 5 12 14 -1 10 2 15 8 12 5 -3 6 -14 3 -25 -4 -11 -2 -19 5 -19 6 0 8 5
5 10 -3 6 -1 10 6 10 9 0 9 3 0 14 -13 15 -5 46 12 46 6 0 8 3 4 6 -8 9 16 33
27 26 5 -3 6 -1 3 5 -4 5 2 19 13 30 10 12 16 24 12 27 -3 4 2 4 13 0 15 -6
17 -4 12 10 -4 10 -3 15 3 11 6 -3 10 1 10 9 0 8 9 18 20 21 11 4 18 10 16 14
-7 10 33 43 43 36 5 -3 12 2 15 11 3 8 11 12 17 8 8 -4 9 -3 5 4 -4 7 -3 12 3
12 6 0 8 7 4 15 -3 10 0 15 8 13 8 -2 15 7 17 20 2 12 8 22 13 22 5 0 9 8 9
18 0 17 44 65 55 59 7 -3 40 46 37 56 -1 4 1 6 6 5 4 -2 22 13 41 32 18 19 37
34 42 32 5 -1 8 1 8 5 -4 23 3 35 15 30 11 -4 13 -1 9 10 -4 11 -2 14 5 9 7
-4 12 -1 12 9 0 9 9 19 20 22 11 3 17 9 15 14 -7 10 30 31 39 22 3 -3 6 -1 6
6 0 7 5 9 10 6 6 -4 10 -3 9 2 -3 13 14 47 29 59 8 6 12 16 8 22 -3 6 -1 14 5
18 8 5 9 3 4 -7 -4 -8 1 -5 12 6 11 11 19 23 16 28 -2 4 3 7 12 7 10 0 13 5 9
12 -5 8 -2 9 12 4 10 -4 16 -4 12 -1 -12 12 26 43 40 32 9 -7 11 -5 5 8 -5 14
-3 17 10 12 9 -3 19 -1 23 5 5 7 2 8 -6 3 -9 -5 -11 -4 -6 4 6 8 12 9 20 2 7
-6 15 -9 17 -7z m310 -11 c13 -16 12 -17 -3 -4 -10 7 -18 15 -18 17 0 8 8 3
21 -13z m-1721 -57 c0 -3 -4 -8 -10 -11 -5 -3 -10 -1 -10 4 0 6 5 11 10 11 6
0 10 -2 10 -4z m1522 -44 c-3 -10 -1 -13 6 -8 6 3 17 -3 25 -14 7 -11 17 -17
22 -12 4 4 5 -1 2 -11 -5 -12 -3 -16 4 -11 6 4 15 0 20 -7 5 -8 3 -17 -4 -21
-8 -5 -7 -8 5 -8 11 0 15 -5 12 -15 -4 -9 1 -18 11 -21 13 -5 14 -9 3 -15 -10
-7 -9 -9 3 -9 25 0 32 -30 13 -52 -10 -10 -19 -16 -22 -13 -8 8 -63 -26 -57
-35 4 -6 1 -10 -6 -10 -6 0 -9 -8 -6 -20 3 -11 1 -18 -4 -14 -5 3 -9 -3 -9
-14 0 -21 -33 -56 -43 -45 -4 3 -7 1 -7 -6 0 -7 -4 -9 -10 -6 -5 3 -10 1 -10
-6 0 -9 -3 -9 -14 0 -11 9 -16 9 -22 0 -5 -8 -3 -9 6 -4 9 5 11 4 6 -3 -4 -7
-14 -12 -22 -12 -19 0 -51 -33 -46 -48 2 -6 -2 -20 -8 -31 -8 -16 -8 -21 1
-21 8 0 7 -6 -4 -17 -8 -10 -17 -22 -19 -28 -2 -5 -6 -9 -10 -7 -5 1 -8 -5 -8
-14 0 -8 -4 -12 -10 -9 -5 3 -10 0 -10 -8 0 -8 -9 -17 -20 -20 -11 -3 -19 -9
-18 -14 2 -4 0 -8 -3 -8 -4 0 -16 -8 -27 -18 -12 -11 -25 -16 -31 -13 -6 4 -8
-2 -6 -12 2 -11 -2 -19 -8 -18 -7 0 -13 -2 -14 -7 -5 -16 -49 -54 -57 -49 -5
3 -6 0 -3 -5 4 -6 -2 -21 -13 -33 -11 -13 -20 -19 -20 -15 0 5 -7 0 -16 -11
-8 -10 -12 -12 -8 -4 7 12 5 13 -8 3 -8 -7 -19 -9 -23 -5 -5 4 -5 1 -1 -5 4
-7 2 -13 -5 -13 -6 0 -9 -8 -6 -20 3 -11 1 -18 -4 -14 -8 5 -13 -9 -11 -28 1
-3 -6 -12 -16 -20 -15 -11 -16 -11 -7 2 6 9 2 7 -9 -5 -10 -11 -23 -19 -28
-17 -5 1 -7 -2 -3 -8 3 -5 1 -10 -5 -10 -6 0 -9 -4 -6 -8 7 -12 -23 -54 -34
-47 -12 8 -7 -48 5 -57 6 -5 5 -8 -2 -8 -7 0 -10 -6 -7 -14 7 -18 -23 -25 -53
-14 -16 5 -22 4 -20 -5 1 -7 -6 -11 -15 -11 -10 1 -16 -2 -13 -6 3 -4 -6 -19
-19 -33 -13 -14 -22 -28 -20 -30 3 -2 -2 -10 -11 -17 -13 -11 -15 -10 -9 6 5
17 4 17 -7 -1 -7 -11 -18 -24 -26 -28 -7 -5 -11 -13 -7 -18 3 -5 0 -8 -7 -7
-7 2 -13 -4 -14 -12 0 -9 -8 -14 -19 -12 -11 2 -15 -1 -11 -7 3 -6 -1 -14 -9
-17 -9 -3 -16 -13 -16 -21 0 -8 -5 -11 -12 -7 -7 5 -9 2 -5 -8 14 -37 -53 -43
-76 -7 -7 11 -15 19 -19 19 -13 0 -53 44 -50 54 2 5 -4 6 -12 3 -8 -3 -17 1
-20 9 -3 8 -1 14 4 14 6 0 10 9 10 21 0 15 5 19 15 15 14 -5 20 5 16 27 -1 4
8 3 20 -4 15 -8 19 -8 15 0 -4 6 -3 11 3 11 5 0 13 9 16 20 4 11 11 18 16 15
5 -4 13 5 18 19 6 13 18 29 28 35 14 8 15 10 3 11 -13 0 -13 1 0 10 8 5 15 13
15 18 0 5 11 21 25 35 18 18 28 23 37 15 9 -7 11 -4 8 12 -3 17 0 20 12 16 12
-5 13 -3 6 6 -12 16 -13 49 -1 42 5 -3 5 -10 2 -16 -4 -7 -2 -8 5 -4 6 4 9 12
6 17 -4 5 1 12 10 15 12 5 13 9 4 20 -10 12 -9 13 5 8 14 -5 16 -2 12 20 -3
14 0 26 5 26 6 0 8 4 4 9 -3 6 4 8 15 6 11 -2 18 0 15 6 -4 5 1 9 10 9 10 0
15 7 13 18 -2 12 3 16 16 14 10 -2 15 1 12 6 -7 11 21 25 34 17 8 -5 23 26 25
48 0 5 8 14 17 21 10 7 15 16 11 19 -3 4 -1 7 5 7 7 0 12 8 13 18 0 12 2 13 6
3 4 -10 12 -3 24 20 10 19 18 28 19 20 0 -8 9 -3 21 13 11 14 18 30 14 35 -7
13 32 34 47 25 7 -5 8 -3 3 6 -6 10 -4 12 9 7 10 -4 15 -3 11 3 -3 6 1 13 10
16 9 4 14 13 11 20 -3 8 -1 13 3 11 5 -1 9 2 9 6 1 5 8 14 18 21 9 7 14 18 10
24 -4 7 -1 12 8 12 9 0 15 6 14 13 -2 6 3 11 10 9 6 -1 11 3 10 10 -2 7 2 13
7 13 29 4 63 29 58 43 -4 10 -2 13 5 8 6 -3 13 -2 17 4 3 5 0 10 -7 10 -7 0 2
8 21 18 19 9 36 23 37 30 1 7 0 8 -3 2 -2 -5 -9 -10 -15 -10 -6 0 -4 8 5 18
15 17 17 21 17 42 0 6 8 10 17 10 9 0 14 3 11 6 -8 7 43 62 61 66 8 2 25 14
38 27 13 13 23 20 23 15 0 -5 5 -1 11 9 5 9 7 22 4 27 -3 6 -1 10 5 10 6 0 9
4 6 8 -3 5 1 9 8 9 8 0 12 -7 8 -15z m243 -2 c3 -5 2 -10 -4 -10 -5 0 -13 5
-16 10 -3 6 -2 10 4 10 5 0 13 -4 16 -10z m-2265 -205 c0 -2 -10 -10 -22 -16
-21 -11 -22 -11 -9 4 13 16 31 23 31 12z m52 -37 c35 -20 52 -39 42 -46 -5 -4
-15 -18 -22 -31 -11 -19 -11 -22 0 -16 7 3 5 0 -4 -8 -10 -8 -15 -17 -11 -20
3 -4 1 -7 -5 -7 -7 0 -12 -6 -12 -14 0 -8 -5 -18 -12 -22 -7 -5 -8 -3 -3 7 8
12 6 12 -8 0 -9 -7 -14 -18 -10 -25 4 -6 0 -5 -9 2 -11 9 -18 10 -23 2 -7 -12
-26 -14 -23 -2 2 5 -10 21 -27 36 -16 15 -24 25 -17 21 8 -4 12 1 12 14 0 12
7 21 15 21 8 0 15 5 15 11 0 5 5 7 10 4 6 -3 10 -1 10 5 0 6 5 8 10 5 6 -3 10
-1 10 5 0 6 5 8 10 5 6 -3 10 -1 10 5 0 6 5 8 10 5 6 -3 10 -2 10 4 0 5 -4 12
-10 16 -8 5 -3 35 6 35 2 0 14 -6 26 -12z m522 -101 c-5 -9 -4 -9 6 0 10 9 16
8 27 -3 13 -12 13 -17 1 -31 -11 -14 -11 -16 2 -8 12 7 13 6 3 -7 -7 -8 -9
-19 -5 -23 4 -5 1 -5 -6 0 -15 8 -75 -49 -63 -60 3 -4 -1 -12 -10 -18 -9 -7
-21 -22 -28 -35 -10 -18 -15 -20 -31 -12 -24 13 -40 13 -20 0 11 -7 11 -10 2
-10 -7 0 -11 -4 -8 -9 3 -5 -1 -12 -10 -15 -12 -5 -14 -10 -5 -20 8 -10 5 -15
-15 -24 -31 -15 -44 -15 -24 -1 12 9 11 10 -7 6 -19 -4 -21 -2 -13 12 6 12 5
22 -3 31 -9 10 -9 13 0 17 7 2 10 10 7 17 -3 8 2 20 10 29 8 8 12 17 9 21 -4
3 -1 6 6 6 7 0 10 4 7 9 -3 5 1 12 10 15 9 4 13 2 8 -5 -4 -8 0 -7 15 0 11 7
21 16 21 21 0 5 9 12 20 15 11 3 20 11 20 16 0 6 -6 7 -12 3 -9 -6 -9 -3 0 9
8 9 10 22 6 28 -4 8 -3 9 5 5 6 -4 14 0 17 8 3 9 10 13 15 10 5 -3 9 0 9 6 0
6 5 8 10 5 6 -3 10 -1 10 5 0 6 5 8 10 5 6 -4 7 -12 4 -18z m-134 9 c0 -2 -7
-7 -16 -10 -8 -3 -12 -2 -9 4 6 10 25 14 25 6z m1583 -188 c-2 -5 0 -8 5 -8 6
0 8 -10 6 -22 -2 -13 -2 -18 2 -11 4 10 8 10 19 0 7 -7 10 -16 7 -22 -3 -5 1
-4 10 3 13 10 18 10 24 1 4 -8 2 -15 -5 -17 -10 -3 -10 -6 -1 -12 6 -4 13 -19
14 -34 2 -19 0 -24 -8 -17 -8 7 -12 4 -13 -11 -1 -12 -10 -26 -19 -31 -16 -9
-16 -11 1 -23 12 -9 14 -14 5 -14 -8 0 -4 -8 10 -20 12 -11 26 -17 31 -15 4 3
10 -4 14 -15 3 -11 13 -20 21 -20 8 0 13 -4 9 -9 -3 -5 2 -17 11 -25 8 -9 11
-16 6 -16 -5 0 -4 -15 2 -35 6 -19 15 -35 19 -35 5 0 5 -5 2 -10 -4 -6 -11 -8
-16 -5 -5 3 -6 -1 -3 -9 3 -9 11 -13 18 -9 6 4 5 -1 -3 -10 -7 -9 -9 -17 -3
-17 5 0 12 -8 14 -18 6 -21 -15 -55 -27 -44 -5 4 -6 0 -2 -9 3 -9 0 -22 -6
-28 -9 -9 -8 -14 3 -21 10 -7 11 -10 3 -10 -7 0 -13 -5 -13 -11 0 -5 6 -7 13
-3 8 6 8 3 -1 -9 -8 -9 -11 -21 -7 -27 4 -6 1 -9 -6 -8 -13 3 -16 -3 -18 -46
-1 -15 -9 -27 -21 -31 -11 -4 -18 -10 -15 -15 3 -5 -4 -11 -15 -15 -11 -3 -20
-11 -20 -16 0 -6 6 -7 13 -3 9 6 9 5 0 -8 -7 -8 -9 -19 -5 -23 4 -5 2 -5 -4
-2 -7 4 -14 -2 -17 -13 -3 -11 -10 -20 -17 -20 -6 0 -8 5 -4 12 5 7 3 8 -5 4
-7 -5 -10 -14 -7 -21 3 -9 -2 -12 -14 -10 -14 3 -18 -1 -15 -17 3 -12 -1 -28
-8 -37 -7 -8 -7 -12 -1 -8 7 4 11 -4 10 -23 -1 -17 -5 -30 -9 -30 -5 0 -5 -4
-2 -10 3 -6 -1 -7 -9 -4 -9 4 -16 1 -16 -6 0 -10 -3 -10 -15 0 -13 11 -14 10
-10 -2 4 -9 -1 -18 -10 -22 -11 -4 -14 -2 -9 7 4 6 -3 2 -15 -10 -23 -25 -47
-31 -35 -11 4 7 -6 1 -23 -14 -16 -16 -35 -28 -42 -28 -7 0 -9 -4 -6 -10 4 -6
-4 -9 -17 -7 -14 1 -22 -3 -21 -10 4 -20 -5 -15 -18 8 -8 15 -8 19 0 15 6 -4
14 1 18 11 4 10 20 32 37 48 17 17 31 36 32 43 2 29 5 33 14 27 5 -3 7 0 4 8
-5 13 12 34 29 36 4 1 6 2 5 4 -7 7 28 34 37 29 6 -3 3 3 -5 13 -9 11 -10 16
-2 11 7 -4 12 -2 12 4 0 6 5 8 12 4 7 -5 9 -2 5 9 -4 12 -1 15 14 12 11 -2 17
0 14 5 -3 5 4 15 16 24 12 8 18 19 15 25 -4 5 5 18 19 27 14 9 24 23 21 30 -3
8 0 14 7 15 9 0 9 2 0 6 -7 2 -13 9 -13 14 0 4 7 6 15 3 8 -4 15 -1 15 6 0 9
4 9 17 -1 11 -10 14 -10 9 -1 -9 15 6 16 20 2 8 -8 15 -5 25 7 13 16 12 17 -3
4 -10 -7 -18 -9 -18 -5 0 5 9 15 19 21 19 12 19 53 -1 53 -5 0 -4 -10 2 -22
11 -22 10 -22 -4 -4 -15 19 -51 33 -41 16 3 -5 -4 -11 -14 -15 -11 -3 -18 -12
-15 -19 3 -8 -9 -20 -30 -30 -20 -9 -36 -19 -36 -22 0 -3 5 -2 10 1 26 16 6
-12 -62 -88 -14 -16 -24 -35 -21 -42 2 -7 -1 -16 -8 -21 -8 -4 -10 -3 -5 4 12
20 0 13 -33 -18 -17 -17 -29 -35 -26 -41 4 -5 10 -7 15 -4 5 3 11 1 14 -4 3
-4 -2 -8 -12 -8 -37 0 -44 -3 -39 -18 4 -8 1 -17 -5 -21 -7 -4 -8 -3 -4 4 10
16 -7 15 -23 -1 -11 -10 -12 -9 -6 2 5 8 -2 7 -19 -5 -20 -13 -24 -19 -14 -25
10 -7 9 -9 -4 -9 -10 0 -17 -4 -15 -9 1 -5 -2 -10 -8 -12 -23 -8 -55 -44 -55
-62 0 -11 -3 -18 -6 -14 -4 3 -15 -4 -25 -16 -10 -12 -18 -17 -19 -10 0 6 6
14 13 16 9 4 9 6 0 6 -7 1 -17 -8 -23 -20 -7 -11 -14 -18 -17 -15 -4 3 -12 1
-18 -4 -9 -8 -14 -6 -18 4 -4 11 -1 13 11 10 14 -5 13 -3 -2 10 -11 9 -14 16
-8 16 7 0 12 7 12 16 0 9 5 12 12 8 7 -5 9 -2 5 8 -3 9 -3 19 1 22 13 14 9 32
-9 33 -11 1 -19 -3 -19 -8 0 -6 -4 -7 -10 -4 -6 4 -7 -1 -3 -11 4 -11 2 -15
-4 -11 -16 10 -24 -18 -10 -33 7 -7 8 -10 2 -8 -5 3 -16 0 -23 -8 -7 -8 -8
-14 -2 -14 5 0 10 -7 10 -16 0 -8 -4 -12 -10 -9 -6 3 -7 -1 -4 -10 5 -11 2
-14 -12 -9 -16 5 -16 4 -4 -5 11 -8 19 -6 31 10 14 19 17 20 22 5 5 -11 3 -15
-5 -10 -7 5 -8 3 -2 -7 15 -24 14 -42 -1 -29 -10 8 -15 8 -21 -1 -5 -8 -3 -9
6 -4 9 5 11 4 6 -3 -11 -18 -26 -14 -26 6 0 9 -4 13 -8 7 -8 -11 -83 -14 -76
-3 2 4 0 9 -6 13 -5 3 -10 1 -10 -4 0 -6 -9 -2 -20 9 -11 11 -20 29 -20 40 0
12 -7 20 -16 20 -9 0 -23 8 -30 18 -11 13 -13 13 -11 2 2 -8 2 -12 0 -7 -3 4
-9 4 -15 1 -5 -4 -2 6 8 20 11 18 20 23 24 16 8 -13 22 11 25 42 2 18 -31 32
-41 16 -3 -5 -12 -7 -20 -4 -7 3 -16 0 -20 -6 -5 -7 -2 -8 6 -3 9 6 11 4 5 -5
-6 -10 -15 -6 -36 18 -15 17 -31 27 -35 24 -4 -4 -4 2 0 12 6 17 5 17 -11 5
-14 -12 -16 -12 -8 0 6 11 4 13 -8 8 -9 -3 -18 -1 -20 6 -6 16 24 67 40 67 6
0 10 9 8 20 -2 11 1 23 7 26 7 4 8 2 4 -4 -4 -7 -5 -12 -1 -12 5 0 27 46 29
62 2 14 16 21 16 8 0 -9 5 -8 13 5 9 11 19 15 27 10 8 -5 11 -4 7 1 -3 6 -2
16 4 24 7 13 9 13 9 0 1 -8 10 2 21 23 11 20 26 37 35 37 9 0 12 5 8 12 -5 8
-2 9 12 4 10 -4 15 -4 12 0 -7 7 19 38 34 40 21 3 22 5 10 13 -10 6 -7 10 12
15 14 3 26 12 26 19 0 14 40 43 55 38 6 -1 7 1 3 4 -10 10 11 47 22 40 6 -3 7
1 4 9 -4 10 -1 16 7 16 7 0 9 3 6 7 -4 3 1 15 10 26 10 11 12 17 6 13 -7 -4
-13 -2 -13 3 0 6 7 11 16 11 13 0 14 3 4 15 -10 12 -8 16 15 25 15 6 31 8 36
5 5 -4 14 5 20 19 7 14 17 22 23 19 6 -4 4 2 -4 12 -9 11 -10 16 -2 11 6 -4
12 -2 12 3 0 6 6 10 13 9 6 -2 11 3 9 10 -1 8 2 11 6 8 12 -7 54 29 45 38 -3
3 -1 6 5 6 6 0 11 8 11 18 0 26 6 51 16 59 4 4 5 2 1 -4 -4 -7 -2 -13 3 -13 6
0 11 6 11 13 0 8 12 24 27 38 22 19 25 20 13 3 -8 -11 -2 -6 13 10 17 19 26
38 23 49 -3 11 -2 16 1 13 4 -3 15 2 26 11 15 13 18 14 12 3 -8 -13 -6 -13 8
-1 9 7 14 18 11 23 -3 5 2 8 12 6 13 -2 18 2 16 12 -3 11 2 9 16 -5 11 -11 18
-23 15 -27z m-953 28 c0 -2 -8 -10 -17 -17 -16 -13 -17 -12 -4 4 13 16 21 21
21 13z m-1301 -22 c-6 -8 -5 -14 6 -18 8 -3 15 -11 15 -17 0 -7 -11 0 -25 15
-30 32 -30 32 -6 32 14 0 17 -4 10 -12z m758 -16 c-3 -8 -6 -5 -6 6 -1 11 2
17 5 13 3 -3 4 -12 1 -19z m1353 12 c0 -5 -5 -10 -11 -10 -5 0 -7 5 -4 10 3 6
8 10 11 10 2 0 4 -4 4 -10z m-2064 -26 c-3 -7 0 -12 7 -10 7 1 9 1 4 -1 -4 -3
-5 -8 -3 -12 3 -4 -1 -8 -9 -8 -8 0 -13 2 -11 5 3 2 1 15 -4 28 -7 19 -6 22 6
17 8 -3 13 -12 10 -19z m2 -69 c14 -31 15 -38 3 -30 -6 3 -14 -3 -20 -12 -9
-16 -12 -16 -21 -3 -5 8 -10 11 -10 5 0 -5 -7 -2 -15 8 -19 26 -9 46 22 41 15
-3 22 -1 18 6 -3 5 -2 10 3 10 5 0 14 -11 20 -25z m532 13 c0 -5 -8 -8 -17 -8
-17 -1 -17 -1 -1 -11 14 -8 15 -13 6 -23 -13 -14 -51 -9 -42 5 3 5 -1 9 -8 10
-10 0 -10 2 0 6 6 2 12 10 12 16 0 7 11 12 25 12 14 0 25 -3 25 -7z m1998 -24
c-1 -5 -9 -9 -16 -10 -10 -2 -11 1 -1 12 12 14 24 13 17 -2z m-2278 -54 c0 8
3 10 6 7 4 -4 2 -13 -5 -21 -9 -11 -9 -15 1 -19 8 -3 6 -6 -5 -6 -10 -1 -16
-5 -12 -10 3 -5 0 -13 -6 -17 -8 -5 -9 -3 -4 6 6 10 4 12 -8 7 -22 -8 -28 24
-8 44 11 12 20 13 29 7 8 -7 12 -7 12 2z m194 -37 c3 -8 1 -11 -4 -8 -6 3 -10
0 -11 -7 0 -10 -2 -10 -6 0 -2 6 -10 9 -15 6 -7 -4 -8 -2 -4 4 4 7 3 12 -2 12
-5 0 -9 6 -9 14 0 18 43 0 51 -21z m-374 -64 c0 -5 5 -7 12 -3 7 5 8 3 2 -7
-5 -8 -9 -18 -9 -23 0 -18 -33 -14 -38 5 -3 12 0 19 10 19 8 0 12 -4 8 -9 -3
-5 -1 -12 4 -15 5 -4 8 1 7 10 -1 8 -9 20 -17 25 -11 7 -11 9 4 9 9 0 17 -5
17 -11z m-120 -91 c0 6 8 9 18 7 9 -1 16 -8 15 -14 -2 -6 3 -11 10 -11 8 0 9
-3 1 -8 -6 -4 -16 -17 -23 -29 -6 -13 -21 -23 -32 -23 -13 0 -18 4 -13 13 6 9
5 9 -8 -1 -13 -10 -15 -9 -14 5 1 10 7 28 13 39 7 12 9 25 5 30 -4 5 1 2 11
-5 10 -8 17 -9 17 -3z m234 -90 c-3 -4 0 -8 6 -8 6 0 8 -5 4 -12 -5 -9 -2 -9
9 1 11 9 17 10 17 2 0 -6 5 -11 11 -11 5 0 7 6 3 13 -6 9 -4 9 7 1 8 -6 22
-10 31 -9 20 4 19 -14 -2 -33 -13 -12 -13 -13 0 -6 10 5 8 0 -5 -15 -11 -13
-27 -20 -38 -17 -13 3 -15 1 -8 -8 7 -8 5 -12 -9 -12 -10 0 -18 3 -18 6 1 18
-4 21 -17 10 -12 -10 -15 -10 -15 0 0 8 -9 11 -24 8 -18 -4 -23 -1 -18 10 3 9
1 13 -5 9 -7 -4 -10 0 -9 10 2 9 8 19 14 21 7 2 10 8 6 13 -3 5 2 9 10 9 8 0
18 5 22 12 5 7 3 8 -6 3 -8 -5 -11 -4 -6 3 3 6 15 10 26 9 10 -1 16 -5 14 -9z
m2020 -276 c3 -5 -1 -9 -9 -9 -8 0 -12 4 -9 9 3 4 7 8 9 8 2 0 6 -4 9 -8z
m-1359 -36 c13 -14 20 -28 16 -32 -3 -4 2 -4 11 -1 10 3 20 1 24 -5 4 -7 3 -8
-4 -4 -8 5 -12 -1 -12 -14 0 -12 -4 -19 -9 -15 -5 3 -11 -5 -13 -17 -2 -13 -7
-22 -11 -20 -5 2 -15 -5 -24 -15 -9 -11 -12 -12 -8 -3 4 9 1 8 -8 -3 -15 -18
-16 -18 -26 0 -6 11 -11 13 -11 5 0 -10 -4 -9 -16 2 -8 9 -19 14 -24 11 -4 -3
-11 2 -14 10 -3 9 1 18 8 21 8 3 12 14 9 25 -3 11 -1 19 5 17 5 -2 9 0 9 3 -3
8 54 59 66 59 5 0 20 -11 32 -24z m1285 -30 c0 -2 -8 -10 -17 -17 -16 -13 -17
-12 -4 4 13 16 21 21 21 13z m-1124 -113 c-8 -8 35 -44 45 -37 5 3 9 0 9 -5 0
-6 9 -11 21 -11 11 0 18 -4 14 -9 -3 -5 2 -11 10 -13 14 -3 14 -5 0 -23 -9
-11 -14 -13 -10 -5 4 8 -1 6 -10 -5 -16 -20 -16 -20 -34 4 -13 17 -23 22 -40
16 -19 -6 -20 -9 -9 -23 8 -10 9 -13 1 -9 -6 4 -15 3 -18 -3 -4 -6 -3 -10 2
-9 25 4 45 -2 40 -14 -3 -8 1 -14 8 -14 7 0 11 7 8 16 -4 14 -3 14 5 1 8 -10
8 -18 0 -27 -8 -10 -7 -13 3 -13 10 -1 8 -4 -3 -11 -10 -5 -18 -18 -18 -27 0
-15 -2 -15 -10 -2 -8 13 -10 12 -10 -3 0 -11 -4 -15 -12 -11 -8 5 -9 2 -5 -10
4 -10 3 -15 -3 -11 -6 3 -10 1 -10 -4 0 -6 -8 -11 -17 -11 -9 0 -14 -3 -10 -6
3 -3 -9 -20 -26 -37 -18 -17 -32 -36 -32 -42 0 -5 -8 -9 -18 -9 -9 1 -15 -1
-13 -5 4 -9 -31 -40 -39 -33 -3 4 -3 -1 1 -11 3 -10 1 -17 -6 -17 -6 0 -9 -4
-6 -9 3 -5 -1 -11 -9 -15 -8 -3 -17 -1 -20 5 -4 5 -11 7 -16 4 -5 -4 -9 -2 -9
4 0 5 5 13 11 16 6 4 8 13 5 21 -3 8 -1 14 5 14 6 0 9 7 5 15 -3 8 -1 15 5 15
6 0 7 5 4 10 -3 6 -2 10 4 10 5 0 8 9 6 19 -3 14 1 18 11 14 10 -4 12 0 8 11
-3 9 -2 16 4 16 5 0 8 11 7 25 -3 22 2 27 25 27 3 1 17 -2 33 -6 20 -5 27 -3
27 8 0 8 6 16 13 19 8 3 4 11 -12 26 -13 11 -20 21 -15 21 5 0 15 9 22 21 8
12 9 18 3 14 -6 -3 -11 -1 -11 6 0 7 -3 9 -7 6 -10 -11 -34 30 -27 47 3 9 10
13 15 10 5 -3 18 11 30 30 12 20 28 36 36 36 8 0 11 5 7 11 -4 7 1 7 16 -1 12
-6 19 -14 16 -17z m-346 -5 c0 -9 4 -8 10 2 8 13 14 8 12 -10 0 -3 10 -7 24
-8 13 -1 24 4 24 10 0 7 8 2 17 -12 12 -17 13 -25 5 -28 -7 -2 -12 -8 -12 -13
0 -6 5 -7 12 -3 7 4 8 3 4 -5 -4 -6 -12 -9 -17 -6 -5 4 -9 0 -9 -7 0 -8 -3 -9
-8 -3 -9 13 -35 19 -28 6 3 -5 -6 -11 -19 -14 -14 -2 -28 0 -32 6 -4 6 -1 7 7
2 8 -5 11 -4 6 3 -4 6 -13 9 -20 6 -7 -3 -19 2 -26 10 -10 13 -9 17 4 22 9 3
16 13 16 21 0 8 5 11 12 7 8 -5 9 -2 5 9 -3 10 -2 17 3 17 6 0 10 -6 10 -12z
m755 -89 c11 -16 1 -19 -13 -3 -7 8 -8 14 -3 14 5 0 13 -5 16 -11z m-528 -15
c-3 -3 -12 -4 -19 -1 -8 3 -5 6 6 6 11 1 17 -2 13 -5z m-241 -39 c9 -8 11 -15
5 -15 -5 0 -13 5 -17 11 -4 8 -9 7 -15 -2 -5 -8 -9 -9 -9 -3 0 11 10 24 17 24
3 0 11 -7 19 -15z m-144 -79 c23 3 31 -11 32 -57 1 -28 -2 -35 -13 -31 -9 3
-12 1 -7 -6 4 -6 -2 -19 -14 -29 -11 -10 -20 -23 -20 -30 0 -7 -4 -13 -10 -13
-5 0 -10 -9 -10 -21 0 -16 -4 -19 -17 -15 -10 4 -14 4 -10 0 4 -4 -1 -16 -10
-27 -11 -12 -12 -17 -4 -12 10 6 12 4 7 -4 -5 -7 -15 -10 -23 -7 -8 4 -11 1
-8 -5 4 -6 -1 -17 -11 -25 -11 -9 -13 -12 -5 -8 9 5 12 3 7 -4 -4 -7 -15 -12
-25 -12 -23 0 -48 -27 -62 -69 -10 -29 -13 -31 -28 -16 -10 8 -21 12 -25 8 -4
-5 -7 -3 -6 2 6 28 -1 34 -19 18 -11 -9 -17 -21 -14 -26 3 -6 1 -7 -6 -3 -6 4
-8 12 -5 18 5 7 2 8 -5 4 -7 -5 -10 -14 -8 -20 3 -7 -1 -13 -8 -13 -10 0 -11
5 -4 18 11 22 12 32 0 25 -10 -7 -9 6 3 42 4 12 13 22 21 22 7 0 15 9 18 20 3
13 1 18 -5 13 -7 -4 -8 -1 -4 6 5 7 15 10 23 7 8 -3 11 -1 8 5 -4 5 -1 16 5
25 10 11 16 12 27 3 11 -10 12 -8 7 6 -5 13 -4 16 4 11 7 -4 15 -1 18 8 3 9
13 16 21 16 8 0 12 4 9 9 -3 4 3 16 14 26 21 19 28 41 8 29 -7 -5 -8 -3 -4 5
5 7 10 10 14 7 3 -3 11 2 19 12 8 9 11 11 7 3 -5 -9 -3 -12 4 -7 7 4 12 14 12
22 0 8 5 14 11 14 5 0 7 5 4 10 -3 6 1 13 9 16 9 3 13 11 9 18 -4 6 -1 6 9 -2
13 -10 17 -9 22 10 4 15 9 19 13 12 5 -6 16 -10 25 -8z m1669 -143 c7 -10 9
-15 5 -11 -5 4 -16 2 -24 -5 -23 -19 -61 -16 -59 5 1 14 4 15 16 5 11 -9 13
-9 8 0 -7 11 6 21 29 22 6 1 18 -7 25 -16z m-421 -86 c-8 -9 -9 -7 -4 7 6 17
5 17 -17 6 -24 -13 -24 -13 -4 7 17 17 21 18 29 6 5 -9 3 -19 -4 -26z m-999
-46 c0 10 2 11 6 2 2 -7 18 -13 34 -13 29 0 36 -13 21 -37 -6 -10 -21 -11 -50
-4 -2 1 0 6 3 11 5 8 12 7 23 -2 15 -12 16 -11 3 5 -8 9 -21 15 -30 12 -10 -3
-22 4 -30 18 -13 20 -13 21 2 8 14 -11 17 -11 18 0z m-391 -45 c0 -2 -7 -7
-16 -10 -8 -3 -12 -2 -9 4 6 10 25 14 25 6z"/>
<path d="M1445 2530 c-3 -5 -1 -10 4 -10 6 0 11 5 11 10 0 6 -2 10 -4 10 -3 0
-8 -4 -11 -10z"/>
<path d="M1603 2095 c0 -8 4 -12 9 -9 5 3 6 10 3 15 -9 13 -12 11 -12 -6z"/>
<path d="M1669 2033 c-13 -16 -12 -17 4 -4 9 7 17 15 17 17 0 8 -8 3 -21 -13z"/>
<path d="M1348 1333 c7 -3 16 -2 19 1 4 3 -2 6 -13 5 -11 0 -14 -3 -6 -6z"/>
<path d="M1350 1289 c0 -5 5 -7 10 -4 6 3 10 8 10 11 0 2 -4 4 -10 4 -5 0 -10
-5 -10 -11z"/>
<path d="M2444 1992 c4 -7 2 -21 -5 -30 -12 -15 -11 -15 6 0 16 15 17 20 6 30
-11 11 -13 10 -7 0z"/>
<path d="M335 1910 c-3 -5 -1 -10 4 -10 6 0 11 5 11 10 0 6 -2 10 -4 10 -3 0
-8 -4 -11 -10z"/>
<path d="M2295 1096 c-10 -7 -20 -26 -22 -42 l-4 -28 23 19 c15 13 18 14 10 3
-9 -11 -10 -18 -2 -23 6 -4 10 -3 9 2 -3 13 13 43 20 38 4 -2 8 2 8 10 0 8 -7
15 -16 15 -14 0 -14 2 -1 10 8 5 10 10 4 10 -5 0 -19 -6 -29 -14z"/>
<path d="M2224 1005 c-4 -8 -10 -13 -14 -10 -5 3 -12 0 -16 -7 -4 -7 -4 -10 1
-6 4 4 14 1 22 -7 8 -8 20 -15 26 -14 8 0 8 2 -1 6 -10 4 -10 8 0 21 11 13 11
14 -1 7 -11 -6 -13 -4 -8 8 3 10 4 17 1 17 -2 0 -7 -7 -10 -15z"/>
<path d="M2160 789 c0 -5 5 -7 10 -4 6 3 10 8 10 11 0 2 -4 4 -10 4 -5 0 -10
-5 -10 -11z"/>
<path d="M915 300 c3 -5 8 -10 11 -10 2 0 4 5 4 10 0 6 -5 10 -11 10 -5 0 -7
-4 -4 -10z"/>
<path d="M640 500 c0 -5 5 -10 11 -10 5 0 7 5 4 10 -3 6 -8 10 -11 10 -2 0 -4
-4 -4 -10z"/>
<path d="M1190 2758 c0 -6 -3 -8 -7 -5 -3 4 -12 -1 -20 -11 -8 -9 -11 -11 -7
-3 5 10 3 12 -7 5 -8 -4 -20 -9 -27 -10 -8 -2 -16 -4 -18 -7 -5 -5 32 -49 40
-48 18 2 18 0 0 -14 -18 -14 -18 -14 3 -10 15 2 20 0 17 -10 -6 -15 -31 -13
-65 5 -19 11 -21 10 -16 -4 4 -9 2 -16 -3 -16 -6 0 -10 5 -10 10 0 6 -5 10
-11 10 -6 0 -8 -9 -4 -20 9 -29 -31 -27 -46 3 -12 21 -11 21 8 5 11 -10 24
-18 29 -18 5 0 3 4 -4 9 -7 4 -14 17 -15 29 -1 16 -5 18 -18 12 -9 -5 -20 -6
-24 -2 -4 4 -2 -3 4 -15 6 -13 8 -23 4 -23 -4 0 2 -6 12 -14 17 -12 18 -16 5
-32 -13 -16 -13 -17 0 -9 10 5 9 1 -4 -13 -10 -11 -16 -26 -14 -33 6 -17 39
-20 57 -6 10 8 13 8 8 1 -7 -12 21 -29 31 -19 3 3 -1 5 -9 5 -8 0 -10 3 -4 8
17 12 41 47 28 38 -7 -4 -13 -2 -13 3 0 6 7 12 15 12 19 2 25 4 48 14 10 4 21
5 24 1 3 -3 13 0 21 7 13 10 14 9 7 -3 -6 -12 -5 -13 6 -2 16 14 33 16 24 2
-3 -5 -1 -10 4 -10 14 0 14 17 1 25 -8 5 -7 11 1 21 6 8 9 17 5 21 -3 3 -6 2
-6 -3 0 -5 -10 -10 -22 -11 -13 0 -17 1 -10 4 10 4 9 10 -4 25 -18 19 -17 19
10 9 41 -16 44 -13 11 10 -16 12 -23 19 -13 16 10 -4 18 1 21 14 3 11 0 19 -6
19 -7 0 -5 5 3 10 11 7 11 10 2 10 -7 0 -11 4 -8 8 2 4 -4 9 -15 9 -10 1 -19
-3 -19 -9z m-40 -163 c-7 -9 -15 -13 -19 -10 -3 3 1 10 9 15 21 14 24 12 10
-5z m-105 -4 c3 -5 2 -12 -3 -15 -5 -3 -9 1 -9 9 0 17 3 19 12 6z m45 -7 c0
-8 -19 -13 -24 -6 -3 5 1 9 9 9 8 0 15 -2 15 -3z m-62 -47 c8 -10 6 -13 -7
-13 -11 0 -17 6 -14 13 3 7 6 13 8 13 1 0 7 -6 13 -13z"/>
<path d="M857 2638 c-3 -9 0 -22 7 -29 8 -9 8 -10 -1 -5 -9 5 -13 0 -13 -14 0
-15 -5 -20 -14 -17 -10 4 -13 1 -9 -9 4 -12 0 -14 -22 -8 -20 5 -26 4 -21 -5
9 -13 -18 -43 -30 -33 -5 4 -2 -2 6 -12 10 -13 10 -17 3 -12 -8 4 -13 1 -13
-8 0 -9 5 -16 10 -16 6 0 10 -5 10 -11 0 -5 -5 -7 -12 -3 -7 4 -8 3 -4 -4 5
-9 12 -9 26 0 14 9 22 9 36 -3 11 -9 15 -9 10 -1 -5 8 -1 12 12 12 15 0 18 6
14 31 -2 17 -11 33 -18 36 -8 3 -11 9 -8 14 3 5 10 6 16 3 6 -4 8 -2 5 3 -4 6
1 17 11 24 9 7 14 10 10 5 -11 -12 10 -46 28 -46 8 0 13 -4 10 -9 -3 -5 2 -15
12 -22 16 -13 16 -13 2 5 -13 18 -13 19 1 14 9 -4 16 -1 16 7 0 7 -7 11 -16 8
-11 -3 -10 -1 2 7 15 10 21 8 31 -5 12 -17 13 -17 21 1 9 21 15 57 8 50 -7 -7
-43 27 -37 35 2 4 -5 10 -16 14 -11 3 -20 10 -20 15 0 15 -49 5 -53 -12z m53
-48 c-6 -11 -13 -20 -16 -20 -2 0 0 9 6 20 6 11 13 20 16 20 2 0 0 -9 -6 -20z
m61 -42 c-10 -11 -11 -9 -5 6 5 12 4 17 -3 13 -5 -3 -10 1 -10 9 0 13 2 13 16
0 12 -13 13 -18 2 -28z m-48 17 c-3 -9 -8 -14 -10 -11 -3 3 -2 9 2 15 9 16 15
13 8 -4z m-28 -15 c3 -5 1 -10 -4 -10 -6 0 -11 5 -11 10 0 6 2 10 4 10 3 0 8
-4 11 -10z"/>
<path d="M644 2562 c3 -6 2 -13 -4 -17 -6 -4 -8 -10 -5 -15 3 -5 -2 -17 -12
-27 -19 -19 -27 -63 -12 -63 5 0 9 4 9 10 0 5 7 6 17 3 12 -5 14 -3 8 8 -7 11
-5 11 10 -1 10 -8 16 -10 12 -4 -4 7 0 15 9 18 8 3 12 10 9 16 -3 5 2 10 12
11 10 0 13 3 6 6 -7 2 -13 14 -13 25 0 15 -5 19 -20 15 -11 -3 -18 -1 -15 3 3
5 0 12 -6 16 -7 4 -9 3 -5 -4z"/>
<path d="M173 2518 c4 -12 2 -15 -9 -11 -18 7 -18 -4 1 -23 9 -9 15 -11 15 -4
0 6 5 8 11 4 7 -4 7 2 -1 17 -16 30 -25 39 -17 17z"/>
<path d="M579 2468 c-6 -27 -4 -38 8 -43 9 -3 18 -3 21 0 3 3 0 5 -7 5 -7 0
-11 7 -8 15 4 8 2 17 -3 20 -6 4 -10 5 -11 3z"/>
<path d="M55 2378 c-4 -10 -12 -15 -18 -11 -6 4 -8 0 -4 -10 4 -10 2 -14 -6
-11 -7 2 -13 -4 -14 -16 -1 -13 2 -18 9 -14 7 5 9 2 6 -8 -5 -13 -3 -14 18 -4
22 10 29 25 25 50 -1 5 5 4 13 -3 12 -10 14 -9 9 8 -3 12 -9 19 -13 16 -5 -3
-10 1 -13 7 -3 9 -7 7 -12 -4z"/>
<path d="M490 2339 c0 -5 -6 -7 -12 -3 -7 4 -4 -2 6 -14 11 -12 24 -22 30 -22
6 0 3 5 -6 11 -10 5 -15 16 -12 24 4 8 3 15 0 15 -3 0 -6 -5 -6 -11z"/>
<path d="M915 2220 c-3 -5 -1 -10 4 -10 6 0 11 5 11 10 0 6 -2 10 -4 10 -3 0
-8 -4 -11 -10z"/>
<path d="M113 2014 c-7 -7 -13 -18 -13 -24 0 -6 -4 -8 -10 -5 -5 3 -10 2 -10
-3 0 -6 -7 -13 -16 -16 -15 -6 -15 -4 -3 11 13 16 12 17 -3 4 -10 -7 -18 -20
-18 -28 0 -8 -4 -11 -10 -8 -5 3 -10 1 -10 -5 0 -6 -4 -8 -10 -5 -6 4 -10 -15
-10 -49 0 -43 3 -56 15 -56 8 0 15 5 15 10 0 6 7 10 15 10 8 0 14 3 14 8 -3
20 2 32 15 32 8 0 18 5 22 12 5 7 2 9 -7 4 -8 -4 -6 -1 3 7 10 8 14 18 10 22
-4 5 -2 5 5 2 18 -11 42 3 36 20 -5 12 -3 14 6 8 10 -6 11 -3 2 14 -10 18 -9
20 5 14 12 -4 15 -3 10 5 -4 7 -13 12 -21 12 -7 0 -15 4 -17 9 -1 5 -9 3 -15
-5z"/>
<path d="M466 1962 c-3 -5 1 -9 9 -9 8 0 12 4 9 9 -3 4 -7 8 -9 8 -2 0 -6 -4
-9 -8z"/>
<path d="M2605 1640 c3 -5 11 -10 16 -10 6 0 7 5 4 10 -3 6 -11 10 -16 10 -6
0 -7 -4 -4 -10z"/>
<path d="M990 1586 c0 -2 7 -7 16 -10 8 -3 12 -2 9 4 -6 10 -25 14 -25 6z"/>
<path d="M847 1483 c-4 -3 -1 -13 6 -22 10 -14 10 -14 -5 -3 -20 16 -38 8 -38
-16 0 -11 9 -18 25 -18 15 -1 25 3 25 12 0 8 8 14 18 15 10 0 12 3 5 6 -7 2
-13 11 -13 19 0 15 -12 19 -23 7z"/>
<path d="M2633 655 c0 -8 4 -12 9 -9 5 3 6 10 3 15 -9 13 -12 11 -12 -6z"/>
<path d="M2535 630 c-3 -5 -1 -10 4 -10 6 0 11 5 11 10 0 6 -2 10 -4 10 -3 0
-8 -4 -11 -10z"/>
</g>
</svg>
